<?xml version="1.0" encoding="utf-8"?>
<!-- Generator: Adobe Illustrator 21.0.0, SVG Export Plug-In . SVG Version: 6.00 Build 0)  -->
<svg version="1.1" id="Layer_3" xmlns="http://www.w3.org/2000/svg" xmlns:xlink="http://www.w3.org/1999/xlink" x="0px" y="0px"
	 viewBox="0 0 435 435" style="enable-background:new 0 0 435 435;" xml:space="preserve">
<style type="text/css">
	.st0{fill:#231F20;}
</style>
<path class="st0" d="M428.2,210.4c-1-0.9-0.7-2.2-0.8-3.3l0.1-1.8l0.4,0v-9.7c0-5.6-0.3-11.1-1.2-16.6
	c-7.3-42.5-25.9-79.4-55.4-110.9c-18.4-19.8-40.6-35.7-65.2-47c-24.7-11.4-50.5-18.6-78-18.3h-23.9c-7-0.2-14,0.2-20.9,1.1
	c-43.2,6.6-80.7,25-112.7,54.6c-25,23.1-44.1,52.1-55.5,84.2c-6.2,17.1-10.5,34.6-10.6,53v9.4c0.1,0,0.2,0.1,0.3,0.3l0.1,1.7
	c0,1.2,0.3,2.5-0.9,3.4v8.6c1.1,0.9,0.8,2.2,0.9,3.4c-0.1,0.3-0.3,0.4-0.4,0.4v11.1c0,5.7,0.3,11.4,1.2,17.1
	c3.8,22.7,11.3,44.7,22.6,65c22.3,40.9,54.3,71.6,96.2,91.7c25.1,12,51.4,19.5,79.5,19.3h24.6c6.9,0.3,13.7-0.2,20.5-1
	c43-6.7,80.6-24.9,112.4-54.4c25.3-23.3,44.6-52.5,56-85c6.1-17,10.2-34.2,10.4-52.3v-10l-0.4,0c0-0.6,0-1.1-0.1-1.7h0.1
	c0,0-0.1,0-0.1-0.1c0-1.2-0.3-2.5,0.9-3.4v0.3c0,0,0.1-0.1,0.1-0.1v-8.6C428.3,210.5,428.3,210.4,428.2,210.4z M216.4,404.6
	C111.9,405,26.6,319.9,26.3,215.1C25.9,110.3,111,25,216,24.7c104.6-0.3,189.7,84.8,190.1,189.6S321.4,404.4,216.4,404.6z"/>
<path class="st0" d="M152.4,193c2.7,1.3,5.1,2.3,7.5,3.4c9.2,4.5,14.7,11.6,15,22c0.2,10.1-5.1,16.9-14.1,21
	c-1.9,0.9-2.1,1.8-1.4,3.5c1.9,5.1,4.2,10,5.5,15.3c1.2,4.7,3.3,4.2,6.5,2.5c17.2-9.3,26.2-23.7,26.6-43.2
	c0.3-19.1-8.9-33.2-25.9-41.4c-27.9-13.5-56-26.2-83.9-39.4c-2.4-1.2-3.2-0.4-4,1.6c-1.9,4.2-3.9,8.3-5.7,12.4c-2.7,6-2.8,6,2.7,9.1
	c0.2,0.1,0.2,0.4,0.3,0.6c-19.9,9.6-26,35-18.9,53.9c8.2,21.8,31.2,34.3,54.5,29.6C140.4,239.1,153.8,220,152.4,193z M107.4,220.7
	c-0.2,0-0.3,0-0.5,0c-12.9-0.1-23.3-10.5-23.2-23.4c0-0.1,0-0.1,0-0.2c0.2-12.7,10.9-23,23.9-23c12.7,0,22.5,10.4,22.5,23.6
	C130.2,210.4,120,220.6,107.4,220.7z"/>
<path class="st0" d="M285.7,289c-2.5-0.1-3.8,0.9-4.9,3c-7.9,15-15.9,29.9-23.8,44.9c-0.5,1-0.7,2.5-2.3,2.9
	c-6.1-15.8-12.3-31.5-18.3-47.4c-1-2.7-2.3-3.6-5.2-3.5c-9.6,0.2-19.1,0.2-28.7,0c-2.7-0.1-3.9,0.7-4.9,3.3
	c-5.3,14.1-10.8,28.2-16.3,42.3c-0.7,1.8-1,3.8-2.7,5.5c-0.9-1.5-1.6-2.8-2.3-4.2c-7.7-14.7-15.3-29.2-23.1-43.9
	c-0.7-1.3-0.9-3-3.1-3H120c0,0.5,0.1,0.9,0.2,1.4c15.2,29.4,30.3,58.8,45.3,88.2c0.9,1.8,2.1,2.3,4,2.3c5.6-0.2,11.1-0.3,16.7,0
	c3.4,0.2,5.2-0.9,6.7-4.2c7.7-17.6,15.8-35,24.1-53.2c8.4,18.5,16.5,36.3,24.5,54.4c1,2.2,2.2,3.2,4.8,3.1c5.7-0.2,11.5-0.3,17.1,0
	c2.8,0.1,4.3-0.8,5.6-3.3c14.6-28.3,29.1-56.5,43.6-84.7c0.5-1.1,1.5-2.1,1.3-3.8C304.6,289.1,295.1,289.2,285.7,289z"/>
<path class="st0" d="M231.4,194.5c8.5-0.3,16.9-0.2,25.3-0.3c3.8-0.1,8.8,1.7,11.1-0.8c1.9-2.1,0.7-7,0.6-10.7
	c-0.1-4,1.8-9.5-0.8-11.8c-2.2-2-7.6-0.9-11.6-0.6c-3.7,0.3-4.4-0.9-4.4-4.5c0.2-38.4,0.1-76.8,0.2-115.2c0.1-3.3-0.5-4.8-4.3-4.5
	c-5.3,0.3-10.5,0.3-15.9,0c-3.2-0.2-4,0.7-4,3.9c0.2,23.5,0.1,46.9,0.1,70.3l-0.2-0.1c0,23.5,0.1,46.9-0.1,70.3
	C227.4,193.6,228.1,194.6,231.4,194.5z"/>
<path class="st0" d="M326.1,167.6c-26,0.2-47,21.5-46.8,47.5s21.4,47,47.5,46.8c26-0.2,47-21.4,46.8-47.5
	C373.4,188.4,352.2,167.4,326.1,167.6L326.1,167.6z M326.5,191.7c12.6,0.2,22.8,10.3,23,22.9c0.1,12.7-10.2,23.1-22.9,23.1
	c-12.7,0.1-23.1-10.2-23.1-22.9s10.2-23.1,22.9-23.1C326.4,191.7,326.5,191.7,326.5,191.7z"/>
</svg>
