<svg xmlns="http://www.w3.org/2000/svg" width="495.2" height="496.19" viewBox="0 0 495.2 496.19"><defs><style>.cls-1{fill:#231f20;}.cls-2{fill:#fefefe;}.cls-3{fill:#e4e3e3;}.cls-4{fill:#dcdbdb;}.cls-5{fill:#f1f0f1;}.cls-6{fill:#e7e7e7;}.cls-7{fill:#353132;}.cls-8{fill:#f3f2f3;}.cls-9{fill:#b3b2b2;}.cls-10{fill:#615f5f;}.cls-11{fill:#4a4748;}.cls-12{fill:#e0e0e0;}.cls-13{fill:#dfdfdf;}.cls-14{fill:#4b4849;}.cls-15{fill:#5c595a;}.cls-16{fill:#bab9b9;}.cls-17{fill:#9d9b9b;}.cls-18{fill:#8f8d8d;}.cls-19{fill:#818080;}.cls-20{fill:#8f8e8e;}.cls-21{fill:#747272;}</style></defs><title>Asset 1</title><g id="Layer_1-2"><path class="cls-1" d="M.1 253.1v-10c1-1.2.31-2.6.5-3.9v-13.45c.18-21.4 5.17-41.83 12.37-61.82a245.51 245.51 0 0 1 64.81-98.3c37.28-34.53 81.15-55.95 131.46-63.7a154.33 154.33 0 0 1 24.36-1.33h27.87c32.09-.32 62.17 8.12 91 21.39a242.15 242.15 0 0 1 76.12 54.79c34.39 36.67 56.13 79.78 64.61 129.4a125 125 0 0 1 1.35 19.35v13.57c.19 1.33-.46 2.77.5 4v10c-1 1.22-.31 2.65-.5 4v13.54c-.2 21.08-5.05 41.24-12.09 61a245.92 245.92 0 0 1-65.34 99.24c-37.22 34.41-81 55.72-131.23 63.47a152 152 0 0 1-23.89 1.24h-28.72c-32.81.22-63.52-8.48-92.82-22.51-49-23.47-86.35-59.29-112.35-107a239.64 239.64 0 0 1-26.11-75.67 130.73 130.73 0 0 1-1.4-19.86v-13.55c-.19-1.28.46-2.69-.5-3.9z"/><path class="cls-2" d="M.94 270.12c12.56 123.88 107.87 216.29 232.15 225.15.39.18.51.36.39.55s-.25.28-.38.28q-114.5 0-229 .1c-3.42 0-4.1-.67-4.1-4.1q.19-111 .1-222c.3-.52.58-.54.84.02zm261.17 225.15c124.26-8.85 219.66-101.38 232.14-225.14.27-.54.55-.57.85 0q0 111 .1 222c0 3.42-.67 4.1-4.1 4.1q-114.5-.19-229-.1-.57-.28-.38-.56c.13-.21.28-.3.39-.3zm-29.02-494.34c-123.63 8.27-219.61 101.35-232.15 225.14-.26.56-.55.55-.84 0q0-110.85-.1-221.73c0-3.61.76-4.34 4.35-4.34q114.37.19 228.75.1.57.29.38.56c-.13.18-.26.27-.39.27zm261.16 225.14c-12.44-123.7-108.51-216.87-232.14-225.14-.39-.18-.52-.36-.39-.55s.28-.28.38-.28q114.5 0 229-.1c3.42 0 4.1.67 4.1 4.1q-.19 111-.1 222-.45.79-.85-.03z"/><path class="cls-3" d="M257.11.93h-19q-.55-.29-.36-.56c.12-.18.25-.27.37-.27h19q.56.27.38.55c-.14.19-.26.28-.39.28z"/><path class="cls-4" d="M240.09 495.26h15q.55.28.36.56c-.12.18-.25.27-.37.27h-15q-.56-.27-.38-.55c.14-.18.3-.28.39-.28z"/><path class="cls-5" d="M257.11.93v-.84h5v.84zm-19.01-.83v.84h-5v-.84z"/><path class="cls-6" d="M255.1 496.1v-.83h4q.55.28.36.56c-.12.18-.25.27-.37.27zm-15.01-.84v.83h-4q-.56-.27-.38-.55c.12-.19.24-.28.37-.28z"/><path class="cls-7" d="M494.12 257.12c0-1.41-.33-2.92 1-4v4c-.33.51-.66.49-1 0zm-494.02-4.02c1.3 1.1.93 2.61 1 4q-.51.89-1 0zm495-10c-1.31-1.1-.93-2.61-1-4 .34-.49.66-.51 1 0zm-494.03-4.04c0 1.41.34 2.93-1 4v-4c.33-.49.66-.48 1 0z"/><path class="cls-8" d="M259.1 496.1v-.83h3v.83z"/><path class="cls-9" d="M.95 228.05v3c-.23.6-.51.59-.82.06v-3c.23-.5.51-.54.82-.06z"/><path class="cls-8" d="M236.09 495.27v.83h-3v-.83z"/><path class="cls-9" d="M.92 265.15v3c-.31.48-.59.44-.85 0v-3c.34-.58.62-.59.85 0z"/><path class="cls-10" d="M494.22 262.16v-3q.37-1 .88-.06v3c-.26.48-.55.53-.88.06zm-.01-25.16v-3c.33-.47.62-.43.88.06v3q-.5.94-.88-.06z"/><path class="cls-11" d="M494.21 237l.89.06v2h-1z"/><path class="cls-12" d="M.95 228.05h-.85v-2a7.58 7.58 0 0 1 .84 0z"/><path class="cls-13" d="M494.25 226.07a2.56 2.56 0 0 1 .85 0v2c-.31.55-.58.51-.83 0z"/><path class="cls-14" d="M1.07 239.06h-1v-2q.4-.75.88 0z"/><path class="cls-15" d="M1 237.05h-.88v-2c.25-.51.54-.5.86-.06z"/><path class="cls-16" d="M494.27 228.06a1.78 1.78 0 0 1 .83 0v2q-.46.8-.83 0v-2z"/><path class="cls-17" d="M494.27 230.06a2.77 2.77 0 0 1 .83 0v2c-.31.55-.59.51-.84 0z"/><path class="cls-18" d="M.1 231.1a1.86 1.86 0 0 1 .82-.1v2c-.25.59-.53.58-.84.05z"/><path class="cls-19" d="M494.26 232.05h.84v2q-.44 0-.88-.06l.04-1.94z"/><path class="cls-12" d="M495.1 270.1h-.84v-2c.25-.55.53-.59.83 0zm-495-2h.85v2h-.85z"/><path class="cls-16" d="M495.1 268.1l-.41.07h-.42v-2q.38-.84.83 0z"/><path class="cls-17" d="M495.1 266.1l-.42.05h-.42v-2c.25-.55.53-.6.84 0z"/><path class="cls-20" d="M.92 265.15h-.41l-.41-.05v-2q.47-.81.84.05z"/><path class="cls-19" d="M495.1 264.1h-.84v-2q.44 0 .88-.06z"/><path class="cls-21" d="M.94 263.15a5.47 5.47 0 0 1-.84-.05v-2c.32-.53.6-.53.84.06zm-.84-30.05l.84-.1v2l-.86.06z"/><path class="cls-15" d="M.94 261.16l-.84-.06v-2q.5-.91 1 0z"/><path class="cls-11" d="M495.1 259.1l-.89.06q0-1-.09-2h1z"/><path class="cls-14" d="M1.05 259.12h-1v-2h1q.02.99 0 2z"/><path class="cls-2" d="M247.41 26.4c122-.3 221.41 98.92 221.76 221.25s-98.77 221.8-221.38 222.14c-121.92.34-221.42-98.94-221.79-221.26s98.84-221.83 221.41-222.13z"/><path class="cls-1" d="M248.51 374.87c-9.69 21.29-19.11 41.63-28.13 62.14-1.71 3.89-3.77 5.07-7.77 4.88-6.48-.31-13-.17-19.48 0-2.25 0-3.64-.56-4.73-2.68q-26.4-51.47-52.91-102.85a6.89 6.89 0 0 1-.2-1.56h35.27c2.49 0 2.82 2 3.63 3.49q13.47 25.58 26.9 51.17c.82 1.57 1.71 3.1 2.7 4.89 1.92-2 2.29-4.34 3.11-6.42 6.42-16.39 12.84-32.78 19-49.27 1.14-3.07 2.61-4 5.72-3.92 11.16.17 22.32.21 33.48 0 3.35-.07 4.9.89 6.11 4.12 6.94 18.48 14.16 36.85 21.29 55.27 1.88-.5 2.07-2.19 2.73-3.44 9.29-17.45 18.61-34.89 27.75-52.42 1.33-2.55 2.77-3.57 5.7-3.52 11 .18 22 .07 32.92.07.24 1.94-.87 3.1-1.52 4.38q-25.46 49.37-50.88 98.8c-1.51 3-3.18 4-6.48 3.91-6.65-.28-13.33-.25-20 0-3 .11-4.38-1-5.57-3.65-9.34-20.95-18.85-41.79-28.64-63.39zm-75.36-152.18c1.66 31.62-13.93 53.89-41.05 59.44s-54.1-9.13-63.69-34.52c-8.32-22.09-1.24-51.73 22-62.92-.15-.23-.23-.55-.44-.67-6.46-3.63-6.45-3.62-3.19-10.61 2.25-4.82 4.53-9.62 6.65-14.5 1-2.35 1.91-3.27 4.74-1.94 32.61 15.37 65.45 30.24 97.88 46 19.81 9.6 30.6 26 30.22 48.33-.38 22.66-10.87 39.63-31 50.41-3.83 2-6.18 2.57-7.56-2.85-1.54-6.08-4.17-11.9-6.44-17.78-.78-2-.65-3.07 1.62-4.13 10.35-4.84 16.65-12.68 16.39-24.54-.27-12.23-6.75-20.52-17.52-25.73-2.76-1.31-5.42-2.52-8.61-3.99zm258.06 25.05a55 55 0 1 1-55.21-54.64 54.91 54.91 0 0 1 55.21 54.64zm-170.21-109.83c0-27.32.08-54.64-.1-82 0-3.83 1-4.83 4.74-4.64a155.76 155.76 0 0 0 18.48 0c4.41-.3 5.07 1.37 5.05 5.33-.14 44.81 0 89.63-.19 134.44 0 4.07.8 5.52 5.08 5.18 4.6-.36 10.85-1.63 13.47.73 3 2.73.79 9.07.92 13.83.12 4.3 1.48 10.08-.71 12.52-2.56 2.86-8.46.82-12.9.91-9.82.2-19.65 0-29.47.36-3.84.14-4.64-1.06-4.61-4.72.16-27.32.09-54.64.09-82z"/><path class="cls-2" d="M147.17 228.33a26.63 26.63 0 0 1-27.07 26.76 27.21 27.21 0 0 1-27.1-27.47c.15-14.77 12.69-26.81 27.89-26.79 14.83.02 26.34 12.08 26.28 27.5zm255.94 19.59a26.86 26.86 0 1 1-26.76-26.73 27.1 27.1 0 0 1 26.76 26.73z"/></g></svg>