<svg xmlns="http://www.w3.org/2000/svg" width="590.17" height="375.22" viewBox="0 0 590.17 375.22"><defs><style>.cls-1{fill:#231f20;}.cls-2{fill:#fefefe;}.cls-3{fill:#abaaaa;}.cls-4{fill:#454243;}.cls-5{fill:#858283;}.cls-6{fill:#8a8889;}.cls-7{fill:#332f30;}.cls-8{fill:#747172;}.cls-9{fill:#777475;}.cls-10{fill:#767374;}.cls-11{fill:#322e2f;}.cls-12{fill:#888687;}.cls-13{fill:#4e4b4c;}.cls-14{fill:#b3b1b2;}.cls-15{fill:#5f5c5d;}.cls-16{fill:#454142;}.cls-17{fill:#444041;}.cls-18{fill:#b2b0b1;}.cls-19{fill:#4a4748;}.cls-20{fill:#403d3d;}.cls-21{fill:#403c3d;}.cls-22{fill:#4d4a4b;}.cls-23{fill:#a8a6a7;}.cls-24{fill:#e2e2e2;}.cls-25{fill:#8c8a8b;}.cls-26{fill:#716f70;}.cls-27{fill:#585556;}.cls-28{fill:#7d7b7b;}.cls-29{fill:#5a5758;}.cls-30{fill:#7d7b7c;}.cls-31{fill:#999798;}.cls-32{fill:#b6b4b5;}.cls-33{fill:#d9d8d8;}.cls-34{fill:#646162;}.cls-35{fill:#848283;}.cls-36{fill:#433f40;}.cls-37{fill:#242021;}</style></defs><title>Asset 1</title><g id="Layer_1-2"><path class="cls-1" d="M250.08.12h6c1.32 1 2.84.3 4.26.5h3.72c13.47-.38 24.94 5.09 35.65 12.48a65.66 65.66 0 0 1 14.1 12.62c3.88 4.81 4.17 4.85 8.3.42a73.33 73.33 0 0 1 39.26-22.49 75.35 75.35 0 0 1 83.95 41.26c.49 1 .68 2.23 2 3.25 1.35-2.31 2.28-4.77 3.56-7 14.43-25.68 36.88-38.66 65.82-39.16 32.05-.53 58.36 19.19 69.72 46.49a44.44 44.44 0 0 1 3.16 17.56v3.74c.2 1.43-.47 3 .5 4.31v6c-.93 1.4-.33 3-.5 4.47v206c.17 1.49-.42 3.08.5 4.49v6c-1 1.32-.3 2.84-.5 4.26v3.72c.25 13.33-5 24.67-13.05 34.8-15.44 19.53-36 30.13-60.66 29.42-30.79-.89-53.73-15.7-67.4-43.85a4.77 4.77 0 0 0-1.54-2.32c-14.18 30.18-38.14 47.15-71.29 46-38.42-1.38-62.34-23.28-72.59-60.66-28.91 39.16-67.29 60-115.57 62.16h-11.26c-1 .14-2.2-.37-3.14.5h-15c-1-.88-2.12-.36-3.19-.5h-11.32c-47.55-1.26-87.69-19-119.86-54.18-9.79-10.69-16.55-23.34-21-37.15-1.71-5.1-1.96-10.42-2.13-15.74v-3c-.16-1.15.39-2.4-.5-3.44v-7c1-1.34.3-2.87.5-4.3v-3.8c-.55-12.39 4.2-23.13 10.74-33.16 3.81-5.84 7.9-11.6 13.62-15.83 3.41-2.52 3.78-5.13 1.81-9a126.11 126.11 0 0 1-13.46-42.65c-4.17-34.09 3.48-65.22 23.72-93 18.56-25.34 43.42-41.74 73.85-49.72 5.83-1.53 11.82-1.69 17.79-2h7.21c1.08-.15 2.26.37 3.22-.5h9c1 .87 2.12.36 3.19.5h7.21c14.82-.21 28.58 4 41.77 10.3 4.05 1.93 7.24 1.89 11.09-.54 9.55-6 19.84-10.13 31.44-9.76h3.77c1.18-.16 2.45.38 3.53-.5z"/><path class="cls-2" d="M187.1 374.27c31.87-3.36 61.47-12.66 86.84-33.08a137.91 137.91 0 0 0 27-29.24c.91-1.31 1.88-2.57 3.38-4.61 3.13 21 12.55 37.43 28.82 49.71a71.54 71.54 0 0 0 42.72 14.62c28.25.54 58.05-15.19 70.84-49 1.81.77 1.73 2.65 2.29 4 12.69 30.36 42.44 47.62 76.82 44.51 30.09-2.73 56.46-27 62.9-57.87.27-1.3.32-2.64.48-4q.21-1.1.84-.17c0 20.48-.1 41 .09 61.43 0 3.62-.61 4.68-4.52 4.67q-191.3-.19-382.59-.11h-16q-.58-.3-.37-.58a.53.53 0 0 1 .46-.28zm-58.1-373.27c-58.94 6-106.63 52.68-114.09 111.61a123.92 123.92 0 0 0 14.55 76.65c1.78 3.26 1.65 4.78-1.25 7.22-15.38 12.95-24.77 29.34-27.31 49.45q-.18 1.11-.83.19.01-120.84-.07-241.68c0-3.38.42-4.44 4.25-4.44 41.61.19 83.22.12 124.83.12q.92.51-.08.88zm460.24 65c-3-28.93-27.82-55.21-57.43-60.84-36.11-6.86-69.6 11.31-83.45 45.29l-.86 2.18c-1.84-.32-1.57-1.85-1.94-2.77a73.48 73.48 0 0 0-124.48-20.11c-2.57 3-3.51 3.27-6.15 0-13.07-16.22-29.93-25.99-50.72-28.75q-1.06-.28-.13-.86 160.79-.02 321.59-.14c3.94 0 4.53 1.09 4.5 4.69-.19 20.47-.09 40.95-.09 61.42q-.62.89-.84-.11zm-588.34 201.27c3.24 24.28 15 44.17 32.34 60.83 26 25 57.55 38.73 93 44 5.92.87 11.87 1.49 17.81 2.22.4.17.54.35.42.54s-.25.3-.38.3h-144.01v-108q.59-.98.82.11zm242.04-266.33a72.93 72.93 0 0 0-33.13 12.46c-2.76 1.88-4.73 2-7.59.5a124.85 124.85 0 0 0-44-13q-1.05-.28-.1-.81h85q.88.61-.18.85z"/><path class="cls-3" d="M589.24 291.92c-.05-8.82-.15-17.63-.15-26.45v-175.17c0-2.33.1-4.65.15-7q.18-1.11.84-.2v209q-.66.9-.84-.18z"/><path class="cls-4" d="M260.21 1c-1.47.14-3 .37-4.13-.89h4q.5.23.39.55c-.08.23-.16.34-.26.34z"/><path class="cls-5" d="M260.21 1a3.25 3.25 0 0 1-.13-.89h4a2.11 2.11 0 0 0 .13.86z"/><path class="cls-6" d="M242.94.94a3.4 3.4 0 0 1 .14-.83h4q.92.66-.2.8z"/><path class="cls-7" d="M1 250c.05 1.46.38 3-.92 4.12v-4c.25-.47.56-.53.92-.12z"/><path class="cls-8" d="M1 250a4 4 0 0 1-.92.12v-4a.49.49 0 0 1 .83-.19z"/><path class="cls-9" d="M589.24 66a.61.61 0 0 1 .84.17v4q-.62.92-.92-.15z"/><path class="cls-7" d="M589.16 70a4.65 4.65 0 0 0 .92.15v4c-1.31-1.15-.99-2.71-.92-4.15z"/><path class="cls-10" d="M590.08 309.12l-.38.27-.46-.1-.08-4q.31-1.06.92-.14z"/><path class="cls-11" d="M590.08 305.12a4.13 4.13 0 0 0-.92.14c-.07-1.46-.38-3 .92-4.14z"/><path class="cls-12" d="M.9 267.27l-.45.13-.37-.28v-3q.56-.93.9.1z"/><path class="cls-13" d="M589.24 291.92a1.49 1.49 0 0 1 .84.2v3a2.85 2.85 0 0 1-.84-3.2z"/><path class="cls-14" d="M129 1q.05-.42.08-.84h3c.4.22.52.41.36.58a.61.61 0 0 1-.44.23z"/><path class="cls-15" d="M152 374.26h3q1 .37.07.89h-3q-.53-.25-.38-.54c.11-.24.21-.35.31-.35z"/><path class="cls-16" d="M155.08 375.12a8.47 8.47 0 0 0-.07-.89c1.15-.12 2.28-.19 3.07.89z"/><path class="cls-17" d="M173.08 375.12c.78-1.07 1.91-1 3-.94q.53.33.34.64c-.13.2-.25.3-.38.3z"/><path class="cls-18" d="M182.14 374.3h3q.51.31.32.59c-.12.18-.24.27-.37.27h-3q-.59-.32-.37-.57a.58.58 0 0 1 .42-.29z"/><path class="cls-13" d="M1 264.22a5.75 5.75 0 0 0-.9-.1v-3c1.09.8 1.06 1.88.9 3.1z"/><path class="cls-19" d="M246.88.92q.08-.41.2-.8h3a2.92 2.92 0 0 1-3.2.8z"/><path class="cls-20" d="M139.08.12c-.81 1.07-1.95 1-3.09.9q-.47-.35-.27-.63c.12-.18.24-.27.36-.27z"/><path class="cls-21" d="M151.16 1c-1.14.09-2.27.15-3.08-.9h3q.53.26.39.57c-.1.24-.2.33-.31.33z"/><path class="cls-22" d="M590.08 83.12a1.46 1.46 0 0 1-.84.2 2.86 2.86 0 0 1 .84-3.2z"/><path class="cls-23" d="M158.08.12a2.07 2.07 0 0 1 .1.81h-3c-.43-.14-.59-.31-.47-.5s.26-.31.39-.31z"/><path class="cls-24" d="M185.08 375.12a3.65 3.65 0 0 1 0-.86h2a7 7 0 0 0 0 .85z"/><path class="cls-25" d="M182.14 374.3q0 .41-.06.81h-2q-.59-.32-.37-.59a.57.57 0 0 1 .42-.25z"/><path class="cls-26" d="M180.13 374.28q0 .42-.05.84h-2q-.59-.33-.37-.61a.57.57 0 0 1 .43-.26z"/><path class="cls-27" d="M178.14 374.25a8.62 8.62 0 0 0-.06.87h-2a9.27 9.27 0 0 1 0-.94z"/><path class="cls-28" d="M155.08.12q.05.41.08.81h-2q-1-.34-.08-.86z"/><path class="cls-29" d="M153.08.12a7 7 0 0 0 .08.86h-2q-.06-.45-.08-.9z"/><path class="cls-30" d="M152 374.26q.05.43.07.86h-2q-.54-.25-.38-.54c.11-.2.22-.3.33-.3z"/><path class="cls-31" d="M150 374.28v.84h-2q-.54-.25-.38-.54c.11-.2.23-.29.34-.29z"/><path class="cls-32" d="M148 374.28v.84h-2q-.54-.25-.38-.54c.11-.2.22-.29.34-.29z"/><path class="cls-33" d="M146 374.28a7.37 7.37 0 0 1 0 .83h-2a6.44 6.44 0 0 0 0-.84z"/><path class="cls-34" d="M136.08.12a6.34 6.34 0 0 1-.08.88h-2q-.49-.33-.3-.6c.12-.17.24-.26.36-.26z"/><path class="cls-35" d="M134.08.12a5.91 5.91 0 0 1-.08.88l-2-.06q0-.4.08-.81z"/><path class="cls-2" d="M135.06 250.29c-55.33-4.69-100.36-42.87-112-94.93-14.71-66 26.52-130.86 92.76-146a124 124 0 0 1 148.71 92.07 120 120 0 0 1 3 22.24c.12 2.35-.6 5.06 3.61 4.8s2.7-3.14 2.59-5c-2.56-43.09-21.73-76.82-57.15-101.37-1.09-.76-2.21-1.48-3.31-2.22a6.52 6.52 0 0 1-.66-.75 62.56 62.56 0 0 1 28.64-11.76c28.6-4.16 52 5.27 70.19 27.78 2.08 2.58 2.59 4.55.82 7.84a68.72 68.72 0 0 0-7.75 41 54 54 0 0 1 .26 6v195.48a29.84 29.84 0 0 1-4.58 16.45c-21.47 34.57-52.77 55-92.13 62.75-42.89 8.4-85.23 5.74-125.87-11.55-25.34-10.78-47-26.65-61.69-50.38-15.5-24.98-19.82-51.24-6.5-78.74a70.85 70.85 0 0 1 17.79-22.61c2.28-2 3.48-2.45 5.62.53 20.72 28.75 48.7 46.18 83.47 52.72a75.94 75.94 0 0 0 16.86 1.65c4.08 1.15 7.8-.82 11.68-1.36 22.53-1.66 43.34-8.28 62.13-21.08 7.37-5 13.36-11.48 19.57-17.73.9-.9 1.88-1.87 1.45-3.65-2.48-.08-3.37 1.88-4.65 3.25-19.92 21.44-44.92 32.61-73.67 36.05a13.56 13.56 0 0 1-2.5-.14c-5.62.24-11.1-1.23-16.69-1.34zm315.32 34.04c0-7 .1-14-.05-21-.06-2.6.74-3.56 3.39-3.42 4.82.26 9.66.17 14.48.41 39.83 2 73.27-27.46 76.65-67.67 3.17-37.7-25.39-72.46-63.62-77.35-9-1.15-18 .11-27 0-3 0-4-.79-4-3.91 0-11.83-.32-23.65-.36-35.48-.1-34 27.32-63.77 60.69-65.89 37.12-2.36 68 22.12 72.71 57.4 1 7.06-.13 14-.14 20.92 0 66.16-.15 132.32.12 198.47 0 10.5.94 20.87-2.17 31.16-9.54 31.51-41.63 51.92-74 46.87-33.88-5.29-58-33.8-57.2-67.58.1-4.33 0-8.66 0-13zm-6.6 2.21c-.5 8.6 1.11 19.08-1.64 29.46-8.19 31-37.09 51.26-70.48 49.22-30.6-1.87-56.62-26.52-60.84-57.26-.95-6.88.06-13.61.06-20.41.05-66.64.23-133.29-.16-199.93-.07-11.9-.56-23.56 3.8-34.88a67.42 67.42 0 0 1 71.23-42.5c29.67 3.53 54.31 27 57.68 57 1.68 15 .28 30.27.37 45.42 0 2.46-1.28 2.65-3.15 2.61-6.83-.15-13.66-.14-20.48-.39a73 73 0 0 0-75.91 71.12c-1 42 34.06 76.23 76.09 74.4 6.32-.28 12.66-.13 19-.48 3.37-.18 4.69.67 4.54 4.33-.32 6.75-.11 13.63-.11 22.29zm.94-32.31c-8.49 0-17-.17-25.48 0-36.69.84-66-26.24-68.68-63.66-2.46-33.79 24.41-65.24 59.27-69.29 6.32-.74 12.65.16 19 .15 13.49 0 27 .12 40.47-.33 37-1.22 66.63 25.27 69.3 62.81 2.4 33.7-21.93 65.32-58.42 69.75-11.65 1.41-23.61.22-35.43.22z"/><path class="cls-36" d="M135.06 250.29h18c-.61 3.36-4.06 1.69-5.76 3.31.41 1.49 2.56 1.19 3 2.7a30.27 30.27 0 0 1-12.55 0c.48-.1 1-.24 1.45-.29 1.72-.19 3.93.34 3.77-2.58-.14-2.54-2.1-2.06-3.67-2.18s-2.99.15-4.24-.96z"/><path class="cls-37" d="M150.32 256.26c-1.88-1.31-6.27 1.64-6-2.87.23-3.77 4-1.47 6-2.22.91-.33 1.83-.61 2.75-.91 30.33-3.58 56.54-15.24 76.47-39.11 1.68-2 2.67-2 4.73-.52 2.56 1.86 1.36 3.05 0 4.68-19 22.36-43.36 35-72.06 39.85a54.5 54.5 0 0 1-11.89 1.1z"/><path class="cls-1" d="M157.2 128.93a13.42 13.42 0 0 1-13.78 12.92 13.7 13.7 0 0 1-13.1-13.74 13.5 13.5 0 0 1 14.18-13 13.17 13.17 0 0 1 12.7 13.82z"/></g></svg>