<?xml version="1.0" encoding="utf-8"?>
<!-- Generator: Adobe Illustrator 21.0.0, SVG Export Plug-In . SVG Version: 6.00 Build 0)  -->
<svg version="1.1" id="Layer_1" xmlns="http://www.w3.org/2000/svg" xmlns:xlink="http://www.w3.org/1999/xlink" x="0px" y="0px"
	 viewBox="0 0 435 435" style="enable-background:new 0 0 435 435;" xml:space="preserve">
<style type="text/css">
	.st0{fill:#231F20;}
	.st1{fill:#ABAAAA;}
	.st2{fill:#454243;}
	.st3{fill:#858283;}
	.st4{fill:#8A8889;}
	.st5{fill:#332F30;}
	.st6{fill:#747172;}
	.st7{fill:#777475;}
	.st8{fill:#767374;}
	.st9{fill:#322E2F;}
	.st10{fill:#888687;}
	.st11{fill:#4E4B4C;}
	.st12{fill:#B3B1B2;}
	.st13{fill:#5F5C5D;}
	.st14{fill:#454142;}
	.st15{fill:#444041;}
	.st16{fill:#B2B0B1;}
	.st17{fill:#4A4748;}
	.st18{fill:#403D3D;}
	.st19{fill:#403C3D;}
	.st20{fill:#4D4A4B;}
	.st21{fill:#A8A6A7;}
	.st22{fill:#E2E2E2;}
	.st23{fill:#8C8A8B;}
	.st24{fill:#716F70;}
	.st25{fill:#585556;}
	.st26{fill:#7D7B7B;}
	.st27{fill:#5A5758;}
	.st28{fill:#7D7B7C;}
	.st29{fill:#999798;}
	.st30{fill:#B6B4B5;}
	.st31{fill:#D9D8D8;}
	.st32{fill:#646162;}
	.st33{fill:#848283;}
	.st34{fill:#FEFEFE;}
	.st35{fill:#433F40;}
	.st36{fill:#242021;}
</style>
<title>Asset 1</title>
<g id="Layer_1-2">
	<path class="st0" d="M186.2,75.7h4.4c1,0.7,2.1,0.2,3.1,0.4h2.7c9.8-0.3,18.2,3.7,26,9.1c3.9,2.6,7.3,5.7,10.3,9.2
		c2.8,3.5,3,3.5,6,0.3c7.6-8.3,17.6-14.1,28.6-16.4c24.9-5.4,50.2,7.1,61.2,30.1c0.4,0.7,0.5,1.6,1.5,2.4c1-1.7,1.7-3.5,2.6-5.1
		c10.5-18.7,26.9-28.2,48-28.5c23.4-0.4,42.5,14,50.8,33.9c1.6,4.1,2.4,8.4,2.3,12.8v2.7c0.1,1-0.3,2.2,0.4,3.1v4.4
		c-0.7,1-0.2,2.2-0.4,3.3v150.1c0.1,1.1-0.3,2.2,0.4,3.3v4.4c-0.7,1-0.2,2.1-0.4,3.1v2.7c0.2,9.7-3.6,18-9.5,25.4
		c-11.3,14.2-26.2,22-44.2,21.4c-22.4-0.6-39.2-11.4-49.1-32c-0.2-0.7-0.6-1.3-1.1-1.7c-10.3,22-27.8,34.4-52,33.5
		c-28-1-45.4-17-52.9-44.2c-21.1,28.5-49,43.7-84.2,45.3h-8.2c-0.7,0.1-1.6-0.3-2.3,0.4h-10.9c-0.7-0.6-1.5-0.3-2.3-0.4h-8.2
		c-34.7-0.9-63.9-13.8-87.4-39.5c-7.1-7.8-12.1-17-15.3-27.1c-1.2-3.7-1.4-7.6-1.6-11.5v-2.2c-0.1-0.8,0.3-1.7-0.4-2.5v-5.1
		c0.7-1,0.2-2.1,0.4-3.1v-2.8c-0.4-9,3.1-16.9,7.8-24.2c2.8-4.3,5.8-8.5,9.9-11.5c2.5-1.8,2.8-3.7,1.3-6.6
		c-5.1-9.7-8.4-20.2-9.8-31.1c-3-24.8,2.5-47.5,17.3-67.8c13.5-18.5,31.6-30.4,53.8-36.2c4.2-1.1,8.6-1.2,13-1.5h5.3
		c0.8-0.1,1.6,0.3,2.3-0.4h6.6c0.7,0.6,1.5,0.3,2.3,0.4h5.3c10.8-0.2,20.8,2.9,30.4,7.5c3,1.4,5.3,1.4,8.1-0.4
		c7-4.4,14.5-7.4,22.9-7.1h2.7C184.5,76,185.4,76.3,186.2,75.7L186.2,75.7z"/>
	<path class="st1" d="M433.4,288.4c0-6.4-0.1-12.8-0.1-19.3V141.4c0-1.7,0.1-3.4,0.1-5.1c0.1-0.5,0.3-0.6,0.6-0.1v152.3
		C433.7,288.9,433.5,288.9,433.4,288.4z"/>
	<path class="st2" d="M193.6,76.3c-1.1,0.1-2.2,0.3-3-0.6h2.9c0.2,0.1,0.3,0.2,0.3,0.4C193.7,76.3,193.7,76.3,193.6,76.3z"/>
	<path class="st3" d="M193.6,76.3c-0.1-0.2-0.1-0.4-0.1-0.6h2.9c0,0.2,0,0.4,0.1,0.6L193.6,76.3z"/>
	<path class="st4" d="M181,76.3c0-0.2,0-0.4,0.1-0.6h2.9c0.4,0.3,0.4,0.5-0.1,0.6L181,76.3z"/>
	<path class="st5" d="M4.7,257.8c0,1.1,0.3,2.2-0.7,3v-2.9C4.2,257.6,4.4,257.5,4.7,257.8z"/>
	<path class="st6" d="M4.7,257.8c-0.2,0.1-0.4,0.1-0.7,0.1V255c0.1-0.2,0.3-0.3,0.4-0.2c0.1,0,0.1,0.1,0.2,0.1L4.7,257.8z"/>
	<path class="st7" d="M433.4,123.7c0.2-0.1,0.5-0.1,0.6,0.1v2.9c-0.3,0.4-0.5,0.4-0.7-0.1L433.4,123.7z"/>
	<path class="st5" d="M433.3,126.6c0.2,0.1,0.4,0.1,0.7,0.1v2.9C433,128.8,433.3,127.7,433.3,126.6z"/>
	<path class="st8" d="M434,300.9l-0.3,0.2l-0.3-0.1l-0.1-2.9c0.2-0.5,0.4-0.5,0.7-0.1L434,300.9z"/>
	<path class="st9" d="M434,298c-0.2,0-0.5,0-0.7,0.1c-0.1-1.1-0.3-2.2,0.7-3V298z"/>
	<path class="st10" d="M4.6,270.4l-0.3,0.1L4,270.3v-2.2c0.3-0.5,0.5-0.4,0.7,0.1L4.6,270.4z"/>
	<path class="st11" d="M433.4,288.4c0.2,0,0.4,0,0.6,0.1v2.2C433.3,290.1,433.1,289.2,433.4,288.4z"/>
	<path class="st12" d="M98,76.3c0-0.2,0-0.4,0.1-0.6h2.2c0.3,0.2,0.4,0.3,0.3,0.4c-0.1,0.1-0.2,0.2-0.3,0.2L98,76.3z"/>
	<path class="st13" d="M114.7,348.4h2.2c0.5,0.2,0.5,0.4,0.1,0.6h-2.2c-0.3-0.1-0.3-0.3-0.3-0.4
		C114.6,348.4,114.6,348.4,114.7,348.4z"/>
	<path class="st14" d="M117,349c0-0.2,0-0.4-0.1-0.6c0.8-0.1,1.7-0.1,2.2,0.6H117z"/>
	<path class="st15" d="M130.1,349c0.6-0.8,1.4-0.7,2.2-0.7c0.3,0.2,0.3,0.3,0.2,0.5c-0.1,0.1-0.2,0.2-0.3,0.2H130.1z"/>
	<path class="st16" d="M136.7,348.4h2.2c0.2,0.2,0.3,0.3,0.2,0.4c-0.1,0.1-0.2,0.2-0.3,0.2h-2.2c-0.3-0.2-0.4-0.3-0.3-0.4
		C136.4,348.5,136.6,348.4,136.7,348.4L136.7,348.4z"/>
	<path class="st11" d="M4.7,268.2c-0.2,0-0.4-0.1-0.7-0.1v-2.2C4.8,266.5,4.8,267.3,4.7,268.2z"/>
	<path class="st17" d="M183.9,76.3c0-0.2,0.1-0.4,0.1-0.6h2.2C185.6,76.4,184.7,76.6,183.9,76.3z"/>
	<path class="st18" d="M105.3,75.7c-0.6,0.8-1.4,0.7-2.3,0.7c-0.2-0.2-0.3-0.3-0.2-0.5c0.1-0.1,0.2-0.2,0.3-0.2H105.3z"/>
	<path class="st19" d="M114.1,76.3c-0.8,0.1-1.7,0.1-2.2-0.7h2.2c0.3,0.1,0.4,0.3,0.3,0.4C114.3,76.3,114.2,76.3,114.1,76.3z"/>
	<path class="st20" d="M434,136.2c-0.2,0.1-0.4,0.2-0.6,0.1c-0.3-0.8-0.1-1.8,0.6-2.3V136.2z"/>
	<path class="st21" d="M119.1,75.7c0.1,0.2,0.1,0.4,0.1,0.6H117c-0.3-0.1-0.4-0.2-0.3-0.4c0.1-0.1,0.2-0.2,0.3-0.2H119.1z"/>
	<path class="st22" d="M138.8,349c0-0.2,0-0.4,0-0.6h1.5c0,0.2,0,0.4,0,0.6L138.8,349z"/>
	<path class="st23" d="M136.7,348.4c0,0.2,0,0.4,0,0.6h-1.5c-0.3-0.2-0.4-0.3-0.3-0.4c0.1-0.1,0.2-0.2,0.3-0.2L136.7,348.4z"/>
	<path class="st24" d="M135.2,348.4c0,0.2,0,0.4,0,0.6h-1.5c-0.3-0.2-0.4-0.3-0.3-0.4c0.1-0.1,0.2-0.2,0.3-0.2L135.2,348.4z"/>
	<path class="st25" d="M133.8,348.4c0,0.2,0,0.4,0,0.6h-1.5c0-0.2,0-0.5,0-0.7L133.8,348.4z"/>
	<path class="st26" d="M117,75.7c0,0.2,0,0.4,0.1,0.6h-1.5c-0.5-0.2-0.5-0.4-0.1-0.6L117,75.7z"/>
	<path class="st27" d="M115.5,75.7c0,0.2,0,0.4,0.1,0.6h-1.5c0-0.2,0-0.4-0.1-0.7L115.5,75.7z"/>
	<path class="st28" d="M114.7,348.4c0,0.2,0,0.4,0.1,0.6h-1.5c-0.3-0.1-0.4-0.3-0.3-0.4c0.1-0.1,0.2-0.2,0.2-0.2L114.7,348.4z"/>
	<path class="st29" d="M113.3,348.4v0.6h-1.5c-0.3-0.1-0.4-0.3-0.3-0.4c0.1-0.1,0.2-0.2,0.2-0.2L113.3,348.4z"/>
	<path class="st30" d="M111.8,348.4v0.6h-1.5c-0.3-0.1-0.4-0.3-0.3-0.4c0.1-0.1,0.2-0.2,0.2-0.2L111.8,348.4z"/>
	<path class="st31" d="M110.3,348.4c0,0.2,0,0.4,0,0.6h-1.5c0-0.2,0-0.4,0-0.6L110.3,348.4z"/>
	<path class="st32" d="M103.1,75.7c0,0.2,0,0.4-0.1,0.6h-1.5c-0.2-0.2-0.3-0.3-0.2-0.4c0.1-0.1,0.2-0.2,0.3-0.2L103.1,75.7z"/>
	<path class="st33" d="M101.7,75.7c0,0.2,0,0.4-0.1,0.6l-1.5,0c0-0.2,0-0.4,0.1-0.6L101.7,75.7z"/>
	<path class="st34" d="M102.4,258c-40.3-3.4-73.1-31.2-81.6-69.2C10,140.7,40.1,93.5,88.3,82.4c48.4-11.3,96.9,18.7,108.4,67.1
		c1.2,5.3,2,10.7,2.2,16.2c0.1,1.7-0.4,3.7,2.6,3.5c3.1-0.2,2-2.3,1.9-3.6c-1.9-31.4-15.8-56-41.6-73.9c-0.8-0.6-1.6-1.1-2.4-1.6
		c-0.2-0.2-0.3-0.4-0.5-0.5C165,85,172.2,82,179.8,81c20.8-3,37.9,3.8,51.2,20.2c1.5,1.9,1.9,3.3,0.6,5.7
		c-4.9,9.1-6.9,19.6-5.6,29.9c0.1,1.5,0.2,2.9,0.2,4.4v142.5c0.1,4.2-1.1,8.4-3.3,12c-15.6,25.2-38.5,40.1-67.1,45.7
		c-31.3,6.1-62.1,4.2-91.7-8.4c-18.5-7.9-34.3-19.4-45-36.7C7.6,278,4.4,258.9,14.1,238.9c3.1-6.3,7.6-11.9,13-16.5
		c1.7-1.5,2.5-1.8,4.1,0.4c15.1,21,35.5,33.7,60.8,38.4c4,0.9,8.2,1.3,12.3,1.2c3,0.8,5.7-0.6,8.5-1c16.4-1.2,31.6-6,45.3-15.4
		c5.4-3.6,9.7-8.4,14.3-12.9c0.7-0.7,1.4-1.4,1.1-2.7c-1.8-0.1-2.5,1.4-3.4,2.4c-14.5,15.6-32.7,23.8-53.7,26.3
		c-0.6,0-1.2,0-1.8-0.1C110.4,259.2,106.4,258.1,102.4,258L102.4,258z M332.2,282.8c0-5.1,0.1-10.2,0-15.3c0-1.9,0.5-2.6,2.5-2.5
		c3.5,0.2,7,0.1,10.6,0.3c29,1.5,53.4-20,55.9-49.3c2.3-27.5-18.5-52.8-46.4-56.4c-6.6-0.8-13.1,0.1-19.7,0c-2.2,0-2.9-0.6-2.9-2.8
		c0-8.6-0.2-17.2-0.3-25.9c-0.1-24.8,19.9-46.5,44.2-48c27.1-1.7,49.6,16.1,53,41.8c0.7,5.1-0.1,10.2-0.1,15.2
		c0,48.2-0.1,96.4,0.1,144.6c0,7.7,0.7,15.2-1.6,22.7c-7,23-30.3,37.8-53.9,34.2c-24.7-3.9-42.3-24.6-41.7-49.3c0.1-3.2,0-6.3,0-9.5
		L332.2,282.8z M327.4,284.4c-0.4,6.3,0.8,13.9-1.2,21.5c-6,22.6-27,37.4-51.4,35.9c-22.3-1.4-41.3-19.3-44.3-41.7
		c-0.7-5,0-9.9,0-14.9c0-48.6,0.2-97.1-0.1-145.7c-0.1-8.7-0.4-17.2,2.8-25.4c8.2-21,29.6-33.8,51.9-31c21.6,2.6,39.6,19.7,42,41.5
		c1.2,10.9,0.2,22.1,0.3,33.1c0,1.8-0.9,1.9-2.3,1.9c-5-0.1-10-0.1-14.9-0.3c-29.4-1.2-54.1,21.7-55.3,51c0,0.3,0,0.5,0,0.8
		c-0.7,30.6,24.8,55.6,55.5,54.2c4.6-0.2,9.2-0.1,13.8-0.3c2.5-0.1,3.4,0.5,3.3,3.2C327.2,273.1,327.4,278.1,327.4,284.4
		L327.4,284.4z M328,260.9c-6.2,0-12.4-0.1-18.6,0c-26.7,0.6-48.1-19.1-50.1-46.4c-1.8-24.6,17.8-47.5,43.2-50.5
		c4.6-0.5,9.2,0.1,13.8,0.1c9.8,0,19.7,0.1,29.5-0.2c27-0.9,48.6,18.4,50.5,45.8c1.7,24.6-16,47.6-42.6,50.8
		c-8.5,1-17.2,0.2-25.8,0.2L328,260.9z"/>
	<path class="st35" d="M102.4,258h13.1c-0.4,2.4-3,1.2-4.2,2.4c0.3,1.1,1.9,0.9,2.2,2c-3,0.6-6.1,0.6-9.1,0c0.3-0.1,0.7-0.2,1.1-0.2
		c1.3-0.1,2.9,0.2,2.7-1.9c-0.1-1.9-1.5-1.5-2.7-1.6C104.3,258.6,103.3,258.8,102.4,258L102.4,258z"/>
	<path class="st36" d="M113.5,262.4c-1.4-1-4.6,1.2-4.4-2.1c0.2-2.7,2.9-1.1,4.4-1.6c0.7-0.2,1.3-0.4,2-0.7
		c22.1-2.6,41.2-11.1,55.7-28.5c1.2-1.5,1.9-1.5,3.4-0.4c1.9,1.4,1,2.2,0,3.4c-13.8,16.3-31.6,25.5-52.5,29
		C119.3,262.2,116.4,262.4,113.5,262.4z"/>
	<path class="st0" d="M118.5,169.6c-0.2,5.4-4.7,9.6-10,9.4c-5.4-0.2-9.6-4.7-9.5-10c0.2-5.4,4.8-9.7,10.2-9.5c0.1,0,0.1,0,0.2,0
		c5.3,0.2,9.4,4.6,9.3,9.9C118.5,169.5,118.5,169.5,118.5,169.6z"/>
</g>
</svg>
