<svg xmlns="http://www.w3.org/2000/svg" width="390" height="400" viewBox="0 0 390 400"><path d="M72.27 25.2h-3.87c-.18-2.939-.616-5.385-1.305-7.335-.69-1.949-1.665-3.51-2.925-4.68s-2.79-1.98-4.59-2.43c-1.8-.45-3.901-.675-6.3-.675-2.34 0-4.216.045-5.625.135-1.41.09-2.49.24-3.24.45-.751.211-1.246.495-1.485.855-.24.36-.36.81-.36 1.35v47.16c0 1.921.135 3.57.405 4.95.27 1.381.824 2.506 1.665 3.375.839.871 2.07 1.53 3.69 1.98 1.62.45 3.749.706 6.39.765v3.6h-37.71v-3.6c2.7-.059 4.86-.315 6.48-.765s2.865-1.109 3.735-1.98c.869-.869 1.44-1.994 1.71-3.375.27-1.379.405-3.029.405-4.95v-47.16c0-.54-.105-.99-.315-1.35-.211-.36-.646-.644-1.305-.855-.661-.209-1.606-.36-2.835-.45-1.23-.09-2.835-.135-4.815-.135-2.16 0-4.23.105-6.21.315-1.98.211-3.721.81-5.22 1.8-1.5.99-2.716 2.49-3.645 4.5-.931 2.011-1.426 4.846-1.485 8.505h-3.51l.9-19.8h70.47l.9 19.8zM93.709 59.94c0 2.461.075 4.396.225 5.805.149 1.411.479 2.506.99 3.285.509.78 1.29 1.291 2.34 1.53 1.049.241 2.475.42 4.275.54v3.6h-28.35v-3.6c1.8-.12 3.24-.299 4.32-.54 1.08-.239 1.89-.72 2.43-1.44.54-.72.885-1.755 1.035-3.105.149-1.35.225-3.164.225-5.445v-36.99c0-3.6-.045-6.435-.135-8.505s-.256-3.645-.495-4.725c-.18-.779-.391-1.395-.63-1.845-.24-.45-.616-.81-1.125-1.08-.51-.27-1.201-.45-2.07-.54-.871-.09-1.966-.135-3.285-.135v-3.33l20.07-3.42v33.21h.36c1.859-2.459 3.944-4.259 6.255-5.4 2.309-1.139 5.085-1.71 8.325-1.71 5.879 0 10.44 1.8 13.68 5.4 1.56 1.8 2.79 3.976 3.69 6.525.9 2.551 1.35 5.206 1.35 7.965v13.95c0 2.52.059 4.486.18 5.895.12 1.411.435 2.491.945 3.24.509.751 1.274 1.246 2.295 1.485 1.02.241 2.43.42 4.23.54v3.6h-28.17v-3.6c1.8-.059 3.225-.225 4.275-.495 1.049-.27 1.859-.765 2.43-1.485.569-.72.93-1.755 1.08-3.105.149-1.35.225-3.164.225-5.445v-11.07c0-6.359-.69-10.859-2.07-13.5-1.381-2.639-3.75-3.96-7.11-3.96-3.6 0-6.451 1.321-8.55 3.96-1.021 1.381-1.815 3.091-2.385 5.13-.571 2.041-.855 4.32-.855 6.84v11.97zM179.009 66.33c-5.46 6.181-12.271 9.27-20.43 9.27-3.721 0-7.096-.585-10.125-1.755-3.03-1.17-5.625-2.819-7.785-4.95-2.16-2.129-3.84-4.665-5.04-7.605-1.201-2.939-1.8-6.21-1.8-9.81 0-3.719.63-7.124 1.89-10.215 1.26-3.089 3.044-5.76 5.355-8.01 2.309-2.25 5.04-4.005 8.19-5.265 3.15-1.26 6.615-1.89 10.395-1.89 6.359 0 11.309 1.71 14.85 5.13 3.54 3.42 5.31 8.221 5.31 14.4 0 .96-.15 1.545-.45 1.755-.301.211-1.141.315-2.52.315h-28.98c-.24.54-.36 1.53-.36 2.97 0 5.881 1.274 10.53 3.825 13.95 2.55 3.42 6.015 5.13 10.395 5.13 2.52 0 5.025-.569 7.515-1.71 2.489-1.139 4.905-2.759 7.245-4.86l2.52 3.15zm-17.46-23.67c2.399 0 3.944-.135 4.635-.405.689-.27 1.035-.914 1.035-1.935 0-2.64-.751-4.8-2.25-6.48-1.5-1.679-3.391-2.52-5.67-2.52-2.581 0-4.875 1.066-6.885 3.195-2.011 2.13-3.316 4.846-3.915 8.145h13.05zM202.767 74.7v-3.6c2.039-.059 3.675-.239 4.905-.54 1.229-.299 2.189-.81 2.88-1.53.689-.72 1.154-1.74 1.396-3.06.238-1.319.359-3.029.359-5.13v-41.58c0-2.1-.09-3.794-.27-5.085-.181-1.29-.556-2.309-1.125-3.06-.571-.75-1.351-1.26-2.34-1.53-.99-.27-2.295-.464-3.915-.585v-3.6h28.89c9.058 0 16.035 1.455 20.925 4.365 4.889 2.911 7.334 7.065 7.334 12.465 0 7.141-5.129 12.181-15.389 15.12v.36c3.299 0 6.283.466 8.955 1.395 2.668.931 4.934 2.236 6.795 3.915 1.859 1.681 3.299 3.661 4.32 5.94 1.02 2.281 1.529 4.77 1.529 7.47 0 3.06-.736 5.73-2.205 8.01-1.471 2.281-3.586 4.2-6.346 5.76-5.34 3.001-12.689 4.5-22.049 4.5h-34.649zm28.08-39.15c2.7 0 5.04-.254 7.021-.765 1.979-.509 3.659-1.245 5.041-2.205 2.879-1.98 4.318-5.069 4.318-9.27 0-4.379-1.08-7.544-3.238-9.495-2.16-1.949-5.641-2.925-10.441-2.925h-6.39c-1.08 0-1.62.511-1.62 1.53v23.13h5.309zm7.2 33.66c9.66 0 14.49-4.349 14.49-13.05 0-5.339-1.74-9.239-5.221-11.7-1.799-1.26-4.125-2.16-6.974-2.7-2.851-.54-6.345-.81-10.485-.81h-4.319v18c0 3.721.959 6.36 2.88 7.92 1.918 1.561 5.129 2.34 9.629 2.34zM316.525 66.33c-5.459 6.181-12.27 9.27-20.43 9.27-3.721 0-7.096-.585-10.125-1.755s-5.625-2.819-7.785-4.95c-2.16-2.129-3.84-4.665-5.039-7.605-1.201-2.939-1.801-6.21-1.801-9.81 0-3.719.631-7.124 1.891-10.215 1.26-3.089 3.045-5.76 5.355-8.01 2.309-2.25 5.039-4.005 8.189-5.265 3.15-1.26 6.615-1.89 10.395-1.89 6.359 0 11.309 1.71 14.85 5.13 3.541 3.42 5.311 8.221 5.311 14.4 0 .96-.15 1.545-.449 1.755-.301.211-1.141.315-2.52.315h-28.98c-.24.54-.361 1.53-.361 2.97 0 5.881 1.275 10.53 3.826 13.95 2.549 3.42 6.014 5.13 10.395 5.13 2.52 0 5.025-.569 7.516-1.71 2.488-1.139 4.904-2.759 7.244-4.86l2.518 3.15zm-17.459-23.67c2.398 0 3.945-.135 4.635-.405s1.035-.914 1.035-1.935c0-2.64-.752-4.8-2.25-6.48-1.5-1.679-3.391-2.52-5.67-2.52-2.58 0-4.875 1.066-6.885 3.195-2.012 2.13-3.316 4.846-3.916 8.145h13.051zM324.627 74.7h-2.791v-16.38h3.779c1.02 4.32 2.49 7.47 4.41 9.45s4.41 2.97 7.471 2.97c2.219 0 3.945-.464 5.176-1.395 1.229-.93 1.844-2.205 1.844-3.825 0-1.679-.75-3.314-2.25-4.905-1.5-1.589-3.93-3.285-7.289-5.085-4.561-2.459-7.83-4.905-9.811-7.335-1.98-2.43-2.971-5.175-2.971-8.235 0-1.98.375-3.825 1.125-5.535s1.77-3.195 3.061-4.455c1.289-1.26 2.836-2.234 4.635-2.925 1.801-.689 3.75-1.035 5.85-1.035 1.859 0 3.705.27 5.535.81s3.436 1.291 4.816 2.25l1.619-2.16h2.34v13.59h-3.51c-1.381-3.42-2.805-5.879-4.275-7.38-1.471-1.499-3.256-2.25-5.355-2.25-1.68 0-3.014.45-4.004 1.35s-1.484 2.101-1.484 3.6c0 1.68.732 3.271 2.205 4.77 1.469 1.5 3.914 3.15 7.334 4.95 2.398 1.321 4.469 2.61 6.211 3.87 1.738 1.26 3.148 2.536 4.229 3.825 1.08 1.291 1.875 2.641 2.385 4.05.51 1.411.766 2.925.766 4.545 0 2.101-.391 3.991-1.17 5.67-.779 1.681-1.891 3.121-3.33 4.32-1.439 1.201-3.166 2.13-5.174 2.79-2.012.659-4.246.99-6.705.99-2.582 0-4.982-.346-7.201-1.035-2.221-.689-4.049-1.695-5.49-3.015l-1.981 3.15zM357.564 31.95v-4.05c3.6-1.02 6.615-2.565 9.045-4.635s4.244-4.455 5.445-7.155h4.59v10.89h10.35v4.95h-10.35v27.63c0 3.721.406 6.36 1.215 7.92.811 1.561 2.174 2.34 4.096 2.34 2.34 0 4.109-1.08 5.311-3.24l1.889 2.61c-1.68 4.261-5.641 6.39-11.879 6.39-4.141 0-7.367-.959-9.676-2.88-2.311-1.919-3.465-4.62-3.465-8.1v-32.67h-6.571zM28.44 134.1c3.6 0 7.004.616 10.215 1.845 3.209 1.23 6.03 2.925 8.46 5.085 2.43 2.16 4.35 4.725 5.76 7.695 1.409 2.97 2.115 6.226 2.115 9.765 0 3.661-.706 7.02-2.115 10.08-1.411 3.06-3.33 5.701-5.76 7.92-2.43 2.22-5.251 3.96-8.46 5.22-3.21 1.26-6.615 1.89-10.215 1.89-3.541 0-6.9-.616-10.08-1.845-3.181-1.229-5.971-2.955-8.37-5.175-2.4-2.219-4.291-4.874-5.67-7.965-1.381-3.089-2.07-6.464-2.07-10.125 0-3.54.689-6.809 2.07-9.81 1.379-3 3.27-5.58 5.67-7.74 2.399-2.16 5.189-3.839 8.37-5.04 3.18-1.199 6.539-1.8 10.08-1.8zm0 5.22c-1.8 0-3.451.465-4.95 1.395-1.5.931-2.776 2.236-3.825 3.915-1.051 1.68-1.86 3.705-2.43 6.075-.571 2.371-.855 4.995-.855 7.875 0 3.001.284 5.701.855 8.1.57 2.4 1.379 4.441 2.43 6.12 1.049 1.68 2.309 2.985 3.78 3.915 1.47.931 3.135 1.395 4.995 1.395 1.859 0 3.555-.464 5.085-1.395 1.53-.93 2.835-2.25 3.915-3.96s1.919-3.765 2.52-6.165c.599-2.399.9-5.07.9-8.01 0-2.88-.301-5.49-.9-7.83-.601-2.34-1.44-4.365-2.52-6.075s-2.385-3.029-3.915-3.96c-1.53-.929-3.226-1.395-5.085-1.395zM56.249 135h9.72v-5.04c0-3.24.554-6.21 1.665-8.91 1.109-2.7 2.655-5.024 4.635-6.975 1.98-1.949 4.365-3.45 7.155-4.5 2.79-1.049 5.895-1.575 9.315-1.575 2.039 0 3.915.196 5.625.585 1.71.391 3.195.916 4.455 1.575 1.26.661 2.234 1.471 2.925 2.43.689.96 1.035 1.98 1.035 3.06 0 1.381-.511 2.52-1.53 3.42-1.021.9-2.31 1.35-3.87 1.35-1.08 0-2.025-.36-2.835-1.08-.81-.72-2.025-2.039-3.645-3.96-.72-.84-1.471-1.44-2.25-1.8-.781-.36-1.591-.54-2.43-.54-2.4 0-4.291 1.456-5.67 4.365-1.381 2.911-2.07 6.916-2.07 12.015v5.58h15.21v4.95h-15.21v27.81c0 2.281.135 4.14.405 5.58s.779 2.581 1.53 3.42c.75.841 1.755 1.426 3.015 1.755 1.26.331 2.88.526 4.86.585v3.6h-30.42v-3.6c1.8-.059 3.24-.225 4.32-.495s1.89-.779 2.43-1.53c.54-.75.9-1.8 1.08-3.15s.27-3.164.27-5.445v-28.53h-9.72v-4.95zM174.328 132.66c0 6.48-2.52 11.416-7.56 14.805-5.04 3.39-12.361 5.085-21.96 5.085h-7.65v15.84c0 2.281.149 4.126.45 5.535.3 1.41.93 2.506 1.89 3.285.959.781 2.28 1.291 3.96 1.53 1.679.24 3.929.36 6.75.36v3.6h-35.73v-3.6c1.98-.059 3.6-.239 4.86-.54 1.26-.299 2.219-.81 2.88-1.53.659-.72 1.109-1.74 1.35-3.06.239-1.319.36-3.029.36-5.13v-41.58c0-2.1-.105-3.794-.315-5.085-.211-1.29-.616-2.309-1.215-3.06-.6-.75-1.455-1.26-2.565-1.53-1.111-.27-2.565-.464-4.365-.585v-3.6h31.14c9.12 0 16.02 1.62 20.7 4.86s7.02 8.041 7.02 14.4zm-37.17 14.49h5.85c5.819 0 10.08-1.17 12.78-3.51s4.05-6.03 4.05-11.07c0-4.5-1.14-7.979-3.42-10.44-2.281-2.459-5.85-3.69-10.71-3.69h-6.93c-1.08 0-1.62.51-1.62 1.53v27.18zM197.477 168.75c0 2.34.104 4.185.314 5.535.209 1.35.645 2.385 1.305 3.105.66.72 1.621 1.186 2.881 1.395 1.26.211 2.939.315 5.039.315v3.6h-30.059v-3.6c1.8-.12 3.24-.299 4.32-.54 1.079-.239 1.89-.72 2.431-1.44.539-.72.885-1.755 1.035-3.105.148-1.35.225-3.164.225-5.445v-10.98c0-3.72-.09-6.689-.27-8.91-.182-2.219-.572-3.929-1.172-5.13-.6-1.2-1.455-1.994-2.564-2.385-1.111-.389-2.565-.585-4.365-.585v-3.15l18-3.33 1.441 10.35h.359c1.619-3.18 3.748-5.7 6.391-7.56 2.639-1.859 5.43-2.79 8.369-2.79 2.279 0 4.141.571 5.58 1.71 1.439 1.141 2.16 2.581 2.16 4.32 0 1.921-.555 3.541-1.666 4.86-1.109 1.32-2.625 1.98-4.545 1.98-.898 0-1.709-.18-2.43-.54-.719-.36-1.365-.765-1.934-1.215-.572-.45-1.141-.869-1.711-1.26-.57-.39-1.156-.585-1.756-.585-1.139 0-2.219.751-3.238 2.25-1.021 1.5-1.861 3.51-2.521 6.03-.48 1.8-.869 3.825-1.17 6.075s-.449 4.486-.449 6.705v4.32zM262.535 174.33c-5.459 6.181-12.27 9.27-20.43 9.27-3.72 0-7.095-.585-10.125-1.755-3.03-1.17-5.625-2.819-7.785-4.95-2.16-2.129-3.84-4.665-5.04-7.605-1.2-2.939-1.8-6.21-1.8-9.81 0-3.719.63-7.124 1.89-10.215 1.261-3.089 3.045-5.76 5.355-8.01 2.309-2.25 5.04-4.005 8.19-5.265 3.149-1.26 6.614-1.89 10.394-1.89 6.359 0 11.309 1.71 14.85 5.13 3.541 3.42 5.311 8.221 5.311 14.4 0 .96-.15 1.545-.449 1.755-.301.211-1.141.315-2.52.315h-28.981c-.24.54-.36 1.53-.36 2.97 0 5.881 1.274 10.53 3.825 13.95 2.55 3.42 6.014 5.13 10.395 5.13 2.52 0 5.025-.569 7.516-1.71 2.488-1.139 4.904-2.759 7.244-4.86l2.52 3.15zm-17.459-23.67c2.398 0 3.945-.135 4.635-.405s1.035-.914 1.035-1.935c0-2.64-.752-4.8-2.25-6.48-1.5-1.679-3.391-2.52-5.67-2.52-2.581 0-4.875 1.066-6.885 3.195-2.011 2.13-3.315 4.846-3.915 8.145h13.05zM268.926 160.83v-8.37h29.25v8.37h-29.25zM3.78 267.75h3.51c.839 5.701 3.119 10.186 6.84 13.455 3.72 3.271 8.31 4.905 13.77 4.905 2.219 0 4.26-.27 6.12-.81 1.859-.54 3.449-1.305 4.77-2.295 1.319-.99 2.34-2.16 3.06-3.51.72-1.35 1.08-2.864 1.08-4.545 0-1.44-.225-2.685-.675-3.735-.45-1.049-1.305-2.07-2.565-3.06-1.26-.99-2.985-1.994-5.175-3.015-2.191-1.02-5.026-2.189-8.505-3.51-7.02-2.7-12.21-5.834-15.57-9.405-3.361-3.569-5.04-7.785-5.04-12.645 0-2.819.54-5.4 1.62-7.74s2.594-4.35 4.545-6.03c1.949-1.679 4.289-2.984 7.02-3.915 2.729-.929 5.745-1.395 9.045-1.395 3.06 0 5.94.481 8.64 1.44 2.7.96 5.369 2.4 8.01 4.32l1.62-4.5h2.16l.99 19.44h-3.51c-1.44-4.919-3.69-8.685-6.75-11.295s-6.601-3.915-10.62-3.915c-3.721 0-6.736.916-9.045 2.745-2.311 1.831-3.465 4.185-3.465 7.065 0 1.26.209 2.385.63 3.375.419.99 1.199 1.935 2.34 2.835 1.139.9 2.7 1.815 4.68 2.745 1.98.931 4.529 1.966 7.65 3.105 4.199 1.62 7.785 3.255 10.755 4.905 2.97 1.651 5.4 3.42 7.29 5.31s3.285 3.885 4.185 5.985c.9 2.101 1.35 4.41 1.35 6.93 0 3.06-.661 5.85-1.98 8.37-1.321 2.52-3.166 4.68-5.535 6.48-2.371 1.8-5.19 3.21-8.46 4.23-3.271 1.02-6.885 1.53-10.845 1.53-3.6 0-6.84-.495-9.72-1.485-2.88-.99-5.85-2.595-8.91-4.815l-1.8 5.4h-2.16l-1.35-22.95zM73.98 248.85h.36c3.96-4.5 9.12-6.75 15.48-6.75 3.479 0 6.674.616 9.585 1.845 2.91 1.23 5.43 2.94 7.56 5.13 2.129 2.191 3.78 4.801 4.95 7.83 1.17 3.03 1.755 6.345 1.755 9.945s-.585 6.9-1.755 9.9c-1.17 3.001-2.806 5.611-4.905 7.83-2.101 2.221-4.605 3.946-7.515 5.175-2.911 1.229-6.075 1.845-9.495 1.845-5.821 0-10.26-1.98-13.32-5.94h-.36v12.51c0 2.399.12 4.32.36 5.76.239 1.44.75 2.549 1.53 3.33.779.779 1.875 1.319 3.285 1.62 1.409.299 3.285.479 5.625.54v3.78h-31.05v-3.78c1.62-.061 2.939-.241 3.96-.54 1.02-.301 1.814-.841 2.385-1.62.569-.781.959-1.845 1.17-3.195.209-1.35.315-3.105.315-5.265v-33.48c0-2.759-.061-5.385-.18-7.875-.121-2.489-.27-4.244-.45-5.265-.301-1.379-.976-2.34-2.025-2.88-1.05-.54-2.835-.81-5.355-.81v-3.51l18.09-2.52v6.39zm15.3-1.62c-1.921 0-3.75.421-5.49 1.26-1.741.841-3.121 1.95-4.14 3.33-1.021 1.381-1.8 3.105-2.34 5.175-.54 2.07-.81 4.306-.81 6.705v6.12c0 4.261 1.049 7.89 3.15 10.89 2.279 3.301 5.49 4.95 9.63 4.95 3.659 0 6.375-1.515 8.145-4.545 1.769-3.029 2.655-7.725 2.655-14.085.001-13.199-3.6-19.8-10.8-19.8zM134.71 276.75c0 2.34.104 4.185.315 5.535.209 1.35.644 2.385 1.305 3.105.66.72 1.62 1.186 2.88 1.395 1.26.211 2.939.315 5.04.315v3.6h-30.06v-3.6c1.8-.12 3.24-.299 4.32-.54 1.08-.239 1.89-.72 2.43-1.44.54-.72.884-1.755 1.035-3.105.149-1.35.225-3.164.225-5.445v-10.98c0-3.72-.09-6.689-.27-8.91-.18-2.219-.571-3.929-1.17-5.13-.601-1.2-1.456-1.994-2.565-2.385-1.111-.389-2.565-.585-4.365-.585v-3.15l18-3.33 1.44 10.35h.36c1.62-3.18 3.749-5.7 6.39-7.56 2.64-1.859 5.43-2.79 8.37-2.79 2.28 0 4.14.571 5.58 1.71 1.44 1.141 2.16 2.581 2.16 4.32 0 1.921-.556 3.541-1.665 4.86-1.111 1.32-2.625 1.98-4.545 1.98-.9 0-1.71-.18-2.43-.54s-1.365-.765-1.935-1.215c-.571-.45-1.141-.869-1.71-1.26-.571-.39-1.156-.585-1.755-.585-1.141 0-2.221.751-3.24 2.25-1.021 1.5-1.86 3.51-2.52 6.03-.481 1.8-.87 3.825-1.17 6.075-.301 2.25-.45 4.486-.45 6.705v4.32zM179.838 275.94c0 2.4.09 4.32.27 5.76.18 1.44.54 2.551 1.08 3.33.54.78 1.319 1.305 2.34 1.575 1.02.27 2.398.436 4.14.495v3.6h-28.35v-3.6c1.679-.059 3.044-.254 4.095-.585 1.049-.329 1.859-.869 2.43-1.62.57-.75.959-1.8 1.17-3.15.209-1.35.315-3.074.315-5.175v-11.07c0-3.479-.061-6.345-.18-8.595-.121-2.25-.27-3.794-.45-4.635-.301-1.499-.976-2.489-2.025-2.97-1.05-.479-2.956-.72-5.715-.72v-3.06l20.88-3.42v33.84zm-13.23-52.92c0-1.98.675-3.645 2.025-4.995 1.35-1.35 2.984-2.025 4.905-2.025 1.98 0 3.645.675 4.995 2.025 1.35 1.35 2.025 3.015 2.025 4.995 0 1.921-.675 3.555-2.025 4.905-1.35 1.35-3.015 2.025-4.995 2.025-1.921 0-3.555-.675-4.905-2.025-1.349-1.35-2.025-2.984-2.025-4.905zM211.728 276.03c0 2.461.074 4.396.226 5.805.148 1.411.479 2.491.989 3.24.51.751 1.29 1.246 2.34 1.485 1.05.241 2.476.42 4.275.54v3.6h-28.35v-3.6c1.739-.12 3.134-.299 4.185-.54 1.049-.239 1.859-.72 2.43-1.44.57-.72.945-1.739 1.125-3.06.181-1.319.271-3.119.271-5.4v-11.25c0-3.54-.061-6.404-.18-8.595-.121-2.19-.271-3.675-.45-4.455-.181-.779-.421-1.425-.721-1.935-.301-.509-.75-.9-1.35-1.17-.601-.27-1.35-.45-2.25-.54-.9-.09-2.04-.135-3.42-.135v-3.06l17.37-3.42 1.17 7.92h.36c1.979-2.52 4.319-4.469 7.02-5.85 2.7-1.38 5.67-2.07 8.91-2.07 3.839 0 6.944.526 9.314 1.575 2.37 1.05 4.485 2.805 6.346 5.265 1.019 1.381 1.919 3.165 2.701 5.355.777 2.191 1.17 5.206 1.17 9.045v12.69c0 2.461.074 4.396.225 5.805.148 1.411.479 2.491.99 3.24.508.751 1.273 1.246 2.295 1.485 1.02.241 2.398.42 4.139.54v3.6h-28.169v-3.6c1.8-.059 3.225-.225 4.275-.495 1.049-.27 1.845-.765 2.385-1.485.54-.72.9-1.755 1.08-3.105s.27-3.134.27-5.355v-12.24c0-3.06-.18-5.639-.54-7.74-.359-2.1-.944-3.794-1.755-5.085-.81-1.29-1.876-2.219-3.194-2.79-1.321-.569-2.971-.855-4.95-.855-1.921 0-3.57.54-4.95 1.62-1.381 1.08-2.58 2.581-3.6 4.5-.54 1.08-1.006 2.475-1.396 4.185-.391 1.71-.585 3.496-.585 5.355v12.42zM268.945 280.98c1.621.121 3.045.241 4.275.36 1.23.121 2.4.256 3.51.405l3.33.45c1.109.15 2.295.315 3.557.495 4.68.661 8.354 2.416 11.023 5.265s4.006 6.375 4.006 10.575c0 5.099-2.102 8.969-6.301 11.61-4.199 2.64-10.381 3.96-18.539 3.96-7.502 0-13.275-1.095-17.326-3.285-4.049-2.191-6.074-5.296-6.074-9.315 0-3.12.811-5.476 2.43-7.065 1.621-1.59 3.66-2.385 6.121-2.385 1.559 0 3.074.315 4.545.945 1.469.63 2.713 1.544 3.734 2.745-1.561.299-2.836 1.004-3.824 2.115-.99 1.11-1.486 2.415-1.486 3.915 0 2.399 1.064 4.244 3.195 5.535 2.129 1.29 5.266 1.935 9.404 1.935 9 0 13.5-2.851 13.5-8.55 0-2.041-.674-3.796-2.023-5.265-1.352-1.471-3.285-2.355-5.807-2.655l-15.75-2.16c-6.658-.9-9.988-3.87-9.988-8.91 0-2.459.793-4.469 2.385-6.03 1.588-1.56 3.854-2.64 6.795-3.24v-.36c-1.381-.54-2.625-1.29-3.736-2.25-1.109-.959-2.084-2.07-2.924-3.33-.842-1.26-1.484-2.624-1.936-4.095-.449-1.469-.674-2.984-.674-4.545 0-2.219.463-4.304 1.395-6.255.93-1.949 2.219-3.614 3.869-4.995 1.65-1.379 3.6-2.475 5.85-3.285 2.25-.81 4.695-1.215 7.336-1.215 2.578 0 5.1.391 7.561 1.17 2.459.781 4.559 1.861 6.299 3.24 1.381-.839 2.58-1.544 3.6-2.115 1.02-.569 1.965-1.02 2.836-1.35.869-.329 1.664-.57 2.385-.72.721-.149 1.439-.225 2.16-.225 2.279 0 4.125.511 5.535 1.53 1.408 1.021 2.115 2.371 2.115 4.05 0 1.26-.391 2.295-1.17 3.105-.781.81-1.801 1.215-3.061 1.215-.9 0-1.619-.194-2.16-.585-.539-.389-1.066-.839-1.574-1.35-.512-.509-1.035-.959-1.576-1.35-.539-.39-1.26-.585-2.16-.585-1.26 0-2.461.81-3.6 2.43.6 1.021 1.02 2.115 1.26 3.285s.361 2.536.361 4.095c0 2.281-.361 4.38-1.08 6.3-.721 1.921-1.846 3.615-3.375 5.085-1.531 1.471-3.496 2.715-5.896 3.735-2.4 1.021-5.309 1.71-8.729 2.07-2.881.301-4.877.69-5.986 1.17-1.109.481-1.664 1.201-1.664 2.16-.002 1.44 1.348 2.281 4.047 2.52zm4.321-10.98c1.92 0 3.42-1.02 4.5-3.06 1.08-2.039 1.621-4.89 1.621-8.55 0-3.719-.541-6.584-1.621-8.595-1.08-2.01-2.609-3.015-4.59-3.015-2.039 0-3.66 1.021-4.859 3.06-1.201 2.041-1.801 4.831-1.801 8.37 0 3.6.615 6.466 1.846 8.595 1.228 2.131 2.865 3.195 4.904 3.195zM72.27 349.201h-3.87c-.18-2.939-.616-5.385-1.305-7.335-.69-1.949-1.665-3.51-2.925-4.68s-2.79-1.98-4.59-2.431c-1.8-.449-3.901-.675-6.3-.675-2.34 0-4.216.045-5.625.135-1.41.091-2.49.241-3.24.45-.751.211-1.246.495-1.485.855-.24.359-.36.81-.36 1.35v47.161c0 1.92.135 3.57.405 4.949.27 1.381.824 2.506 1.665 3.375.839.871 2.07 1.529 3.69 1.98 1.62.449 3.749.705 6.39.766v3.6h-37.71v-3.6c2.7-.061 4.86-.316 6.48-.766 1.62-.451 2.865-1.109 3.735-1.98.869-.869 1.44-1.994 1.71-3.375.27-1.379.405-3.029.405-4.949v-47.161c0-.54-.105-.99-.315-1.35-.211-.36-.646-.645-1.305-.855-.661-.209-1.606-.359-2.835-.45-1.23-.09-2.835-.135-4.815-.135-2.16 0-4.23.105-6.21.315-1.98.211-3.721.81-5.22 1.8-1.5.99-2.716 2.49-3.645 4.5-.931 2.011-1.426 4.846-1.485 8.505h-3.51l.9-19.8h70.47l.9 19.801zM90.181 384.75c0 2.34.104 4.186.315 5.535.209 1.35.644 2.385 1.305 3.105.66.721 1.62 1.186 2.88 1.395 1.26.211 2.939.316 5.04.316v3.6h-30.06v-3.6c1.8-.121 3.24-.301 4.32-.541 1.08-.238 1.89-.721 2.43-1.439.54-.721.884-1.756 1.035-3.105.149-1.35.225-3.164.225-5.445v-10.98c0-3.719-.09-6.689-.27-8.908-.18-2.221-.571-3.93-1.17-5.131-.601-1.199-1.456-1.994-2.565-2.385-1.111-.391-2.565-.586-4.365-.586v-3.148l18-3.331 1.44 10.35h.36c1.62-3.18 3.749-5.699 6.39-7.561 2.64-1.859 5.43-2.79 8.37-2.79 2.28 0 4.14.57 5.58 1.709 1.44 1.141 2.16 2.58 2.16 4.32 0 1.92-.556 3.541-1.665 4.859-1.111 1.32-2.625 1.98-4.545 1.98-.9 0-1.71-.18-2.43-.539-.72-.361-1.365-.766-1.935-1.217-.571-.449-1.141-.869-1.71-1.26-.571-.389-1.156-.584-1.755-.584-1.141 0-2.221.75-3.24 2.25-1.021 1.5-1.86 3.51-2.52 6.029-.481 1.801-.87 3.826-1.17 6.076-.301 2.25-.45 4.484-.45 6.705v4.321zM156.24 390.33c-5.46 6.182-12.271 9.271-20.43 9.271-3.721 0-7.096-.586-10.125-1.756-3.03-1.17-5.625-2.82-7.785-4.949s-3.84-4.666-5.04-7.605c-1.201-2.939-1.8-6.211-1.8-9.811 0-3.719.63-7.123 1.89-10.215 1.26-3.09 3.044-5.76 5.355-8.01 2.309-2.25 5.04-4.006 8.19-5.266 3.15-1.259 6.615-1.889 10.395-1.889 6.359 0 11.309 1.709 14.85 5.129 3.54 3.42 5.31 8.221 5.31 14.4 0 .961-.15 1.545-.45 1.754-.301.211-1.141.316-2.52.316h-28.98c-.24.539-.36 1.529-.36 2.969 0 5.881 1.274 10.531 3.825 13.951 2.55 3.42 6.015 5.129 10.395 5.129 2.52 0 5.025-.568 7.515-1.709 2.489-1.139 4.905-2.76 7.245-4.859l2.52 3.15zm-17.46-23.67c2.399 0 3.944-.135 4.635-.404.689-.27 1.035-.914 1.035-1.936 0-2.639-.751-4.799-2.25-6.48-1.5-1.678-3.391-2.52-5.67-2.52-2.581 0-4.875 1.066-6.885 3.195-2.011 2.131-3.316 4.846-3.915 8.145h13.05zM179.819 384.031c0 2.461.074 4.395.225 5.805.148 1.41.48 2.49.99 3.24s1.289 1.246 2.34 1.484c1.049.24 2.475.42 4.275.541v3.6h-28.351v-3.6c1.74-.121 3.135-.301 4.185-.541 1.049-.238 1.859-.721 2.43-1.439.569-.721.945-1.74 1.125-3.061.18-1.318.27-3.119.27-5.4v-11.25c0-3.539-.061-6.404-.18-8.594-.121-2.189-.27-3.676-.45-4.455-.18-.779-.421-1.426-.72-1.936-.301-.51-.751-.9-1.35-1.17-.601-.27-1.35-.449-2.25-.541-.9-.09-2.041-.135-3.42-.135v-3.059l17.37-3.42 1.17 7.92h.36c1.98-2.521 4.32-4.471 7.02-5.852 2.701-1.378 5.67-2.069 8.91-2.069 3.84 0 6.945.525 9.314 1.575 2.371 1.051 4.486 2.805 6.346 5.266 1.02 1.381 1.92 3.164 2.701 5.354.777 2.191 1.17 5.207 1.17 9.045v12.691c0 2.461.074 4.395.225 5.805.148 1.41.479 2.49.99 3.24.508.75 1.273 1.246 2.295 1.484 1.02.24 2.398.42 4.139.541v3.6h-28.17v-3.6c1.801-.061 3.225-.227 4.275-.496 1.049-.27 1.846-.766 2.385-1.484.541-.721.9-1.756 1.08-3.105s.27-3.135.27-5.355v-12.24c0-3.059-.18-5.639-.539-7.738s-.945-3.795-1.756-5.086c-.809-1.289-1.875-2.219-3.193-2.789-1.322-.57-2.971-.855-4.951-.855-1.92 0-3.57.539-4.949 1.619-1.381 1.08-2.58 2.58-3.6 4.5-.541 1.08-1.006 2.475-1.396 4.186-.391 1.709-.584 3.496-.584 5.355v12.419zM258.809 392.941h-.361c-4.139 4.439-9.51 6.66-16.109 6.66-3.42 0-6.556-.602-9.405-1.801-2.851-1.199-5.31-2.881-7.38-5.041-2.07-2.158-3.676-4.725-4.815-7.693-1.141-2.971-1.71-6.256-1.71-9.855s.585-6.93 1.755-9.99 2.76-5.715 4.771-7.965c2.01-2.25 4.41-4.006 7.2-5.266 2.79-1.259 5.805-1.889 9.045-1.889 2.998 0 5.654.449 7.965 1.35 2.309.9 4.334 2.43 6.074 4.59h.359v-7.65c0-3.54-.045-6.585-.135-9.136-.09-2.549-.225-4.214-.404-4.995-.301-1.26-1.215-2.174-2.746-2.744-1.529-.57-3.885-.855-7.064-.855v-3.06l22.77-3.601v51.48c0 4.5.045 7.965.137 10.395.09 2.432.254 4.275.494 5.535.119.781.299 1.41.539 1.891s.6.855 1.08 1.125 1.125.449 1.936.539c.811.092 1.846.137 3.105.137v3.51l-17.1.99v-6.661zm-2.791-20.07c0-2.279-.24-4.395-.719-6.346-.482-1.949-1.201-3.674-2.16-5.174-1.08-1.74-2.461-3.061-4.141-3.961s-3.48-1.35-5.4-1.35c-3.541 0-6.241 1.619-8.099 4.859-1.861 3.24-2.79 7.951-2.79 14.131 0 6.24.929 11.039 2.79 14.4 1.858 3.359 4.529 5.039 8.009 5.039 1.98 0 3.871-.51 5.67-1.529 1.801-1.02 3.27-2.4 4.41-4.141.84-1.318 1.455-2.955 1.846-4.904.389-1.949.584-4.455.584-7.516v-3.508zM282.027 398.701h-2.791v-16.381h3.779c1.02 4.32 2.49 7.471 4.41 9.451 1.92 1.979 4.41 2.969 7.471 2.969 2.219 0 3.945-.463 5.176-1.395 1.229-.93 1.844-2.205 1.844-3.824 0-1.68-.75-3.314-2.25-4.906-1.5-1.588-3.93-3.285-7.289-5.084-4.561-2.461-7.83-4.906-9.811-7.336s-2.971-5.174-2.971-8.234c0-1.98.375-3.826 1.125-5.535.75-1.711 1.77-3.195 3.061-4.455 1.289-1.26 2.836-2.234 4.635-2.926 1.801-.688 3.75-1.035 5.85-1.035 1.859 0 3.705.271 5.535.811 1.83.541 3.436 1.291 4.816 2.25l1.619-2.16h2.34v13.589h-3.51c-1.381-3.42-2.805-5.879-4.275-7.379s-3.256-2.25-5.355-2.25c-1.68 0-3.014.449-4.004 1.35s-1.484 2.102-1.484 3.6c0 1.682.732 3.271 2.205 4.77 1.469 1.502 3.914 3.15 7.334 4.951 2.398 1.32 4.469 2.609 6.211 3.869 1.738 1.26 3.148 2.535 4.229 3.826s1.875 2.641 2.385 4.049c.51 1.41.766 2.926.766 4.545 0 2.102-.391 3.992-1.17 5.67-.779 1.682-1.891 3.121-3.33 4.32-1.439 1.201-3.166 2.131-5.174 2.791-2.012.658-4.246.99-6.705.99-2.582 0-4.982-.348-7.201-1.035-2.221-.689-4.049-1.695-5.49-3.016l-1.981 3.15z"/></svg>