<svg xmlns="http://www.w3.org/2000/svg" viewBox="0 0 514 46" enable-background="new 0 0 514 46"><style type="text/css">.st0{fill:#FF0000;}</style><path class="st0" d="M41.4 39.8c-2.6 1.3-5.3 2.3-8.1 2.9-2.8.6-5.7.9-8.6.9-3.1 0-6-.5-8.6-1.5-2.6-1-4.9-2.4-6.8-4.2-1.9-1.8-3.4-4-4.5-6.6-.8-2.5-1.4-5.3-1.4-8.5s.5-6 1.6-8.6c1.1-2.6 2.5-4.8 4.5-6.6 1.9-1.8 4.2-3.2 6.8-4.2 2.6-1 5.5-1.5 8.6-1.5 3.2 0 6.1.4 8.8 1.1 2.7.8 5 2.1 7 3.9l-6.2 6.7c-1.2-1.2-2.5-2.2-4-2.8-1.5-.6-3.4-1-5.6-1-1.9 0-3.6.3-5.1 1-1.5.6-2.8 1.5-3.9 2.7-1.1 1.1-1.9 2.5-2.5 4.1-.6 1.6-.9 3.3-.9 5.1 0 1.9.3 3.6.9 5.1.6 1.5 1.4 2.9 2.5 4s2.4 2 3.9 2.7c1.5.6 3.2 1 5.1 1 1.9 0 3.5-.2 4.9-.6 1.4-.4 2.5-.9 3.3-1.3v-6.4h-7.1v-8.1h15.5v20.7zM62.2 3h7.2l17.2 39.6h-9.9l-3.4-8.4h-15.3l-3.3 8.4h-9.7l17.2-39.6zm3.3 11.5l-4.8 12.3h9.7l-4.9-12.3zM90.6 3h13.2l9.1 25.9h.1l9.3-25.9h13.2v39.6h-8.7v-30.4h-.1l-10.4 30.4h-6.7l-10-30.4h-.1v30.4h-8.7v-39.6zM143.8 3h26.9v8h-18.2v7.4h17.2v8.1h-17.2v8.1h19.2v8.1h-27.9v-39.7zM178.8 3h14.7c2.1 0 4 .2 5.8.6 1.8.4 3.4 1 4.8 1.9 1.4.9 2.4 2.1 3.2 3.7.8 1.5 1.2 3.5 1.2 5.9 0 2.3-.4 4.3-1.1 5.8-.7 1.6-1.8 2.8-3.1 3.8-1.3.9-2.9 1.6-4.6 2s-3.7.6-5.8.6h-6.4v15.5h-8.7v-39.8zm8.7 16.8h5.8c.8 0 1.5-.1 2.3-.2.7-.1 1.4-.4 2-.8.6-.4 1-.8 1.4-1.5.4-.6.5-1.4.5-2.3 0-1-.2-1.8-.7-2.4-.5-.6-1.1-1.1-1.8-1.4-.7-.3-1.5-.6-2.4-.6-.9-.1-1.8-.1-2.6-.1h-4.5v9.3zM214.4 3h8.7v31.6h16.2v8.1h-24.9v-39.7zM257.2 3h7.2l17.2 39.6h-9.9l-3.4-8.4h-15.3l-3.3 8.4h-9.7l17.2-39.6zm3.3 11.5l-4.8 12.3h9.7l-4.9-12.3zM291.2 25.7l-14.9-22.7h10.9l8.4 14.8 8.9-14.8h10.4l-14.9 22.7v16.9h-8.7v-16.9zM370.2 39.8c-2.6 1.3-5.3 2.3-8.1 2.9-2.8.6-5.7.9-8.6.9-3.1 0-6-.5-8.6-1.5-2.6-1-4.9-2.4-6.8-4.2-1.9-1.8-3.4-4-4.5-6.6-1.1-2.6-1.6-5.5-1.6-8.6 0-3.2.5-6 1.6-8.6 1.1-2.6 2.5-4.8 4.5-6.6 1.9-1.8 4.2-3.2 6.8-4.2 2.6-1 5.5-1.5 8.6-1.5 3.2 0 6.1.4 8.8 1.1 2.7.8 5 2.1 7 3.9l-6.2 6.7c-1.2-1.2-2.5-2.2-4-2.8-1.5-.6-3.4-1-5.6-1-1.9 0-3.6.3-5.1 1-1.5.6-2.8 1.5-3.9 2.7-1.1 1.1-1.9 2.5-2.5 4.1-.6 1.6-.9 3.3-.9 5.1 0 1.9.3 3.6.9 5.1.6 1.5 1.4 2.9 2.5 4s2.4 2 3.9 2.7c1.5.6 3.2 1 5.1 1 1.9 0 3.5-.2 4.9-.6 1.4-.4 2.5-.9 3.3-1.3v-6.4h-7.1v-8.1h15.5v20.8zM377.8 3h8.7v39.6h-8.7v-39.6zM394.8 3h26.6v8h-17.9v8.1h16.5v8.1h-16.5v15.5h-8.7v-39.7zM451.9 10.7h-11.3v-7.7h31.4v7.7h-11.3v31.9h-8.7v-31.9zM476.7 3h8.7v16.5l15.5-16.5h11.4l-17.6 18.4 19.2 21.2h-12.2l-16.1-18.8v18.8h-8.7v-39.6z"/></svg>