<svg xmlns="http://www.w3.org/2000/svg" xmlns:xlink="http://www.w3.org/1999/xlink" viewBox="0 0 66.6 16.4" enable-background="new 0 0 66.6 16.4"><style type="text/css">.st0{clip-path:url(#SVGID_2_);} .st1{clip-path:url(#SVGID_4_);} .st2{clip-path:url(#SVGID_6_);}</style><defs><path fill="#000000"  id="SVGID_1_" d="M0 0h66.6v16.4h-66.6z"/></defs><clipPath id="SVGID_2_"><use xlink:href="#SVGID_1_" overflow="visible"/></clipPath><path fill="#000000"  class="st0" d="M57.9 14.4h-49.2c-4.2 0-6.7-2.8-6.7-6.2.1-3.4 2.6-6.2 6.7-6.2h49.2c4.1 0 6.7 2.8 6.7 6.2s-2.5 6.2-6.7 6.2m0-14.4h-49.2c-5.2 0-8.7 3.7-8.7 8.2s3.5 8.2 8.7 8.2h49.2c5.2 0 8.7-3.7 8.7-8.2s-3.5-8.2-8.7-8.2"/><path fill="#000000"  d="M6.6 4.3h2.4l3.4 5.4-.1-5.4h2.4v7.8h-2.3l-3.4-5.4v5.4h-2.4v-7.8zm21.1.8h2.4v1.1h1.2v.7h-1.2v5.2h-2.4v-5.2h-1.2v-.7h1.2v-1.1zm-11.6 1.8h2.3v5.1h-2.3v-5.1zm0-2.6h2.3v1.6h-2.3v-1.6z"/><defs><path fill="#000000"  id="SVGID_3_" d="M0 0h66.6v16.4h-66.6z"/></defs><clipPath id="SVGID_4_"><use xlink:href="#SVGID_3_" overflow="visible"/></clipPath><path fill="#000000"  class="st1" d="M56.8 6.6c-1.9 0-3.4 1.3-3.4 2.9s1.5 2.9 3.4 2.9 3.4-1.3 3.4-2.9-1.5-2.9-3.4-2.9m.9 2.8v1.1c0 .8-.5 1.2-1 1.2s-1-.3-1-1.2v-2.2c0-.8.5-1.2.9-1.2.5 0 1.1.3 1.1 1.2.1.4 0 .9 0 1.1zm-7.3.1v-1c0-.8-.5-1-.9-1s-.9.2-.9 1v1.8c0 .8.5 1 .9 1s.9-.2.9-1v-.8zm-.1-5.2h2.3v7.7h-2.3v-.3c-.9.6-1.9.6-2.7.2-.2-.1-1.6-.8-1.6-2.5 0-1.4 1.3-2.8 3-2.7.6 0 .9.2 1.3.5v-2.9zm-26.5 2.4c.9 0 2.6.5 2.6 2.6v2.8h-2.3v-3.4c0-.4-.4-.9-1.1-.9s-1 .4-1 .9v3.4h-2.3v-5.1h2.3v.5c.4-.5 1.1-.8 1.8-.8m18.9 0c.9 0 2.6.5 2.6 2.6v2.8h-2.3v-3.4c0-.4-.4-.9-1.1-.9-.6 0-1.1.5-1.1.9v3.4h-2.3v-5.1h2.3v.5c.5-.5 1.2-.8 1.9-.8"/><defs><path fill="#000000"  id="SVGID_5_" d="M0 0h66.6v16.4h-66.6z"/></defs><clipPath id="SVGID_6_"><use xlink:href="#SVGID_5_" overflow="visible"/></clipPath><path fill="#000000"  class="st2" d="M35.4 10.3v.3c0 .9-.6 1.1-1 1.1-.3 0-1-.2-1-1.1v-1.1h4.4c0-1.6-1.5-2.9-3.4-2.9s-3.4 1.3-3.4 2.9 1.5 2.9 3.4 2.9c1.6 0 2.9-.9 3.3-2.1h-2.3zm-1.9-1.6c0-.4 0-.8.2-1 .2-.3.5-.5.8-.5s.6.2.8.5c.1.3.2.6.2 1h-2zm27.2-3.5c.2 0 .4 0 .4-.3 0-.2-.2-.3-.4-.3h-.4v.5h.4v.1zm-.3 1h-.3v-1.8h.7c.4 0 .6.2.6.5s-.2.5-.5.5l.5.8h-.3l-.5-.8h-.3l.1.8zm.3.4c.7 0 1.2-.5 1.2-1.3 0-.7-.5-1.3-1.2-1.3s-1.2.5-1.2 1.3c-.1.7.5 1.3 1.2 1.3m-1.6-1.3c0-.9.7-1.5 1.5-1.5s1.5.6 1.5 1.5-.7 1.5-1.5 1.5-1.5-.6-1.5-1.5"/></svg>