<svg xmlns="http://www.w3.org/2000/svg" viewBox="0 0 545 545" enable-background="new 0 0 545 545"><path d="M273 545.5c-72.6 0-140.8-28.3-192.1-79.6s-79.6-119.5-79.6-192.1 28.3-140.8 79.6-192.1c51.3-51.3 119.5-79.6 192.1-79.6s140.8 28.3 192.1 79.6c51.3 51.3 79.6 119.5 79.6 192.1s-28.3 140.8-79.6 192.1-119.5 79.6-192.1 79.6zm0-498.4c-60.6 0-117.5 23.6-160.3 66.4s-66.4 99.7-66.4 160.3 23.6 117.5 66.4 160.3c42.8 42.8 99.7 66.4 160.3 66.4s117.5-23.6 160.3-66.4c42.8-42.8 66.4-99.7 66.4-160.3s-23.6-117.5-66.4-160.3c-42.8-42.8-99.7-66.4-160.3-66.4zM363 373.8h-60v-200h60v200zm-120 0h-60v-200h60v200z"/></svg>