<?xml version="1.0" encoding="utf-8"?>
<!-- Generator: Adobe Illustrator 21.0.0, SVG Export Plug-In . SVG Version: 6.00 Build 0)  -->
<svg version="1.1" id="Layer_1" xmlns="http://www.w3.org/2000/svg" xmlns:xlink="http://www.w3.org/1999/xlink" x="0px" y="0px"
	 viewBox="0 0 114 114" style="enable-background:new 0 0 114 114;" xml:space="preserve">
<style type="text/css">
	.st0{fill:#2E2A25;}
	.st1{fill:#4C8B2B;}
	.st2{fill:#3CD52E;}
	.st3{fill:#72D54A;}
	.st4{fill:#FFFFFF;}
</style>
<g>
	<path class="st0" d="M78.1,0H35.4v7.1h42.8V0z M35.4,7.1H21.1v7.1h14.3V7.1z M21.1,14.3H14v7.1h7.1V14.3z M14,21.4H6.9v14.3H14
		V21.4z M-0.2,35.6v42.8h7.1V35.6H-0.2z M28.3,85.5v-7.1H6.9v7.1H14v14.3h7.1V85.5H28.3z M21.1,99.8v7.1h7.1v-7.1H21.1z M92.4,14.3
		V7.1H78.1v7.1H92.4z M99.5,21.4v-7.1h-7.1v7.1H99.5z M106.6,35.6V21.4h-7.1v14.3H106.6z M106.6,35.6v42.8h7.1V35.6H106.6z
		 M85.3,85.5h7.1v14.3h7.1V85.5h7.1v-7.1H85.3V85.5z M85.3,106.9h7.1v-7.1h-7.1V106.9z M28.3,114h57v-7.1h-57V114z M42.5,92.6h7.1
		V78.4h14.3v14.3H71V78.4h14.3v-7.1h-57v7.1h14.3V92.6z"/>
	<path class="st1" d="M14,64.1H6.9v14.3h21.4v-7.1H14V64.1z M14,35.6H6.9v14.3H14V35.6z M78.1,7.1H49.6v7.1h28.5V7.1z M99.5,35.6
		v14.3h7.1V35.6H99.5z M92.4,64.1H28.3v7.1h57v7.1h14.3v-7.1h-7.1V64.1z"/>
	<path class="st2" d="M78.1,64.1h14.3V57H78.1V64.1z M49.6,14.3v7.1h28.5v-7.1H49.6z M35.4,64.1h14.3V57H35.4V64.1z M14,42.8h7.1
		v-7.1H14V42.8z M78.1,21.4v7.1h7.1v-7.1H78.1z M92.4,35.6V57h7.1V35.6H92.4z M85.3,28.5v7.1h7.1v-7.1H85.3z"/>
	<path class="st3" d="M78.1,28.5v7.1h7.1v-7.1H78.1z M42.5,21.4v7.1h-7.1v7.1H21.1v7.1h7.1v7.1h7.1V57h7.1V35.6h7.1v-7.1h28.5v-7.1
		H42.5z M85.3,35.6V57h7.1V35.6H85.3z"/>
	<path class="st4" d="M35.4,28.5h7.1v-7.1h7.1V7.1H35.4v7.1H21.1v7.1H14v14.3h21.4V28.5z M49.6,28.5v7.1h-7.1V57h7.1v7.1h28.5V57
		h7.1V35.6h-7.1v-7.1H49.6z M85.3,28.5h7.1v7.1h7.1V21.4h-7.1v-7.1H78.1v7.1h7.1V28.5z M99.5,49.9V57h-7.1v14.3h7.1v7.1h7.1V49.9
		H99.5z M28.3,71.3v-7.1h7.1V49.9h-7.1v-7.1H14v7.1H6.9v14.3H14v7.1H28.3z M85.3,78.4H71v14.3h-7.1V78.4H49.6v14.3h-7.1V78.4H28.3
		v7.1h-7.1v14.3h7.1v7.1h57v-7.1h7.1V85.5h-7.1V78.4z"/>
</g>
</svg>
