<svg xmlns="http://www.w3.org/2000/svg" viewBox="0 0 300 170" enable-background="new 0 0 300 170"><style type="text/css">.st0{fill:none;}</style><path d="M283.7 160.1c-4.8 0-8.5-3.4-8.5-7.6h3.4c0 2.3 2.3 4.3 5.2 4.3 2.9 0 5.2-2.1 5.3-4.8 0-2.9-2.5-3.9-5.3-4.8-3.5-.9-7.5-2.1-7.5-7.1 0-3.8 3.4-6.9 7.5-6.9s7.5 3 7.5 6.5h-3.4c0-1.8-1.9-3.3-4.2-3.3s-4.1 1.7-4.1 3.6c0 2.3 2.5 3.3 5.2 4 3.5 1 7.5 2.5 7.5 7.8 0 4.8-3.9 8.3-8.6 8.3m-28-23.4c-5 0-9.2 3.6-10.1 8.4h20.1c-.9-4.7-5.1-8.4-10-8.4m13.4 10.1c0 .6-.1 1.1-.1 1.6h-23.5c.8 4.8 5 8.4 10.1 8.4 3.8 0 7.1-2.1 8.9-5.1h3.7c-2 4.9-6.9 8.4-12.5 8.4-7.5 0-13.5-6-13.5-13.3 0-7.4 6.1-13.4 13.5-13.4s13.4 6 13.4 13.4zm-32.2-21.6h3.4v34.2h-3.4v-34.2zm-5.8 21.6c0-5.6-4.6-10.1-10.2-10.1s-10.2 4.6-10.2 10.1c0 5.6 4.6 10.1 10.2 10.1s10.2-4.6 10.2-10.1zm0 12.7v-3.9c-2.5 2.8-6.1 4.6-10.2 4.6-7.5 0-13.5-6-13.5-13.3s6.1-13.4 13.5-13.4 13.5 6 13.5 13.3v12.8l-3.3-.1zm-39.1-22.8c-5.6 0-10.2 4.6-10.2 10.1 0 5.6 4.6 10.1 10.2 10.1s10.2-4.6 10.2-10.1c-.1-5.6-4.6-10.1-10.2-10.1m0 23.4c-7.5 0-13.5-6-13.5-13.3s6.1-13.4 13.5-13.4c4 0 7.7 1.8 10.2 4.6v-12.8h3.4v21.6c-.1 7.4-6.2 13.3-13.6 13.3m-18.8-13.3c0-5.6-4.6-10.1-10.2-10.1s-10.2 4.6-10.2 10.1c0 5.6 4.6 10.1 10.2 10.1s10.2-4.6 10.2-10.1zm-10.2 22.2c-5.7 0-10.5-3.5-12.5-8.4l3.7-.1c1.8 3.1 5 5.1 8.9 5.1 5.6 0 10.2-4.5 10.2-10.1-2.5 2.8-6.1 4.6-10.2 4.6-7.5 0-13.5-6-13.5-13.3s6.1-13.4 13.5-13.4 13.5 6 13.5 13.3v8.9c0 7.4-6.1 13.4-13.6 13.4m-18.6-9.5v-15.3c0-4.2-3.4-7.5-7.6-7.5s-7.6 3.4-7.6 7.5v15.3h-3.4v-15.3c0-6 4.9-10.8 10.9-10.8s10.9 4.9 10.9 10.8v15.3h-3.2zm-24.4-34.3h3.4v6.9h-3.4v-6.9zm0 8.9h3.4v25.5h-3.4v-25.5zm-5.9 25.4v-15.8c0-3.9-3.2-7.1-7.1-7.1-3.9 0-7.2 3.2-7.2 7v15.8h-3.4v-15.8c0-3.9-3.2-7.1-7.1-7.1-3.9 0-7.2 3.2-7.2 7v15.8h-3.4v-15.8c0-5.7 4.7-10.4 10.5-10.4 3.6 0 6.9 1.9 8.8 4.8 1.9-2.8 5.1-4.8 8.9-4.8 5.8 0 10.5 4.7 10.5 10.4v15.8h-3.3v.2zm-60.5-3.7c-2.2-2.3-3.5-5.5-3.5-9s1.3-6.6 3.5-9.1c-1.4-.7-2.9-1-4.6-1-5.6 0-10.2 4.6-10.2 10.1 0 5.6 4.6 10.1 10.2 10.1 1.7.1 3.2-.3 4.6-1.1zm2.7-16.1c-1.8 1.9-2.9 4.4-2.9 7.1 0 2.7 1.1 5.2 2.9 7.1 1.8-1.9 2.9-4.4 2.9-7.1s-1.1-5.2-2.9-7.1m7.3-3c-1.6 0-3.2.4-4.6 1.1 2.2 2.3 3.5 5.5 3.5 9s-1.3 6.6-3.5 9.1c1.4.7 2.9 1 4.6 1 5.6 0 10.2-4.6 10.2-10.1-.1-5.6-4.6-10.1-10.2-10.1m0 23.4c-2.7 0-5.1-.7-7.3-2.1-2.1 1.3-4.6 2.1-7.3 2.1-7.5 0-13.5-6-13.5-13.3s6.1-13.4 13.5-13.4c2.7 0 5.1.7 7.3 2.1 2.1-1.3 4.6-2.1 7.3-2.1 7.5 0 13.5 6 13.5 13.3 0 7.5-6.1 13.4-13.5 13.4m-33.3-34.9h3.4v34.2h-3.4v-34.2zm-15.4 11.5c-5.6 0-10.2 4.6-10.2 10.1 0 5.6 4.6 10.1 10.2 10.1s10.1-4.6 10.1-10.1c0-5.6-4.5-10.1-10.1-10.1m0 23.4c-7.5 0-13.5-6-13.5-13.3v-21.6h3.4v12.8c2.5-2.8 6.1-4.6 10.2-4.6 7.5 0 13.5 6 13.5 13.3s-6.2 13.4-13.6 13.4m256.1-26h3.4v14.4h-3.4v-14.4z"/><path class="st0" d="M292.3 170v-44.9"/><path d="M1.3 3.1h9.6v109.1h-9.6zM1.3 3.1h9.6v109.1h-9.6zM243.9 27.8c0-9-7.3-16.5-16.5-16.5-9 0-16.5 7.3-16.5 16.5 0 9 7.3 16.5 16.5 16.5 9 0 16.5-7.5 16.5-16.5m-41.5 0c0-13.6 11.3-25 25-25 13.6 0 25 11.3 25 25s-11.3 25-25 25-25-11.1-25-25M289.5 88.1c0-9-7.3-16.5-16.5-16.5-9 0-16.5 7.3-16.5 16.5s7.3 16.5 16.5 16.5c9.2-.2 16.5-7.5 16.5-16.5m-41.2 0c0-13.6 11.3-25 25-25 13.6 0 25 11.3 25 25s-11.3 25-25 25c-14 0-25-11.3-25-25"/><path class="st0" d="M1.3 1.7"/><path d="M276.1 5.4h8.7l-61.2 105.9h-9zM276.1 5.4h8.7l-61.2 105.9h-9zM21.6 58c0-31 24.4-56 54.3-56 30.2 0 54.5 25 54.5 55.7 0 31-24.4 56-54.3 56-30.1 0-54.5-25-54.5-55.7m9.6-.3c0 25.5 20.3 46.1 44.7 46.1 25 0 44.7-20.9 44.7-45.8 0-25.5-20.3-46.1-44.7-46.1-24.7-.1-44.7 20.5-44.7 45.8M21.6 58c0-31 24.4-56 54.3-56 30.2 0 54.5 25 54.5 55.7 0 31-24.4 56-54.3 56-30.1 0-54.5-25-54.5-55.7m9.6-.3c0 25.5 20.3 46.1 44.7 46.1 25 0 44.7-20.9 44.7-45.8 0-25.5-20.3-46.1-44.7-46.1-24.7-.1-44.7 20.5-44.7 45.8M91.6 58c0-31 24.4-56 54.3-56 30.2 0 54.5 25 54.5 55.7 0 31-24.4 56-54.3 56-30.2 0-54.5-25-54.5-55.7m9.5-.3c0 25.5 20.3 46.1 44.7 46.1 25 0 44.7-20.9 44.7-45.8 0-25.5-20.3-46.1-44.7-46.1-24.6-.1-44.7 20.5-44.7 45.8M91.6 58c0-31 24.4-56 54.3-56 30.2 0 54.5 25 54.5 55.7 0 31-24.4 56-54.3 56-30.2 0-54.5-25-54.5-55.7m9.5-.3c0 25.5 20.3 46.1 44.7 46.1 25 0 44.7-20.9 44.7-45.8 0-25.5-20.3-46.1-44.7-46.1-24.6-.1-44.7 20.5-44.7 45.8"/><path class="st0" d="M1.3 1.7"/></svg>