<?xml version="1.0" encoding="utf-8"?>
<!-- Generator: Adobe Illustrator 21.0.0, SVG Export Plug-In . SVG Version: 6.00 Build 0)  -->
<svg version="1.1" id="Layer_1" xmlns="http://www.w3.org/2000/svg" xmlns:xlink="http://www.w3.org/1999/xlink" x="0px" y="0px"
	 viewBox="0 0 435.2 435.2" style="enable-background:new 0 0 435.2 435.2;" xml:space="preserve">
<style type="text/css">
	.st0{fill:#ED2737;}
	.st1{fill:#ED2838;}
	.st2{fill:#F8B3B9;}
	.st3{fill:#EE2F3F;}
	.st4{fill:#F3737D;}
	.st5{fill:#F9BABF;}
	.st6{fill:#F8B4BA;}
	.st7{fill:#F4838C;}
	.st8{fill:#EE2E3D;}
	.st9{fill:#F58790;}
	.st10{fill:#F9BDC2;}
	.st11{fill:#F6929A;}
	.st12{fill:#F9BCC1;}
	.st13{fill:#F15966;}
	.st14{fill:#FEFEFE;}
	.st15{fill:#F47E87;}
	.st16{fill:none;stroke:#EE3544;stroke-width:15;stroke-miterlimit:10;}
</style>
<title>Asset 1</title>
<path class="st0" d="M194.4,351.1c-5.9,0.1-11.8-0.6-17.4-2.1c-2.2-0.6-2.8-1.7-2-4c2.6-7,5.1-14.1,7.4-21.2c1-3.1,2.7-2.5,5-2
	c12.9,2.8,24.7-1.8,31.8-12.3c5.9-8.8,5.6-20.4-0.7-29.6c-2-3-2.9-0.5-3.9,0.7c-11.6,13.1-26.3,20.3-43.8,20.9
	c-24.6,0.8-46-14.7-54.6-38.3c-14.8-41,15.6-74.3,51.3-77c2.1-0.1,5.6,1,3.9-3.6c-0.4-1.2,1.4-1.7,2.4-2.2
	c6.7-3.3,13.5-6.5,20.2-9.9c2.4-1.2,3.4-0.5,4.5,1.7C215,206.1,232,239.8,247.8,274c12.4,26.9,2.1,53.8-24.6,68.8
	C212.6,348.6,203.2,351.2,194.4,351.1L194.4,351.1z M250.2,148.1c8.1-19.2,38.3-33.9,59.9-20c0.3,0.3,0.7,0.6,1.1,0.9
	c0.4,0.7,1.5,0.5,1.8,1.2c5.9,5.1,10.7,11.4,14.2,18.4c9.5,19.7,19,39.3,28.7,58.8c1.7,3.4,1.2,4.8-2.2,6.3
	c-6.4,2.8-12.7,5.8-18.9,9.2c-3.3,1.8-4.7,1.2-6.3-2.2c-8.4-17.8-17-35.4-25.7-53c-1.3-2.7-2.6-5.4-4.7-7.6
	c-7.2-7.6-15.1-8.6-24.8-3.4c-8.2,4.4-12,13.2-9.8,22.5c1,3.7,2.4,7.3,4.1,10.7c8,16.3,15.8,32.7,23.9,48.9c1.5,3,1.5,4.6-1.9,6
	c-6.7,3-13.3,6.2-19.8,9.6c-2.8,1.4-3.9,0.9-5.2-1.9c-20.7-42.9-41.6-85.7-62.4-128.6c-1.8-3.6-3.3-7.3-5.3-10.8
	c-1.5-2.6-1.3-4,1.6-5.3c7-3.2,13.9-6.6,20.7-10c2.4-1.2,3.5-0.6,4.6,1.7c3.3,6.9,6.8,13.8,10.1,20.6c4.4,9.8,9.8,19.1,14,29
	C249.3,150,249.5,148.6,250.2,148.1z"/>
<path class="st1" d="M48,214.8c1.7-1.8,3.5-3.5,5.1-5.3c7.3-7.9,6.9-17,3.9-26.4c-0.3-1.1,0.2-1.4,1.2-1.1
	c5,6.3,10.2,12.3,18.9,13.5c4,0.6,7.9-0.7,11.8-0.5c1.2-0.3,1.6,0.2,1.3,1.3c-7.9,6.7-12.7,14.7-11,25.6c0.8,1.3-0.2,3,0.9,4.2
	l0.1-0.1c0.5,1.2,0.6,2.3-1.2,2.2l0.1-0.1c-0.2-0.5-0.6-0.7-0.8-1.2v0.1c-0.7-0.4-0.5-1.5-1.3-1.8c-5-5.5-11.1-9.2-18.7-10.1
	c-3,0.4-6.1-0.3-9.1,0.9C48.2,216.5,47.5,216,48,214.8L48,214.8z"/>
<path class="st2" d="M248,149.1c-5.4-9.3-10.4-18.8-14-29C239.6,129.4,244.8,138.8,248,149.1z"/>
<path class="st3" d="M48,214.8c3.4,1.2,6.9-2,10.2,0.3l-11,2.1c-1.1,0.2-1.4-0.3-1.2-1.3L48,214.8z"/>
<path class="st4" d="M79,228.3c1-0.4,0.9-1.4,1.2-2.2c0.9,0.8,0.9,1.9,1.1,3s0.8,2.2-1.1,2L79,228.3z"/>
<path class="st5" d="M45.2,218.3c-1.1,0.8-2.5,1.6-3.3,0.2c-0.5-0.9,1-1.3,2-1.6C44.6,217.1,45.1,217.6,45.2,218.3z"/>
<path class="st6" d="M80.2,231l1.1-2c0.9,1.1,1.7,2.6,0.6,3.7C81.3,233.3,80.5,232,80.2,231z"/>
<path class="st7" d="M45.2,218.3l-1.3-1.3l2-1l1.2,1.3L45.2,218.3z"/>
<path class="st8" d="M90.2,196.4l-1.3-1.4l2.1-1c1.1-0.2,1.4,0.2,1.2,1.2L90.2,196.4z"/>
<path class="st9" d="M92.2,195.2L91,194l2-1.1c1-0.1,1.4,0.3,1.2,1.3L92.2,195.2z"/>
<path class="st10" d="M94.2,194.2l-1.2-1.3c0.9-0.7,2-1.4,2.7,0C96.1,193.7,95,194,94.2,194.2z"/>
<path class="st11" d="M58.2,182l-1.2,1.1l-1.1-1.9c-0.2-1.1,0.3-1.4,1.3-1.2L58.2,182z"/>
<path class="st12" d="M57.2,180l-1.3,1.2c-0.7-0.8-1.3-1.9-0.2-2.5S57,179.2,57.2,180z"/>
<path class="st13" d="M80.1,226.1c-1.5-1.1-1.1-2.7-0.9-4.2C80.2,223.1,80.5,224.6,80.1,226.1z"/>
<path class="st2" d="M250.2,148.1c0.2,1-0.3,2-1.3,2.3c-0.8,0.2-0.9-0.6-0.8-1.3L250.2,148.1z"/>
<path class="st13" d="M76.9,225.2c1,0.1,1.3,0.8,1.3,1.8C77.4,226.7,76.9,226,76.9,225.2z"/>
<path class="st5" d="M313,130.3c-0.8,0-1.5-0.5-1.8-1.3C312.1,128.9,312.8,129.2,313,130.3z"/>
<path class="st13" d="M78.2,227l0.8,1.2L78.2,227z"/>
<path class="st5" d="M311.2,129c-0.5,0.1-1-0.2-1.1-0.7v-0.1L311.2,129z"/>
<path class="st14" d="M153.2,267c-6.2-6.3-10.3-14.5-11.5-23.3c-1.5-11.6,4.8-22.8,15.5-27.6c11.1-5.1,23.5-2.5,31.3,6.3
	c4.2,4.6,7.2,10.1,8.9,16c3.5,12.2,0.2,23.2-9.4,30.3c-9.8,7.2-20.3,7.4-30.8,1.3C155.8,269.1,154.4,268.1,153.2,267L153.2,267z"/>
<path class="st15" d="M153.2,267c1.9,0.3,3,1.5,4,3C155.3,270,153.7,268.8,153.2,267z"/>
<circle class="st16" cx="217.3" cy="217.9" r="209.3"/>
</svg>
