<?xml version="1.0" encoding="utf-8"?>
<!-- Generator: Adobe Illustrator 21.0.0, SVG Export Plug-In . SVG Version: 6.00 Build 0)  -->
<svg version="1.1" id="Layer_1" xmlns="http://www.w3.org/2000/svg" xmlns:xlink="http://www.w3.org/1999/xlink" x="0px" y="0px"
	 viewBox="0 0 435.2 435.2" style="enable-background:new 0 0 435.2 435.2;" xml:space="preserve">
<style type="text/css">
	.st0{fill:#FEFEFE;}
	.st1{fill:#ED2737;}
	.st2{fill:#EE3342;}
	.st3{fill:#EF3C4B;}
	.st4{fill:#EF3A49;}
	.st5{fill:#EE3544;}
	.st6{fill:#EF4452;}
	.st7{fill:#EF4755;}
	.st8{fill:#EE3645;}
	.st9{fill:#F0515E;}
	.st10{fill:#F25D69;}
	.st11{fill:#FAD2D5;}
	.st12{fill:#F7A0A7;}
	.st13{fill:#F15865;}
	.st14{fill:#F3747E;}
	.st15{fill:#FACED1;}
	.st16{fill:#F15965;}
	.st17{fill:#F3717C;}
	.st18{fill:#F58991;}
	.st19{fill:#F2616C;}
	.st20{fill:#EF404F;}
	.st21{fill:#F0525F;}
	.st22{fill:#F68E97;}
	.st23{fill:#F15763;}
	.st24{fill:#F8A7AE;}
	.st25{fill:#F68E96;}
	.st26{fill:#F47780;}
	.st27{fill:#F36F7A;}
	.st28{fill:#F8A7AD;}
	.st29{fill:#F6979E;}
	.st30{fill:#F9B5BA;}
	.st31{fill:#FBD5D8;}
	.st32{fill:#F47983;}
	.st33{fill:#F6939B;}
	.st34{fill:#F8A8AF;}
	.st35{fill:#F8B2B8;}
	.st36{fill:#FACED2;}
	.st37{fill:#F36C77;}
	.st38{fill:#F5828B;}
	.st39{fill:#F6979F;}
	.st40{fill:#FBD7DA;}
	.st41{fill:#ED2838;}
	.st42{fill:#F8B3B9;}
	.st43{fill:#EE2F3F;}
	.st44{fill:#F3737D;}
	.st45{fill:#F9BABF;}
	.st46{fill:#F8B4BA;}
	.st47{fill:#F4838C;}
	.st48{fill:#EE2E3D;}
	.st49{fill:#F58790;}
	.st50{fill:#F9BDC2;}
	.st51{fill:#F6929A;}
	.st52{fill:#F9BCC1;}
	.st53{fill:#F15966;}
	.st54{fill:#F47E87;}
</style>
<title>Asset 1</title>
<g id="Layer_1-2">
	<path class="st0" d="M198.1,0.1c0.3,0.4,0.3,1-0.1,1.4c-8.5,2.5-17.4,2.9-26,4.8c-35.3,7.7-68.1,24.1-95.5,47.6
		c-21,17.9-38.2,39.7-50.8,64.2C13.9,140.6,6.3,165,3.3,190.2c-0.3,3-0.5,6-1.8,8.7c-0.3,0.4-1,0.5-1.4,0.1l0,0 M435.1,198.1
		c-0.4,0.3-1,0.3-1.4-0.1c-2.5-8.1-2.8-16.7-4.6-25c-7.9-36.4-23.8-68.8-48.2-96.8C344.8,34.8,299.3,10.8,245,3.2
		c-2.6-0.4-5.3-0.5-7.7-1.7c-0.4-0.3-0.5-0.9-0.2-1.4l0,0 M0.1,237.1c0.4-0.3,1-0.3,1.4,0.1c2.5,8.1,2.8,16.7,4.6,25
		C14,298.6,29.8,331,54.3,359c36.1,41.4,81.6,65.4,135.9,73c2.6,0.4,5.3,0.5,7.7,1.7c0.4,0.3,0.5,0.9,0.1,1.4 M237.1,435.1
		c-0.3-0.4-0.3-1,0.1-1.4c8.1-2.5,16.7-2.8,25-4.6c35.8-7.5,69.2-24.1,96.8-48.2c40.4-35,64-79.4,72.5-132c0.6-3.9,0.4-8,2.2-11.7
		c0.4-0.4,1-0.5,1.4-0.1c0,0,0,0,0,0l0,0"/>
	<path class="st1" d="M434.2,237.1c-10.5,105.6-91.9,187.1-197.1,197.1c-0.6,0.3-1.3,0.4-2,0.3H223c-1.6,0.2-3.4-0.5-4.9,0.5h-1
		c-1.3-1-2.7-0.3-4.1-0.5h-12.1c-0.9-0.1-1.9,0.2-2.8-0.3C92.8,424.1,11,342.3,0.9,237.1c-0.3-0.6-0.4-1.3-0.3-2v-33.9
		c-0.1-0.8,0-1.5,0.3-2.2C9.8,94.2,93,10.6,198.1,1c0.9-0.5,1.9-0.3,2.8-0.3h11.4c1.6-0.2,3.3,0.5,4.9-0.5h1c2.1,1,4.4,0.3,6.6,0.5
		h9.6c1,0.1,2-0.2,2.9,0.3c105.3,10.2,187,91.9,197.1,197.1c0.3,0.6,0.4,1.3,0.3,2v9c0.2,1.3-0.5,2.8,0.5,4v5
		c-1.1,1.8-0.3,3.9-0.5,5.8v10.4C434.5,235.2,434.8,236.2,434.2,237.1L434.2,237.1z"/>
	<path class="st2" d="M1.1,214.1v8c-0.3,0.4-0.7,0.4-1,0v-8C0.4,213.7,0.8,213.6,1.1,214.1z"/>
	<path class="st3" d="M225.1,1.1c-2.3-0.4-4.9,0.9-7-1h7c0.3,0.2,0.4,0.4,0.3,0.7S225.2,1.1,225.1,1.1z"/>
	<path class="st4" d="M434.1,224.1c0.3-2-0.8-4.3,1-6v6C434.8,224.5,434.5,224.6,434.1,224.1z"/>
	<path class="st5" d="M217.1,0.1c-1.4,1.7-3.3,0.8-5,1c-0.3-0.2-0.4-0.4-0.3-0.7s0.2-0.3,0.3-0.3L217.1,0.1z M218.1,435.1
		c1.4-1.7,3.3-0.8,5-1c0.3,0.2,0.4,0.4,0.3,0.7s-0.2,0.3-0.3,0.3H218.1z"/>
	<path class="st6" d="M435.1,213.1c-1.5-1.1-0.9-2.6-1-4c0.3-0.4,0.7-0.4,1,0V213.1z"/>
	<path class="st7" d="M209.1,434.1h4c0.3,0.2,0.5,0.4,0.3,0.6c-0.1,0.2-0.2,0.3-0.3,0.3h-4c-0.3-0.2-0.4-0.4-0.3-0.6
		C208.9,434.2,209,434.1,209.1,434.1z"/>
	<path class="st8" d="M213.1,435.1v-1c1.4,0.1,3-0.5,4,1H213.1z"/>
	<path class="st6" d="M0.1,222.1h1v4c-0.3,0.4-0.6,0.4-1,0L0.1,222.1z"/>
	<path class="st9" d="M434.1,224.1h1v3c-0.3,0.4-0.6,0.4-0.9,0L434.1,224.1z"/>
	<path class="st10" d="M0.1,226.1h1v3c-0.3,0.4-0.6,0.4-0.9,0L0.1,226.1z"/>
	<path class="st11" d="M434.2,237.1v-3c0.2-0.5,0.5-0.5,0.8-0.1v3h-0.4L434.2,237.1z"/>
	<path class="st12" d="M435.1,234.1c-0.3,0.1-0.6,0.1-0.8,0.1v-3c0.3-0.5,0.5-0.5,0.8-0.1V234.1z"/>
	<path class="st11" d="M198.1,434.2h3c0.4,0.2,0.5,0.3,0.4,0.5c-0.1,0.2-0.2,0.3-0.3,0.3h-3C198.1,434.8,198.1,434.5,198.1,434.2
		L198.1,434.2z"/>
	<path class="st13" d="M225.1,434.1l3,0.1c0.3,0.2,0.4,0.4,0.3,0.6c-0.1,0.2-0.2,0.3-0.3,0.3h-3c-0.3-0.2-0.4-0.4-0.3-0.7
		C224.9,434.2,225,434.1,225.1,434.1L225.1,434.1z"/>
	<path class="st14" d="M228.1,435.1c0-0.3,0-0.6,0.1-0.9h3c0.3,0.2,0.4,0.4,0.3,0.6c-0.1,0.2-0.2,0.3-0.3,0.3L228.1,435.1z"/>
	<path class="st15" d="M201,0.9h-3c0-0.3,0-0.6,0-0.9h3c0.3,0.2,0.4,0.4,0.3,0.6C201.3,0.8,201.2,0.9,201,0.9z"/>
	<path class="st16" d="M210.1,1.1l-3-0.1c-0.3-0.2-0.4-0.4-0.3-0.6c0.1-0.2,0.2-0.3,0.3-0.3h3c0.3,0.2,0.4,0.4,0.3,0.7
		S210.2,1.1,210.1,1.1L210.1,1.1z"/>
	<path class="st17" d="M230.1,1l-3,0.1c-0.3-0.2-0.5-0.4-0.4-0.6c0.1-0.2,0.2-0.3,0.3-0.3h3c0.3,0.2,0.4,0.4,0.3,0.6
		C230.3,0.9,230.2,1,230.1,1z"/>
	<path class="st11" d="M237.1,1h-3c-0.4-0.2-0.5-0.3-0.4-0.5c0.1-0.2,0.2-0.3,0.3-0.3h3C237.1,0.4,237.1,0.7,237.1,1z"/>
	<path class="st18" d="M0.9,203.1v3c-0.3,0.5-0.6,0.5-0.9,0v-3C0.4,202.7,0.6,202.7,0.9,203.1z"/>
	<path class="st19" d="M435.1,209.1h-1c0-1,0-2,0.1-3c0.3-0.4,0.6-0.4,0.9,0V209.1z"/>
	<path class="st20" d="M1.1,214.1h-1v-3c0.3-0.5,0.6-0.4,0.9,0L1.1,214.1z"/>
	<path class="st21" d="M1,211.1H0.1v-3c0.3-0.4,0.6-0.5,0.9,0V211.1z"/>
	<path class="st22" d="M230.1,1c0-0.3,0-0.6,0-0.9h2c0.3,0.2,0.4,0.4,0.3,0.6c-0.1,0.2-0.2,0.3-0.3,0.3L230.1,1z"/>
	<path class="st23" d="M227.1,0.1v1h-2v-1L227.1,0.1z"/>
	<path class="st6" d="M210.1,1.1v-1h2v1H210.1z"/>
	<path class="st24" d="M201.1,435.1l-0.1-0.8h2c0.4,0.2,0.5,0.3,0.4,0.5c-0.1,0.2-0.2,0.3-0.3,0.3L201.1,435.1z"/>
	<path class="st25" d="M203.1,435.1v-0.8h2c0.4,0.2,0.5,0.4,0.4,0.6c-0.1,0.2-0.2,0.3-0.3,0.3L203.1,435.1z"/>
	<path class="st26" d="M205.1,435.1v-0.9l2-0.1c0.3,0.2,0.5,0.4,0.3,0.6c-0.1,0.2-0.2,0.3-0.3,0.3H205.1z"/>
	<path class="st19" d="M207.1,435.1v-1h2v1H207.1z"/>
	<path class="st27" d="M207.1,0.1V1L205,1c-0.3-0.2-0.4-0.4-0.3-0.6c0.1-0.2,0.2-0.3,0.3-0.3L207.1,0.1z"/>
	<path class="st18" d="M205.1,0.1V1h-2c-0.3-0.2-0.4-0.4-0.3-0.6c0.1-0.2,0.2-0.3,0.3-0.3L205.1,0.1z"/>
	<path class="st6" d="M225.1,434.1v1h-2v-1H225.1z"/>
	<path class="st28" d="M203.1,0.1c0,0.3,0,0.6,0,0.9h-2c0-0.3,0-0.5,0.1-0.8L203.1,0.1z"/>
	<path class="st29" d="M231.1,435.1c0-0.3,0-0.6,0.1-0.9h2c0.3,0.2,0.4,0.4,0.3,0.6c-0.1,0.2-0.2,0.3-0.3,0.3L231.1,435.1z"/>
	<path class="st30" d="M233.1,435.1v-0.8h2c0.3,0.2,0.4,0.4,0.3,0.6c-0.1,0.2-0.2,0.3-0.3,0.3L233.1,435.1z"/>
	<path class="st31" d="M235.1,435.1c0-0.3,0-0.6,0-0.9h2c0,0.3,0,0.6,0,0.8L235.1,435.1z"/>
	<path class="st32" d="M435.1,206.1h-0.9v-2c0.3-0.4,0.6-0.4,0.9,0L435.1,206.1z"/>
	<path class="st33" d="M435.1,204.1h-0.9v-2c0.3-0.4,0.6-0.4,0.8,0L435.1,204.1z"/>
	<path class="st34" d="M0.9,203.1H0.1v-2c0.3-0.4,0.5-0.5,0.8,0L0.9,203.1z"/>
	<path class="st35" d="M435.1,202.1c-0.3,0-0.6,0-0.8,0v-2c0.3-0.4,0.6-0.4,0.8,0V202.1z"/>
	<path class="st36" d="M0.9,201.1H0.1v-2c0.3,0,0.5-0.1,0.8-0.1L0.9,201.1z"/>
	<path class="st31" d="M435.1,200.1h-0.8v-2c0.3,0,0.6,0,0.8,0L435.1,200.1z"/>
	<path class="st37" d="M434.2,227.1h0.9v2c-0.3,0.4-0.6,0.5-0.9,0L434.2,227.1z"/>
	<path class="st14" d="M0.1,229.1H1c0,0.7,0,1.3-0.1,2c-0.3,0.4-0.6,0.4-0.9-0.1L0.1,229.1z"/>
	<path class="st38" d="M434.2,229.1h0.9v2l-0.8,0.1C434.2,230.5,434.2,229.8,434.2,229.1L434.2,229.1z"/>
	<path class="st39" d="M0.1,231.1l0.9,0.1v2c-0.3,0.4-0.6,0.4-0.8,0L0.1,231.1z"/>
	<path class="st30" d="M0.1,233.1c0.3,0,0.6,0,0.8,0v2c-0.3,0.4-0.6,0.4-0.8,0L0.1,233.1z"/>
	<path class="st37" d="M1,208.1H0.1v-2h0.9C1,206.7,1,207.4,1,208.1z"/>
	<path class="st40" d="M0.1,235.1h0.8v2H0.1L0.1,235.1z"/>
	<path class="st24" d="M232.1,1V0.1h2c0,0.3,0,0.6,0.1,0.8L232.1,1z"/>
	<path class="st0" d="M432.1,217.8c-0.2,118.6-96.6,214.6-215,214.3C98.8,431.8,2.9,335.4,3.1,217.2S99.7,2.9,217.9,3.1
		S432.3,99.6,432.1,217.8L432.1,217.8z"/>
	<path class="st1" d="M194.4,351.1c-5.9,0.1-11.8-0.6-17.4-2.1c-2.2-0.6-2.8-1.7-2-4c2.6-7,5.1-14.1,7.4-21.2c1-3.1,2.7-2.5,5-2
		c12.9,2.8,24.7-1.8,31.8-12.3c5.9-8.8,5.6-20.4-0.7-29.6c-2-3-2.9-0.5-3.9,0.7c-11.6,13.1-26.3,20.3-43.8,20.9
		c-24.6,0.8-46-14.7-54.6-38.3c-14.8-41,15.6-74.3,51.3-77c2.1-0.1,5.6,1,3.9-3.6c-0.4-1.2,1.4-1.7,2.4-2.2
		c6.7-3.3,13.5-6.5,20.2-9.9c2.4-1.2,3.4-0.5,4.5,1.7C215,206.1,232,239.8,247.8,274c12.4,26.9,2.1,53.8-24.6,68.8
		C212.6,348.6,203.2,351.2,194.4,351.1L194.4,351.1z M250.2,148.1c8.1-19.2,38.3-33.9,59.9-20c0.3,0.3,0.7,0.6,1.1,0.9
		c0.4,0.7,1.5,0.5,1.8,1.2c5.9,5.1,10.7,11.4,14.2,18.4c9.5,19.7,19,39.3,28.7,58.8c1.7,3.4,1.2,4.8-2.2,6.3
		c-6.4,2.8-12.7,5.8-18.9,9.2c-3.3,1.8-4.7,1.2-6.3-2.2c-8.4-17.8-17-35.4-25.7-53c-1.3-2.7-2.6-5.4-4.7-7.6
		c-7.2-7.6-15.1-8.6-24.8-3.4c-8.2,4.4-12,13.2-9.8,22.5c1,3.7,2.4,7.3,4.1,10.7c8,16.3,15.8,32.7,23.9,48.9c1.5,3,1.5,4.6-1.9,6
		c-6.7,3-13.3,6.2-19.8,9.6c-2.8,1.4-3.9,0.9-5.2-1.9c-20.7-42.9-41.6-85.7-62.4-128.6c-1.8-3.6-3.3-7.3-5.3-10.8
		c-1.5-2.6-1.3-4,1.6-5.3c7-3.2,13.9-6.6,20.7-10c2.4-1.2,3.5-0.6,4.6,1.7c3.3,6.9,6.8,13.8,10.1,20.6c4.4,9.8,9.8,19.1,14,29
		C249.3,150,249.5,148.6,250.2,148.1z"/>
	<path class="st41" d="M48,214.8c1.7-1.8,3.5-3.5,5.1-5.3c7.3-7.9,6.9-17,3.9-26.4c-0.3-1.1,0.2-1.4,1.2-1.1
		c5,6.3,10.2,12.3,18.9,13.5c4,0.6,7.9-0.7,11.8-0.5c1.2-0.3,1.6,0.2,1.3,1.3c-7.9,6.7-12.7,14.7-11,25.6c0.8,1.3-0.2,3,0.9,4.2
		l0.1-0.1c0.5,1.2,0.6,2.3-1.2,2.2l0.1-0.1c-0.2-0.5-0.6-0.7-0.8-1.2V227c-0.7-0.4-0.5-1.5-1.3-1.8c-5-5.5-11.1-9.2-18.7-10.1
		c-3,0.4-6.1-0.3-9.1,0.9C48.2,216.5,47.5,216,48,214.8L48,214.8z"/>
	<path class="st42" d="M248,149.1c-5.4-9.3-10.4-18.8-14-29C239.6,129.4,244.8,138.8,248,149.1z"/>
	<path class="st43" d="M48,214.8c3.4,1.2,6.9-2,10.2,0.3l-11,2.1c-1.1,0.2-1.4-0.3-1.2-1.3L48,214.8z"/>
	<path class="st44" d="M79,228.3c1-0.4,0.9-1.4,1.2-2.2c0.9,0.8,0.9,1.9,1.1,3s0.8,2.2-1.1,2L79,228.3z"/>
	<path class="st45" d="M45.2,218.3c-1.1,0.8-2.5,1.6-3.3,0.2c-0.5-0.9,1-1.3,2-1.6C44.6,217.1,45.1,217.6,45.2,218.3z"/>
	<path class="st46" d="M80.2,231l1.1-2c0.9,1.1,1.7,2.6,0.6,3.7C81.3,233.3,80.5,232,80.2,231z"/>
	<path class="st47" d="M45.2,218.3l-1.3-1.3l2-1l1.2,1.3L45.2,218.3z"/>
	<path class="st48" d="M90.2,196.4l-1.3-1.4l2.1-1c1.1-0.2,1.4,0.2,1.2,1.2L90.2,196.4z"/>
	<path class="st49" d="M92.2,195.2L91,194l2-1.1c1-0.1,1.4,0.3,1.2,1.3L92.2,195.2z"/>
	<path class="st50" d="M94.2,194.2l-1.2-1.3c0.9-0.7,2-1.4,2.7,0C96.1,193.7,95,194,94.2,194.2z"/>
	<path class="st51" d="M58.2,182l-1.2,1.1l-1.1-1.9c-0.2-1.1,0.3-1.4,1.3-1.2L58.2,182z"/>
	<path class="st52" d="M57.2,180l-1.3,1.2c-0.7-0.8-1.3-1.9-0.2-2.5S57,179.2,57.2,180z"/>
	<path class="st53" d="M80.1,226.1c-1.5-1.1-1.1-2.7-0.9-4.2C80.2,223.1,80.5,224.6,80.1,226.1z"/>
	<path class="st42" d="M250.2,148.1c0.2,1-0.3,2-1.3,2.3c-0.8,0.2-0.9-0.6-0.8-1.3L250.2,148.1z"/>
	<path class="st53" d="M76.9,225.2c1,0.1,1.3,0.8,1.3,1.8C77.4,226.7,76.9,226,76.9,225.2z"/>
	<path class="st45" d="M313,130.3c-0.8,0-1.5-0.5-1.8-1.3C312.1,128.9,312.8,129.2,313,130.3z"/>
	<path class="st53" d="M78.2,227l0.8,1.2L78.2,227z"/>
	<path class="st45" d="M311.2,129c-0.5,0.1-1-0.2-1.1-0.7c0,0,0-0.1,0-0.1L311.2,129z"/>
	<path class="st0" d="M153.2,267c-6.2-6.3-10.3-14.5-11.5-23.3c-1.5-11.6,4.8-22.8,15.5-27.6c11.1-5.1,23.5-2.5,31.3,6.3
		c4.2,4.6,7.2,10.1,8.9,16c3.5,12.2,0.2,23.2-9.4,30.3c-9.8,7.2-20.3,7.4-30.8,1.3C155.8,269.1,154.4,268.1,153.2,267L153.2,267z"/>
	<path class="st54" d="M153.2,267c1.9,0.3,3,1.5,4,3C155.3,270,153.7,268.8,153.2,267z"/>
</g>
</svg>
