<?xml version="1.0" encoding="utf-8"?>
<!-- Generator: Adobe Illustrator 21.0.0, SVG Export Plug-In . SVG Version: 6.00 Build 0)  -->
<svg version="1.1" id="Layer_1" xmlns="http://www.w3.org/2000/svg" xmlns:xlink="http://www.w3.org/1999/xlink" x="0px" y="0px"
	 viewBox="0 0 435 435" style="enable-background:new 0 0 435 435;" xml:space="preserve">
<style type="text/css">
	.st0{fill:#ED2737;}
	.st1{fill:#F4808A;}
	.st2{fill:#EE3847;}
	.st3{fill:#EF3A48;}
	.st4{fill:#F7A5AC;}
	.st5{fill:#F37680;}
	.st6{fill:#FBD7DA;}
	.st7{fill:#F25C68;}
	.st8{fill:#F9BFC3;}
	.st9{fill:#FACFD3;}
	.st10{fill:#F05461;}
	.st11{fill:#F3737D;}
	.st12{fill:#F15662;}
	.st13{fill:#F58D95;}
	.st14{fill:#F8AAB0;}
	.st15{fill:#F48089;}
	.st16{fill:#F9BCC1;}
	.st17{fill:#F8B0B6;}
	.st18{fill:#F15B67;}
	.st19{fill:#F5929A;}
	.st20{fill:#F69BA2;}
</style>
<title>Asset 1</title>
<g id="Layer_1-2">
	<path class="st0" d="M432,302.5c-20.4,0-40.9-0.1-61.3,0c-2.4,0-2.9-0.7-2.9-3c0.1-28.6,0.1-57.1,0-85.7
		c0-15.1-10.2-28.3-24.4-31.4c-12-2.6-22.8,0.6-31.8,8.8c-6,5.4-8,12.5-8,20.4c0,29.2,0,58.4,0.1,87.6c0,2.7-0.6,3.4-3.3,3.4
		c-21-0.1-41.9-0.1-62.9,0c-2,0-2.7-0.4-2.7-2.6c0.1-76.2,0.1-152.5,0-228.7c0-1.4,0.1-2.4,1.7-3.2c22.2-9.8,44.4-19.7,66.5-29.6
		c1.3,0.1,1.2,1.1,1.3,2c0.1,1.2,0.1,2.3,0.1,3.5v134.8c0,3.7-0.3,7.3-0.5,11v2.3c0-0.5,0-1,0-1.5c-0.2-1.7,0.3-3.3,0.3-4.9v-1.3
		c2-16.6,8.6-32.4,19.1-45.5c7-8.9,16.5-15.6,27.2-19.4c16-5.5,31.7-4.5,47,2.6c10.3,4.8,19.4,11.3,26,20.6
		c4.6,6.5,8.1,13.3,8.4,21.4v2.7c0.1,0.6-0.2,1.2,0.3,1.8L432,302.5z M81.4,381.7c-7.8-0.2-15.6-0.3-23.3-1.1
		c-17.6-1.9-35-5.7-51.8-11.3c-1.2-0.4-1.7-0.9-1.7-2.2c0-21.3,0-42.6,0-63.9c0.3-0.2,0.8-0.2,1.1,0.1
		c15.1,10.5,32.1,15.5,50.1,17.5c14,1.7,28.2,0.9,41.9-2.4c22.8-5.6,37.6-20.2,46.1-41.6c3.9-10.2,6.3-20.9,7.2-31.8
		c0.4-4.7,0.2-9.5,0.2-14.2c0-8.1,0.2-16.2-0.5-24.4v-6.9c0.1-2.1-0.3-4.1-0.3-6.1c0.3-1.3,0.4-2.6,0.3-3.9
		c1.1-26.8,0.2-53.6,0.5-80.4c-0.1-0.6,0-1.3,0.2-1.9c0.3-0.7,1.1-0.9,1.7-1.2l62.9-29.3c0.4-0.2,0.8-0.3,1.5-0.6
		c0.1,1,0.2,1.8,0.2,2.7v202.3c0,26.2-10.5,47.9-29.1,65.8c-19.2,18.7-44.1,30.5-70.7,33.5c-3.3,0.4-6.6,0.7-9.9,1.1
		c-0.5,0.2-1.1,0.2-1.7,0.2h-5.9c-1.2,0.1-2.5-0.3-3.7,0.3h-4.8c-1-0.6-2.1-0.1-3.1-0.3H83C82.4,381.9,81.9,381.9,81.4,381.7
		L81.4,381.7z"/>
	<path class="st1" d="M304,38l-0.1,2.2v141.9c0,0.7,0.1,1.4,0.1,2.2c0.4,0.2,0.2,0.8,0.5,1l-0.5,5.4c-0.1,0.3-0.3,0.3-0.4,0
		l-0.1-4.3V41.7c0-1.1,0.5-2.3-0.5-3.3c0-0.1,0-0.3,0.1-0.4L304,38z"/>
	<path class="st2" d="M96.5,382.1c1.1-1.1,2.5-0.3,3.8-0.5c0.2,0.1,0.2,0.2,0.2,0.4c-0.1,0.1-0.1,0.2-0.2,0.2H96.5z"/>
	<path class="st3" d="M88.4,381.6c1.1,0.2,2.3-0.4,3.2,0.5h-3.2c-0.2-0.1-0.2-0.2-0.2-0.4C88.3,381.7,88.4,381.6,88.4,381.6z"/>
	<path class="st4" d="M104.1,381.7h2.2c0.2,0.1,0.2,0.2,0.1,0.3c-0.1,0.1-0.1,0.2-0.2,0.2H104c-0.2-0.1-0.2-0.2-0.2-0.3
		C103.9,381.8,104,381.7,104.1,381.7z"/>
	<path class="st5" d="M104.1,381.7c0,0.2,0,0.3,0,0.5h-2.2c-0.2-0.1-0.2-0.2-0.2-0.4c0.1-0.1,0.1-0.2,0.2-0.2L104.1,381.7z"/>
	<path class="st6" d="M106.2,382.1c0-0.2,0-0.3,0-0.5h1.6c0,0.2,0,0.3,0,0.5H106.2z"/>
	<path class="st7" d="M432,168.7c-0.6-0.4-0.5-1.1-0.5-1.6c0.2-0.2,0.3-0.2,0.5,0V168.7z"/>
	<path class="st8" d="M431.5,164.4h0.5v1.6c-0.2,0.3-0.3,0.2-0.4-0.1L431.5,164.4z"/>
	<path class="st9" d="M81.4,381.7H83c0.2,0.1,0.3,0.2,0.2,0.3c-0.1,0.1-0.1,0.2-0.2,0.2h-1.6C81.4,382,81.4,381.8,81.4,381.7
		L81.4,381.7z"/>
	<path class="st10" d="M101.9,381.6v0.5h-1.6v-0.5H101.9z"/>
	<path class="st11" d="M85.2,381.7l1.6-0.1c0.2,0.1,0.2,0.2,0.2,0.4c-0.1,0.1-0.1,0.2-0.2,0.2h-1.6c-0.2-0.1-0.2-0.2-0.2-0.3
		C85.1,381.7,85.1,381.7,85.2,381.7z"/>
	<path class="st12" d="M86.8,382.1v-0.5h1.6v0.5H86.8z"/>
	<path class="st13" d="M85.2,381.7v0.5h-1.1c-0.2-0.1-0.2-0.2-0.2-0.3c0-0.1,0.1-0.2,0.2-0.2H85.2z"/>
	<path class="st14" d="M84.1,381.7c0,0.2,0,0.3,0,0.5H83v-0.5L84.1,381.7z"/>
	<path class="st15" d="M431.6,166c0.1,0,0.3,0,0.4,0.1v1.1h-0.5L431.6,166z"/>
	<path class="st0" d="M150.3,211.8c-3.5,22.9-13.3,42.3-31.9,56.5c-28.2,21.6-66.3,17.9-90.5-8.5c-17.9-19.6-25-43-22.9-69.2
		c1.6-21.1,9.4-39.6,24.4-54.7s33.3-22.7,54.8-20.7c17.8,1.6,32.5,9.8,44.5,23c12.3,13.4,19.1,29.4,21.7,47.3
		c0.6,1.5,0.8,3.2,0.7,4.8c-0.2,0.8,0.5,1.8-0.6,2.4c-0.8-0.2-1.1-0.9-1.3-1.6c-4.5-11-13.4-16.7-24.3-19.7c-10.6-3-22-2-32,2.6
		c-8.1,3.7-14.5,9.2-17.2,18.1c-2.4,7.1-0.9,15,3.9,20.8c7.5,9.5,17.8,13.7,29.7,14.4c6.9,0.5,13.8-0.4,20.3-2.9
		c8.8-3.4,15.7-8.8,19.5-17.7c0.3-0.7,0.5-1.5,1.4-1.9c1.1,0.3,0.5,1.2,0.7,1.8C151,208.3,151.2,210.1,150.3,211.8L150.3,211.8z"/>
	<path class="st16" d="M150.9,190.2l-0.5-4.9c0.8-0.9,0.4-2.1,0.4-3.1v-71.7c0-1.1-0.3-2.2,0.4-3.1l0.1,2.9V187
		c0,1.1-0.1,2.2-0.1,3.2C151.1,190.5,151,190.5,150.9,190.2z"/>
	<path class="st17" d="M150.3,211.8l0.5-5.4c0.1-0.3,0.2-0.3,0.4,0v37c-0.1,0.6-0.2,1.2-0.4,1.8v-30.6
		C150.8,213.6,151.2,212.6,150.3,211.8L150.3,211.8z"/>
	<path class="st18" d="M303.6,190.7c0.1,0,0.3,0,0.4,0v2C303.6,192.1,303.4,191.4,303.6,190.7z"/>
	<path class="st19" d="M150.3,204.8l1-5.5v7.1h-0.4C150.7,205.8,151,205.1,150.3,204.8z"/>
	<path class="st20" d="M150.8,193.4c-0.4-0.2-0.7-0.7-0.5-1.2c0.8-0.5,0.3-1.4,0.6-2.2h0.4C151.3,191.3,151.6,192.4,150.8,193.4z"/>
</g>
</svg>
