<?xml version="1.0" encoding="utf-8"?>
<!-- Generator: Adobe Illustrator 16.0.4, SVG Export Plug-In . SVG Version: 6.00 Build 0)  -->
<!DOCTYPE svg PUBLIC "-//W3C//DTD SVG 1.1//EN" "http://www.w3.org/Graphics/SVG/1.1/DTD/svg11.dtd">
<svg version="1.1" id="Layer_1" xmlns="http://www.w3.org/2000/svg" xmlns:xlink="http://www.w3.org/1999/xlink" x="0px" y="0px"
	 width="200px" height="200px" viewBox="0 0 200 200" enable-background="new 0 0 200 200" xml:space="preserve">
<path fill="#522E91" d="M118.758,39.586l0.017,33.926l-13.105,15.965c19.449,9.557,28.195,70.373-9.711,70.406
	c-12.004,0.012-29.115-8.146-23.251-51.861l18.427-0.051c0.616,33.361,12.312,13.162,5.969-3.953
	c-1.527-3.722-7.036,2.508-7.036,2.508l-9.247-8.921l18.669-23.973h-6.901l-0.047,7.355l-18.129-0.022l0.027-41.368L118.758,39.586z
	"/>
<path fill="#F37021" d="M116.435,41.995v30.527l-14.266,18.25c19.38,3.903,30.471,66.802-6.365,66.63
	c-9.369-0.045-26.411-5.547-21.117-47.445l14.318-0.006c0.319,26.061,10.595,21.271,11.867,10.635
	c0.854-7.135,0.258-13.221-2.334-18.666c-2.461-4.298-8.295,1.297-8.295,1.297l-6.224-6.222l20.55-25.885l-14.504-0.037
	l-0.037,7.404l-13.209-0.011l0.024-36.465L116.435,41.995z"/>
</svg>
