<?xml version="1.0" encoding="utf-8"?>
<!-- Generator: Adobe Illustrator 16.0.4, SVG Export Plug-In . SVG Version: 6.00 Build 0)  -->
<!DOCTYPE svg PUBLIC "-//W3C//DTD SVG 1.1//EN" "http://www.w3.org/Graphics/SVG/1.1/DTD/svg11.dtd">
<svg version="1.1" id="Layer_1" xmlns="http://www.w3.org/2000/svg" xmlns:xlink="http://www.w3.org/1999/xlink" x="0px" y="0px"
	 width="200px" height="200px" viewBox="0 0 200 200" enable-background="new 0 0 200 200" xml:space="preserve">
<path fill="#623F99" d="M134.913,104.03c-0.106-10.119-13.732-21.912-13.732-21.912l13.524,0.094l-0.207-22.341l-18.917-20.183
	l-50.795,0.003l-0.008,56.235l9.058,4.264l-8.704-0.01l-0.019,22.475c0.057,5.622,1.479,11.674,5.241,16.33
	c3.004,3.72,23.528,20.703,37.968,20.594c21.803-0.165,26.535-15.926,26.574-25.99L134.913,104.03z"/>
<path fill="#9BD7D5" d="M91.219,69.903c-1.441,0.361-2.919,1.426-2.935,3.471l0.008-12.807l24.111-0.015l0.002-16.577l-42.75,0.018
	l-0.022,49.445l18.638-0.033l-0.01-4.969l0.012-3.775c0.245-1.684,0.983-2.877,3.185-2.949c2.125-0.07,2.83,2.074,2.833,4.55
	l0.097,40.017c0.003,2.412-0.681,4.56-2.776,4.628c-3.285,0.108-3.343-2.228-3.359-4.767l0.019-21.84H69.884l0.022,19.492
	c0.107,12.154,7.233,19.112,20.641,18.672c17.693-0.58,22.196-11.098,22.225-22.014l0.073-29.48
	C112.875,79.822,107.499,66.048,91.219,69.903z"/>
</svg>
