<?xml version="1.0" encoding="utf-8"?>
<!-- Generator: Adobe Illustrator 16.0.4, SVG Export Plug-In . SVG Version: 6.00 Build 0)  -->
<!DOCTYPE svg PUBLIC "-//W3C//DTD SVG 1.1//EN" "http://www.w3.org/Graphics/SVG/1.1/DTD/svg11.dtd">
<svg version="1.1" id="Layer_1" xmlns="http://www.w3.org/2000/svg" xmlns:xlink="http://www.w3.org/1999/xlink" x="0px" y="0px"
	 width="200px" height="200px" viewBox="0 0 200 200" enable-background="new 0 0 200 200" xml:space="preserve">
<path fill="#0DB14B" d="M121.471,82.358c-0.32-0.49-0.667-0.952-1.024-1.399l0.021-5.563l4.864-0.006
	c0-8.282-0.172-14.187-0.523-17.5c-0.351-3.311-1.447-6.375-3.292-9.191s-4.283-4.93-7.315-6.338
	c-3.031-1.406-6.449-2.112-10.255-2.112c-4.014,0-7.526,0.745-10.543,2.237c-3.017,1.49-5.408,3.627-7.181,6.411
	c-0.383,0.601-0.726,1.218-1.042,1.847c-0.021,0.012-0.043,0.02-0.064,0.03c-3.018,1.489-6.498,3.628-8.27,6.411
	c-1.772,2.783-3.125,5.84-3.164,9.22c-0.038,3.388-0.033,64.188-0.033,64.188c-0.007,5.087,0.676,28.618,21.963,28.706
	c4.013,0.016,7.526-0.748,10.544-2.235c3.015-1.49,5.409-3.629,7.181-6.413c0.383-0.6,0.468-0.362,1.041-0.758
	c0.021-0.01,0.044-0.019,0.065-0.029c3.015-1.492,5.409-3.629,7.182-6.412c1.771-2.783,2.825-5.857,3.162-9.219
	c0.336-3.365,0.506-3.438,0.506-11.52v-13.768c0-8.282-0.178-14.08-0.529-17.395C124.413,88.239,123.316,85.175,121.471,82.358z"/>
<path fill="#FFF200" d="M122.091,91.671c-0.308-2.898-1.268-5.58-2.882-8.047c-1.614-2.465-3.75-4.313-6.403-5.547
	c-2.654-1.231-5.645-1.849-8.977-1.849c-2.042,0-3.919,0.247-5.667,0.689L98.15,59.809c0.025-3.794,2.575-6.853,5.695-6.833
	s5.629,3.113,5.604,6.906l0.015,12.494h13.048v-2.113c0-7.25-0.155-9.498-0.464-12.399c-0.307-2.897-1.267-5.581-2.882-8.045
	c-1.615-2.466-3.749-4.315-6.403-5.548c-2.652-1.23-5.644-1.85-8.977-1.85c-3.513,0-6.588,0.654-9.226,1.959
	c-2.642,1.304-4.736,3.175-6.287,5.611c-1.551,2.436-2.476,5.127-2.769,8.07c-0.294,2.944-0.441,7.951-0.441,15.027v31.145
	l0.051-0.047c-0.006,0.868-0.009,1.768-0.009,2.708v12.051c0,7.251,0.153,12.326,0.461,15.226c0.307,2.898,1.269,5.582,2.883,8.047
	c1.615,2.466,3.749,4.314,6.402,5.547c2.652,1.229,5.646,1.848,8.978,1.848c3.51,0,6.586-0.654,9.229-1.957
	c2.639-1.305,4.734-3.175,6.285-5.611c1.551-2.436,2.474-5.126,2.768-8.07s0.443-7.953,0.443-15.028v-12.052
	C122.554,99.646,122.397,94.571,122.091,91.671z M103.83,138.213c-3.118-0.021-5.627-3.112-5.603-6.906l-0.035-37.69
	c0.026-3.795,2.576-6.854,5.695-6.834c3.121,0.02,5.63,3.113,5.604,6.906l0.036,37.691
	C109.502,135.175,106.951,138.233,103.83,138.213z"/>
</svg>
