<?xml version="1.0" encoding="utf-8"?>
<!-- Generator: Adobe Illustrator 16.0.4, SVG Export Plug-In . SVG Version: 6.00 Build 0)  -->
<!DOCTYPE svg PUBLIC "-//W3C//DTD SVG 1.1//EN" "http://www.w3.org/Graphics/SVG/1.1/DTD/svg11.dtd">
<svg version="1.1" id="Layer_1" xmlns="http://www.w3.org/2000/svg" xmlns:xlink="http://www.w3.org/1999/xlink" x="0px" y="0px"
	 width="200px" height="200px" viewBox="0 0 200 200" enable-background="new 0 0 200 200" xml:space="preserve">
<path fill="#0072BC" d="M124.393,131.809c8.961-17.309,16.486-33.01,16.518-48.962c0.049-23.973-14.738-38.034-35.98-37.996
	c-8.54,0.015-16.592,2-23.048,6.928c-3.705,3.044-21.304,17.546-21.766,37.19c-0.433,18.354,9.977,34.26,25.229,34.028
	c0.036,0-20.55,32.27-20.55,32.27l38.769,0.031l11.158-5.271L124.393,131.809z"/>
<path fill="#FFF200" d="M83.853,146.115l15.648-27.814c0.591-1.055,1.298-2.227,2.122-3.514c0.822-1.287,1.746-2.689,2.758-4.209
	c-3.507,1.855-6.611,2.785-9.311,2.785c-6.716,0-12.419-2.934-17.104-8.811c-4.648-5.994-6.97-13.206-6.97-21.625
	c0-10.145,3.145-18.459,9.438-24.949c6.252-6.403,14.445-9.612,24.581-9.612c9.586,0,17.314,3.192,23.188,9.575
	c5.865,6.385,8.803,14.777,8.803,25.182c0,11.11-5.279,26.516-15.836,46.206l-8.932,16.787H83.853z"/>
<ellipse fill="#0072BC" cx="104.127" cy="83.442" rx="5.086" ry="9.575"/>
</svg>
