<?xml version="1.0" encoding="utf-8"?>
<!-- Generator: Adobe Illustrator 16.0.4, SVG Export Plug-In . SVG Version: 6.00 Build 0)  -->
<!DOCTYPE svg PUBLIC "-//W3C//DTD SVG 1.1//EN" "http://www.w3.org/Graphics/SVG/1.1/DTD/svg11.dtd">
<svg version="1.1" id="Layer_1" xmlns="http://www.w3.org/2000/svg" xmlns:xlink="http://www.w3.org/1999/xlink" x="0px" y="0px"
	 width="200px" height="200px" viewBox="0 0 200 200" enable-background="new 0 0 200 200" xml:space="preserve">
<path fill="#FD4F57" d="M77.423,120.478c-0.175-4.685-0.126-9.604-0.132-14.857L77.4,78.216c0.515-12.136,3.774-15.471,8.078-20.759
	c5.291-6.5,11.193-12.318,11.193-12.318c3.031-2.911,6.879-4.367,11.538-4.367c3.435,0,6.474,0.944,9.115,2.829
	c2.645,1.885,4.71,4.47,6.202,7.756c1.492,3.284,2.387,6.702,2.687,10.248c0.302,3.549,0.452,8.871,0.452,15.968v7.256
	l-11.869,10.945h-6.291v5.158l18.213,0l-0.053,5.412c0,9.652-0.487,16.881-1.465,21.688c-0.979,4.805-3.667,12.009-20.296,20.771
	c-5.101,2.269-13.468,1.863-18.081-1.132C79.663,142.034,77.423,134.611,77.423,120.478z"/>
<path fill="#FFF27F" d="M124.436,106.829c0,8.75-0.412,15.195-1.236,19.339c-0.824,4.141-2.548,7.601-5.174,10.375
	s-5.956,4.162-9.99,4.162c-2.974,0-5.604-0.901-7.893-2.695c-2.289-1.796-4.078-4.259-5.37-7.39
	c-1.291-3.129-2.066-6.384-2.326-9.762c-0.261-3.381-0.39-8.449-0.39-15.211l-0.001-27.406c0-9.195,0.422-16.082,1.269-20.66
	c0.846-4.576,2.569-8.16,5.175-10.746c2.604-2.588,5.91-3.882,9.926-3.882c3.862,0,7.111,1.534,9.747,4.597
	c2.636,3.064,4.338,6.636,5.109,10.708c0.77,4.071,1.154,10.979,1.154,20.718v3.664H110.72V70.808c0-5.168-0.158-8.453-0.47-9.853
	c-0.312-1.397-0.974-2.097-1.987-2.097c-1.057,0-1.736,0.693-2.038,2.083s-0.452,4.361-0.452,8.917v43.535
	c0,4.747,0.15,7.834,0.452,9.263c0.302,1.428,1.014,2.144,2.136,2.144c0.989,0,1.631-0.587,1.924-1.761
	c0.289-1.171,0.437-4.123,0.437-8.85l-0.001-10.863h13.716V106.829z"/>
</svg>
