<?xml version="1.0" encoding="utf-8"?>
<!-- Generator: Adobe Illustrator 16.0.4, SVG Export Plug-In . SVG Version: 6.00 Build 0)  -->
<!DOCTYPE svg PUBLIC "-//W3C//DTD SVG 1.1//EN" "http://www.w3.org/Graphics/SVG/1.1/DTD/svg11.dtd">
<svg version="1.1" id="Layer_1" xmlns="http://www.w3.org/2000/svg" xmlns:xlink="http://www.w3.org/1999/xlink" x="0px" y="0px"
	 width="200px" height="200px" viewBox="0 0 200 200" enable-background="new 0 0 200 200" xml:space="preserve">
<path fill="#00B3E6" d="M137.84,57.927c-7.27-11.437-15.171-16.282-30.761-16.148H69.588L56.013,60.877l0.001,89.917h36.705
	c8.999,0,16.46-3.025,23.012-7.168c7.436-4.706,18.172-15.688,21.711-20.996C147.465,107.594,146.846,72.096,137.84,57.927z"/>
<path fill="#FFF200" d="M73.458,46.456h33.188c6.542,0,11.826,1.062,15.858,3.188c4.025,2.125,7.352,5.182,9.982,9.158
	c2.63,3.98,4.536,8.606,5.718,13.88c1.186,5.279,1.779,10.875,1.779,16.778c0,9.254-0.883,16.436-2.64,21.532
	c-1.759,5.098-4.203,9.375-7.322,12.818c-3.126,3.449-6.48,5.742-10.062,6.885c-4.899,1.573-9.337,2.361-13.313,2.361H73.458V46.456
	z M95.853,66.136v47.239h5.439c4.639,0,7.936-0.621,9.896-1.861c1.96-1.234,3.495-3.395,4.607-6.485
	c1.107-3.079,1.661-8.089,1.661-15.006c0-9.163-1.243-15.432-3.72-18.812c-2.487-3.382-6.604-5.075-12.353-5.075H95.853z"/>
</svg>
