<?xml version="1.0" encoding="utf-8"?>
<!-- Generator: Adobe Illustrator 16.0.4, SVG Export Plug-In . SVG Version: 6.00 Build 0)  -->
<!DOCTYPE svg PUBLIC "-//W3C//DTD SVG 1.1//EN" "http://www.w3.org/Graphics/SVG/1.1/DTD/svg11.dtd">
<svg version="1.1" id="Layer_1" xmlns="http://www.w3.org/2000/svg" xmlns:xlink="http://www.w3.org/1999/xlink" x="0px" y="0px"
	 width="200px" height="200px" viewBox="0 0 200 200" enable-background="new 0 0 200 200" xml:space="preserve">
<polygon fill="#EC008C" points="123.176,82.667 122.957,59.948 110.17,44.043 59.711,44.043 59.874,133.902 76.546,146.652 
	123.176,146.652 123.176,118.365 110.171,104.988 107.104,104.982 107.153,88.359 100.837,82.667 "/>
<polygon fill="#F2B9E9" points="108.89,68.66 108.89,45.957 62.14,45.957 62.14,132.238 108.89,132.238 108.89,107.176 
	93.655,107.176 93.655,117.056 79.827,117.056 79.827,94.816 95.358,94.816 95.358,79.597 79.827,79.597 79.827,61.175 
	93.655,61.175 93.655,68.66 "/>
</svg>
