<?xml version="1.0" encoding="utf-8"?>
<!-- Generator: Adobe Illustrator 16.0.4, SVG Export Plug-In . SVG Version: 6.00 Build 0)  -->
<!DOCTYPE svg PUBLIC "-//W3C//DTD SVG 1.1//EN" "http://www.w3.org/Graphics/SVG/1.1/DTD/svg11.dtd">
<svg version="1.1" id="Layer_1" xmlns="http://www.w3.org/2000/svg" xmlns:xlink="http://www.w3.org/1999/xlink" x="0px" y="0px"
	 width="200px" height="200px" viewBox="0 0 200 200" enable-background="new 0 0 200 200" xml:space="preserve">
<path fill="#619F42" d="M144.764,97.173l-7.235-8.17l0.07-29.437l-14.773-16.215l-27.069,0.008l-0.024,6.555
	c-5.438-2.188-14.844-2.282-24.625,1.031c-26.745,11.307-32.659,44.653-20.512,66.171c10.012,16.329,29.324,31.674,46.309,31.876
	c5.285,0.062,10.944-1.014,13.998-3.195l4.532,3.209h29.33V97.173z"/>
<path fill="#EAED7A" d="M127.182,85.673L88.794,85.68l-0.008,6.954l13.367-0.017c0.013,14.765-21.047,13.828-20.889-4.414
	c-0.052-20.634,18.156-26.193,18.267-6.555l20.21-0.007V47.018h-20.2v8.495c-7.754-4.596-19.225-3.553-26.806-1.024
	c-22.769,9.478-29.292,40.207-18.318,59.458c5.685,10.896,17.735,17.573,29.438,17.499c13.23-0.082,18.03-4.732,18.302-4.818
	l-0.004,4.818h25.016L127.182,85.673z"/>
</svg>
