<?xml version="1.0" encoding="utf-8"?>
<!-- Generator: Adobe Illustrator 16.0.4, SVG Export Plug-In . SVG Version: 6.00 Build 0)  -->
<!DOCTYPE svg PUBLIC "-//W3C//DTD SVG 1.1//EN" "http://www.w3.org/Graphics/SVG/1.1/DTD/svg11.dtd">
<svg version="1.1" id="Layer_1" xmlns="http://www.w3.org/2000/svg" xmlns:xlink="http://www.w3.org/1999/xlink" x="0px" y="0px"
	 width="200px" height="200px" viewBox="0 0 200 200" enable-background="new 0 0 200 200" xml:space="preserve">
<polygon fill="#993F98" points="137.126,149.893 111.854,149.865 104.532,142.68 104.532,149.893 84.405,149.9 65.907,133.494 
	65.903,42.275 90.385,42.281 94.813,47.643 94.798,42.252 119.579,42.287 137.14,66.173 "/>
<polygon fill="#FFE5A4" points="98.046,45.419 98.048,79.953 88.288,79.951 88.287,45.417 69.521,45.414 69.522,130.512 
	88.29,130.516 88.289,98.717 98.048,98.719 98.049,130.518 116.815,130.523 116.812,45.423 "/>
<polygon fill="#FFAA7F" points="100.595,48.07 100.595,82.503 85.429,82.5 85.427,48.067 71.901,48.064 71.903,127.84 
	85.43,127.844 85.429,96.028 100.597,96.031 100.597,127.846 114.124,127.85 114.121,48.073 "/>
</svg>
