<?xml version="1.0" encoding="utf-8"?>
<!-- Generator: Adobe Illustrator 16.0.4, SVG Export Plug-In . SVG Version: 6.00 Build 0)  -->
<!DOCTYPE svg PUBLIC "-//W3C//DTD SVG 1.1//EN" "http://www.w3.org/Graphics/SVG/1.1/DTD/svg11.dtd">
<svg version="1.1" id="Layer_1" xmlns="http://www.w3.org/2000/svg" xmlns:xlink="http://www.w3.org/1999/xlink" x="0px" y="0px"
	 width="200px" height="200px" viewBox="0 0 200 200" enable-background="new 0 0 200 200" xml:space="preserve">
<path fill="#8E5951" d="M96.809,43.115l-10.42,11.713l-0.016,35.423H71.731l-10.196,11.707v18.699
	c0.017,9.856,4.078,18.237,11.457,23.475c4.06,2.882,8.693,3.744,13.391,3.674c11.287-0.167,22.631-9.322,27.029-13.39
	c4.938-4.568,7.588-11.601,7.588-21.504v-69.8L96.809,43.115z"/>
<path fill="#F2B9E9" d="M119.088,44.955v67.958c0,9.155-2.34,15.784-7.018,19.887c-4.68,4.103-10.02,6.153-16.021,6.153
	c-4.346,0-8.473-1.131-12.383-3.395c-3.912-2.264-6.654-5.249-8.232-8.958c-1.576-3.708-2.363-8.574-2.363-14.597V91.935h20.492
	v21.432c0,2.305,0.203,3.76,0.607,4.366s1.01,0.909,1.818,0.909c1.131,0,1.85-0.551,2.152-1.652
	c0.303-1.101,0.455-2.955,0.455-5.562V44.955H119.088z"/>
</svg>
