<?xml version="1.0" encoding="utf-8"?>
<!-- Generator: Adobe Illustrator 16.0.4, SVG Export Plug-In . SVG Version: 6.00 Build 0)  -->
<!DOCTYPE svg PUBLIC "-//W3C//DTD SVG 1.1//EN" "http://www.w3.org/Graphics/SVG/1.1/DTD/svg11.dtd">
<svg version="1.1" id="Layer_1" xmlns="http://www.w3.org/2000/svg" xmlns:xlink="http://www.w3.org/1999/xlink" x="0px" y="0px"
	 width="200px" height="200px" viewBox="0 0 200 200" enable-background="new 0 0 200 200" xml:space="preserve">
<polygon fill="#407F7A" points="131.623,152.393 109.282,152.395 109.298,142.723 99.71,153.098 94.229,143.697 85.22,152.41 
	59.03,152.395 59.029,54.779 69.774,39.251 95.188,39.238 102.049,60.827 119.254,39.238 145.105,39.274 145.105,141.242 "/>
<polygon fill="#B1E1D7" points="142.657,139.051 122.36,139.051 122.378,105.479 107.467,140.77 93.6,105.52 93.673,139.051 
	71.738,139.035 71.738,41.488 93.625,41.472 107.423,85.05 121.26,41.464 142.642,41.472 "/>
<polygon fill="#73B9AF" points="126.423,135.881 126.436,84.554 107.467,130.414 89.829,84.566 89.829,135.734 75.33,135.734 
	75.314,44.988 90.642,45.003 107.467,97.831 124.376,44.988 139.157,44.988 139.142,135.881 "/>
</svg>
