<?xml version="1.0" encoding="utf-8"?>
<!-- Generator: Adobe Illustrator 16.0.4, SVG Export Plug-In . SVG Version: 6.00 Build 0)  -->
<!DOCTYPE svg PUBLIC "-//W3C//DTD SVG 1.1//EN" "http://www.w3.org/Graphics/SVG/1.1/DTD/svg11.dtd">
<svg version="1.1" id="Layer_1" xmlns="http://www.w3.org/2000/svg" xmlns:xlink="http://www.w3.org/1999/xlink" x="0px" y="0px"
	 width="200px" height="200px" viewBox="0 0 200 200" enable-background="new 0 0 200 200" xml:space="preserve">
<polygon fill="#ED6F31" points="61.029,95.69 64.719,95.572 64.904,124.009 61.029,128.144 61.029,154.288 85.236,154.288 
	90.912,148.569 92.432,154.288 110.309,154.288 138.5,128.877 138.475,67.311 142.193,62.8 142.168,37.374 120.842,37.343 
	116.994,41.506 116.023,37.366 92.664,37.343 61.029,70.487 "/>
<path fill="#7BE1D8" d="M140.271,39.222v22.47h-4.289v65.355h-13.551l-14.58-69.342v45.841h4.975v23.501h-17.84v-23.501l4.441,0.004
	V61.675l-4.441,0.017v-22.47h19.48l13.111,61.366V61.691h-5.146v-22.47H140.271z"/>
</svg>
