<?xml version="1.0" encoding="utf-8"?>
<!-- Generator: Adobe Illustrator 16.0.4, SVG Export Plug-In . SVG Version: 6.00 Build 0)  -->
<!DOCTYPE svg PUBLIC "-//W3C//DTD SVG 1.1//EN" "http://www.w3.org/Graphics/SVG/1.1/DTD/svg11.dtd">
<svg version="1.1" id="Layer_1" xmlns="http://www.w3.org/2000/svg" xmlns:xlink="http://www.w3.org/1999/xlink" x="0px" y="0px"
	 width="200px" height="200px" viewBox="0 0 200 200" enable-background="new 0 0 200 200" xml:space="preserve">
<path fill="#956EB6" d="M46.019,96.095c0,30.963,25.101,56.061,56.062,56.061c30.962,0,56.062-25.099,56.062-56.062
	c0-30.961-25.101-56.059-56.062-56.059C71.119,40.036,46.019,65.134,46.019,96.095z M130.817,96.095
	c0,15.952-12.931,28.88-28.881,28.88c-15.949,0-28.88-12.929-28.88-28.88c0-15.951,12.929-28.882,28.88-28.882
	C117.884,67.213,130.814,80.145,130.817,96.095z"/>
<path fill="#FFF27F" d="M48.115,96.132c0,29.706,24.081,53.784,53.784,53.784c29.704,0,53.784-24.078,53.784-53.785
	c0-29.706-24.08-53.785-53.784-53.785C72.195,42.347,48.115,66.426,48.115,96.132z M133.437,96.022
	c0,17.378-14.085,31.463-31.462,31.463c-17.374,0-31.462-14.085-31.462-31.463c0-17.377,14.088-31.464,31.462-31.464
	C119.352,64.558,133.437,78.645,133.437,96.022z"/>
</svg>
