<?xml version="1.0" encoding="utf-8"?>
<!-- Generator: Adobe Illustrator 16.0.4, SVG Export Plug-In . SVG Version: 6.00 Build 0)  -->
<!DOCTYPE svg PUBLIC "-//W3C//DTD SVG 1.1//EN" "http://www.w3.org/Graphics/SVG/1.1/DTD/svg11.dtd">
<svg version="1.1" id="Layer_1" xmlns="http://www.w3.org/2000/svg" xmlns:xlink="http://www.w3.org/1999/xlink" x="0px" y="0px"
	 width="200px" height="200px" viewBox="0 0 200 200" enable-background="new 0 0 200 200" xml:space="preserve">
<path fill="#623F99" d="M95.798,34.769v-0.013H64.809v121.313h34.349l0.015-35.538c19.947-0.934,38.89-19.582,38.89-43.028
	S119.183,35.028,95.798,34.769z M98.071,87.874v-20.5c4.458,0,8.072,4.59,8.072,10.25C106.144,83.285,102.529,87.874,98.071,87.874z
	"/>
<path fill="#7BD3F7" d="M95.256,37.671v-0.012H68.099v115.067h27.157v-35.287c21.826-0.243,39.445-18.002,39.445-39.884
	C134.701,55.673,117.082,37.913,95.256,37.671z M95.179,92.096V63.045c8.023,0,14.526,6.504,14.526,14.525
	C109.705,85.593,103.202,92.097,95.179,92.096z"/>
</svg>
