<?xml version="1.0" encoding="utf-8"?>
<!-- Generator: Adobe Illustrator 16.0.4, SVG Export Plug-In . SVG Version: 6.00 Build 0)  -->
<!DOCTYPE svg PUBLIC "-//W3C//DTD SVG 1.1//EN" "http://www.w3.org/Graphics/SVG/1.1/DTD/svg11.dtd">
<svg version="1.1" id="Layer_1" xmlns="http://www.w3.org/2000/svg" xmlns:xlink="http://www.w3.org/1999/xlink" x="0px" y="0px"
	 width="200px" height="200px" viewBox="0 0 200 200" enable-background="new 0 0 200 200" xml:space="preserve">
<path fill="#0072BC" d="M136.532,126.448c3.052-2.957,5.299-8.29,5.724-11.659c0.507-4.034,0.941-10.933,0.914-20.647l-0.048-16.566
	c-0.028-9.955-0.264-16.927-0.773-20.914c-0.438-3.434-2.321-8.238-4.479-11.035c-2.572-3.335-5.799-5.921-9.9-7.6
	c-4.1-1.679-8.721-2.511-13.859-2.496c-5.42,0.016-10.262,0.711-14.232,2.729c-11.934,6.061-31.352,30.612-35.723,36.764
	c-2.381,3.352-3.796,7.046-4.237,11.091c-0.443,4.052-0.661,3.233-0.633,12.949l-0.024,13.28c0.029,9.954,0.358,16.91,0.84,20.895
	c0.488,3.979,1.984,7.66,4.485,11.047c2.502,3.375,5.799,5.907,9.896,7.587c4.102,1.68,8.721,2.51,13.863,2.495
	c4.521-0.013,8.457-0.79,12.044-2.052l3.651,4.489l15.995,0.01l24.853-19.42L136.532,126.448z M96.162,84.36
	c-0.01-3.219,0.018-2.597-0.238-12.383c0,0,3.883,4.811,4.545,10.021c0.674,5.299,0.785,37.797,0.467,38.293
	c-2.268-2.362-3.604-7.055-4.044-9.839c-0.444-2.756-0.677-7.612-0.696-14.556L96.162,84.36z"/>
<path fill="#FFF200" d="M141.636,136.51l-7.721-10.265c0.924-0.911,1.763-1.901,2.504-2.985c2.177-3.17,3.47-6.661,3.88-10.5
	c0.414-3.813,0.62-10.338,0.62-19.543v-15.69c0-9.415-0.218-16.015-0.647-19.794c-0.434-3.768-1.773-7.246-4.039-10.461
	c-2.252-3.207-5.242-5.623-8.949-7.214c-3.713-1.61-7.912-2.417-12.572-2.417c-4.91,0-9.223,0.845-12.916,2.555
	c-3.699,1.688-6.625,4.128-8.801,7.297c-2.17,3.163-3.47,6.662-3.872,10.489c-0.423,3.837-0.628,10.351-0.628,19.545v15.681
	c0,9.436,0.217,16.033,0.646,19.792c0.436,3.791,1.785,7.27,4.038,10.48c2.267,3.203,5.255,5.609,8.968,7.221
	s7.898,2.404,12.564,2.404c4.912,0,9.214-0.845,12.908-2.546c0.556-0.258,1.089-0.535,1.611-0.825l5.096,6.776H141.636z
	 M124.963,125.816c-2.927,1.441-6.338,2.157-10.244,2.138c-3.697-0.031-7.016-0.746-9.971-2.157
	c-2.938-1.394-5.297-3.459-7.078-6.232c-1.783-2.774-2.842-5.778-3.162-9.02c-0.332-3.239-0.775-9.98-0.74-18.084l0.047-13.481
	c0.041-7.915,0.166-15.521,0.512-18.83c0.352-3.291,1.389-6.287,3.121-8.999c1.734-2.715,4.072-4.78,7.011-6.235
	c2.931-1.429,6.368-2.146,10.261-2.124c3.693,0.021,7.027,0.734,9.965,2.124c2.947,1.403,5.307,3.501,7.086,6.245
	c1.784,2.785,2.838,5.769,3.155,9.009c0.329,3.26,0.55,10.947,0.511,19.051l-0.059,13.487c-0.042,7.908,0.075,14.585-0.282,17.857
	c-0.332,3.312-1.378,6.304-3.104,9.007c-0.469,0.736-0.99,1.416-1.549,2.056l-7.914-10.523h-7.31l10.667,14.183
	C125.576,125.461,125.287,125.657,124.963,125.816z"/>
</svg>
