<?xml version="1.0" encoding="utf-8"?>
<!-- Generator: Adobe Illustrator 16.0.4, SVG Export Plug-In . SVG Version: 6.00 Build 0)  -->
<!DOCTYPE svg PUBLIC "-//W3C//DTD SVG 1.1//EN" "http://www.w3.org/Graphics/SVG/1.1/DTD/svg11.dtd">
<svg version="1.1" id="Layer_1" xmlns="http://www.w3.org/2000/svg" xmlns:xlink="http://www.w3.org/1999/xlink" x="0px" y="0px"
	 width="200px" height="200px" viewBox="0 0 200 200" enable-background="new 0 0 200 200" xml:space="preserve">
<path fill="#407F7A" d="M59.406,56.372l19.86-20.941l29.336-0.094c18.281,0,25.301,1.98,31.08,9.931
	c2.969,4.084,4.689,10.516,4.68,19.567c-0.016,13.869-2.914,17.66-5.025,20.166l-2.143,2.231c2.945,1.871,6.201,7.093,6.477,11.157
	c0.133,1.959,0.691,7.168,0.691,15.771v27.071l-21.436,14.637l-25.955,0.013v-5.935l-7.875,5.938L59.4,155.882L59.406,56.372z"/>
<path fill="#7BE1D8" d="M82.873,39.087h18.199c12.123,0,20.334,0.469,24.625,1.405c4.289,0.94,7.793,3.32,10.504,7.164
	c2.697,3.839,4.053,9.976,4.053,18.39c0,7.691-0.957,12.856-2.871,15.495c-1.918,2.649-5.686,4.229-11.311,4.761
	c5.094,1.261,8.516,2.962,10.27,5.082c1.754,2.129,2.842,4.075,3.27,5.849c0.43,1.773,0.643,6.662,0.643,14.658v26.146h-23.961
	v-32.92c0-5.308-0.412-8.589-1.225-9.85c-0.816-1.263-2.975-1.897-6.439-1.897v44.667H82.873V39.087z M108.629,56.039v21.846
	c2.834,0,4.82-0.388,5.949-1.181c1.141-0.796,1.715-3.346,1.715-7.684v-5.4c0-3.107-0.551-5.152-1.654-6.122
	C113.541,56.529,111.543,56.039,108.629,56.039z"/>
</svg>
