<?xml version="1.0" encoding="utf-8"?>
<!-- Generator: Adobe Illustrator 16.0.4, SVG Export Plug-In . SVG Version: 6.00 Build 0)  -->
<!DOCTYPE svg PUBLIC "-//W3C//DTD SVG 1.1//EN" "http://www.w3.org/Graphics/SVG/1.1/DTD/svg11.dtd">
<svg version="1.1" id="Layer_1" xmlns="http://www.w3.org/2000/svg" xmlns:xlink="http://www.w3.org/1999/xlink" x="0px" y="0px"
	 width="200px" height="200px" viewBox="0 0 200 200" enable-background="new 0 0 200 200" xml:space="preserve">
<path fill="#0072BC" d="M118.604,84.802l6.817-3.886V56.658c0-6.103-1.917-10.862-4.942-14.274
	c-3.877-4.373-9.021-6.564-15.444-6.566c-4.208,0-7.829,1.215-11.157,3.182c-2.595,1.532-10.754,9.691-12.839,12.053
	c-3.579,4.055-5.807,8.404-5.807,13.914l-0.015,24.793c0.001,5.082,1.528,9.055,4.587,11.921c1.747,1.644,3.502,2.732,5.274,3.266
	l-6.705,5.161v23.655c0,6.102,1.523,10.861,4.562,14.275c3.895,4.371,9.065,6.392,15.516,6.564
	c11.156,0.299,21.923-11.138,24.007-13.237c3.789-3.816,5.938-9.519,5.937-15.355l-0.028-22.132
	C128.354,91.489,123.197,86.614,118.604,84.802z"/>
<path fill="#FFDB78" d="M126.25,103.404c0-4.845-0.806-8.586-2.411-11.222c-3.086-4.972-8.374-7.784-15.866-8.436
	c-2.256-0.201-3.766-0.671-4.532-1.413c-0.611-0.592-0.973-1.586-1.095-2.971h0.01V56.409c0-2.38,0.917-3.568,2.752-3.568
	c1.861,0,2.791,1.188,2.791,3.568v22.954h15.326V57.917c0-5.878-1.372-10.463-4.109-13.752c-3.506-4.213-8.158-6.324-13.968-6.324
	c-5.074,0-9.362,1.814-12.866,5.449c-3.506,3.635-5.252,8.097-5.252,13.403v21.556h-0.013v4.255c0,4.897,1.382,8.725,4.147,11.486
	c1.581,1.582,3.169,2.631,4.771,3.146c1.604,0.514,4.381,0.872,8.337,1.072c2.428,0.15,4.131,0.708,5.102,1.675
	c0.97,0.968,1.453,2.579,1.453,4.84v0.64h0.008l0.001,21.041c0,2.38-0.921,3.568-2.765,3.568c-1.869,0-2.805-1.188-2.805-3.568
	v-22.954H89.87v21.446c0,5.878,1.378,10.464,4.128,13.752c3.522,4.211,8.196,6.325,14.032,6.323c5.097,0,9.404-1.813,12.925-5.449
	c3.522-3.634,5.275-8.096,5.275-13.403v-20.756h0.02V103.404z"/>
</svg>
