<?xml version="1.0" encoding="utf-8"?>
<!-- Generator: Adobe Illustrator 16.0.4, SVG Export Plug-In . SVG Version: 6.00 Build 0)  -->
<!DOCTYPE svg PUBLIC "-//W3C//DTD SVG 1.1//EN" "http://www.w3.org/Graphics/SVG/1.1/DTD/svg11.dtd">
<svg version="1.1" id="Layer_1" xmlns="http://www.w3.org/2000/svg" xmlns:xlink="http://www.w3.org/1999/xlink" x="0px" y="0px"
	 width="200px" height="200px" viewBox="0 0 200 200" enable-background="new 0 0 200 200" xml:space="preserve">
<polygon fill="#0073A7" points="150.256,107.326 141.756,97.809 150.174,97.797 150.148,82.78 138.455,70.288 131.891,70.288 
	131.891,52.484 120.397,40.594 101.756,40.593 101.756,47.145 93.789,40.585 75.705,40.611 75.705,70.287 54.028,70.272 
	54.048,87.717 62.803,95.022 54.028,95.016 54.049,112.281 67.791,123.256 75.705,123.248 75.705,140.948 88.617,150.435 
	104.882,150.412 104.882,143.382 114.143,150.412 131.894,150.412 131.894,123.249 150.139,123.249 "/>
<path fill="#FFF200" d="M137.32,97.777L117.889,97.8V85.823h19.443V72.829h-19.443l-0.014-29.689h-12.993v29.704l-13.015-0.016
	V43.159H78.875v29.669H57.001l-0.006,12.995l21.88-0.001V97.8l-21.88-0.023v13.017h21.88v28.616h12.992v-28.616h13.027v28.618
	h12.994v-28.618h19.432V97.777z M91.867,97.8V85.822l13.027,0.001V97.8H91.867z"/>
</svg>
