<?xml version="1.0" encoding="utf-8"?>
<!-- Generator: Adobe Illustrator 16.0.4, SVG Export Plug-In . SVG Version: 6.00 Build 0)  -->
<!DOCTYPE svg PUBLIC "-//W3C//DTD SVG 1.1//EN" "http://www.w3.org/Graphics/SVG/1.1/DTD/svg11.dtd">
<svg version="1.1" id="Layer_1" xmlns="http://www.w3.org/2000/svg" xmlns:xlink="http://www.w3.org/1999/xlink" x="0px" y="0px"
	 width="200px" height="200px" viewBox="0 0 200 200" enable-background="new 0 0 200 200" xml:space="preserve">
<path fill="#623F99" d="M164.555,138.677l-27.42-28.491c4.152-4.843,8.133-10.104,11.928-15.808l-5.506,0.002
	c3.039-4.386,5.988-9.104,8.953-13.824l-30.123,0.014c-2.031,5.13-2.947,6.747-5.492,9.62l-2.107-2.203
	c1.889-2.611,3.186-5.353,3.912-8.219c3.457-5.228,5.312-10.693,5.014-16.605c-0.344-6.835-2.809-12.276-8.414-16.578
	c-5.607-4.3-12.824-6.453-21.65-6.449c-9.871,0.004-18.062,2.688-24.582,8.049c-4.812,3.957-7.842,8.64-9.101,14.042
	c-4.399,4.85-6.598,10.59-6.597,17.221c0.001,4.635,1.474,9.23,4.399,13.79c-7.458,4.586-11,11.56-12.124,18.754
	c-4.675,4.972-7.036,10.681-7.035,17.144c0.002,6.792,2.651,12.375,7.956,16.738c5.302,4.361,12.473,6.542,21.515,6.538
	c6.016-0.003,12.152-1.015,18.412-3.04c6.26-2.024,11.926-4.906,17.004-8.653l10.291,10.062l46.109-0.018l-12.264-12.085H164.555z"
	/>
<path fill="#FFE494" d="M124.479,83.102l23.152-0.01c-5.742,8.941-11.943,16.742-18.6,23.409l28.299,28.897l-41.275,0.017
	l-9.215-9.335c-4.545,3.475-9.617,6.149-15.221,8.027c-5.602,1.879-11.096,2.818-16.48,2.82c-8.096,0.003-14.516-2.019-19.26-6.065
	c-4.749-4.049-7.122-9.227-7.123-15.528c-0.002-11.332,7.474-20.195,22.428-26.585c-6.143-6.423-9.217-12.925-9.217-19.511
	c-0.002-7.58,2.986-13.905,8.969-18.975c5.98-5.069,13.496-7.607,22.551-7.61c8.096-0.003,14.717,2.03,19.859,6.098
	c5.146,4.067,7.721,9.295,7.723,15.677c0.002,7.983-4.207,15.006-12.621,21.076l8.676,8.854
	C119.797,91.521,122.248,87.77,124.479,83.102z M95.293,114.238l-9.99-10.052c-2.076,1.236-3.578,2.396-4.516,3.472
	c-0.938,1.078-1.406,2.453-1.406,4.13c0,1.834,0.66,3.352,1.975,4.55c1.318,1.194,2.994,1.792,5.027,1.791
	C89.014,118.128,91.984,116.831,95.293,114.238z M99.594,77.546c5.305-1.558,7.955-4.373,7.953-8.441
	c0-1.838-0.627-3.333-1.885-4.49c-1.254-1.156-2.859-1.734-4.812-1.733c-1.916,0.001-3.541,0.622-4.879,1.858
	c-1.334,1.236-2,2.732-2,4.487C93.971,71.901,95.846,74.674,99.594,77.546z"/>
</svg>
