<?xml version="1.0" encoding="utf-8"?>
<!-- Generator: Adobe Illustrator 16.0.4, SVG Export Plug-In . SVG Version: 6.00 Build 0)  -->
<!DOCTYPE svg PUBLIC "-//W3C//DTD SVG 1.1//EN" "http://www.w3.org/Graphics/SVG/1.1/DTD/svg11.dtd">
<svg version="1.1" id="Layer_1" xmlns="http://www.w3.org/2000/svg" xmlns:xlink="http://www.w3.org/1999/xlink" x="0px" y="0px"
	 width="200px" height="200px" viewBox="0 0 200 200" enable-background="new 0 0 200 200" xml:space="preserve">
<polygon fill="#619F42" points="74.387,36.384 45.396,72.204 45.372,107.883 71.592,107.884 71.609,112.616 58.946,125.584 
	58.92,155.242 108.779,155.248 141.258,126.196 141.193,101.466 157.031,84.239 157.031,36.384 "/>
<path fill="#FFE494" d="M76.17,38.596v44.82l16.5,0.022V72.311c0.018-1.166,0.098-2.264,1.889-2.315c3.748-0.002,12.104,0,12.104,0
	v24.297H92.619v31.43H139v-31.43h-14.746l0.004-24.295l12.309-0.001c2.07,0,2.383,0.909,2.447,2.3L139,83.147h15.98V38.603
	L76.17,38.596z"/>
</svg>
