<?xml version="1.0" encoding="utf-8"?>
<!-- Generator: Adobe Illustrator 16.0.4, SVG Export Plug-In . SVG Version: 6.00 Build 0)  -->
<!DOCTYPE svg PUBLIC "-//W3C//DTD SVG 1.1//EN" "http://www.w3.org/Graphics/SVG/1.1/DTD/svg11.dtd">
<svg version="1.1" id="Layer_1" xmlns="http://www.w3.org/2000/svg" xmlns:xlink="http://www.w3.org/1999/xlink" x="0px" y="0px"
	 width="200px" height="200px" viewBox="0 0 200 200" enable-background="new 0 0 200 200" xml:space="preserve">
<polygon fill="#CB97C4" points="185.821,76.096 167.071,76.066 131.328,152.617 87.466,152.617 69.876,138.803 40.372,76.086 
	32.166,76.099 17.111,62.813 17.11,38.756 93.353,38.756 104.438,49.68 104.425,76.077 95.769,76.077 104.267,96.822 115.69,69.577 
	107.575,61.256 107.576,38.749 174.132,38.756 185.903,50.748 "/>
<polygon fill="#F9CBDF" points="170.395,42.515 112.431,42.516 112.438,58.171 127.144,58.202 99.854,118.818 72.522,58.155 
	89.757,58.155 89.757,42.516 21.335,42.516 21.335,58.155 38.131,58.155 73.108,135.789 119.503,135.812 154.44,58.171 
	170.395,58.171 "/>
</svg>
