<?xml version="1.0" encoding="utf-8"?>
<!-- Generator: Adobe Illustrator 16.0.4, SVG Export Plug-In . SVG Version: 6.00 Build 0)  -->
<!DOCTYPE svg PUBLIC "-//W3C//DTD SVG 1.1//EN" "http://www.w3.org/Graphics/SVG/1.1/DTD/svg11.dtd">
<svg version="1.1" id="Layer_1" xmlns="http://www.w3.org/2000/svg" xmlns:xlink="http://www.w3.org/1999/xlink" x="0px" y="0px"
	 width="200px" height="200px" viewBox="0 0 200 200" enable-background="new 0 0 200 200" xml:space="preserve">
<path fill="#F37021" d="M113.105,37.188l-25.117,0.016v5.639l-5.566-5.641l-23.611-0.014V87.11c0,10.091,3.183,17.433,9.543,22.022
	c1.684,1.21,3.506,2.212,5.457,3.014l-0.014,33.289l14.287,9.788l21.354-0.022l-0.001-34.89c1.796-0.734,3.478-1.653,5.042-2.771
	c3.387-2.443,5.809-5.175,7.258-8.198c1.49-2.893,2.229-6.664,2.229-11.324V49.586L113.105,37.188z"/>
<path fill="#FFE494" d="M90.9,40.134v45.844c0,3.192-0.354,5.415-1.063,6.665c-0.71,1.201-1.991,1.796-3.842,1.796
	c-1.79,0-3.062-0.64-3.818-1.929c-0.756-1.287-1.134-3.479-1.134-6.58V40.134H61.742v46.985c0,9.009,2.84,15.559,8.517,19.653
	c1.883,1.355,3.956,2.419,6.216,3.202v33.137h19.007v-32.773c2.272-0.725,4.356-1.759,6.25-3.109
	c3.023-2.184,5.184-4.621,6.479-7.32c1.326-2.577,1.99-5.948,1.99-10.105v-49.67L90.9,40.134z"/>
</svg>
