<svg xmlns="http://www.w3.org/2000/svg" width="435.2" height="435.2" viewBox="0 0 435.2 435.2"><defs><style>.cls-1{fill:#fefefe;}.cls-2{fill:#ed2737;}.cls-3{fill:#ee3342;}.cls-4{fill:#ef3c4b;}.cls-5{fill:#ef3a49;}.cls-6{fill:#ee3544;}.cls-7{fill:#ef4452;}.cls-8{fill:#ef4755;}.cls-9{fill:#ee3645;}.cls-10{fill:#f0515e;}.cls-11{fill:#f25d69;}.cls-12{fill:#fad2d5;}.cls-13{fill:#f7a0a7;}.cls-14{fill:#f15865;}.cls-15{fill:#f3747e;}.cls-16{fill:#faced1;}.cls-17{fill:#f15965;}.cls-18{fill:#f3717c;}.cls-19{fill:#f58991;}.cls-20{fill:#f2616c;}.cls-21{fill:#ef404f;}.cls-22{fill:#f0525f;}.cls-23{fill:#f68e97;}.cls-24{fill:#f15763;}.cls-25{fill:#f8a7ae;}.cls-26{fill:#f68e96;}.cls-27{fill:#f47780;}.cls-28{fill:#f36f7a;}.cls-29{fill:#f8a7ad;}.cls-30{fill:#f6979e;}.cls-31{fill:#f9b5ba;}.cls-32{fill:#fbd5d8;}.cls-33{fill:#f47983;}.cls-34{fill:#f6939b;}.cls-35{fill:#f8a8af;}.cls-36{fill:#f8b2b8;}.cls-37{fill:#faced2;}.cls-38{fill:#f36c77;}.cls-39{fill:#f5828b;}.cls-40{fill:#f6979f;}.cls-41{fill:#fbd7da;}.cls-42{fill:#ed2838;}.cls-43{fill:#f8b3b9;}.cls-44{fill:#ee2f3f;}.cls-45{fill:#f3737d;}.cls-46{fill:#f9babf;}.cls-47{fill:#f8b4ba;}.cls-48{fill:#f4838c;}.cls-49{fill:#ee2e3d;}.cls-50{fill:#f58790;}.cls-51{fill:#f9bdc2;}.cls-52{fill:#f6929a;}.cls-53{fill:#f9bcc1;}.cls-54{fill:#f15966;}.cls-55{fill:#f47e87;}</style></defs><title>Asset 1</title><g id="Layer_1-2"><path class="cls-1" d="M.1 199.1q0-97.38-.1-194.76c0-3.6.74-4.34 4.34-4.34q96.88.2 193.76.1a1 1 0 0 1-.1 1.37c-8.5 2.53-17.37 2.91-26 4.81a217.91 217.91 0 0 0-95.51 47.64 211.27 211.27 0 0 0-50.84 64.19 207.5 207.5 0 0 0-22.35 72.12c-.34 3-.53 6-1.83 8.74a1 1 0 0 1-1.37.13zM237.1.1q97 0 194-.1c3.42 0 4.1.67 4.1 4.1q-.2 97-.1 194a1 1 0 0 1-1.37-.13c-2.5-8.14-2.84-16.67-4.63-25-7.85-36.4-23.76-68.78-48.22-96.83-36.09-41.37-81.58-65.39-135.88-72.93-2.61-.36-5.32-.46-7.74-1.74a1 1 0 0 1-.16-1.37zM198.1 435.1q-96.88 0-193.76.1c-3.6 0-4.35-.74-4.34-4.34q.2-96.86.1-193.76a1 1 0 0 1 1.37.13c2.5 8.14 2.83 16.67 4.63 25 7.9 36.34 23.7 68.77 48.2 96.77 36.13 41.37 81.6 65.42 135.92 73 2.61.36 5.32.46 7.74 1.74a1 1 0 0 1 .14 1.36zM435.1 237.1q0 96.88.1 193.76c0 3.6-.74 4.35-4.34 4.34q-96.86-.2-193.76-.1a1 1 0 0 1 .13-1.37c8.14-2.5 16.67-2.84 25-4.63a214.39 214.39 0 0 0 96.77-48.21c40.41-35 64-79.38 72.47-132 .63-3.92.42-8 2.21-11.69a1 1 0 0 1 1.42-.1z"/><path class="cls-2" d="M434.24 237.14c-10.45 105.6-91.93 187.08-197.11 197.12a3.58 3.58 0 0 1-2 .33h-12.13c-1.63.23-3.36-.53-4.9.52h-1c-1.27-1-2.74-.31-4.1-.52h-12.13c-.94-.06-1.92.19-2.81-.34-105.3-10.17-187.06-91.91-197.12-197.11a3.54 3.54 0 0 1-.32-2v-33.93a4.09 4.09 0 0 1 .3-2.21c8.93-104.83 92.08-188.35 197.14-198 .88-.53 1.86-.28 2.79-.34h11.4c1.61-.23 3.33.52 4.85-.52h1c2.13 1 4.41.27 6.61.52h9.57c1 .06 2-.19 2.86.34 105.3 10.17 187 91.89 197.13 197.1a3.59 3.59 0 0 1 .32 2v9.030000000000001c.2 1.34-.47 2.78.52 4v5c-1.08 1.84-.26 3.85-.52 5.77v10.43c-.07.87.18 1.88-.35 2.81z"/><path class="cls-3" d="M1.09 214.09v8q-.5.65-1 0v-8c.33-.43.66-.46 1 0z"/><path class="cls-4" d="M225.11 1.09c-2.33-.35-4.9.91-7-1h7q.49.32.33.66t-.33.34z"/><path class="cls-5" d="M434.13 224.13c.26-2-.83-4.26 1-6v6c-.34.4-.66.44-1 0z"/><path class="cls-6" d="M217.1.1c-1.4 1.67-3.32.76-5 1q-.49-.33-.32-.67t.32-.33zM218.1 435.1c1.4-1.67 3.32-.76 5-1q.49.33.32.67t-.33.33z"/><path class="cls-7" d="M435.1 213.1c-1.47-1.08-.88-2.64-.95-4q.5-.62.95 0z"/><path class="cls-8" d="M209.09 434.11h4q.51.32.34.65c-.11.22-.22.33-.33.33h-4q-.49-.32-.33-.65t.32-.33z"/><path class="cls-9" d="M213.1 435.1v-1c1.39.12 3-.48 4 1z"/><path class="cls-7" d="M.1 222.1h1v4c-.33.44-.65.4-1 0z"/><path class="cls-10" d="M434.13 224.13h1v3c-.29.45-.6.45-.93 0z"/><path class="cls-11" d="M.1 226.1h1v3c-.32.43-.63.4-.92 0z"/><path class="cls-12" d="M434.24 237.14v-3c.24-.52.52-.52.84-.06v3h-.43z"/><path class="cls-13" d="M435.1 234.1a3.44 3.44 0 0 1-.84.06v-3q.38-.74.84-.05z"/><path class="cls-12" d="M198.06 434.24h3q.55.24.39.52c-.11.2-.22.3-.33.3h-3a5.39 5.39 0 0 0-.06-.82z"/><path class="cls-14" d="M225.11 434.11l3 .09q.43.33.27.62t-.32.28h-3q-.49-.33-.32-.66t.37-.33z"/><path class="cls-15" d="M228.1 435.1q0-.45.05-.9h3q.43.32.26.6t-.32.27z"/><path class="cls-16" d="M201 .93h-3a5.6 5.6 0 0 0 0-.85h3q.51.31.31.57c-.02.19-.14.28-.31.28z"/><path class="cls-17" d="M210.09 1.08l-3-.07q-.45-.33-.29-.62t.3-.29h3q.49.33.32.66t-.33.32z"/><path class="cls-18" d="M230.14 1l-3 .08q-.51-.31-.35-.63c.11-.22.22-.33.33-.33h3q.47.27.33.57c-.11.19-.21.31-.31.31z"/><path class="cls-12" d="M237.14 1h-3q-.54-.24-.39-.53c.11-.2.22-.3.33-.3h3a5.1 5.1 0 0 0 .06.83z"/><path class="cls-19" d="M.95 203.05v3c-.27.48-.56.52-.88 0v-3c.29-.39.57-.39.88 0z"/><path class="cls-20" d="M435.1 209.1h-.95q0-1.5.06-3c.32-.4.62-.4.89 0z"/><path class="cls-21" d="M1.09 214.09h-.99v-3c.3-.46.62-.45.95 0z"/><path class="cls-22" d="M1 211.07h-.95v-3c.3-.43.61-.47.95 0z"/><path class="cls-23" d="M230.14 1a7.43 7.43 0 0 1 0-.88h2q.47.27.33.56c-.1.2-.2.3-.3.3z"/><path class="cls-24" d="M227.1.1v1h-2v-1z"/><path class="cls-7" d="M210.09 1.08v-1h2v1z"/><path class="cls-25" d="M201.1 435.1l-.06-.82h2q.53.25.37.54c-.11.2-.22.29-.33.29z"/><path class="cls-26" d="M203.1 435.1v-.83h2q.53.26.37.56c-.11.2-.22.3-.33.3z"/><path class="cls-27" d="M205.1 435.1v-.86l2-.1q.51.31.34.63c-.11.22-.22.33-.33.33z"/><path class="cls-20" d="M207.1 435.1v-1h2v1z"/><path class="cls-28" d="M207.1.1v.92l-2.1-.02q-.43-.31-.27-.59c.11-.18.21-.27.32-.27z"/><path class="cls-19" d="M205.1.1v.86h-2q-.45-.31-.28-.59c.11-.18.21-.28.32-.28z"/><path class="cls-7" d="M225.11 434.11v1h-2v-1z"/><path class="cls-29" d="M203.1.1a7.63 7.63 0 0 1 0 .87h-2q0-.41.05-.83z"/><path class="cls-30" d="M231.1 435.1a6.67 6.67 0 0 1 .05-.87h2q.44.3.27.57c-.11.18-.21.26-.32.26z"/><path class="cls-31" d="M233.1 435.1v-.84h2q.45.3.28.58c-.11.18-.21.27-.32.27z"/><path class="cls-32" d="M235.1 435.1a7.85 7.85 0 0 1 0-.85h2a6.67 6.67 0 0 0 0 .84z"/><path class="cls-33" d="M435.1 206.1h-.89v-2c.31-.39.59-.39.85 0z"/><path class="cls-34" d="M435.1 204.1h-.85v-2c.3-.39.58-.4.84 0z"/><path class="cls-35" d="M.95 203.05h-.85v-2c.26-.42.54-.46.84 0z"/><path class="cls-36" d="M435.1 202.1a8 8 0 0 0-.84 0v-2c.3-.42.58-.38.84 0z"/><path class="cls-37" d="M.94 201.05h-.84v-2a3.53 3.53 0 0 1 .82-.05z"/><path class="cls-32" d="M435.1 200.1h-.84v-2a8 8 0 0 1 .83 0z"/><path class="cls-38" d="M434.17 227.14h.93v2c-.28.43-.58.46-.89 0z"/><path class="cls-15" d="M.1 229.1h.92q0 1-.05 2c-.32.41-.61.37-.87-.05z"/><path class="cls-39" d="M434.21 229.13h.89v2l-.84.05q-.03-1.04-.05-2.05z"/><path class="cls-40" d="M.1 231.1l.87.05v2c-.3.41-.58.38-.84 0z"/><path class="cls-31" d="M.1 233.1a8.07 8.07 0 0 0 .84 0v2c-.3.4-.58.41-.84 0z"/><path class="cls-38" d="M1 208.07h-.95v-2h.88q.07.99.07 2z"/><path class="cls-41" d="M.1 235.1h.84v2h-.84z"/><path class="cls-25" d="M232.13 1v-.86h2q0 .41.06.83z"/><path class="cls-1" d="M432.08 217.78c-.2 118.58-96.55 214.59-215 214.29-118.32-.3-214.22-96.65-213.96-214.91s96.56-214.26 214.79-214.04 214.37 96.5 214.17 214.66z"/><path class="cls-2" d="M194.45 351.11a61 61 0 0 1-17.45-2.11c-2.25-.6-2.82-1.68-2-4 2.59-7 5.11-14.1 7.38-21.24 1-3.07 2.69-2.48 5-2 12.89 2.79 24.73-1.83 31.83-12.28 5.94-8.75 5.62-20.43-.68-29.64-2-3-2.85-.46-3.9.72-11.63 13.12-26.27 20.34-43.75 20.94-24.55.84-46-14.67-54.55-38.27-14.8-41 15.56-74.32 51.3-77 2.06-.15 5.6 1 3.88-3.65-.43-1.16 1.35-1.72 2.35-2.22 6.73-3.3 13.53-6.47 20.21-9.88 2.44-1.25 3.42-.54 4.52 1.72 16.41 33.93 33.41 67.56 49.16 101.8 12.38 26.85 2.12 53.79-24.65 68.78-10.5 5.83-19.91 8.42-28.65 8.33zM250.17 148.13c8.06-19.21 38.29-33.86 59.86-20a7.65 7.65 0 0 0 1.13.85c.38.74 1.45.47 1.81 1.24a59.16 59.16 0 0 1 14.21 18.44c9.45 19.66 19 39.3 28.67 58.84 1.69 3.4 1.21 4.8-2.21 6.28-6.41 2.79-12.72 5.84-18.87 9.17-3.32 1.8-4.73 1.2-6.34-2.18-8.43-17.77-17.05-35.37-25.66-53.04-1.31-2.69-2.57-5.42-4.67-7.63-7.16-7.55-15.13-8.65-24.83-3.4-8.17 4.42-12 13.19-9.75 22.51a51.82 51.82 0 0 0 4.15 10.69c8 16.32 15.83 32.69 23.93 48.94 1.5 3 1.51 4.56-1.85 6-6.7 3-13.29 6.19-19.79 9.59-2.77 1.45-3.89.92-5.23-1.85q-31.12-64.3-62.44-128.58c-1.75-3.6-3.29-7.3-5.26-10.77-1.48-2.61-1.3-4 1.6-5.35 7-3.18 13.86-6.55 20.68-10 2.41-1.23 3.46-.64 4.55 1.66 3.27 6.92 6.75 13.75 10.14 20.61 4.4 9.8 9.82 19.11 14 29 1.33.85 1.51-.56 2.17-1.02z"/><path class="cls-42" d="M48 214.84c1.71-1.76 3.46-3.49 5.13-5.3 7.27-7.9 6.88-17 3.91-26.39-.27-1.06.21-1.35 1.17-1.15 5 6.29 10.19 12.29 18.91 13.5 4 .56 7.88-.71 11.83-.49 1.23-.32 1.56.22 1.29 1.34-7.9 6.7-12.74 14.71-11 25.56.82 1.28-.24 3 .89 4.18l.06-.05c.51 1.25.61 2.27-1.22 2.24l.05-.07c-.15-.46-.6-.72-.79-1.16v-.07c-.7-.39-.48-1.47-1.32-1.75-5-5.54-11.11-9.16-18.65-10.05-3 .39-6.14-.26-9.1.94-.95.35-1.64-.12-1.16-1.28z"/><path class="cls-43" d="M248 149.15c-5.38-9.33-10.39-18.83-14-29 5.59 9.23 10.8 18.64 14 29z"/><path class="cls-44" d="M48 214.84c3.38 1.22 6.89-2 10.23.32l-11 2.05c-1.09.24-1.42-.27-1.25-1.27z"/><path class="cls-45" d="M79 228.27c1-.43.91-1.44 1.22-2.24.94.77.87 1.92 1.11 3s.79 2.22-1.14 2z"/><path class="cls-46" d="M45.22 218.28c-1.07.84-2.51 1.59-3.29.25-.51-.88 1-1.32 2-1.56a1.49 1.49 0 0 1 1.29 1.31z"/><path class="cls-47" d="M80.16 231l1.14-2c.86 1.15 1.73 2.63.64 3.7-.62.6-1.49-.7-1.78-1.7z"/><path class="cls-48" d="M45.22 218.28l-1.3-1.28 2-1 1.25 1.27z"/><path class="cls-49" d="M90.21 196.35l-1.29-1.35 2.08-1c1.08-.24 1.4.25 1.22 1.25z"/><path class="cls-50" d="M92.22 195.21l-1.22-1.21 2-1.09c1-.14 1.42.31 1.22 1.31z"/><path class="cls-51" d="M94.22 194.19l-1.22-1.31c.89-.7 2-1.4 2.66 0 .43.86-.66 1.12-1.44 1.31z"/><path class="cls-52" d="M58.18 182l-1.18 1.15-1.09-1.95c-.2-1.06.28-1.42 1.28-1.23z"/><path class="cls-53" d="M57.21 180l-1.28 1.23c-.7-.81-1.29-1.88-.23-2.54s1.3.48 1.51 1.31z"/><path class="cls-54" d="M80.13 226.09c-1.54-1.13-1.05-2.69-.89-4.18a4.88 4.88 0 0 1 .89 4.18z"/><path class="cls-43" d="M250.17 148.13a2 2 0 0 1-1.3 2.3c-.76.2-.93-.59-.82-1.28z"/><path class="cls-54" d="M76.87 225.22c1 .15 1.31.84 1.32 1.75a1.94 1.94 0 0 1-1.32-1.75z"/><path class="cls-46" d="M313 130.26a1.93 1.93 0 0 1-1.8-1.26c.93-.05 1.61.25 1.8 1.26z"/><path class="cls-54" d="M78.23 227l.77 1.2z"/><path class="cls-46" d="M311.16 129a.94.94 0 0 1-1.13-.85z"/><path class="cls-1" d="M153.16 267a41.77 41.77 0 0 1-11.54-23.27 26.4 26.4 0 0 1 15.5-27.57c11.15-5.09 23.5-2.52 31.33 6.26a40.52 40.52 0 0 1 8.91 16c3.5 12.23.25 23.21-9.39 30.31-9.82 7.23-20.26 7.44-30.82 1.33a39.55 39.55 0 0 1-3.99-3.06z"/><path class="cls-55" d="M153.16 267c1.9.26 3 1.52 4 3a4.24 4.24 0 0 1-4-3z"/></g></svg>