<svg xmlns="http://www.w3.org/2000/svg" width="398.1" height="320.1" viewBox="0 0 398.1 320.1"><defs><style>.cls-1{fill:transparent;}.cls-2{fill:#ed2737;}.cls-3{fill:#f4808a;}.cls-4{fill:#ee3847;}.cls-5{fill:#ef3a48;}.cls-6{fill:#f7a5ac;}.cls-7{fill:#f37680;}.cls-8{fill:#fbd7da;}.cls-9{fill:#f25c68;}.cls-10{fill:#f9bfc3;}.cls-11{fill:#facfd3;}.cls-12{fill:#f05461;}.cls-13{fill:#f3737d;}.cls-14{fill:#f15662;}.cls-15{fill:#f58d95;}.cls-16{fill:#f8aab0;}.cls-17{fill:#f48089;}.cls-18{fill:#f9bcc1;}.cls-19{fill:#f8b0b6;}.cls-20{fill:#f15b67;}.cls-21{fill:#f5929a;}.cls-22{fill:#f69ba2;}</style></defs><title>Asset 1</title><g id="Layer_1-2"><path class="cls-1" d="M398.05 246v72c0 1.71-.34 2-2 2h-299.5a.53.53 0 0 1 .17-.75 22.69 22.69 0 0 1 5.63-1c16.37-2 32-6.11 46.36-14.63s27-19.24 36.17-33.46a78.48 78.48 0 0 0 13-43.43v-186.21c0-4 0-4-3.78-2.25-16.39 7.73-32.8 15.34-49.18 22.97-2.52 1.18-5.35 1.92-7.29 4.15a7.28 7.28 0 0 0-.36 3.45v64c0 1.32.22 2.67-.4 3.93-.9.86-1.12 0-1.32-.59a34.22 34.22 0 0 1-.91-4.15c-3-15.17-9.54-28.62-20.22-39.79s-23.59-18.38-39.08-19.88c-17.69-1.71-33.44 3.32-47 15-14.78 12.86-23.16 29.25-26.03 48.45-3.59 24 1.46 46.11 16.53 65.41 11.27 14.44 26.08 23.33 44.46 25s34.26-4.38 47.77-16.87c13.23-12.23 20.8-27.47 23.93-45.06.37-2.08.42-2.13 1.73-2.57.71 1.05.51 2.25.51 3.4v26.93c-1.28 18-6 34.82-17.41 49.16-9.65 12.17-22.67 18.74-37.8 21.52a102.18 102.18 0 0 1-18.85 1.93c-18.35-.08-36.13-3.15-52.69-11.58-1.56-.79-3-1.75-4.58-2.56s-2.75-1.8-4.19-2.57c-.75.89-.47 1.75-.47 2.54v53c0 3.68 0 3.74 3.63 4.86a225.21 225.21 0 0 0 46.4 9.59 166.29 166.29 0 0 0 17.68.94 5.28 5.28 0 0 1 2.92.46.53.53 0 0 1 .15.74h-70.25c-1.49 0-1.79-.3-1.79-1.79q.09-158.29.01-316.49c0-1.8.71-1.8 2.05-1.8h276a.71.71 0 0 1-.13.86c-3.92 2.41-8.23 4-12.39 5.87q-23.23 10.55-46.53 20.89c-2.76 1.23-3.74 2.86-3.74 5.89q.12 103.86.06 207.73c0 .75 0 1.5.05 2.25a1.63 1.63 0 0 0 1.71 1.74l2.25.05h54.24c4.19 0 4.2 0 4.2-4.13v-78.49c0-7.18 1.5-14 6.57-19.42 10.16-10.92 30.62-15.6 44.71-2.77 7 6.4 10.17 15 10.21 24.48.11 25.33 0 50.66 0 76 0 4.35 0 4.35 4.41 4.35h50.25c1.45-.01 2.92-.3 4.13.7z"/><path class="cls-2" d="M398.05 246c-19 0-38-.07-57 0-2.26 0-2.72-.61-2.71-2.76q.11-39.86 0-79.72c0-14-9.45-26.32-22.7-29.21-11.2-2.44-21.16.55-29.6 8.14-5.55 5-7.42 11.66-7.41 18.95 0 27.16 0 54.32.06 81.47 0 2.48-.53 3.16-3.1 3.14-19.49-.13-39-.09-58.48 0-1.9 0-2.53-.4-2.53-2.44q.08-106.34 0-212.68c0-1.3.06-2.27 1.58-2.94q30.98-13.66 61.84-27.52c1.18.08 1.16 1 1.25 1.83a30.75 30.75 0 0 1 .05 3.24v125.33c0 3.41-.32 6.8-.47 10.2v2.13a11.14 11.14 0 0 0 0-1.35c-.15-1.55.26-3.06.24-4.6v-1.17a84 84 0 0 1 17.73-42.3 55.17 55.17 0 0 1 25.32-18c14.89-5.15 29.45-4.14 43.71 2.46 9.61 4.45 18 10.47 24.16 19.19 4.24 6 7.51 12.39 7.8 19.93v2.55c.07.55-.19 1.16.26 1.65zM72 319.62c-7.24-.2-14.49-.28-21.7-1a229.51 229.51 0 0 1-48.16-10.47c-1.14-.37-1.61-.81-1.61-2.06q.06-29.74 0-59.43a.8.8 0 0 1 1 .13c14 9.76 29.84 14.4 46.61 16.31a109.47 109.47 0 0 0 38.95-2.23c21.17-5.23 34.93-18.75 42.89-38.65a104.13 104.13 0 0 0 6.65-29.59c.4-4.39.14-8.8.16-13.2 0-7.55.2-15.11-.45-22.65v-6.45c.1-1.91-.3-3.79-.26-5.7a12.2 12.2 0 0 0 .27-3.59c1-24.92.18-49.86.47-74.78a4.57 4.57 0 0 1 .15-1.73c.31-.69 1-.82 1.59-1.09l58.54-27.27c.37-.17.75-.31 1.39-.56.05.92.14 1.7.14 2.47v188.15c0 24.39-9.8 44.57-27.1 61.22a111.88 111.88 0 0 1-65.78 31.14c-3.06.37-6.12.69-9.18 1a3.45 3.45 0 0 1-1.54.17h-5.51c-1.15.13-2.34-.29-3.47.26h-4.5c-.93-.54-1.94-.13-2.91-.26h-5.17a3.06 3.06 0 0 1-1.47-.14z"/><path class="cls-1" d="M397.62 117.52c-2.62-16.05-12.09-27.21-25.62-35.34-21.69-13.07-47.11-11.84-65.82 3.18-11.61 9.32-18.57 21.74-23.16 35.67a119.64 119.64 0 0 0-3.58 15q-.6.13-.65-.48-.06-66.79 0-133.58a3.19 3.19 0 0 1 .26-1.97h117c1.71 0 2.05.34 2 2q-.09 57.75 0 115.5-.24.39-.43.02z"/><path class="cls-3" d="M279.05 0l-.08 2v132c0 .66.06 1.33.09 2 .33.22.14.7.44.94l-.5 5c-.13.26-.26.25-.4 0l-.1-4v-134.54c0-1 .46-2.18-.51-3.06a.43.43 0 0 1 .09-.38z"/><path class="cls-4" d="M86.05 320c1.05-1 2.34-.31 3.5-.5q.25.17.16.33t-.16.17z"/><path class="cls-5" d="M78.55 319.55c1 .15 2.12-.4 3 .5h-3q-.25-.17-.16-.33t.16-.17z"/><path class="cls-6" d="M93.1 319.63h2q.22.16.13.3t-.16.14h-2q-.26-.17-.15-.3a.26.26 0 0 1 .18-.14z"/><path class="cls-7" d="M93.1 319.63a4.14 4.14 0 0 0 0 .42h-2q-.25-.17-.16-.33t.17-.16z"/><path class="cls-8" d="M95.05 320a2.15 2.15 0 0 1 0-.43h1.49a3.05 3.05 0 0 0 0 .43z"/><path class="cls-9" d="M398.05 121.55c-.57-.39-.5-1-.44-1.53q.24-.29.44 0z"/><path class="cls-10" d="M397.62 117.52h.44v1.48q-.25.36-.41-.05z"/><path class="cls-11" d="M72 319.62h1.5q.27.12.19.27c-.05.1-.11.15-.17.15h-1.5a3.42 3.42 0 0 0-.02-.42z"/><path class="cls-12" d="M91.06 319.55v.5h-1.5v-.5z"/><path class="cls-13" d="M75.53 319.62l1.52-.06q.25.16.17.33t-.16.17h-1.5q-.24-.13-.17-.28c.04-.11.09-.16.14-.16z"/><path class="cls-14" d="M77.05 320v-.5h1.5v.5z"/><path class="cls-15" d="M75.53 319.62v.43h-1q-.24-.13-.17-.28c0-.1.1-.15.15-.15z"/><path class="cls-16" d="M74.54 319.61a4 4 0 0 1 0 .43h-1v-.42z"/><path class="cls-17" d="M397.65 119a1.21 1.21 0 0 1 .41.05v1h-.44z"/><path class="cls-2" d="M136.13 161.61c-3.23 21.27-12.38 39.3-29.66 52.52-26.19 20.05-61.69 16.69-84.2-7.91-16.68-18.22-23.27-40-21.34-64.39 1.52-19.59 8.76-36.83 22.65-50.91s31-21.1 51-19.28c16.57 1.5 30.24 9.16 41.42 21.36 11.41 12.48 17.77 27.35 20.2 44a10.3 10.3 0 0 1 .64 4.48c-.17.73.43 1.65-.53 2.2-.74-.2-1-.85-1.24-1.46-4.21-10.2-12.46-15.56-22.61-18.29a43.2 43.2 0 0 0-29.73 2.43c-7.54 3.42-13.47 8.56-16 16.79a20.15 20.15 0 0 0 3.64 19.31c7 8.88 16.59 12.75 27.62 13.43a43.71 43.71 0 0 0 18.88-2.68c8.14-3.19 14.62-8.2 18.1-16.49.29-.68.51-1.43 1.28-1.77 1 .29.5 1.11.62 1.72-.09 1.66.04 3.33-.74 4.94z"/><path class="cls-18" d="M136.63 141.53l-.47-4.55c.76-.87.41-1.91.41-2.87v-66.67c0-1-.31-2 .36-2.9l.12 2.73v71.28c0 1-.07 2-.11 3-.08.23-.19.22-.31-.02z"/><path class="cls-19" d="M136.13 161.61l.49-5q.17-.37.35 0v34.38a7.71 7.71 0 0 1-.37 1.67v-28.42c-.01-.91.35-1.89-.47-2.63z"/><path class="cls-20" d="M278.61 142a1.39 1.39 0 0 0 .4 0v1.84a2.2 2.2 0 0 1-.4-1.84z"/><path class="cls-1" d="M279.5 137c-.47-.16-.5-.53-.44-.94h.42zM136.11 155.1a25.33 25.33 0 0 1-8.92 13c-14.52 11.85-39.09 11.49-53.29-.72-11.9-10.27-11.9-26.14.1-36.28 8.07-6.86 17.65-9.52 28-9.3 9.84.2 18.86 3 26.38 9.69a24.15 24.15 0 0 1 7.73 12 1.6 1.6 0 0 1 .46 1.07l.43 5.44c-.6 1.66.4 3.57-.89 5.1z"/><path class="cls-21" d="M136.11 155.1l.89-5.1v6.57h-.35c-.21-.48.12-1.15-.54-1.47z"/><path class="cls-22" d="M136.57 144.55a.84.84 0 0 1-.46-1.07c.79-.49.26-1.32.52-2h.37c0 1.07.31 2.14-.43 3.07z"/></g></svg>