<?xml version="1.0" encoding="utf-8"?>
<!-- Generator: Adobe Illustrator 16.0.4, SVG Export Plug-In . SVG Version: 6.00 Build 0)  -->
<!DOCTYPE svg PUBLIC "-//W3C//DTD SVG 1.1//EN" "http://www.w3.org/Graphics/SVG/1.1/DTD/svg11.dtd">
<svg version="1.1" id="Layer_1" xmlns="http://www.w3.org/2000/svg" xmlns:xlink="http://www.w3.org/1999/xlink" x="0px" y="0px"
	 width="38.068px" height="52.08px" viewBox="0 0 38.068 52.08" enable-background="new 0 0 38.068 52.08" xml:space="preserve">
<g>
	<path d="M38.068,34.658c0-8.122-5.332-11.222-10.851-13.764c3.845-2.418,7.192-5.766,7.192-10.106C34.41,3.534,26.103,0,19.964,0
		C11.47,0,3.844,6.138,3.844,15.066c0,6.076,2.852,9.486,6.572,11.904C5.022,29.264,0,33.17,0,39.37
		c0,8.06,8.742,12.71,17.856,12.71C27.714,52.08,38.068,46.562,38.068,34.658L38.068,34.658z M27.342,11.904
		c0,2.79-0.062,6.262-2.479,7.998c-5.395-2.356-10.354-4.712-10.354-11.036c0-3.72,2.046-7.316,6.324-7.316
		c5.519,0,6.51,5.518,6.51,9.734C27.342,11.47,27.342,11.718,27.342,11.904L27.342,11.904z M27.652,42.16
		c0,5.952-2.79,8.246-8.928,8.246c-8.06,0-9.3-5.767-9.3-12.4c0-4.154,0.124-7.75,2.976-9.796
		C19.22,31.868,27.652,33.604,27.652,42.16L27.652,42.16z"/>
</g>
</svg>
