<?xml version="1.0" encoding="utf-8"?>
<!-- Generator: Adobe Illustrator 16.0.4, SVG Export Plug-In . SVG Version: 6.00 Build 0)  -->
<!DOCTYPE svg PUBLIC "-//W3C//DTD SVG 1.1//EN" "http://www.w3.org/Graphics/SVG/1.1/DTD/svg11.dtd">
<svg version="1.1" id="Layer_1" xmlns="http://www.w3.org/2000/svg" xmlns:xlink="http://www.w3.org/1999/xlink" x="0px" y="0px"
	 width="80.773px" height="58.009px" viewBox="0 0 80.773 58.009" enable-background="new 0 0 80.773 58.009" xml:space="preserve">
<g>
	<path d="M34.87,17.011c2.445-0.286,4.915,2.76,5.352,5.49c0.375,2.34-0.746,4.004-2.999,4.451
		c-2.213,0.439-4.124,0.942-5.785,1.526h49.335V0h-51.15v23.846C30.622,20.277,32.126,17.348,34.87,17.011z"/>
	<path d="M37.021,25.934c2.163-0.43,2.376-2.016,2.176-3.27c-0.377-2.351-2.382-4.635-4-4.635c-0.067,0-0.134,0.004-0.2,0.012
		c-3.254,0.399-4.563,6.271-5.271,10.003C31.732,27.192,34.152,26.502,37.021,25.934z"/>
	<path d="M21.023,16.775c-0.143-0.029-0.286-0.043-0.428-0.043c-0.823,0-1.624,0.483-2.436,1.465c-0.9,1.089-1.119,2.176-0.67,3.325
		c1.121,2.865,6.223,5.446,10.734,6.333C27.031,24.329,24.095,17.388,21.023,16.775z"/>
	<path d="M16.522,21.9c-0.583-1.489-0.293-2.999,0.836-4.365c1.202-1.453,2.501-2.051,3.869-1.778
		c3.301,0.659,6.014,6.544,7.357,10.056V0H0v28.478h26.358C22.052,27.292,17.659,24.806,16.522,21.9z"/>
	<path d="M23.418,44.889c0.052,0.283-0.134,0.553-0.416,0.605c-0.032,0.006-0.064,0.01-0.095,0.01c-0.246,0-0.464-0.176-0.51-0.426
		c-1.423-7.672-0.214-12.459,4.536-15.562H0v28.492h28.584V29.694C23.232,32.518,21.956,37,23.418,44.889z"/>
	<path d="M36.743,40.754c-0.27,0.092-0.567-0.051-0.661-0.32c-1.575-4.529-3.957-9.44-5.929-10.918h-0.529v28.492h51.15V29.516
		H31.641c2.637,2.879,4.899,9.071,5.422,10.576C37.157,40.364,37.014,40.661,36.743,40.754z"/>
</g>
</svg>
