<?xml version="1.0" encoding="utf-8"?>
<svg id="Layer_1" x="0px" y="0px" width="73.632px" height="57.306px" viewBox="0 0 73.632 57.306" xmlns="http://www.w3.org/2000/svg">
  <g>
    <path d="M64.837,23.41c0.318,0.688,0.859,1.065,1.525,1.065c0.302,0,0.623-0.078,0.954-0.232l2.18-1.008l-0.332-0.72l-2.212,1.024&#10;&#9;&#9;c-0.646,0.298-1.147,0.148-1.42-0.438c-0.135-0.291-0.152-0.557-0.055-0.792c0.1-0.24,0.328-0.448,0.658-0.6l2.187-1.013&#10;&#9;&#9;l-0.334-0.72l-2.211,1.023C64.733,21.482,64.373,22.405,64.837,23.41z"/>
    <path d="M45.684,11.144l1.882-0.096l0.507,1.002l0.861-0.043l-2.146-4.167l-0.64,0.033l-1.712,4.361l0.837-0.042L45.684,11.144z&#10;&#9;&#9; M46.519,8.98l0.679,1.335l-1.221,0.063L46.519,8.98z"/>
    <polygon points="41.058,13.198 41.168,10.265 42.862,12.658 43.461,12.479 43.69,7.954 42.886,8.194 42.764,11.211 41.042,8.733 &#10;&#9;&#9;40.45,8.912 40.368,11.927 38.611,9.47 37.791,9.715 40.463,13.374 &#9;"/>
    <polygon points="49.855,12.263 50.646,12.376 50.886,10.729 53.013,8.433 52.079,8.298 50.605,9.908 49.66,7.948 48.704,7.811 &#10;&#9;&#9;50.093,10.619 &#9;"/>
    <polygon points="61.151,17.871 63.286,15.979 62.644,19.552 63.05,20.012 66.223,17.197 65.703,16.611 63.624,18.455 &#10;&#9;&#9;64.255,14.977 63.807,14.472 60.633,17.285 &#9;"/>
    <path d="M58.506,15.725c0.369,0.25,0.79,0.382,1.215,0.382c0.692,0,1.348-0.345,1.765-0.924l0.07-0.102&#10;&#9;&#9;c0.307-0.471,0.426-1.021,0.338-1.558c-0.093-0.572-0.423-1.076-0.926-1.416c-0.369-0.25-0.788-0.382-1.215-0.382&#10;&#9;&#9;c-0.715,0-1.39,0.367-1.811,0.989c-0.325,0.479-0.454,1.045-0.363,1.594C57.674,14.881,58.003,15.384,58.506,15.725z M58.626,13.15&#10;&#9;&#9;c0.276-0.408,0.713-0.653,1.164-0.653c0.261,0,0.517,0.081,0.741,0.234c0.311,0.21,0.513,0.525,0.571,0.887&#10;&#9;&#9;c0.056,0.36-0.032,0.733-0.254,1.063c-0.438,0.644-1.287,0.838-1.907,0.418c-0.311-0.21-0.513-0.525-0.57-0.887&#10;&#9;&#9;C58.314,13.854,58.401,13.48,58.626,13.15z"/>
    <path d="M54.021,12.549c-0.439-0.156-0.721-0.412-0.973-0.883l-0.088-0.162l-0.673,0.392l0.083,0.152&#10;&#9;&#9;c0.327,0.6,0.767,0.982,1.382,1.202c0.219,0.078,0.434,0.117,0.64,0.117c0.575,0,1.026-0.305,1.21-0.824&#10;&#9;&#9;c0.291-0.808-0.326-1.319-0.896-1.672c-0.795-0.492-0.729-0.677-0.663-0.865c0.088-0.243,0.41-0.332,0.765-0.206&#10;&#9;&#9;c0.348,0.124,0.607,0.347,0.82,0.698l0.097,0.159l0.652-0.43l-0.09-0.146c-0.3-0.487-0.676-0.791-1.218-0.983&#10;&#9;&#9;c-0.773-0.273-1.553,0.021-1.79,0.689c-0.29,0.813,0.274,1.299,0.926,1.705c0.759,0.465,0.69,0.656,0.626,0.835&#10;&#9;&#9;C54.737,12.591,54.4,12.686,54.021,12.549z"/>
    <path d="M70.263,25.866c-0.168-0.688-0.68-1.151-1.271-1.151c-0.093,0-0.188,0.012-0.292,0.037&#10;&#9;&#9;c-0.835,0.207-0.93,0.947-0.909,1.714c0.031,0.889-0.166,0.937-0.35,0.984c-0.279,0.072-0.538-0.161-0.634-0.554&#10;&#9;&#9;c-0.112-0.451-0.056-0.829,0.196-1.297l0.088-0.163l-0.696-0.346l-0.082,0.153c-0.32,0.604-0.396,1.182-0.238,1.817&#10;&#9;&#9;c0.181,0.725,0.688,1.193,1.297,1.193c0.1,0,0.201-0.013,0.314-0.041c0.831-0.204,0.916-1,0.898-1.672&#10;&#9;&#9;c-0.029-0.933,0.161-0.98,0.357-1.029c0.248-0.064,0.5,0.155,0.591,0.523c0.089,0.358,0.049,0.699-0.128,1.07l-0.079,0.166&#10;&#9;&#9;l0.719,0.31l0.072-0.158C70.356,26.903,70.401,26.423,70.263,25.866z"/>
    <path d="M27.138,21.506c0.028,0.051,0.042,0.131,0.028,0.259l-0.017,0.175l0.537,0.063l0.036-0.156&#10;&#9;&#9;c0.115-0.515-0.05-0.858-0.521-1.083l-0.612-0.292l-0.373,0.783l0.851,0.404L27.138,21.506z"/>
    <rect x="24.422" y="26.406" transform="matrix(-0.9814 -0.1918 0.1918 -0.9814 47.4536 58.1988)" width="4.242" height="0.793"/>
    <polygon points="39.47,13.701 39.085,13.044 37.197,14.149 35.438,11.144 34.753,11.547 36.897,15.206 &#9;"/>
    <polygon points="26.157,23.324 26.596,22.096 25.88,21.838 24.735,25.049 25.451,25.307 25.889,24.077 29.168,25.246 &#10;&#9;&#9;29.436,24.493 &#9;"/>
    <path d="M33.894,17.615l-0.336-1.073l1.411-1.251l1.021,0.466l0.646-0.573l-4.277-1.913l-0.479,0.425l1.387,4.477L33.894,17.615z&#10;&#9;&#9; M34.224,14.949l-0.916,0.81l-0.449-1.429L34.224,14.949z"/>
    <path d="M29.937,19.723c0.339-0.329,0.576-0.482,0.741-0.482c0.067,0,0.134,0.024,0.223,0.084c0.238,0.163,0.244,0.501,0.013,0.842&#10;&#9;&#9;c-0.261,0.386-0.577,0.594-1.098,0.723l-0.178,0.044l0.211,0.746l0.168-0.041c0.663-0.166,1.142-0.497,1.507-1.039&#10;&#9;&#9;c0.497-0.733,0.41-1.54-0.222-1.967c-0.554-0.376-1.107-0.251-1.842,0.451c-0.362,0.347-0.611,0.51-0.781,0.51&#10;&#9;&#9;c-0.067,0-0.133-0.025-0.223-0.084c-0.099-0.067-0.156-0.171-0.165-0.302c-0.011-0.149,0.045-0.323,0.157-0.489&#10;&#9;&#9;c0.207-0.306,0.487-0.504,0.882-0.622l0.178-0.053l-0.253-0.74l-0.165,0.052c-0.545,0.167-0.933,0.456-1.256,0.934&#10;&#9;&#9;c-0.224,0.33-0.328,0.7-0.293,1.044c0.035,0.354,0.214,0.658,0.512,0.861C28.637,20.588,29.148,20.476,29.937,19.723z"/>
    <path d="M47.567,13.563c-10.077,0-18.275,8.198-18.275,18.275c0,10.077,8.198,18.275,18.275,18.275s18.275-8.198,18.275-18.275&#10;&#9;&#9;C65.843,21.761,57.645,13.563,47.567,13.563z M47.567,48.901c-9.409,0-17.063-7.654-17.063-17.063&#10;&#9;&#9;c0-9.409,7.654-17.063,17.063-17.063c9.408,0,17.062,7.654,17.062,17.063C64.63,41.247,56.976,48.901,47.567,48.901z"/>
    <path d="M47.567,5.176c-7.971,0-15.379,3.58-20.369,9.83L0.596,0L0,1.055l26.452,14.921c-0.704,0.974-1.351,2.018-1.93,3.111&#10;&#9;&#9;L0.585,6.01L0.003,7.071l23.971,13.1c-0.544,1.157-1.008,2.376-1.382,3.634L0.577,12.148l-0.568,1.07L22.258,25&#10;&#9;&#9;c-0.365,1.479-0.599,3.005-0.697,4.547L0.583,18.156l-0.578,1.065l21.506,11.677c-0.004,0.114-0.008,0.228-0.008,0.343&#10;&#9;&#9;c0,14.372,11.692,26.065,26.064,26.065c14.372,0,26.064-11.693,26.064-26.065C73.632,16.869,61.939,5.176,47.567,5.176z&#10;&#9;&#9; M47.567,56.092c-13.704,0-24.853-11.148-24.853-24.852c0-13.704,11.149-24.852,24.853-24.852&#10;&#9;&#9;c13.703,0,24.852,11.148,24.852,24.852C72.419,44.943,61.271,56.092,47.567,56.092z"/>
    <path d="M47.353,26.82c-1.684,0-3.189,0.753-4.22,1.922v-5.35h-1.387v9.055c0,3.091,2.516,5.607,5.626,5.607&#10;&#9;&#9;c3.092,0,5.608-2.517,5.608-5.627C52.98,29.337,50.464,26.82,47.353,26.82z M47.353,36.667c-2.317,0-4.22-1.901-4.22-4.239&#10;&#9;&#9;c0-2.318,1.902-4.221,4.239-4.221c2.319,0,4.222,1.902,4.222,4.24C51.594,34.766,49.691,36.667,47.353,36.667z"/>
  </g>
</svg>