<?xml version="1.0" encoding="utf-8"?>
<svg x="0px" y="0px" width="280px" height="80px" viewBox="0 0 280 80" xmlns="http://www.w3.org/2000/svg">
  <g id="background"/>
  <g id="design">
    <g>
      <g enable-background="new    ">
        <path d="M27.275,69.399h0.846v6.23h-0.846V69.399z"/>
      </g>
      <g enable-background="new    ">
        <path d="M29.951,69.399h1.109l3.432,5.122h0.018v-5.122h0.846v6.23h-1.074l-3.467-5.122h-0.018v5.122h-0.846&#10;&#9;&#9;&#9;&#9;V69.399z"/>
      </g>
      <g enable-background="new    ">
        <path d="M40.055,74.327c0.152,0.229,0.346,0.396,0.584,0.506c0.238,0.108,0.482,0.163,0.736,0.163&#10;&#9;&#9;&#9;&#9;c0.141,0,0.283-0.021,0.43-0.065s0.281-0.109,0.4-0.198c0.119-0.088,0.219-0.195,0.295-0.325&#10;&#9;&#9;&#9;&#9;c0.076-0.129,0.113-0.278,0.113-0.448c0-0.24-0.074-0.424-0.229-0.55c-0.152-0.126-0.342-0.232-0.566-0.317&#10;&#9;&#9;&#9;&#9;c-0.227-0.085-0.473-0.167-0.738-0.246c-0.268-0.079-0.514-0.188-0.74-0.33c-0.227-0.14-0.414-0.33-0.566-0.566&#10;&#9;&#9;&#9;&#9;c-0.152-0.237-0.229-0.56-0.229-0.964c0-0.183,0.039-0.375,0.119-0.581c0.078-0.205,0.203-0.394,0.373-0.562&#10;&#9;&#9;&#9;&#9;c0.17-0.171,0.389-0.312,0.656-0.427s0.588-0.172,0.963-0.172c0.342,0,0.666,0.047,0.979,0.141&#10;&#9;&#9;&#9;&#9;c0.311,0.094,0.582,0.285,0.818,0.572l-0.688,0.625c-0.105-0.165-0.256-0.297-0.449-0.396s-0.414-0.148-0.66-0.148&#10;&#9;&#9;&#9;&#9;c-0.234,0-0.43,0.029-0.586,0.092c-0.154,0.062-0.279,0.142-0.373,0.238c-0.094,0.096-0.16,0.2-0.197,0.312&#10;&#9;&#9;&#9;&#9;c-0.039,0.111-0.059,0.214-0.059,0.309c0,0.265,0.076,0.467,0.229,0.606s0.342,0.255,0.568,0.343s0.473,0.168,0.738,0.238&#10;&#9;&#9;&#9;&#9;c0.268,0.07,0.514,0.168,0.74,0.294c0.225,0.127,0.414,0.297,0.568,0.511c0.15,0.215,0.229,0.51,0.229,0.886&#10;&#9;&#9;&#9;&#9;c0,0.299-0.057,0.568-0.172,0.81c-0.113,0.241-0.27,0.442-0.461,0.607c-0.195,0.164-0.422,0.29-0.688,0.378&#10;&#9;&#9;&#9;&#9;s-0.545,0.132-0.846,0.132c-0.398,0-0.777-0.07-1.135-0.211c-0.357-0.142-0.643-0.357-0.854-0.651L40.055,74.327z"/>
      </g>
      <g enable-background="new    ">
        <path d="M46.258,70.191h-2.006v-0.792h4.855v0.792h-2.006v5.438h-0.844V70.191z"/>
      </g>
      <g enable-background="new    ">
        <path d="M52.912,75.789c-0.477,0-0.912-0.084-1.312-0.252c-0.4-0.167-0.742-0.397-1.025-0.69&#10;&#9;&#9;&#9;&#9;s-0.508-0.64-0.67-1.038c-0.16-0.398-0.24-0.83-0.24-1.294c0-0.463,0.08-0.895,0.24-1.294c0.162-0.397,0.387-0.744,0.67-1.038&#10;&#9;&#9;&#9;&#9;c0.283-0.293,0.625-0.522,1.025-0.689c0.398-0.168,0.836-0.251,1.312-0.251c0.475,0,0.91,0.083,1.311,0.251&#10;&#9;&#9;&#9;&#9;c0.398,0.167,0.74,0.396,1.025,0.689c0.283,0.294,0.508,0.641,0.668,1.038c0.162,0.399,0.242,0.831,0.242,1.294&#10;&#9;&#9;&#9;&#9;c0,0.464-0.08,0.896-0.242,1.294c-0.16,0.398-0.385,0.745-0.668,1.038c-0.285,0.293-0.627,0.523-1.025,0.69&#10;&#9;&#9;&#9;&#9;C53.822,75.705,53.387,75.789,52.912,75.789z M52.912,74.996c0.355,0,0.68-0.065,0.967-0.198c0.287-0.132,0.535-0.309,0.74-0.532&#10;&#9;&#9;&#9;&#9;c0.203-0.223,0.361-0.484,0.475-0.787c0.111-0.303,0.168-0.623,0.168-0.964c0-0.34-0.057-0.661-0.168-0.964&#10;&#9;&#9;&#9;&#9;c-0.111-0.302-0.271-0.563-0.475-0.786c-0.205-0.224-0.453-0.4-0.74-0.533s-0.609-0.197-0.967-0.197&#10;&#9;&#9;&#9;&#9;c-0.359,0-0.684,0.064-0.971,0.197s-0.531,0.31-0.736,0.533c-0.207,0.223-0.365,0.484-0.477,0.786&#10;&#9;&#9;&#9;&#9;c-0.113,0.303-0.168,0.624-0.168,0.964c0,0.341,0.055,0.661,0.168,0.964c0.111,0.303,0.27,0.564,0.477,0.787&#10;&#9;&#9;&#9;&#9;c0.205,0.225,0.449,0.4,0.736,0.532C52.23,74.931,52.553,74.996,52.912,74.996z"/>
      </g>
      <g enable-background="new    ">
        <path d="M57.602,69.399h2.191c0.396,0,0.727,0.056,0.984,0.163c0.258,0.108,0.461,0.246,0.611,0.413&#10;&#9;&#9;&#9;&#9;c0.148,0.168,0.254,0.355,0.312,0.563s0.09,0.409,0.09,0.603c0,0.2-0.035,0.393-0.107,0.577c-0.07,0.186-0.17,0.353-0.303,0.501&#10;&#9;&#9;&#9;&#9;c-0.133,0.149-0.293,0.276-0.484,0.379c-0.189,0.104-0.402,0.166-0.637,0.188l1.768,2.843h-1.055l-1.584-2.745h-0.943v2.745&#10;&#9;&#9;&#9;&#9;h-0.844V69.399z M58.445,72.146h1.107c0.164,0,0.328-0.014,0.488-0.04c0.162-0.025,0.307-0.074,0.432-0.146&#10;&#9;&#9;&#9;&#9;c0.127-0.07,0.229-0.171,0.305-0.304s0.113-0.304,0.113-0.516c0-0.21-0.037-0.383-0.113-0.515s-0.178-0.233-0.305-0.304&#10;&#9;&#9;&#9;&#9;c-0.125-0.07-0.27-0.117-0.432-0.146c-0.16-0.025-0.324-0.04-0.488-0.04h-1.107V72.146z"/>
      </g>
      <g enable-background="new    ">
        <path d="M63.24,69.399h4.021v0.792h-3.176v1.856h2.957v0.792h-2.957v1.998h3.334v0.792h-4.18V69.399L63.24,69.399&#10;&#9;&#9;&#9;&#9;z"/>
      </g>
      <path d="M48.598,33.763c4.221,0,7.688,3.307,7.688,7.364c0,4.033-3.469,7.339-7.725,7.339&#10;&#9;&#9;&#9;c-4.232,0-7.705-3.306-7.705-7.373C40.855,37.069,44.326,33.763,48.598,33.763 M48.598,50.879c5.619,0,10.221-4.376,10.221-9.787&#10;&#9;&#9;&#9;c0-5.368-4.602-9.743-10.256-9.743c-3.076,0-5.824,1.312-7.707,3.34v-9.3H38.33v15.738C38.33,46.503,42.926,50.879,48.598,50.879&#10;&#9;&#9;&#9; M46.85,3.815c-3.688,0-6.676,2.997-6.676,6.679l0.039,9.104h13.312v-9.104C53.525,6.812,50.523,3.815,46.85,3.815 M63.871,19.597&#10;&#9;&#9;&#9;v36.182H30.678V19.597h7.559v-9.104c0-4.737,3.859-8.596,8.613-8.596c4.736,0,8.596,3.858,8.596,8.596l0.057,9.104H63.871z"/>
    </g>
    <g>
      <g enable-background="new    ">
        <path d="M125.253,75.791c-0.475,0-0.912-0.083-1.311-0.251c-0.398-0.167-0.74-0.396-1.025-0.69&#10;&#9;&#9;&#9;&#9;c-0.283-0.293-0.506-0.639-0.668-1.037c-0.162-0.399-0.242-0.83-0.242-1.293c0-0.465,0.082-0.896,0.242-1.295&#10;&#9;&#9;&#9;&#9;c0.162-0.398,0.385-0.744,0.668-1.038c0.285-0.292,0.627-0.523,1.025-0.69c0.398-0.168,0.836-0.251,1.311-0.251&#10;&#9;&#9;&#9;&#9;c0.477,0,0.912,0.083,1.312,0.251c0.398,0.167,0.74,0.398,1.025,0.69c0.285,0.294,0.508,0.64,0.668,1.038&#10;&#9;&#9;&#9;&#9;c0.162,0.398,0.242,0.83,0.242,1.295c0,0.463-0.08,0.894-0.242,1.293c-0.16,0.398-0.383,0.744-0.668,1.037&#10;&#9;&#9;&#9;&#9;c-0.285,0.295-0.627,0.523-1.025,0.69C126.167,75.708,125.73,75.791,125.253,75.791z M125.253,74.999&#10;&#9;&#9;&#9;&#9;c0.359,0,0.682-0.065,0.969-0.198c0.287-0.131,0.533-0.309,0.738-0.531s0.363-0.485,0.477-0.787&#10;&#9;&#9;&#9;&#9;c0.109-0.303,0.166-0.623,0.166-0.963c0-0.342-0.057-0.662-0.166-0.965c-0.113-0.303-0.271-0.564-0.477-0.787&#10;&#9;&#9;&#9;&#9;s-0.451-0.4-0.738-0.532s-0.609-0.198-0.969-0.198c-0.357,0-0.68,0.066-0.967,0.198c-0.289,0.132-0.535,0.31-0.74,0.532&#10;&#9;&#9;&#9;&#9;s-0.363,0.484-0.475,0.787s-0.166,0.623-0.166,0.965c0,0.34,0.055,0.66,0.166,0.963c0.111,0.302,0.27,0.564,0.475,0.787&#10;&#9;&#9;&#9;&#9;c0.205,0.224,0.453,0.4,0.74,0.531C124.574,74.934,124.896,74.999,125.253,74.999z"/>
      </g>
      <g enable-background="new    ">
        <path d="M129.945,69.402h1.109l3.432,5.122h0.018v-5.122h0.846v6.23h-1.074l-3.467-5.123h-0.02v5.123h-0.844&#10;&#9;&#9;&#9;&#9;V69.402z"/>
      </g>
      <g enable-background="new    ">
        <path d="M137.224,69.402h0.844v5.438h2.861v0.793h-3.705V69.402z"/>
      </g>
      <g enable-background="new    ">
        <path d="M141.914,69.402h0.846v6.23h-0.846V69.402z"/>
      </g>
      <g enable-background="new    ">
        <path d="M144.587,69.402h1.109l3.432,5.122h0.02v-5.122h0.844v6.23h-1.072l-3.469-5.123h-0.018v5.123h-0.846&#10;&#9;&#9;&#9;&#9;V69.402z"/>
      </g>
      <g enable-background="new    ">
        <path d="M151.865,69.402h4.021v0.792h-3.176v1.856h2.957v0.791h-2.957v1.998h3.334v0.793h-4.18V69.402z"/>
      </g>
      <g>
        <path d="M166.289,52.18l-7.811-10.572c-0.314-0.426-0.809-0.684-1.355-0.684h-34.299&#10;&#9;&#9;&#9;&#9;c-0.551,0-1.041,0.258-1.359,0.684l-8.006,10.835c-0.375,0.517-0.432,1.196-0.139,1.759c0.281,0.569,0.861,0.932,1.492,0.932&#10;&#9;&#9;&#9;&#9;h50.318h0.053c0.932,0,1.684-0.755,1.684-1.69C166.865,52.941,166.646,52.49,166.289,52.18"/>
        <path d="M155.785,38.746h-31.623V18.43h31.623V38.746z M157.123,15.844h-34.297c-0.936,0-1.682,0.754-1.682,1.682&#10;&#9;&#9;&#9;&#9;v21.682c0,0.926,0.746,1.682,1.682,1.682h34.297c0.936,0,1.68-0.756,1.68-1.682V17.525&#10;&#9;&#9;&#9;&#9;C158.802,16.598,158.058,15.844,157.123,15.844"/>
      </g>
    </g>
    <g>
      <g enable-background="new    ">
        <path d="M217.964,75.788c-0.477,0-0.912-0.083-1.312-0.251c-0.398-0.167-0.74-0.397-1.023-0.69&#10;&#9;&#9;&#9;&#9;c-0.285-0.293-0.508-0.64-0.668-1.037c-0.162-0.399-0.242-0.83-0.242-1.295c0-0.463,0.08-0.895,0.242-1.293&#10;&#9;&#9;&#9;&#9;c0.16-0.398,0.383-0.744,0.668-1.039c0.285-0.293,0.625-0.522,1.023-0.689c0.4-0.168,0.836-0.251,1.312-0.251&#10;&#9;&#9;&#9;&#9;c0.475,0,0.912,0.083,1.311,0.251c0.4,0.167,0.74,0.396,1.025,0.689c0.285,0.295,0.508,0.641,0.67,1.039&#10;&#9;&#9;&#9;&#9;c0.16,0.398,0.242,0.83,0.242,1.293c0,0.465-0.082,0.896-0.242,1.295c-0.162,0.397-0.385,0.744-0.67,1.037&#10;&#9;&#9;&#9;&#9;s-0.625,0.523-1.025,0.69C218.876,75.705,218.439,75.788,217.964,75.788z M217.964,74.996c0.357,0,0.68-0.065,0.967-0.198&#10;&#9;&#9;&#9;&#9;c0.287-0.132,0.535-0.309,0.74-0.531c0.205-0.224,0.363-0.485,0.475-0.787c0.111-0.303,0.166-0.623,0.166-0.965&#10;&#9;&#9;&#9;&#9;c0-0.34-0.055-0.66-0.166-0.963s-0.27-0.564-0.475-0.787c-0.207-0.224-0.453-0.4-0.74-0.533s-0.609-0.197-0.967-0.197&#10;&#9;&#9;&#9;&#9;c-0.359,0-0.682,0.064-0.969,0.197s-0.533,0.311-0.738,0.533c-0.207,0.223-0.365,0.484-0.477,0.787s-0.166,0.623-0.166,0.963&#10;&#9;&#9;&#9;&#9;c0,0.342,0.057,0.662,0.166,0.965c0.111,0.302,0.271,0.563,0.477,0.787s0.451,0.399,0.738,0.531&#10;&#9;&#9;&#9;&#9;C217.285,74.931,217.605,74.996,217.964,74.996z"/>
      </g>
      <g enable-background="new    ">
        <path d="M223.394,69.4v3.817c0,0.193,0.025,0.396,0.078,0.604c0.053,0.209,0.141,0.4,0.264,0.576&#10;&#9;&#9;&#9;&#9;c0.123,0.177,0.285,0.32,0.484,0.432s0.447,0.167,0.74,0.167s0.539-0.056,0.738-0.167s0.361-0.255,0.484-0.432&#10;&#9;&#9;&#9;&#9;c0.123-0.176,0.211-0.367,0.264-0.576c0.053-0.208,0.078-0.409,0.078-0.604V69.4h0.846v3.95c0,0.363-0.062,0.693-0.186,0.989&#10;&#9;&#9;&#9;&#9;s-0.293,0.554-0.51,0.771c-0.217,0.218-0.473,0.385-0.766,0.502c-0.295,0.117-0.611,0.176-0.951,0.176s-0.656-0.059-0.951-0.176&#10;&#9;&#9;&#9;&#9;c-0.293-0.117-0.547-0.284-0.764-0.502c-0.219-0.217-0.389-0.475-0.512-0.771s-0.186-0.626-0.186-0.989V69.4H223.394z"/>
      </g>
      <g enable-background="new    ">
        <path d="M230.345,70.19h-2.006V69.4h4.857v0.79h-2.006v5.438h-0.844V70.19H230.345z"/>
      </g>
      <g enable-background="new    ">
        <path d="M234.226,69.4h0.846v5.437h2.859v0.792h-3.705V69.4z"/>
      </g>
      <g enable-background="new    ">
        <path d="M238.943,69.4h4.021v0.79h-3.178v1.856h2.957v0.792h-2.957v1.998h3.336v0.792h-4.182V69.4H238.943z"/>
      </g>
      <g enable-background="new    ">
        <path d="M245.869,70.19h-2.008V69.4h4.857v0.79h-2.006v5.438h-0.846V70.19H245.869z"/>
      </g>
      <g enable-background="new    ">
        <path d="M250.005,74.327c0.15,0.229,0.348,0.396,0.586,0.506c0.236,0.109,0.48,0.163,0.734,0.163&#10;&#9;&#9;&#9;&#9;c0.141,0,0.283-0.021,0.432-0.065c0.145-0.043,0.279-0.109,0.398-0.196c0.119-0.089,0.219-0.197,0.297-0.327&#10;&#9;&#9;&#9;&#9;c0.074-0.129,0.111-0.278,0.111-0.447c0-0.24-0.076-0.425-0.229-0.551s-0.342-0.232-0.566-0.316&#10;&#9;&#9;&#9;&#9;c-0.225-0.086-0.473-0.168-0.74-0.246c-0.266-0.08-0.514-0.189-0.738-0.33s-0.414-0.33-0.566-0.567s-0.229-0.56-0.229-0.964&#10;&#9;&#9;&#9;&#9;c0-0.182,0.039-0.375,0.117-0.581c0.078-0.205,0.203-0.394,0.373-0.562c0.17-0.172,0.391-0.312,0.656-0.428&#10;&#9;&#9;&#9;&#9;c0.268-0.115,0.588-0.172,0.963-0.172c0.34,0,0.666,0.047,0.979,0.141c0.311,0.094,0.584,0.285,0.816,0.572l-0.686,0.625&#10;&#9;&#9;&#9;&#9;c-0.105-0.165-0.256-0.297-0.449-0.396c-0.193-0.099-0.414-0.148-0.66-0.148c-0.232,0-0.43,0.029-0.584,0.092&#10;&#9;&#9;&#9;&#9;c-0.156,0.062-0.281,0.143-0.375,0.238s-0.16,0.201-0.195,0.312c-0.039,0.11-0.061,0.213-0.061,0.308&#10;&#9;&#9;&#9;&#9;c0,0.265,0.078,0.467,0.23,0.606c0.15,0.142,0.342,0.256,0.566,0.344c0.227,0.089,0.473,0.168,0.738,0.237&#10;&#9;&#9;&#9;&#9;c0.266,0.07,0.514,0.169,0.74,0.294c0.227,0.127,0.414,0.297,0.566,0.512c0.152,0.213,0.23,0.509,0.23,0.885&#10;&#9;&#9;&#9;&#9;c0,0.299-0.059,0.568-0.172,0.81c-0.115,0.241-0.27,0.442-0.463,0.607s-0.424,0.29-0.688,0.378s-0.545,0.132-0.844,0.132&#10;&#9;&#9;&#9;&#9;c-0.4,0-0.777-0.069-1.137-0.211c-0.357-0.142-0.643-0.356-0.854-0.651L250.005,74.327z"/>
      </g>
      <g>
        <g>
          <path d="M236.48,36.968c0.186-0.074,0.396-0.104,0.592-0.104c0.523-0.013,1.031,0.263,1.344,0.709l-2.916,1.183&#10;&#9;&#9;&#9;&#9;&#9;C235.388,38.005,235.777,37.261,236.48,36.968 M238.656,38.688c-0.086,0.582-0.455,1.066-0.984,1.283&#10;&#9;&#9;&#9;&#9;&#9;c-0.186,0.082-0.396,0.113-0.594,0.114c-0.521,0.002-1.033-0.264-1.346-0.72l3.488-1.406l0.051-0.021l-0.014-0.071&#10;&#9;&#9;&#9;&#9;&#9;c-0.035-0.084-0.045-0.159-0.086-0.25c-0.338-0.871-1.17-1.443-2.104-1.429c-0.283,0-0.562,0.051-0.834,0.162&#10;&#9;&#9;&#9;&#9;&#9;c-0.561,0.221-0.986,0.656-1.246,1.217c-0.234,0.561-0.236,1.185-0.01,1.75c0.336,0.88,1.17,1.441,2.102,1.438&#10;&#9;&#9;&#9;&#9;&#9;c0.281,0,0.562-0.062,0.838-0.163c0.84-0.345,1.406-1.19,1.406-2.119v-0.09l-0.662,0.275L238.656,38.688z"/>
          <path d="M233.814,38.354c0.1-0.248,0.285-0.42,0.52-0.526l0.051-0.021l-0.24-0.613l-0.051,0.021&#10;&#9;&#9;&#9;&#9;&#9;c-0.408,0.162-0.705,0.47-0.883,0.87c-0.182,0.399-0.184,0.854-0.008,1.254l0.994,2.568l0.033,0.062l0.609-0.254l-1.031-2.627&#10;&#9;&#9;&#9;&#9;&#9;C233.714,38.851,233.716,38.591,233.814,38.354"/>
          <path d="M226.316,44.671c-0.006,0.025-0.004,0.053-0.014,0.08c-0.033,0.045-0.074,0.084-0.09,0.13&#10;&#9;&#9;&#9;&#9;&#9;c-0.041,0.054-0.082,0.104-0.127,0.162c-0.051,0.056-0.1,0.123-0.154,0.173c-0.094,0.084-0.191,0.141-0.316,0.202&#10;&#9;&#9;&#9;&#9;&#9;c-0.012,0.005-0.041,0.028-0.055,0.043c-0.002,0-0.002,0-0.002,0c0.012-0.017,0.043-0.038,0.057-0.044&#10;&#9;&#9;&#9;&#9;&#9;c0.125-0.05,0.223-0.118,0.316-0.202c0.055-0.051,0.104-0.12,0.154-0.173c0.045-0.061,0.086-0.109,0.127-0.162&#10;&#9;&#9;&#9;&#9;&#9;C226.259,44.813,226.298,44.743,226.316,44.671c0.047-0.137,0.094-0.275,0.094-0.416&#10;&#9;&#9;&#9;&#9;&#9;C226.406,44.396,226.365,44.536,226.316,44.671 M224.076,41.858c-0.15,0.084-0.285,0.205-0.367,0.363&#10;&#9;&#9;&#9;&#9;&#9;C223.789,42.065,223.896,41.942,224.076,41.858 M223.658,42.42c0,0,0.002-0.01,0.002-0.026c0,0.018-0.002,0.021-0.002,0.021&#10;&#9;&#9;&#9;&#9;&#9; M225.181,42.921c-0.168,0-0.307,0.01-0.408,0.025c-0.1,0.006-0.238,0.023-0.375,0.023c-0.33,0.002-0.516-0.09-0.604-0.297&#10;&#9;&#9;&#9;&#9;&#9;c-0.045-0.117-0.043-0.259,0.008-0.382c0.08-0.16,0.193-0.292,0.367-0.349c0.094-0.041,0.188-0.062,0.283-0.062&#10;&#9;&#9;&#9;&#9;&#9;c0.227,0,0.41,0.109,0.467,0.275l0.033,0.05l0.561-0.233l0.049-0.021l-0.033-0.053c-0.15-0.418-0.576-0.692-1.076-0.691&#10;&#9;&#9;&#9;&#9;&#9;c-0.186,0.014-0.344,0.041-0.518,0.109c-0.053,0.022-0.096,0.067-0.145,0.094c-0.262,0.137-0.455,0.328-0.559,0.562&#10;&#9;&#9;&#9;&#9;&#9;c-0.137,0.297-0.174,0.629-0.039,0.949c0.24,0.641,0.754,0.721,1.119,0.708c0.176,0,0.326-0.008,0.502-0.028&#10;&#9;&#9;&#9;&#9;&#9;c0.111-0.02,0.232-0.022,0.299-0.022c0.406-0.001,0.629,0.118,0.727,0.392c0.02,0.092,0.047,0.186,0.047,0.278&#10;&#9;&#9;&#9;&#9;&#9;c-0.037,0.287-0.227,0.563-0.541,0.701c-0.102,0.044-0.203,0.067-0.332,0.067c-0.283,0.002-0.527-0.153-0.617-0.39l-0.035-0.051&#10;&#9;&#9;&#9;&#9;&#9;l-0.418,0.167l-0.18,0.068l-0.014,0.004l0.014,0.062c0.209,0.491,0.689,0.801,1.25,0.801c0.215-0.002,0.41-0.033,0.594-0.117&#10;&#9;&#9;&#9;&#9;&#9;c0.348-0.146,0.652-0.42,0.803-0.756c0.146-0.349,0.178-0.738,0.039-1.084C226.162,42.996,225.572,42.909,225.181,42.921"/>
          <path d="M232.142,41.692c-0.156,0.396-0.475,0.701-0.881,0.863c-0.186,0.073-0.377,0.116-0.568,0.116&#10;&#9;&#9;&#9;&#9;&#9;c-0.654,0.001-1.256-0.415-1.496-1.024c-0.17-0.396-0.145-0.838,0.012-1.233c0.176-0.397,0.496-0.704,0.883-0.864&#10;&#9;&#9;&#9;&#9;&#9;c0.184-0.07,0.373-0.115,0.566-0.115c0.65,0,1.26,0.412,1.518,1.025C232.322,40.856,232.318,41.295,232.142,41.692&#10;&#9;&#9;&#9;&#9;&#9; M230.656,38.763c-0.281,0.01-0.561,0.062-0.811,0.164c-0.121,0.041-0.18,0.129-0.275,0.18c-0.09,0.049-0.176,0.099-0.238,0.162&#10;&#9;&#9;&#9;&#9;&#9;c-0.135,0.097-0.26,0.207-0.357,0.328c-0.102,0.121-0.189,0.256-0.273,0.398c-0.018,0.062-0.064,0.094-0.1,0.157&#10;&#9;&#9;&#9;&#9;&#9;c-0.234,0.562-0.238,1.188-0.01,1.751c0.334,0.88,1.168,1.441,2.102,1.439c0.283,0,0.561-0.062,0.836-0.164&#10;&#9;&#9;&#9;&#9;&#9;c0.557-0.229,0.986-0.666,1.223-1.228c0.232-0.562,0.238-1.187,0.031-1.751C232.423,39.321,231.609,38.761,230.656,38.763"/>
          <polygon points="227.851,40.572 227.609,39.947 226.773,40.291 226.316,39.155 225.708,39.407 226.164,40.531 &#10;&#9;&#9;&#9;&#9;&#9;225.558,40.781 225.796,41.408 226.404,41.156 227.722,44.53 227.755,44.58 228.363,44.328 227.015,40.904 &#9;&#9;&#9;&#9;"/>
          <path d="M217.841,29.549L217.841,29.549l0.279-0.114L217.841,29.549z M219.833,28.873l-0.236-0.624l-0.84,0.342&#10;&#9;&#9;&#9;&#9;&#9;l-0.549-1.387l-0.609,0.252l0.551,1.375l-0.314,0.133l-0.199,0.076l-0.092,0.043l0.236,0.613l0.605-0.241l1.32,3.362&#10;&#9;&#9;&#9;&#9;&#9;l0.029,0.062l0.609-0.251l-1.35-3.426L219.833,28.873z"/>
          <path d="M226.074,26.243c0.188-0.074,0.377-0.115,0.568-0.116c0.549,0,1.057,0.276,1.344,0.72l-2.893,1.186&#10;&#9;&#9;&#9;&#9;&#9;C224.96,27.271,225.373,26.527,226.074,26.243 M228.232,27.964c-0.064,0.582-0.438,1.057-0.986,1.281&#10;&#9;&#9;&#9;&#9;&#9;c-0.188,0.073-0.379,0.116-0.572,0.116c-0.547,0.001-1.055-0.274-1.344-0.72l3.484-1.418l0.051-0.022l-0.031-0.069&#10;&#9;&#9;&#9;&#9;&#9;c-0.014-0.074-0.047-0.16-0.088-0.24c-0.34-0.881-1.17-1.441-2.104-1.438c-0.283,0-0.562,0.062-0.834,0.162&#10;&#9;&#9;&#9;&#9;&#9;c-0.559,0.229-0.986,0.655-1.225,1.215c-0.234,0.562-0.24,1.188-0.031,1.763c0.359,0.87,1.189,1.433,2.125,1.43&#10;&#9;&#9;&#9;&#9;&#9;c0.281,0,0.559-0.053,0.832-0.164c0.951-0.383,1.408-1.057,1.412-2.121v-0.079l-0.688,0.265L228.232,27.964z"/>
          <path d="M222.775,27.847c0.008,0.002,0.033,0.006,0.035,0.008C222.808,27.853,222.783,27.849,222.775,27.847&#10;&#9;&#9;&#9;&#9;&#9; M223.595,27.757c-0.027-0.02-0.037-0.025-0.066-0.046c-0.141-0.135-0.291-0.235-0.469-0.323&#10;&#9;&#9;&#9;&#9;&#9;c-0.018-0.021-0.059-0.033-0.102-0.051c-0.227-0.091-0.434-0.158-0.693-0.158c-0.229,0.002-0.436,0.047-0.66,0.137&#10;&#9;&#9;&#9;&#9;&#9;c-0.412,0.164-0.736,0.463-0.932,0.84l-0.654-1.659l-0.607,0.243l2.104,5.354l0.031,0.051l0.611-0.239l-0.967-2.423&#10;&#9;&#9;&#9;&#9;&#9;c-0.104-0.297-0.104-0.623,0.006-0.909c0.133-0.295,0.365-0.515,0.646-0.632c0.141-0.062,0.287-0.09,0.449-0.09&#10;&#9;&#9;&#9;&#9;&#9;c0.479,0,0.902,0.3,1.086,0.75l0.932,2.369l0.033,0.051l0.611-0.252l-0.969-2.41C223.894,28.126,223.751,27.924,223.595,27.757"/>
        </g>
        <path d="M236.523,29.593c0.545,0,1.031,0.264,1.346,0.706l-2.934,1.19c-0.133-0.753,0.281-1.497,0.988-1.792&#10;&#9;&#9;&#9;&#9;C236.109,29.624,236.326,29.593,236.523,29.593 M223,35.046c-0.217,0-0.41,0.032-0.6,0.116c-0.834,0.331-1.225,1.284-0.896,2.122&#10;&#9;&#9;&#9;&#9;c0.236,0.611,0.844,1.027,1.5,1.027c0.193,0,0.406-0.043,0.596-0.115c0.387-0.162,0.709-0.471,0.887-0.879&#10;&#9;&#9;&#9;&#9;c0.158-0.4,0.186-0.842,0.012-1.243C224.261,35.452,223.654,35.046,223,35.046 M223.761,54.347l30.783-12.425l-5.012-12.655&#10;&#9;&#9;&#9;&#9;l-30.764,12.426L223.761,54.347z M239.314,28.453l1.361,3.478l0.646-0.26l-1.361-3.488l0.848-0.334l-0.248-0.652l-0.865,0.346&#10;&#9;&#9;&#9;&#9;l-0.438-1.156l-0.646,0.258l0.438,1.158l-0.609,0.241l0.266,0.653L239.314,28.453z M234.376,32.088&#10;&#9;&#9;&#9;&#9;c0.361,0.89,1.203,1.466,2.145,1.466c0.289,0,0.598-0.062,0.873-0.176c0.859-0.353,1.445-1.197,1.445-2.166l0.002-0.1&#10;&#9;&#9;&#9;&#9;l-0.701,0.281l-0.023,0.045c-0.066,0.587-0.439,1.074-0.996,1.3c-0.188,0.073-0.404,0.118-0.602,0.118&#10;&#9;&#9;&#9;&#9;c-0.525,0-1.033-0.275-1.348-0.719l3.598-1.464l-0.012-0.054c-0.039-0.088-0.053-0.18-0.094-0.275&#10;&#9;&#9;&#9;&#9;c-0.342-0.888-1.184-1.468-2.146-1.468c-0.287,0-0.57,0.062-0.848,0.166c-0.588,0.229-1.023,0.673-1.262,1.252&#10;&#9;&#9;&#9;&#9;C234.148,30.874,234.144,31.506,234.376,32.088 M233.765,34.652l0.014,0.067l0.646-0.27l-2.162-5.512l-0.646,0.26L233.765,34.652&#10;&#9;&#9;&#9;&#9;z M230.222,32.118l1.348,3.42l0.014,0.066l0.648-0.258l-1.365-3.488l0.85-0.346l-0.27-0.64l-0.846,0.334l-0.459-1.146&#10;&#9;&#9;&#9;&#9;l-0.648,0.26l0.461,1.146l-0.611,0.25l0.244,0.652L230.222,32.118z M225.109,37.595c0.264-0.566,0.268-1.211,0.033-1.791&#10;&#9;&#9;&#9;&#9;c-0.357-0.891-1.197-1.469-2.143-1.469c-0.287,0-0.596,0.062-0.871,0.174c-1.176,0.473-1.744,1.842-1.273,3.035&#10;&#9;&#9;&#9;&#9;c0.34,0.889,1.182,1.467,2.146,1.467c0.287,0,0.57-0.051,0.848-0.164C224.437,38.615,224.873,38.172,225.109,37.595&#10;&#9;&#9;&#9;&#9; M226.072,35.91c0.281,0.726,0.973,1.19,1.734,1.19c0.238,0,0.471-0.045,0.697-0.137c0.971-0.381,1.438-1.494,1.059-2.47&#10;&#9;&#9;&#9;&#9;l-0.975-2.469l-0.648,0.257l0.975,2.47c0.24,0.621-0.049,1.32-0.656,1.56c-0.162,0.064-0.305,0.09-0.451,0.09&#10;&#9;&#9;&#9;&#9;c-0.477,0-0.926-0.299-1.109-0.751l-0.953-2.47l-0.646,0.258L226.072,35.91z M216.097,34.871l30.762-12.424l-4.971-12.563&#10;&#9;&#9;&#9;&#9;l-7.432,3.008l-1.766,0.705l-12.35,4.998l-1.764,0.707l-7.453,3.006L216.097,34.871z M219.875,13.567&#10;&#9;&#9;&#9;&#9;c-0.881,1.277-1.125,2.562-0.729,3.617c0.025,0.021,0.035,0.041,0.041,0.064l13.418-5.427c-0.004-0.021-0.004-0.042-0.01-0.054&#10;&#9;&#9;&#9;&#9;c-0.557-1.42-2.318-2.301-4.564-2.284c-1.246,0.003-2.557,0.278-3.816,0.778C222.355,11.021,220.816,12.188,219.875,13.567&#10;&#9;&#9;&#9;&#9; M256.695,42.858l-33.842,13.676l-13.879-35.162l8.67-3.499c-0.004-0.021-0.01-0.042-0.037-0.062&#10;&#9;&#9;&#9;&#9;c-0.619-1.605-0.299-3.451,0.908-5.203c1.129-1.648,2.939-3.028,5.09-3.905c1.445-0.584,2.98-0.894,4.424-0.907&#10;&#9;&#9;&#9;&#9;c2.992-0.009,5.273,1.245,6.109,3.348c0.004,0.021,0.006,0.041,0.01,0.054l8.668-3.499L256.695,42.858z"/>
      </g>
    </g>
  </g>
  <g id="spec" display="none"/>
</svg>