<?xml version="1.0" encoding="utf-8"?>
<!-- Generator: Adobe Illustrator 16.0.4, SVG Export Plug-In . SVG Version: 6.00 Build 0)  -->
<!DOCTYPE svg PUBLIC "-//W3C//DTD SVG 1.1//EN" "http://www.w3.org/Graphics/SVG/1.1/DTD/svg11.dtd">
<svg version="1.1" id="Layer_1" xmlns="http://www.w3.org/2000/svg" xmlns:xlink="http://www.w3.org/1999/xlink" x="0px" y="0px"
	 width="67.972px" height="75.66px" viewBox="0 0 67.972 75.66" enable-background="new 0 0 67.972 75.66" xml:space="preserve">
<g>
	<path d="M61.952,74.522c2.146-1.796,2.119-3.926,0.397-6.569c-1.412-2.18-7.413-7.472-13.474-13.498
		c-6.065-6.027-11.478-12.008-15.02-15.848c-3.549-3.849-5.489-6.047-6.695-8.286c-1.204-2.239-1.092-4.674-1.321-6.098
		c-0.225-1.415-0.768-2.865-2.413-4.824c-1.644-1.967-4.808-5.007-8.605-8.992c-3.794-3.995-7.249-7.491-7.661-7.986
		C6.749,1.935,6.417,1.695,6.263,1.895C6.106,2.086,6.406,2.452,6.939,3.12c0.539,0.679,12.137,14.882,12.766,15.639
		c0.634,0.756,0.879,1.385,0.615,1.578c-0.263,0.184-0.594-0.02-0.834-0.27S11.467,10.969,8.331,7.496
		C6.474,5.447,5.724,4.658,5.122,3.947c-0.6-0.72-0.863-0.728-0.903-0.466C4.179,3.739,4.513,4.485,5.255,5.444
		c0.735,0.954,11.58,14.566,12.211,15.323c0.635,0.749,0.879,1.218,0.603,1.455c-0.283,0.24-0.704-0.088-1.333-0.845
		C16.102,20.624,4.579,7.584,3.769,6.692c-0.815-0.901-1.496-1.357-1.751-1.36C1.754,5.329,1.714,5.583,2.313,6.297
		c0.598,0.719,1.248,1.593,2.942,3.781c2.873,3.688,10.239,12.891,10.438,13.165c0.208,0.282,0.352,0.648,0.123,0.869
		c-0.231,0.226-0.811-0.12-1.447-0.879C13.735,22.481,1.759,8.594,1.183,7.949C0.618,7.307,0.312,6.947,0.094,7.067
		c-0.216,0.121-0.046,0.488,0.373,0.981c0.408,0.488,3.257,4.496,6.526,8.93c3.268,4.433,5.711,8.07,7.361,10.037
		c1.647,1.961,2.979,2.744,4.334,3.214c1.359,0.466,3.784,0.783,5.777,2.358c1.996,1.575,3.824,3.87,6.996,8.021
		c3.168,4.168,8.115,10.54,12.999,17.552c4.884,7.014,9.055,13.844,10.951,15.617C57.719,75.924,59.811,76.321,61.952,74.522"/>
	<path d="M39.97,39.841c-0.715-0.119-2.26-1.521-2.681-2.132c-0.232-0.341,0.053-1.572,0.911-0.855
		c0.439,0.365,1.764,1.481,2.201,1.847C40.838,39.073,40.679,39.963,39.97,39.841 M67.839,1.177
		c-0.751-2.899-3.757,0.312-4.822,1.575c-1.059,1.269-10.97,14.879-24.219,30.953C25.551,49.784,10.639,64.454,7.929,67.865
		c-1.969,2.468-1.751,4.771,0.397,6.572c2.142,1.802,4.226,1.394,6.542-0.752c2.137-1.983,3.723-4,10.428-12.986
		c6.695-8.985,12.126-16.861,13.858-18.638c1.734-1.783,5.1-3.665,7.677-6.17c2.583-2.51,8.947-9.682,13.44-16.461
		C64.756,12.659,68.76,4.7,67.839,1.177"/>
</g>
</svg>
