<?xml version="1.0" encoding="utf-8"?>
<svg x="0px" y="0px" width="280px" height="80px" viewBox="0 0 280 80" xmlns="http://www.w3.org/2000/svg">
  <g id="background"/>
  <g id="design">
    <g>
      <g>
        <path d="M59.463,6.406c-0.365-0.113-7.701,9.221-11.01,13.215c-1.494,1.774-3.014,4.82-8.557,3.178&#10;&#9;&#9;&#9;&#9;c-0.959-0.285-1.676,0.113-2.434,0.453c-0.193,0.086-5.859,2.1-6.82,2.613c-0.961,0.488-0.672,1.397-0.287,1.555&#10;&#9;&#9;&#9;&#9;c1.973,0.838,16.582,2.379,18.338,0.777c3.953-3.606,4.467-6.974,8.959-10.03c2.336-1.6,3.016-0.872,2.945,1.796&#10;&#9;&#9;&#9;&#9;c-0.064,2.324-0.098,8.812-0.098,8.812h1.135c0,0,0.166-9.935,0.244-10.831c0.148-1.727,1.283-3.431,1.145-5.729&#10;&#9;&#9;&#9;&#9;C62.883,9.931,60.926,6.863,59.463,6.406"/>
        <rect x="18.379" y="28.64" width="58.102" height="0.825"/>
        <rect x="18.379" y="54.855" width="58.102" height="0.83"/>
        <path d="M31.162,39.367v0.008l0.172,0.004C31.275,39.371,31.221,39.367,31.162,39.367"/>
        <path d="M71.225,51.074c-0.057-0.073-0.359-0.152-0.359-0.152s0.219-0.186,0.176-0.658&#10;&#9;&#9;&#9;&#9;c-0.191-2.133-7.262-1.793-10.656-1.814c-1.08-0.002-5.449-1.754-7.109-2.432l-2.139,3.068c-0.037,0.074-0.115,0.129-0.207,0.154&#10;&#9;&#9;&#9;&#9;l-3.141,0.594c-0.061,0.014-0.131,0.006-0.195-0.023c-0.059-0.023-5.764-2.488-8.883-2.385c-2.807,0.113-5.846,0.525-6.322,4.312&#10;&#9;&#9;&#9;&#9;l7.852,0.996v0.875c1.844,0.308,7.322,1.225,8.855,1.512c1.812,0.344,6.352,0.195,7.201,0.092&#10;&#9;&#9;&#9;&#9;c2.553-0.296,11.631-1.566,14.455-3.359C71.447,51.396,71.271,51.167,71.225,51.074"/>
        <path d="M38.693,46.744c3.082-0.113,8.27,2.043,9.078,2.385l2.887-0.559l1.99-2.873&#10;&#9;&#9;&#9;&#9;c0.135-0.297,0.305-0.77,0.246-1.219c-0.006-0.252-0.291-0.592-0.736-1.008l-0.684,0.889c0,0.029,0.02,0.062,0.02,0.115&#10;&#9;&#9;&#9;&#9;c0,0.23-0.191,0.428-0.438,0.428c-0.238,0-0.434-0.195-0.434-0.428c0-0.23,0.17-0.398,0.391-0.439l0.723-0.924&#10;&#9;&#9;&#9;&#9;c-0.217-0.194-0.486-0.422-0.754-0.625l-0.756,0.928c0,0.037,0,0.074,0,0.111c0,0.242-0.182,0.434-0.422,0.434&#10;&#9;&#9;&#9;&#9;s-0.434-0.191-0.434-0.434c0-0.229,0.172-0.41,0.396-0.414l0.783-0.988c-0.271-0.205-0.576-0.465-0.854-0.689&#10;&#9;&#9;&#9;&#9;c-0.004-0.001-0.006-0.004-0.01-0.006l-0.713,0.908c0.018,0.039,0.027,0.097,0.027,0.131c0,0.246-0.197,0.432-0.436,0.432&#10;&#9;&#9;&#9;&#9;c-0.242,0-0.441-0.186-0.441-0.432c0-0.207,0.17-0.4,0.383-0.432l0.75-0.967c-0.295-0.254-0.57-0.502-0.832-0.738l-0.699,0.908&#10;&#9;&#9;&#9;&#9;c0.018,0.023,0.02,0.057,0.02,0.113c0,0.225-0.191,0.416-0.432,0.416c-0.244,0-0.438-0.191-0.438-0.416&#10;&#9;&#9;&#9;&#9;c0-0.25,0.168-0.435,0.395-0.451l0.738-0.945c-0.283-0.248-0.537-0.476-0.795-0.686l-0.682,0.832&#10;&#9;&#9;&#9;&#9;c0.023,0.041,0.029,0.076,0.029,0.115c0,0.242-0.199,0.453-0.434,0.453c-0.24,0-0.447-0.211-0.447-0.453&#10;&#9;&#9;&#9;&#9;c0-0.225,0.172-0.396,0.398-0.428l0.713-0.863c-0.43-0.299-0.809-0.492-1.166-0.469c-0.939,0.062-4.994,3.762-8.934,4.504&#10;&#9;&#9;&#9;&#9;c-2.898,0.549-8.602-1.914-9.17-1.811c-0.311,0.059-0.346,0.859-0.348,1.055c-0.006,0.195-1.09,2.445-1.359,3.91&#10;&#9;&#9;&#9;&#9;c-0.279,1.475-0.092,3.131,0.062,3.886c0.1,0.394,0.227,0.712,0.34,0.938l5.473,0.688C32.299,46.971,36.611,46.803,38.693,46.744&#10;&#9;&#9;&#9;&#9;"/>
        <path d="M39.58,53.348L26,51.6c-0.033,0.061-0.039,0.139-0.039,0.139l-0.043,3.117c0,0-0.037,0.229,0.156,0.24&#10;&#9;&#9;&#9;&#9;c0.232,0.021,13.477,0,13.477,0s0.01-0.832,0.029-1.451V53.348z"/>
      </g>
      <g enable-background="new    ">
        <path d="M34.154,74.236c0.152,0.229,0.348,0.396,0.586,0.506s0.482,0.162,0.734,0.162&#10;&#9;&#9;&#9;&#9;c0.141,0,0.285-0.02,0.432-0.064s0.279-0.109,0.4-0.197c0.119-0.088,0.217-0.197,0.295-0.326&#10;&#9;&#9;&#9;&#9;c0.076-0.129,0.113-0.279,0.113-0.449c0-0.24-0.076-0.424-0.229-0.549c-0.152-0.127-0.342-0.232-0.566-0.317&#10;&#9;&#9;&#9;&#9;c-0.227-0.084-0.473-0.167-0.74-0.247c-0.268-0.078-0.512-0.188-0.738-0.328c-0.227-0.143-0.416-0.33-0.566-0.568&#10;&#9;&#9;&#9;&#9;c-0.154-0.236-0.23-0.559-0.23-0.963c0-0.184,0.041-0.375,0.119-0.582c0.08-0.205,0.205-0.393,0.375-0.562&#10;&#9;&#9;&#9;&#9;c0.17-0.171,0.389-0.312,0.656-0.427c0.266-0.115,0.588-0.172,0.963-0.172c0.34,0,0.666,0.047,0.977,0.141&#10;&#9;&#9;&#9;&#9;c0.312,0.094,0.584,0.285,0.818,0.572l-0.688,0.625c-0.104-0.166-0.254-0.297-0.447-0.396s-0.414-0.148-0.66-0.148&#10;&#9;&#9;&#9;&#9;c-0.236,0-0.432,0.029-0.586,0.092s-0.279,0.143-0.373,0.238c-0.096,0.096-0.16,0.201-0.199,0.311&#10;&#9;&#9;&#9;&#9;c-0.039,0.111-0.057,0.215-0.057,0.309c0,0.264,0.076,0.467,0.229,0.607s0.342,0.254,0.568,0.344&#10;&#9;&#9;&#9;&#9;c0.225,0.088,0.471,0.168,0.738,0.236c0.268,0.07,0.514,0.169,0.738,0.295c0.227,0.127,0.416,0.297,0.568,0.512&#10;&#9;&#9;&#9;&#9;c0.152,0.213,0.229,0.508,0.229,0.885c0,0.299-0.057,0.568-0.17,0.809c-0.115,0.242-0.27,0.443-0.463,0.607&#10;&#9;&#9;&#9;&#9;s-0.422,0.291-0.686,0.379c-0.266,0.088-0.545,0.131-0.846,0.131c-0.398,0-0.777-0.07-1.135-0.211s-0.643-0.355-0.854-0.65&#10;&#9;&#9;&#9;&#9;L34.154,74.236z"/>
      </g>
      <g enable-background="new    ">
        <path d="M39.115,69.309h0.846v2.586h3.229v-2.586h0.846v6.229h-0.846v-2.85h-3.229v2.852h-0.846V69.309z"/>
      </g>
      <g enable-background="new    ">
        <path d="M48.736,75.697c-0.475,0-0.912-0.084-1.311-0.252c-0.4-0.166-0.742-0.396-1.025-0.689&#10;&#9;&#9;&#9;&#9;c-0.285-0.293-0.508-0.641-0.668-1.037c-0.162-0.4-0.242-0.83-0.242-1.295c0-0.463,0.08-0.895,0.242-1.295&#10;&#9;&#9;&#9;&#9;c0.16-0.396,0.383-0.742,0.668-1.037c0.285-0.293,0.625-0.523,1.025-0.689c0.398-0.168,0.836-0.252,1.311-0.252&#10;&#9;&#9;&#9;&#9;c0.477,0,0.912,0.084,1.312,0.252c0.396,0.166,0.738,0.396,1.021,0.689c0.285,0.295,0.508,0.641,0.67,1.037&#10;&#9;&#9;&#9;&#9;c0.16,0.4,0.242,0.832,0.242,1.295c0,0.465-0.082,0.895-0.242,1.295c-0.162,0.396-0.385,0.744-0.67,1.037&#10;&#9;&#9;&#9;&#9;c-0.283,0.293-0.625,0.523-1.021,0.689C49.648,75.613,49.213,75.697,48.736,75.697z M48.736,74.904&#10;&#9;&#9;&#9;&#9;c0.357,0,0.682-0.064,0.969-0.197s0.533-0.309,0.738-0.531c0.205-0.225,0.363-0.486,0.477-0.787&#10;&#9;&#9;&#9;&#9;c0.111-0.305,0.166-0.621,0.166-0.965c0-0.34-0.055-0.66-0.166-0.965c-0.113-0.301-0.271-0.562-0.477-0.787&#10;&#9;&#9;&#9;&#9;c-0.207-0.223-0.451-0.398-0.738-0.531s-0.611-0.197-0.969-0.197s-0.68,0.064-0.969,0.197c-0.287,0.133-0.533,0.311-0.738,0.531&#10;&#9;&#9;&#9;&#9;c-0.207,0.225-0.363,0.486-0.475,0.787c-0.113,0.305-0.168,0.625-0.168,0.965c0,0.344,0.057,0.66,0.168,0.965&#10;&#9;&#9;&#9;&#9;c0.111,0.301,0.27,0.562,0.475,0.787c0.205,0.223,0.451,0.398,0.738,0.531C48.057,74.838,48.379,74.904,48.736,74.904z"/>
      </g>
      <g enable-background="new    ">
        <path d="M53.426,69.309h4.02V70.1H54.27v1.855h2.957v0.793H54.27v1.998h3.336v0.791h-4.182v-6.229H53.426z"/>
      </g>
      <g enable-background="new    ">
        <path d="M59.244,74.236c0.152,0.229,0.346,0.396,0.584,0.506s0.482,0.162,0.734,0.162&#10;&#9;&#9;&#9;&#9;c0.141,0,0.285-0.02,0.432-0.064s0.281-0.109,0.4-0.197c0.121-0.088,0.219-0.197,0.295-0.326s0.115-0.279,0.115-0.449&#10;&#9;&#9;&#9;&#9;c0-0.24-0.076-0.424-0.23-0.549c-0.152-0.127-0.342-0.232-0.566-0.317c-0.227-0.084-0.473-0.167-0.74-0.247&#10;&#9;&#9;&#9;&#9;c-0.266-0.078-0.512-0.188-0.738-0.328c-0.225-0.143-0.416-0.33-0.566-0.568c-0.152-0.236-0.23-0.559-0.23-0.963&#10;&#9;&#9;&#9;&#9;c0-0.184,0.039-0.375,0.119-0.582c0.08-0.205,0.203-0.393,0.373-0.562c0.172-0.171,0.389-0.312,0.656-0.427&#10;&#9;&#9;&#9;&#9;s0.588-0.172,0.965-0.172c0.34,0,0.664,0.047,0.977,0.141s0.582,0.285,0.818,0.572l-0.688,0.625&#10;&#9;&#9;&#9;&#9;c-0.105-0.166-0.254-0.297-0.449-0.396c-0.193-0.1-0.412-0.148-0.658-0.148c-0.236,0-0.432,0.029-0.586,0.092&#10;&#9;&#9;&#9;&#9;c-0.156,0.062-0.281,0.143-0.375,0.238s-0.158,0.201-0.197,0.311c-0.039,0.111-0.057,0.215-0.057,0.309&#10;&#9;&#9;&#9;&#9;c0,0.264,0.076,0.467,0.229,0.607c0.154,0.141,0.342,0.254,0.568,0.344c0.225,0.088,0.471,0.168,0.738,0.236&#10;&#9;&#9;&#9;&#9;c0.268,0.07,0.514,0.169,0.738,0.295c0.227,0.127,0.416,0.297,0.568,0.512c0.152,0.213,0.229,0.508,0.229,0.885&#10;&#9;&#9;&#9;&#9;c0,0.299-0.057,0.568-0.172,0.809c-0.113,0.24-0.268,0.443-0.461,0.607s-0.422,0.291-0.688,0.379s-0.545,0.131-0.846,0.131&#10;&#9;&#9;&#9;&#9;c-0.396,0-0.775-0.07-1.135-0.211c-0.357-0.141-0.643-0.355-0.854-0.65L59.244,74.236z"/>
      </g>
    </g>
    <g>
      <path d="M158.38,44.3l-5.059-6.71l-4.566-6.22l-0.949-1.229c-0.232-0.281-0.586-0.353-1.053-0.213&#10;&#9;&#9;&#9;c-0.471,0.142-1.066,0.446-1.793,0.915l-4.145-5.307l-0.775-1.02l0.105-6.887c-0.021-0.114-0.109-0.23-0.266-0.35&#10;&#9;&#9;&#9;c-0.152-0.115-0.297-0.199-0.439-0.246c0-0.234-0.01-0.402-0.031-0.511c-0.023-0.104-0.178-0.18-0.459-0.228v-1.055&#10;&#9;&#9;&#9;c0.07,0.022,0.141,0.022,0.211,0c0.117-0.046,0.176-0.127,0.176-0.246c0-0.14-0.039-0.246-0.121-0.314&#10;&#9;&#9;&#9;c-0.084-0.071-0.17-0.118-0.266-0.143l-0.033-0.211c0.092,0,0.174-0.022,0.244-0.07c0.141-0.045,0.211-0.141,0.211-0.279&#10;&#9;&#9;&#9;c0-0.07-0.027-0.129-0.088-0.176c-0.059-0.047-0.109-0.094-0.156-0.143c-0.07-0.045-0.143-0.08-0.211-0.104l0.033-1.367&#10;&#9;&#9;&#9;c-0.047-0.071-0.299-0.13-0.754-0.176c-0.455-0.05-0.975-0.079-1.549-0.091c-0.57-0.01-1.141-0.004-1.701,0.019&#10;&#9;&#9;&#9;c-0.562,0.022-0.947,0.072-1.158,0.142c-0.07,0.045-0.105,0.093-0.105,0.141v0.14l0.035,1.792&#10;&#9;&#9;&#9;c-0.07,0.023-0.141,0.061-0.211,0.104c-0.047,0.048-0.104,0.084-0.158,0.106c-0.059,0.021-0.09,0.057-0.09,0.105&#10;&#9;&#9;&#9;c0,0.068,0.131,0.129,0.389,0.174v0.525c-0.234,0.096-0.352,0.191-0.352,0.283c0,0.025,0.045,0.06,0.141,0.104&#10;&#9;&#9;&#9;c0.045,0.023,0.105,0.035,0.174,0.035v0.67c-0.164-0.211-0.338-0.434-0.525-0.67c-0.188-0.186-0.393-0.393-0.613-0.612&#10;&#9;&#9;&#9;c-0.223-0.224-0.465-0.44-0.723-0.651c0.023-0.047,0-0.093-0.07-0.14c-0.021,0-0.062,0.019-0.121,0.052&#10;&#9;&#9;&#9;c-0.061,0.034-0.125,0.077-0.195,0.125c-0.045,0.021-0.08,0.021-0.102,0c-0.025,0-0.037-0.014-0.037-0.037&#10;&#9;&#9;&#9;c-0.049-0.115-0.119-0.176-0.211-0.176c-0.07,0-0.07-0.059,0-0.174c0-0.023,0.029-0.061,0.088-0.107&#10;&#9;&#9;&#9;c0.061-0.045,0.123-0.104,0.193-0.175c0.092-0.069,0.176-0.151,0.246-0.247l-0.035-0.07l-0.281,0.211&#10;&#9;&#9;&#9;c-0.164,0.119-0.27,0.177-0.314,0.177c-0.096,0-0.154-0.011-0.178-0.037l-0.279-0.351c0-0.021,0.012-0.045,0.031-0.068&#10;&#9;&#9;&#9;c0.025-0.021,0.043-0.047,0.055-0.07s0.027-0.046,0.055-0.068c0.02-0.025,0.07-0.07,0.141-0.143s0.143-0.129,0.211-0.176&#10;&#9;&#9;&#9;c0.021-0.021,0.053-0.038,0.088-0.052c0.033-0.013,0.064-0.029,0.088-0.054l0.07-0.069l-0.141-0.14l-0.773,0.631l-0.352-0.422&#10;&#9;&#9;&#9;c0.045-0.069,0.104-0.141,0.176-0.209c0.117-0.121,0.223-0.199,0.316-0.248c0.066-0.047,0.145-0.103,0.229-0.176&#10;&#9;&#9;&#9;c0.08-0.068,0.123-0.117,0.123-0.142c0.047-0.093-0.014-0.093-0.176,0c-0.094,0.073-0.176,0.106-0.246,0.106&#10;&#9;&#9;&#9;c-0.021,0.021-0.061,0.045-0.104,0.07c-0.098,0.046-0.154,0.082-0.178,0.104l-0.35,0.177c-0.025-0.047-0.061-0.093-0.105-0.14&#10;&#9;&#9;&#9;l-0.143-0.141c0-0.025-0.006-0.066-0.016-0.124c-0.014-0.061-0.008-0.099,0.016-0.123c0.047-0.022,0.111-0.077,0.193-0.157&#10;&#9;&#9;&#9;c0.082-0.082,0.133-0.123,0.158-0.123h0.141v-0.07c0-0.024,0.01-0.047,0.037-0.071c0.047-0.045,0.09-0.079,0.139-0.104&#10;&#9;&#9;&#9;c0.045-0.022,0.096-0.058,0.141-0.106c0.049-0.069,0.076-0.126,0.09-0.176c0.01-0.045-0.041-0.045-0.158,0l-0.633,0.423&#10;&#9;&#9;&#9;c-0.068,0.048-0.146,0.105-0.23,0.177c-0.08,0.07-0.123,0.093-0.123,0.07c-0.021,0-0.08-0.054-0.176-0.158&#10;&#9;&#9;&#9;c-0.094-0.104-0.139-0.17-0.139-0.192c-0.023,0-0.029-0.024-0.02-0.071c0.012-0.048,0.041-0.079,0.088-0.104&#10;&#9;&#9;&#9;c0.021-0.025,0.053-0.054,0.088-0.089c0.035-0.032,0.078-0.065,0.123-0.089h0.143c0.045,0,0.078-0.011,0.104-0.034l0.035-0.034&#10;&#9;&#9;&#9;c-0.023,0-0.035-0.012-0.035-0.037c-0.025-0.022-0.033-0.045-0.033-0.067l0.279-0.211c0.094-0.071,0.188-0.132,0.281-0.177&#10;&#9;&#9;&#9;l-0.035-0.037h-0.035c-0.023,0.023-0.07,0.062-0.143,0.105c-0.068,0.047-0.115,0.071-0.139,0.071c0,0.097-0.061,0.142-0.178,0.142&#10;&#9;&#9;&#9;h-0.068c0-0.07,0.021-0.131,0.068-0.177c0.025-0.022,0.053-0.054,0.09-0.088c0.033-0.034,0.064-0.054,0.088-0.054&#10;&#9;&#9;&#9;c0-0.021,0.018-0.047,0.053-0.07c0.037-0.021,0.062-0.046,0.086-0.071c0-0.045,0.012-0.086,0.037-0.122&#10;&#9;&#9;&#9;c0.021-0.035,0.01-0.039-0.037-0.018c-0.094,0.05-0.139,0.084-0.139,0.107c-0.023,0.021-0.061,0.058-0.104,0.104&#10;&#9;&#9;&#9;c-0.049,0.049-0.072,0.083-0.072,0.107l-0.104,0.104h-0.037h-0.035c0.047-0.047,0.072-0.094,0.072-0.143&#10;&#9;&#9;&#9;c0.07,0,0.104-0.047,0.104-0.142c0.023-0.021,0.029-0.039,0.02-0.052c-0.014-0.012-0.031-0.004-0.053,0.02&#10;&#9;&#9;&#9;c-0.025,0.021-0.049,0.059-0.07,0.104c-0.025,0.049-0.049,0.083-0.072,0.106l-0.107,0.11c-0.023,0.024-0.047,0.06-0.07,0.104&#10;&#9;&#9;&#9;l-0.174,0.212c-0.023,0.047-0.049,0.081-0.07,0.104c-0.049,0.048-0.082,0.068-0.107,0.068c-0.094,0-0.15-0.021-0.174-0.068&#10;&#9;&#9;&#9;c0-0.024-0.035-0.059-0.105-0.104c-0.07-0.046-0.094-0.095-0.07-0.14c0-0.072,0.021-0.105,0.07-0.105&#10;&#9;&#9;&#9;c0.021-0.025,0.059-0.036,0.105-0.036c0.045-0.024,0.045-0.048,0-0.071c-0.049-0.022-0.059-0.045-0.035-0.068&#10;&#9;&#9;&#9;c0.045-0.047,0.092-0.088,0.143-0.125c0.045-0.031,0.082-0.063,0.104-0.086l0.352-0.213c0.047-0.022,0.104-0.045,0.176-0.067&#10;&#9;&#9;&#9;l0.176-0.071V9.87c-0.047,0-0.068-0.035-0.068-0.105c0.021-0.048,0.039-0.071,0.055-0.071c0.01,0,0.016-0.021,0.016-0.067&#10;&#9;&#9;&#9;l-0.068-0.073v-0.07c-0.025,0-0.035,0.009-0.035,0.019c0,0.012-0.014,0.019-0.035,0.019h-0.072c0,0.022-0.012,0.032-0.035,0.032&#10;&#9;&#9;&#9;l-0.074,0.038c0,0.022-0.047,0.075-0.139,0.155c-0.096,0.084-0.166,0.146-0.213,0.194l-0.174,0.177&#10;&#9;&#9;&#9;c-0.049,0.047-0.105,0.094-0.178,0.139c-0.049,0.048-0.094,0.082-0.143,0.107c-0.045,0.045-0.082,0.068-0.104,0.068&#10;&#9;&#9;&#9;c-0.023,0.023-0.047,0.034-0.068,0.034c-0.023,0-0.047-0.017-0.072-0.052c-0.021-0.037-0.057-0.078-0.104-0.123&#10;&#9;&#9;&#9;c-0.094-0.095-0.143-0.153-0.143-0.176c0-0.095,0.037-0.14,0.107-0.14c0.047,0,0.07-0.026,0.07-0.073&#10;&#9;&#9;&#9;c0.02-0.021,0.047-0.033,0.068-0.033h0.033c0.023,0,0.043-0.006,0.053-0.016c0.016-0.014,0.029-0.021,0.055-0.021h0.104&#10;&#9;&#9;&#9;c-0.021-0.022-0.045-0.035-0.068-0.035c-0.096,0-0.129-0.012-0.104-0.034c0-0.048,0.01-0.071,0.033-0.071s0.049-0.011,0.07-0.033&#10;&#9;&#9;&#9;c0.047-0.046,0.105-0.089,0.176-0.123c0.07-0.035,0.115-0.063,0.141-0.089h0.107c0.021,0,0.057-0.013,0.104-0.034V9.306&#10;&#9;&#9;&#9;c-0.07,0-0.094-0.012-0.07-0.034s0.049-0.034,0.07-0.034c0.023,0,0.047-0.021,0.07-0.07c0.049-0.047,0.094-0.075,0.141-0.086&#10;&#9;&#9;&#9;c0.047-0.014,0.059-0.03,0.037-0.055c0-0.07-0.025-0.081-0.072-0.035c-0.023,0.022-0.062,0.06-0.121,0.106&#10;&#9;&#9;&#9;c-0.059,0.045-0.102,0.067-0.125,0.067c-0.021,0.026-0.047,0.037-0.068,0.037c-0.025,0-0.047,0.014-0.07,0.034l-0.07-0.034&#10;&#9;&#9;&#9;c0.021,0,0.045-0.011,0.07-0.037l0.07-0.067l0.139-0.142c0.023-0.021,0.035-0.049,0.035-0.071c0-0.023,0.014-0.045,0.037-0.068&#10;&#9;&#9;&#9;c-0.023,0.023-0.049,0.034-0.072,0.034l-0.035,0.034c-0.021,0-0.045,0.02-0.066,0.055c-0.025,0.035-0.051,0.063-0.072,0.087&#10;&#9;&#9;&#9;c-0.023,0-0.035,0.008-0.035,0.018c0,0.012-0.012,0.019-0.033,0.019h-0.035V9.026l-0.035,0.036&#10;&#9;&#9;&#9;c-0.094,0.046-0.143,0.08-0.143,0.103l-0.246,0.354l-0.139,0.105l-0.141,0.067c-0.051,0.023-0.082,0.05-0.107,0.071&#10;&#9;&#9;&#9;c-0.023,0.023-0.045,0.033-0.068,0.033c-0.049,0-0.076-0.018-0.088-0.051c-0.012-0.035-0.043-0.064-0.088-0.088&#10;&#9;&#9;&#9;c-0.117-0.117-0.176-0.188-0.176-0.212c0.021-0.021,0.059-0.081,0.104-0.176c0.023-0.045,0.049-0.075,0.07-0.088&#10;&#9;&#9;&#9;c0.023-0.011,0.045-0.041,0.072-0.086l0.139-0.142c0.047-0.049,0.115-0.096,0.211-0.14c0.023-0.026,0.07-0.055,0.143-0.09&#10;&#9;&#9;&#9;c0.068-0.034,0.104-0.063,0.104-0.088l0.143-0.07h0.035V8.534c0-0.022,0.012-0.047,0.033-0.069c0-0.021,0.006-0.039,0.02-0.054&#10;&#9;&#9;&#9;c0.01-0.012,0.016-0.028,0.016-0.053V8.325l-0.068-0.141c-0.049,0.021-0.082,0.045-0.105,0.068l-0.07,0.07l-0.035,0.034&#10;&#9;&#9;&#9;c-0.068,0.047-0.129,0.095-0.174,0.142l-0.105,0.105c-0.025,0.023-0.049,0.034-0.07,0.034c-0.023,0-0.041,0.011-0.053,0.034&#10;&#9;&#9;&#9;c-0.014,0.025-0.041,0.048-0.088,0.07c-0.049,0.045-0.096,0.082-0.141,0.105l-0.143,0.141c-0.068,0.069-0.129,0.106-0.174,0.106&#10;&#9;&#9;&#9;c-0.049,0.045-0.084,0.058-0.105,0.034l-0.176-0.176c-0.094-0.096-0.143-0.15-0.143-0.178c0-0.023,0.023-0.058,0.07-0.105&#10;&#9;&#9;&#9;c0-0.092,0.047-0.139,0.141-0.139c0.023-0.023,0.064-0.052,0.123-0.089c0.061-0.036,0.09-0.063,0.09-0.088&#10;&#9;&#9;&#9;c0.021,0,0.104-0.052,0.244-0.157c0.143-0.104,0.234-0.183,0.281-0.229c0.021-0.045,0.061-0.088,0.105-0.122&#10;&#9;&#9;&#9;c0.047-0.035,0.068-0.063,0.068-0.089l-0.033-0.034l-0.07-0.035l-0.141,0.069c-0.049,0.023-0.082,0.048-0.105,0.07&#10;&#9;&#9;&#9;c-0.023,0-0.035,0.008-0.035,0.019c0,0.013-0.012-0.005-0.035-0.054c0-0.047-0.012-0.053-0.035-0.017&#10;&#9;&#9;&#9;c-0.021,0.035-0.033,0.064-0.033,0.087c-0.023,0-0.049,0.029-0.07,0.088c-0.023,0.059-0.045,0.102-0.07,0.123l-0.107,0.109&#10;&#9;&#9;&#9;c-0.025,0.021-0.061,0.045-0.107,0.068l-0.035-0.034c0-0.023,0.014-0.048,0.035-0.07c0.023-0.024,0.037-0.041,0.037-0.052&#10;&#9;&#9;&#9;c0-0.014,0.01-0.03,0.033-0.055V8.005l-0.033-0.033c0,0.023-0.014,0.047-0.037,0.07l-0.07,0.07c-0.023,0-0.041,0.018-0.053,0.053&#10;&#9;&#9;&#9;s-0.041,0.074-0.088,0.121c-0.047,0.051-0.082,0.071-0.104,0.071c-0.023,0.022-0.049,0.034-0.07,0.034l-0.143,0.07l-0.068-0.07&#10;&#9;&#9;&#9;c0-0.023-0.02-0.045-0.051-0.068c-0.037-0.022-0.068-0.059-0.09-0.104L126.2,8.114c0.021-0.048,0.047-0.085,0.068-0.107&#10;&#9;&#9;&#9;c0.023-0.021,0.035-0.041,0.035-0.053c0-0.011,0.012-0.026,0.033-0.051h0.145h0.104c0.07,0,0.117-0.014,0.143-0.037&#10;&#9;&#9;&#9;c-0.023-0.021-0.049-0.033-0.07-0.033h-0.07c-0.023,0-0.035-0.012-0.035-0.037c0-0.023,0.012-0.034,0.035-0.034l0.104-0.103&#10;&#9;&#9;&#9;c0.049-0.026,0.094-0.062,0.143-0.107c0.045-0.021,0.082-0.049,0.104-0.071c0.023-0.021,0.049-0.034,0.072-0.034&#10;&#9;&#9;&#9;c0.02-0.022,0.057-0.039,0.104-0.054c0.047-0.011,0.082-0.028,0.105-0.052V7.234c0-0.021-0.01-0.034-0.035-0.034&#10;&#9;&#9;&#9;c-0.023,0-0.035,0.006-0.035,0.019c0,0.011-0.014,0.017-0.035,0.017h-0.07c0-0.021,0.006-0.033,0.02-0.033&#10;&#9;&#9;&#9;c0.01,0,0.02-0.013,0.02-0.037c0.02-0.021,0.039-0.062,0.051-0.123c0.012-0.058,0.004-0.076-0.018-0.053&#10;&#9;&#9;&#9;c-0.023,0-0.061,0.018-0.105,0.053c-0.047,0.037-0.082,0.053-0.107,0.053c-0.021,0.023-0.074,0.07-0.156,0.142&#10;&#9;&#9;&#9;c-0.08,0.071-0.137,0.116-0.158,0.14c-0.068,0.072-0.141,0.129-0.211,0.178c-0.07,0.047-0.129,0.092-0.176,0.14&#10;&#9;&#9;&#9;c-0.047,0.023-0.082,0.048-0.104,0.07c-0.072,0.071-0.105,0.095-0.105,0.071c-0.047-0.022-0.082-0.047-0.105-0.071&#10;&#9;&#9;&#9;c-0.023-0.07-0.068-0.118-0.139-0.142l-0.072-0.141c0.023-0.021,0.035-0.041,0.035-0.052s0.012-0.027,0.037-0.054&#10;&#9;&#9;&#9;c0-0.023,0.027-0.047,0.088-0.068c0.057-0.023,0.086-0.05,0.086-0.071c0.023,0,0.043-0.017,0.053-0.054&#10;&#9;&#9;&#9;c0.012-0.032,0.027-0.064,0.053-0.088c0.023-0.021,0.07-0.045,0.141-0.068c0.049-0.048,0.1-0.087,0.16-0.125&#10;&#9;&#9;&#9;c0.057-0.035,0.098-0.064,0.121-0.087c0.072,0,0.129-0.032,0.178-0.104c0-0.022,0.004-0.055,0.016-0.09s0.006-0.062-0.016-0.086&#10;&#9;&#9;&#9;c-0.025-0.023-0.037-0.041-0.037-0.055c0-0.011-0.023-0.007-0.068,0.018c-0.096,0.024-0.18,0.07-0.248,0.143l-0.215,0.14&#10;&#9;&#9;&#9;c0.025-0.05,0.037-0.084,0.037-0.106c0-0.045,0.012-0.084,0.035-0.105l0.244-0.14c0.023-0.023,0.035-0.048,0.035-0.07&#10;&#9;&#9;&#9;c0-0.071-0.035-0.071-0.105,0l-0.068,0.07l-0.104,0.104c-0.025,0.047-0.059,0.082-0.107,0.105l-0.244,0.281l-0.178,0.174&#10;&#9;&#9;&#9;c-0.045,0-0.092,0.023-0.141,0.07c-0.047,0.049-0.082,0.059-0.104,0.037c-0.023-0.023-0.049-0.066-0.072-0.123&#10;&#9;&#9;&#9;c-0.021-0.059-0.047-0.102-0.07-0.125c-0.045,0-0.07-0.022-0.07-0.067V6.779c0-0.022,0.014-0.036,0.037-0.036l0.141-0.143&#10;&#9;&#9;&#9;c0-0.021,0.021-0.045,0.068-0.068c0.049-0.022,0.084-0.035,0.107-0.035h0.033h0.07c0-0.024-0.006-0.028-0.018-0.019&#10;&#9;&#9;&#9;c-0.01,0.013-0.018-0.007-0.018-0.052c0-0.047,0.008-0.07,0.018-0.07c0.012,0,0.018-0.014,0.018-0.035&#10;&#9;&#9;&#9;c0.07,0,0.117-0.013,0.143-0.035c0.023,0,0.041-0.019,0.053-0.055c0.012-0.033,0.025-0.052,0.053-0.052l0.105-0.104&#10;&#9;&#9;&#9;c0.02,0,0.045-0.011,0.068-0.035c0.023-0.022,0.023-0.045,0-0.069h-0.105V5.935l-0.035-0.07c-0.045,0-0.094,0.014-0.139,0.036&#10;&#9;&#9;&#9;c-0.047,0.023-0.102,0.06-0.16,0.104c-0.059,0.048-0.098,0.068-0.121,0.068c-0.023,0.024-0.088,0.078-0.193,0.157&#10;&#9;&#9;&#9;c-0.104,0.084-0.182,0.136-0.229,0.161c-0.094,0.048-0.154,0.068-0.176,0.068c-0.096,0-0.141-0.034-0.141-0.104&#10;&#9;&#9;&#9;c0-0.024-0.02-0.048-0.053-0.071c-0.035-0.021-0.053-0.047-0.053-0.067c-0.023,0-0.035-0.021-0.035-0.054&#10;&#9;&#9;&#9;c0-0.035,0.012-0.064,0.035-0.09c0.068-0.068,0.129-0.115,0.174-0.14c0.049-0.094,0.119-0.162,0.213-0.212&#10;&#9;&#9;&#9;c0.02-0.021,0.053-0.053,0.086-0.086c0.035-0.035,0.064-0.055,0.088-0.055c0.023-0.019,0.049-0.041,0.072-0.052&#10;&#9;&#9;&#9;c0.02-0.013,0.02-0.04,0-0.088c0-0.164-0.037-0.247-0.107-0.247c-0.045,0.025-0.104,0.049-0.174,0.07&#10;&#9;&#9;&#9;c-0.049,0.048-0.094,0.084-0.141,0.107c-0.047,0.021-0.096,0.059-0.143,0.104c-0.049,0.047-0.094,0.095-0.141,0.143&#10;&#9;&#9;&#9;c-0.047,0.047-0.084,0.067-0.105,0.067s-0.047-0.011-0.068-0.034c-0.023-0.023-0.037-0.045-0.037-0.07l-0.068-0.068l-0.07-0.07&#10;&#9;&#9;&#9;V5.301c0.021-0.021,0.035-0.021,0.035,0c0,0.024,0.012,0.014,0.035-0.034c0-0.021,0.023-0.059,0.068-0.105l0.07-0.067h-0.07&#10;&#9;&#9;&#9;h-0.033l-0.07,0.067h-0.035l-0.035-0.104l0.141-0.141l-0.07-0.07l-0.105,0.033c-0.025,0.022-0.051,0.037-0.072,0.037h-0.033V4.669&#10;&#9;&#9;&#9;c-0.023,0.023-0.049,0.037-0.07,0.037c-0.023,0.022-0.082,0.033-0.178,0.033h-0.174c-0.023,0.023-0.043,0.064-0.053,0.123&#10;&#9;&#9;&#9;c-0.014,0.059-0.02,0.102-0.02,0.124c0,0.093-0.012,0.14-0.033,0.14c-0.023,0.023-0.049,0.035-0.072,0.035l-0.07,0.034&#10;&#9;&#9;&#9;c-0.021,0-0.059,0.025-0.104,0.07c-0.047,0.049-0.07,0.084-0.07,0.106v0.279l-0.246,0.141c-0.045,0.022-0.082,0.048-0.104,0.07&#10;&#9;&#9;&#9;c-0.023,0.023-0.023,0.036,0,0.036c0.117-0.073,0.197-0.084,0.246-0.036v0.036v0.034l-0.105,0.141l0.033,0.07l0.037,0.107v0.104&#10;&#9;&#9;&#9;l0.035,0.036h0.141c0,0.021-0.014,0.047-0.037,0.067l-0.068,0.071l-0.105,0.035l0.037,0.177v0.104l0.035,0.177V7.09&#10;&#9;&#9;&#9;c0,0.05,0.01,0.071,0.033,0.071c0.021,0,0.047-0.012,0.068-0.037c0.023-0.021,0.049-0.034,0.072-0.034&#10;&#9;&#9;&#9;c0.02,0,0.033-0.011,0.033-0.034c0,0.023,0.012,0.034,0.037,0.034l0.033,0.034l-0.104,0.106l-0.035,0.071l0.104,0.038&#10;&#9;&#9;&#9;c0.021-0.021,0.045-0.034,0.068-0.034h0.072c0.02,0,0.035-0.012,0.035-0.034c0.02,0,0.031,0.011,0.031,0.034v0.068&#10;&#9;&#9;&#9;c0,0.025-0.006,0.037-0.016,0.037c-0.014,0-0.018,0.01-0.018,0.033v0.035l-0.072,0.105l-0.035,0.104l0.072,0.036v0.068&#10;&#9;&#9;&#9;c0,0.025,0.012,0.037,0.035,0.037v0.07c0,0.023,0.01,0.045,0.033,0.068s0.047,0.023,0.072,0h0.068v0.105l-0.068,0.035&#10;&#9;&#9;&#9;c0,0.021,0.021,0.034,0.068,0.034l0.07-0.069h0.105c0.021,0.022,0.029,0.088,0.016,0.192c-0.012,0.104-0.016,0.183-0.016,0.229&#10;&#9;&#9;&#9;c0,0.093,0.021,0.129,0.068,0.105c0.047,0,0.082-0.014,0.105-0.037c0.021-0.021,0.047-0.035,0.07-0.035V8.64&#10;&#9;&#9;&#9;c0,0.023-0.014,0.048-0.035,0.07c-0.023,0-0.035,0.012-0.035,0.035v0.07l0.035,0.034c0,0.022,0.012,0.034,0.035,0.034h0.104&#10;&#9;&#9;&#9;l0.035,0.033c0,0.026,0.012,0.037,0.035,0.037l0.105,0.035c-0.023,0.022-0.037,0.047-0.037,0.069l-0.033,0.071v0.104l0.104,0.14&#10;&#9;&#9;&#9;c0,0.025,0.014,0.05,0.037,0.07l0.068,0.035h0.105h0.035c0.023,0,0.047,0.025,0.07,0.068v0.283h0.07l0.176-0.177l0.035,0.177&#10;&#9;&#9;&#9;l-0.07,0.068c-0.07,0.073-0.094,0.118-0.07,0.143c0,0.07,0.033,0.104,0.105,0.104l0.139-0.104l0.072,0.14&#10;&#9;&#9;&#9;c-0.025,0.024-0.037,0.05-0.037,0.071c-0.045,0.047-0.045,0.067,0,0.067c0.025-0.021,0.049-0.032,0.07-0.032&#10;&#9;&#9;&#9;c0.023,0,0.037-0.013,0.037-0.035l0.033,0.176l-0.033,0.107c0,0.067,0.012,0.092,0.033,0.067h0.072&#10;&#9;&#9;&#9;c0.021,0,0.045-0.013,0.07-0.036l0.104-0.031v0.067l-0.104,0.104l0.068,0.141c0.023,0,0.033-0.014,0.033-0.034&#10;&#9;&#9;&#9;c0-0.022,0.014-0.034,0.037-0.034c0.07-0.07,0.092-0.082,0.07-0.037c0,0.071,0.01,0.105,0.033,0.105s0.049-0.014,0.072-0.034&#10;&#9;&#9;&#9;c0.023,0,0.053-0.011,0.088-0.034c0.033-0.025,0.062-0.037,0.086-0.037c0.025,0.049,0.012,0.094-0.035,0.144l-0.033,0.067v0.037&#10;&#9;&#9;&#9;l0.033,0.034v0.034c0,0.049-0.01,0.07-0.033,0.07c-0.027,0-0.035,0.023-0.035,0.068c0.023,0.049,0.059,0.049,0.105,0&#10;&#9;&#9;&#9;c0.023,0,0.049-0.016,0.068-0.052c0.023-0.032,0.047-0.054,0.07-0.054l0.072-0.068c0.021-0.023,0.045-0.035,0.068-0.035&#10;&#9;&#9;&#9;l0.07,0.178l-0.176,0.14l-0.07,0.069c-0.049,0.047-0.049,0.069,0,0.069c0.049,0.05,0.094,0.06,0.141,0.034&#10;&#9;&#9;&#9;c0.049-0.045,0.105-0.068,0.174-0.068h0.072c-0.023,0.023-0.035,0.047-0.035,0.068v0.036c0-0.021,0.023-0.036,0.07-0.036&#10;&#9;&#9;&#9;c0.023-0.021,0.053-0.045,0.088-0.068s0.053-0.023,0.053,0c0,0.068-0.012,0.115-0.035,0.141c-0.068,0-0.105,0.023-0.105,0.07&#10;&#9;&#9;&#9;h0.037h0.068v0.07c0,0.021,0.012,0.032,0.035,0.032c0.07-0.069,0.105-0.08,0.105-0.032c0,0.021-0.008,0.032-0.018,0.032&#10;&#9;&#9;&#9;c-0.012,0-0.02,0.013-0.02,0.038v0.035l0.035,0.033c0.092-0.022,0.164-0.047,0.211-0.068c0.047,0,0.07,0.007,0.07,0.018&#10;&#9;&#9;&#9;c0,0.012-0.047,0.053-0.141,0.122c0,0.024-0.023,0.06-0.07,0.107c-0.021,0.021-0.047,0.057-0.07,0.104h0.105l0.141-0.143h0.035&#10;&#9;&#9;&#9;c0.021,0,0.037-0.007,0.037-0.018c0-0.012,0.01-0.017,0.033-0.017c-0.023,0-0.033,0.013-0.033,0.033&#10;&#9;&#9;&#9;c-0.072,0-0.107,0.049-0.107,0.142l-0.033,0.036h0.033c0.023,0.046,0.061,0.046,0.107,0h0.033c0.023,0,0.037-0.013,0.037-0.036&#10;&#9;&#9;&#9;h0.068c0.023,0,0.035,0.012,0.035,0.036l-0.07,0.175h0.143c0.045-0.048,0.08-0.07,0.104-0.07s-0.023,0.047-0.141,0.142&#10;&#9;&#9;&#9;l-0.141,0.177h0.068c0.023-0.023,0.047-0.035,0.07-0.035s0.037-0.013,0.037-0.035l0.209-0.143v0.036&#10;&#9;&#9;&#9;c0,0.021-0.023,0.06-0.07,0.104l-0.07,0.071c-0.021,0.021-0.047,0.034-0.068,0.034v0.034c0.021,0.024,0.047,0.024,0.068,0&#10;&#9;&#9;&#9;c0.021-0.022,0.041-0.034,0.053-0.034c0.014,0,0.041-0.023,0.09-0.068l0.035-0.07l0.033,0.033l-0.033,0.105&#10;&#9;&#9;&#9;c-0.025,0.023-0.035,0.047-0.035,0.07c-0.023,0.023-0.035,0.041-0.035,0.053s0.012,0.006,0.035-0.018h0.068&#10;&#9;&#9;&#9;c0.023,0,0.047-0.012,0.07-0.035c0-0.023,0.012-0.036,0.035-0.036c0.021,0,0.047-0.011,0.07-0.034c0.07-0.023,0.104-0.023,0.104,0&#10;&#9;&#9;&#9;v0.07l-0.033,0.14l0.07,0.035h0.035c0.021,0,0.035-0.005,0.035-0.019c0-0.011,0.01-0.017,0.033-0.017&#10;&#9;&#9;&#9;c0.023-0.024,0.027-0.019,0.018,0.017c-0.012,0.037-0.029,0.064-0.051,0.09c-0.023,0-0.041,0.006-0.055,0.017&#10;&#9;&#9;&#9;c-0.012,0.013-0.027,0.017-0.053,0.017c-0.023,0.024-0.047,0.037-0.07,0.037c0,0.047,0.023,0.071,0.07,0.071&#10;&#9;&#9;&#9;c0.047-0.05,0.094-0.071,0.141-0.071c0.023-0.022,0.041-0.029,0.055-0.018c0.012,0.011,0.004,0.027-0.02,0.052l-0.104,0.071&#10;&#9;&#9;&#9;l-0.105,0.104c0.047,0.049,0.082,0.06,0.105,0.035c0-0.023,0.012-0.046,0.035-0.068c0.021-0.025,0.047-0.037,0.068-0.037&#10;&#9;&#9;&#9;l0.07-0.067c0.023,0,0.047-0.019,0.07-0.055c0.021-0.034,0.033-0.029,0.033,0.018l-0.07,0.104l-0.068,0.07&#10;&#9;&#9;&#9;c-0.023,0.024-0.035,0.049-0.035,0.069v0.036c0,0.023,0.021,0.034,0.07,0.034l0.104-0.104c0.049-0.046,0.072-0.046,0.072,0&#10;&#9;&#9;&#9;c0,0.094,0.01,0.141,0.035,0.141l0.139-0.035c0.023,0,0.047-0.012,0.072-0.034c0.02-0.021,0.035-0.011,0.035,0.034&#10;&#9;&#9;&#9;c0,0.048-0.016,0.078-0.035,0.089c-0.025,0.013-0.037,0.028-0.037,0.051l-0.07,0.071l-0.035,0.033v0.037&#10;&#9;&#9;&#9;c0.025,0.023,0.035,0.023,0.035,0c0.047-0.045,0.082-0.07,0.107-0.07c0-0.023,0.012-0.034,0.035-0.034h0.033v0.067l-0.033,0.037&#10;&#9;&#9;&#9;c0,0.023-0.008,0.041-0.021,0.055c-0.012,0.011-0.016,0.029-0.016,0.049v0.107l0.141-0.07l0.105-0.105&#10;&#9;&#9;&#9;c0-0.022,0.006-0.033,0.018-0.033c0.014,0,0.018-0.012,0.018-0.037l0.035-0.034c0.072,0,0.094,0.034,0.072,0.104l-0.072,0.068&#10;&#9;&#9;&#9;c-0.023,0.025-0.045,0.037-0.07,0.037l-0.035,0.036c-0.021,0.022-0.021,0.034,0,0.034c0,0.022,0.025,0.033,0.07,0.033&#10;&#9;&#9;&#9;c0.023-0.021,0.055-0.039,0.088-0.051c0.035-0.011,0.064-0.029,0.09-0.054c0.021-0.021,0.045-0.037,0.07-0.037&#10;&#9;&#9;&#9;c0.047-0.021,0.082-0.015,0.104,0.021c0.025,0.032,0.012,0.064-0.035,0.086c-0.021,0.023-0.047,0.03-0.066,0.021&#10;&#9;&#9;&#9;c-0.025-0.012-0.037,0.003-0.037,0.051v0.141c0.047,0.047,0.082,0.07,0.104,0.07h0.107v0.034l0.033,0.07l-0.033,0.071h0.033&#10;&#9;&#9;&#9;l0.07,0.069l0.035,0.069h0.035c0.021,0,0.045-0.014,0.07-0.034c0.023-0.024,0.045-0.035,0.07-0.035h0.143l0.102,0.035l0.037,0.034&#10;&#9;&#9;&#9;l0.07,0.07v0.07c0,0.023-0.016,0.045-0.035,0.068l0.035,0.105l0.141,0.071c0.023,0.024,0.049,0.035,0.07,0.035&#10;&#9;&#9;&#9;c0.02,0.021,0.047,0.034,0.07,0.034l0.141,0.07l0.105,0.104c0.068,0.049,0.104,0.081,0.104,0.104c0,0.026,0.025,0.062,0.072,0.106&#10;&#9;&#9;&#9;c0.021,0.024,0.035,0.06,0.035,0.104l0.422,0.701c0.047,0.094,0.135,0.25,0.264,0.457c0.129,0.213,0.25,0.387,0.367,0.53&#10;&#9;&#9;&#9;l0.598,0.735c0.047,0.047,0.102,0.111,0.158,0.193c0.059,0.08,0.1,0.146,0.123,0.194v1.298c0.021,5.811,0.021,11.571,0,17.286&#10;&#9;&#9;&#9;c-0.008,5.727-0.031,11.487-0.055,17.297c0,0.094,0.006,0.159,0.02,0.193c0.01,0.033,0.016,0.133,0.016,0.299&#10;&#9;&#9;&#9;c0,0.163,0.09,0.352,0.266,0.562c0.176,0.209,0.648,0.375,1.424,0.489c0.186,0.023,0.443,0.048,0.771,0.068&#10;&#9;&#9;&#9;c0.326,0.024,0.689,0.041,1.09,0.056c0.396,0.012,0.807,0.006,1.229-0.019c0.424-0.024,0.811-0.069,1.162-0.144&#10;&#9;&#9;&#9;c0.256-0.046,0.555-0.133,0.895-0.263c0.34-0.129,0.531-0.321,0.58-0.578c0-0.097,0.004-0.217,0.018-0.368&#10;&#9;&#9;&#9;c0.012-0.151,0.018-0.299,0.018-0.439v-0.49l0.07-10.05l0.068-10.047v-5.446l3.305,4.146c0,0.026-0.006,0.035-0.018,0.035&#10;&#9;&#9;&#9;s-0.02,0.014-0.02,0.034l-0.035,0.038c-0.328,0.327-0.619,0.632-0.877,0.911c-0.209,0.258-0.398,0.528-0.562,0.808&#10;&#9;&#9;&#9;c-0.164,0.282-0.223,0.516-0.176,0.705c0,0.047,0.012,0.079,0.035,0.104c0.021,0.025,0.047,0.061,0.07,0.104&#10;&#9;&#9;&#9;c0.021,0.05,0.059,0.084,0.104,0.104l1.863,2.25l3.969,5.022l5.164,6.499c0.023,0.05,0.076,0.103,0.158,0.161&#10;&#9;&#9;&#9;c0.082,0.057,0.211,0.098,0.387,0.12c0.178,0.022,0.395,0.007,0.65-0.051c0.258-0.062,0.586-0.185,0.982-0.37&#10;&#9;&#9;&#9;c0.258-0.116,0.561-0.292,0.912-0.526c0.354-0.235,0.697-0.503,1.037-0.808c0.342-0.307,0.654-0.639,0.949-1.001&#10;&#9;&#9;&#9;c0.293-0.362,0.496-0.722,0.613-1.072c0.023-0.095,0.023-0.204,0-0.335C158.565,44.646,158.497,44.486,158.38,44.3"/>
      <g enable-background="new    ">
        <path d="M119.218,70.654c-0.176-0.229-0.398-0.404-0.668-0.527c-0.271-0.123-0.549-0.186-0.836-0.186&#10;&#9;&#9;&#9;&#9;c-0.354,0-0.67,0.065-0.955,0.198c-0.285,0.132-0.529,0.312-0.73,0.541c-0.203,0.229-0.359,0.497-0.471,0.805&#10;&#9;&#9;&#9;&#9;c-0.113,0.311-0.168,0.64-0.168,0.99c0,0.329,0.053,0.64,0.16,0.933c0.104,0.295,0.258,0.554,0.457,0.774&#10;&#9;&#9;&#9;&#9;c0.199,0.224,0.443,0.399,0.73,0.529c0.287,0.128,0.613,0.191,0.977,0.191c0.359,0,0.672-0.073,0.943-0.22&#10;&#9;&#9;&#9;&#9;c0.27-0.146,0.498-0.354,0.686-0.616l0.713,0.537c-0.047,0.063-0.129,0.157-0.246,0.277c-0.119,0.12-0.273,0.239-0.467,0.36&#10;&#9;&#9;&#9;&#9;c-0.193,0.119-0.428,0.226-0.699,0.316c-0.273,0.091-0.588,0.136-0.945,0.136c-0.494,0-0.938-0.094-1.334-0.28&#10;&#9;&#9;&#9;&#9;s-0.732-0.436-1.012-0.739s-0.492-0.649-0.639-1.034c-0.146-0.384-0.219-0.771-0.219-1.166c0-0.48,0.078-0.925,0.236-1.333&#10;&#9;&#9;&#9;&#9;s0.379-0.76,0.664-1.055c0.285-0.298,0.627-0.528,1.025-0.692s0.84-0.246,1.32-0.246c0.41,0,0.814,0.079,1.211,0.237&#10;&#9;&#9;&#9;&#9;c0.395,0.157,0.719,0.401,0.973,0.729L119.218,70.654z"/>
      </g>
      <g enable-background="new    ">
        <path d="M123.944,75.697c-0.475,0-0.91-0.084-1.311-0.252c-0.398-0.167-0.74-0.396-1.025-0.689&#10;&#9;&#9;&#9;&#9;c-0.283-0.293-0.506-0.641-0.668-1.038c-0.162-0.399-0.24-0.83-0.24-1.294c0-0.462,0.08-0.896,0.24-1.295&#10;&#9;&#9;&#9;&#9;c0.162-0.397,0.385-0.743,0.668-1.037c0.285-0.293,0.627-0.523,1.025-0.69c0.4-0.168,0.836-0.251,1.311-0.251&#10;&#9;&#9;&#9;&#9;c0.477,0,0.912,0.083,1.312,0.251c0.4,0.167,0.74,0.397,1.025,0.69c0.285,0.294,0.508,0.64,0.67,1.037&#10;&#9;&#9;&#9;&#9;c0.16,0.399,0.24,0.833,0.24,1.295c0,0.464-0.08,0.895-0.24,1.294c-0.162,0.397-0.385,0.745-0.67,1.038s-0.625,0.522-1.025,0.689&#10;&#9;&#9;&#9;&#9;C124.856,75.613,124.421,75.697,123.944,75.697z M123.944,74.904c0.359,0,0.682-0.064,0.969-0.197s0.535-0.309,0.738-0.532&#10;&#9;&#9;&#9;&#9;c0.205-0.224,0.363-0.485,0.477-0.787c0.109-0.304,0.166-0.623,0.166-0.964c0-0.34-0.057-0.661-0.166-0.965&#10;&#9;&#9;&#9;&#9;c-0.113-0.301-0.271-0.563-0.477-0.786c-0.205-0.224-0.451-0.4-0.738-0.532c-0.287-0.133-0.609-0.198-0.969-0.198&#10;&#9;&#9;&#9;&#9;c-0.357,0-0.68,0.065-0.967,0.198c-0.289,0.132-0.535,0.311-0.74,0.532c-0.205,0.223-0.363,0.485-0.475,0.786&#10;&#9;&#9;&#9;&#9;c-0.111,0.304-0.166,0.625-0.166,0.965c0,0.341,0.055,0.66,0.166,0.964c0.111,0.302,0.271,0.563,0.475,0.787&#10;&#9;&#9;&#9;&#9;c0.205,0.224,0.453,0.399,0.74,0.532C123.265,74.838,123.587,74.904,123.944,74.904z"/>
      </g>
      <g enable-background="new    ">
        <path d="M128.724,74.235c0.152,0.229,0.346,0.397,0.584,0.507c0.238,0.108,0.482,0.162,0.736,0.162&#10;&#9;&#9;&#9;&#9;c0.141,0,0.283-0.021,0.43-0.064s0.281-0.11,0.4-0.198c0.121-0.088,0.219-0.196,0.295-0.326c0.076-0.128,0.115-0.278,0.115-0.448&#10;&#9;&#9;&#9;&#9;c0-0.24-0.076-0.424-0.23-0.55c-0.152-0.126-0.342-0.23-0.566-0.317c-0.227-0.084-0.473-0.166-0.738-0.246&#10;&#9;&#9;&#9;&#9;c-0.268-0.078-0.514-0.188-0.74-0.329c-0.225-0.142-0.414-0.33-0.566-0.567c-0.152-0.236-0.229-0.559-0.229-0.964&#10;&#9;&#9;&#9;&#9;c0-0.182,0.039-0.375,0.119-0.581c0.078-0.205,0.203-0.393,0.373-0.562s0.389-0.311,0.656-0.426s0.588-0.173,0.965-0.173&#10;&#9;&#9;&#9;&#9;c0.34,0,0.666,0.048,0.977,0.142s0.582,0.285,0.818,0.572l-0.688,0.625c-0.105-0.166-0.256-0.298-0.449-0.396&#10;&#9;&#9;&#9;&#9;c-0.193-0.1-0.414-0.149-0.66-0.149c-0.234,0-0.43,0.03-0.584,0.093c-0.156,0.062-0.281,0.142-0.375,0.237&#10;&#9;&#9;&#9;&#9;c-0.094,0.097-0.16,0.201-0.197,0.312c-0.039,0.11-0.059,0.214-0.059,0.308c0,0.264,0.076,0.467,0.229,0.607&#10;&#9;&#9;&#9;&#9;c0.152,0.14,0.342,0.255,0.568,0.343s0.473,0.168,0.738,0.237c0.268,0.07,0.516,0.168,0.74,0.295s0.414,0.297,0.568,0.511&#10;&#9;&#9;&#9;&#9;c0.15,0.215,0.229,0.509,0.229,0.885c0,0.3-0.057,0.569-0.172,0.81c-0.113,0.242-0.268,0.442-0.461,0.607&#10;&#9;&#9;&#9;&#9;c-0.195,0.164-0.422,0.29-0.688,0.378c-0.266,0.089-0.545,0.132-0.846,0.132c-0.398,0-0.775-0.07-1.135-0.211&#10;&#9;&#9;&#9;&#9;c-0.357-0.141-0.643-0.356-0.854-0.65L128.724,74.235z"/>
      </g>
      <g enable-background="new    ">
        <path d="M133.616,69.308h1.258l1.979,4.717h0.035l1.963-4.717h1.258v6.229h-0.846v-5.121h-0.018l-2.104,5.121&#10;&#9;&#9;&#9;&#9;h-0.562l-2.104-5.121h-0.018v5.121h-0.846v-6.229H133.616z"/>
      </g>
      <g enable-background="new    ">
        <path d="M141.931,69.308h4.021V70.1h-3.178v1.855h2.957v0.793h-2.957v1.998h3.336v0.791h-4.18V69.308&#10;&#9;&#9;&#9;&#9;L141.931,69.308z"/>
      </g>
      <g enable-background="new    ">
        <path d="M148.856,70.1h-2.008v-0.792h4.859V70.1H149.7v5.438h-0.846V70.1H148.856z"/>
      </g>
      <g enable-background="new    ">
        <path d="M152.72,69.308h0.846v6.229h-0.846V69.308z"/>
      </g>
      <g enable-background="new    ">
        <path d="M159.698,70.654c-0.176-0.229-0.398-0.404-0.668-0.527s-0.549-0.186-0.836-0.186&#10;&#9;&#9;&#9;&#9;c-0.354,0-0.672,0.065-0.955,0.198c-0.285,0.132-0.527,0.312-0.73,0.541s-0.359,0.497-0.471,0.805&#10;&#9;&#9;&#9;&#9;c-0.111,0.311-0.168,0.64-0.168,0.99c0,0.329,0.053,0.64,0.158,0.933c0.105,0.295,0.26,0.554,0.459,0.774&#10;&#9;&#9;&#9;&#9;c0.199,0.224,0.441,0.399,0.73,0.529c0.287,0.128,0.611,0.191,0.977,0.191c0.357,0,0.672-0.073,0.941-0.22&#10;&#9;&#9;&#9;&#9;c0.268-0.146,0.498-0.354,0.686-0.616l0.713,0.537c-0.047,0.063-0.129,0.157-0.246,0.277s-0.271,0.239-0.467,0.36&#10;&#9;&#9;&#9;&#9;c-0.193,0.119-0.426,0.226-0.699,0.316c-0.271,0.091-0.588,0.136-0.945,0.136c-0.492,0-0.938-0.094-1.334-0.28&#10;&#9;&#9;&#9;&#9;c-0.395-0.188-0.732-0.436-1.012-0.739s-0.49-0.649-0.639-1.034c-0.146-0.384-0.219-0.771-0.219-1.166&#10;&#9;&#9;&#9;&#9;c0-0.48,0.078-0.925,0.236-1.333s0.381-0.76,0.664-1.055c0.285-0.298,0.627-0.528,1.025-0.692s0.838-0.246,1.318-0.246&#10;&#9;&#9;&#9;&#9;c0.412,0,0.814,0.079,1.211,0.237c0.396,0.157,0.721,0.401,0.973,0.729L159.698,70.654z"/>
      </g>
      <g enable-background="new    ">
        <path d="M162.048,74.235c0.152,0.229,0.348,0.397,0.586,0.507c0.238,0.108,0.482,0.162,0.734,0.162&#10;&#9;&#9;&#9;&#9;c0.141,0,0.283-0.021,0.432-0.064c0.146-0.044,0.279-0.11,0.4-0.198c0.119-0.088,0.219-0.196,0.295-0.326&#10;&#9;&#9;&#9;&#9;c0.076-0.128,0.113-0.278,0.113-0.448c0-0.24-0.076-0.424-0.229-0.55c-0.154-0.126-0.342-0.23-0.568-0.317&#10;&#9;&#9;&#9;&#9;c-0.225-0.084-0.471-0.166-0.738-0.246c-0.268-0.078-0.514-0.188-0.738-0.329c-0.227-0.142-0.416-0.33-0.568-0.567&#10;&#9;&#9;&#9;&#9;c-0.15-0.236-0.229-0.559-0.229-0.964c0-0.182,0.039-0.375,0.119-0.581c0.078-0.205,0.203-0.393,0.373-0.562&#10;&#9;&#9;&#9;&#9;s0.389-0.311,0.656-0.426s0.588-0.173,0.963-0.173c0.34,0,0.666,0.048,0.977,0.142c0.312,0.094,0.584,0.285,0.818,0.572&#10;&#9;&#9;&#9;&#9;l-0.686,0.625c-0.105-0.166-0.256-0.298-0.449-0.396c-0.193-0.1-0.414-0.149-0.66-0.149c-0.234,0-0.43,0.03-0.586,0.093&#10;&#9;&#9;&#9;&#9;c-0.154,0.062-0.279,0.142-0.373,0.237c-0.094,0.097-0.16,0.201-0.197,0.312c-0.039,0.11-0.059,0.214-0.059,0.308&#10;&#9;&#9;&#9;&#9;c0,0.264,0.076,0.467,0.229,0.607c0.152,0.14,0.342,0.255,0.566,0.343c0.229,0.088,0.475,0.168,0.74,0.237&#10;&#9;&#9;&#9;&#9;c0.266,0.07,0.514,0.168,0.738,0.295c0.227,0.127,0.416,0.297,0.568,0.511c0.152,0.215,0.229,0.509,0.229,0.885&#10;&#9;&#9;&#9;&#9;c0,0.3-0.057,0.569-0.172,0.81c-0.113,0.242-0.27,0.442-0.461,0.607c-0.195,0.164-0.424,0.29-0.688,0.378&#10;&#9;&#9;&#9;&#9;c-0.264,0.089-0.545,0.132-0.846,0.132c-0.398,0-0.777-0.07-1.135-0.211s-0.645-0.356-0.855-0.65L162.048,74.235z"/>
      </g>
    </g>
    <g>
      <g enable-background="new    ">
        <path d="M203.333,69.309h3.916V70.1h-3.072v1.956h2.859v0.79h-2.859v2.691h-0.844V69.309z"/>
      </g>
      <g enable-background="new    ">
        <path d="M208.585,69.309h2.191c0.398,0,0.727,0.055,0.986,0.162c0.258,0.107,0.461,0.246,0.611,0.414&#10;&#9;&#9;&#9;&#9;c0.148,0.169,0.252,0.354,0.312,0.562c0.059,0.207,0.088,0.408,0.088,0.604c0,0.199-0.035,0.391-0.107,0.576&#10;&#9;&#9;&#9;&#9;c-0.068,0.186-0.17,0.352-0.303,0.502c-0.131,0.148-0.293,0.275-0.484,0.379c-0.189,0.102-0.402,0.164-0.637,0.188l1.77,2.842&#10;&#9;&#9;&#9;&#9;h-1.057l-1.584-2.744h-0.941v2.744h-0.846V69.309L208.585,69.309z M209.431,72.056h1.109c0.164,0,0.326-0.017,0.488-0.042&#10;&#9;&#9;&#9;&#9;s0.305-0.074,0.43-0.146c0.127-0.068,0.229-0.17,0.305-0.303s0.113-0.302,0.113-0.516c0-0.211-0.037-0.383-0.113-0.516&#10;&#9;&#9;&#9;&#9;c-0.076-0.131-0.178-0.232-0.305-0.303c-0.125-0.07-0.27-0.119-0.43-0.145c-0.162-0.027-0.324-0.041-0.488-0.041h-1.109V72.056z"/>
      </g>
      <g enable-background="new    ">
        <path d="M216.294,69.309h0.768l2.666,6.229h-0.986l-0.625-1.539h-2.965l-0.617,1.539h-0.986L216.294,69.309z&#10;&#9;&#9;&#9;&#9; M217.81,73.26l-1.162-2.861h-0.02l-1.178,2.861H217.81z"/>
      </g>
      <g enable-background="new    ">
        <path d="M225.738,72.056v3.067c-0.152,0.096-0.326,0.178-0.52,0.248s-0.395,0.131-0.604,0.183&#10;&#9;&#9;&#9;&#9;c-0.207,0.048-0.418,0.086-0.633,0.106c-0.215,0.023-0.416,0.035-0.604,0.035c-0.527,0-1-0.088-1.414-0.264&#10;&#9;&#9;&#9;&#9;s-0.762-0.414-1.047-0.713c-0.283-0.299-0.5-0.646-0.65-1.043s-0.225-0.812-0.225-1.254c0-0.463,0.08-0.895,0.242-1.293&#10;&#9;&#9;&#9;&#9;c0.16-0.398,0.383-0.744,0.668-1.039c0.285-0.293,0.625-0.523,1.025-0.689c0.398-0.168,0.836-0.252,1.311-0.252&#10;&#9;&#9;&#9;&#9;c0.574,0,1.043,0.072,1.408,0.217c0.363,0.145,0.668,0.342,0.914,0.594l-0.598,0.643c-0.258-0.246-0.531-0.418-0.818-0.514&#10;&#9;&#9;&#9;&#9;c-0.287-0.1-0.59-0.146-0.906-0.146c-0.357,0-0.682,0.064-0.969,0.198c-0.287,0.132-0.533,0.31-0.738,0.532&#10;&#9;&#9;&#9;&#9;c-0.207,0.223-0.365,0.484-0.475,0.787c-0.113,0.304-0.168,0.623-0.168,0.963c0,0.352,0.062,0.68,0.186,0.98&#10;&#9;&#9;&#9;&#9;c0.123,0.303,0.293,0.564,0.51,0.787c0.217,0.225,0.473,0.398,0.766,0.523c0.293,0.127,0.613,0.189,0.959,0.189&#10;&#9;&#9;&#9;&#9;c0.299,0,0.584-0.027,0.85-0.084c0.268-0.055,0.494-0.137,0.684-0.242v-1.732h-1.381v-0.79h2.227V72.056z"/>
      </g>
      <g enable-background="new    ">
        <path d="M227.578,69.309h2.191c0.398,0,0.727,0.055,0.984,0.162s0.461,0.246,0.611,0.414&#10;&#9;&#9;&#9;&#9;c0.15,0.169,0.254,0.354,0.312,0.562c0.059,0.207,0.088,0.408,0.088,0.604c0,0.199-0.035,0.391-0.105,0.576&#10;&#9;&#9;&#9;&#9;s-0.172,0.352-0.303,0.502c-0.133,0.148-0.293,0.275-0.484,0.379c-0.189,0.102-0.402,0.164-0.639,0.188l1.77,2.842h-1.057&#10;&#9;&#9;&#9;&#9;l-1.584-2.744h-0.941v2.744h-0.846v-6.229H227.578z M228.421,72.056h1.109c0.164,0,0.326-0.017,0.488-0.042&#10;&#9;&#9;&#9;&#9;s0.305-0.074,0.43-0.146c0.127-0.068,0.229-0.17,0.305-0.303s0.113-0.302,0.113-0.516c0-0.211-0.037-0.383-0.113-0.516&#10;&#9;&#9;&#9;&#9;c-0.076-0.131-0.178-0.232-0.305-0.303c-0.125-0.07-0.27-0.119-0.43-0.145c-0.162-0.027-0.324-0.041-0.488-0.041h-1.109V72.056z"/>
      </g>
      <g enable-background="new    ">
        <path d="M235.285,69.309h0.766l2.668,6.229h-0.986l-0.625-1.539h-2.965l-0.617,1.539h-0.984L235.285,69.309z&#10;&#9;&#9;&#9;&#9; M236.798,73.26l-1.16-2.861h-0.02l-1.178,2.861H236.798z"/>
      </g>
      <g enable-background="new    ">
        <path d="M239.71,69.309h1.109l3.432,5.122h0.02v-5.122h0.844v6.229h-1.074l-3.467-5.121h-0.018v5.121h-0.846&#10;&#9;&#9;&#9;&#9;V69.309z"/>
      </g>
      <g enable-background="new    ">
        <path d="M251.292,70.654c-0.176-0.229-0.398-0.404-0.67-0.527c-0.27-0.123-0.549-0.186-0.836-0.186&#10;&#9;&#9;&#9;&#9;c-0.352,0-0.67,0.066-0.955,0.199c-0.283,0.131-0.527,0.311-0.729,0.541c-0.203,0.229-0.359,0.497-0.473,0.805&#10;&#9;&#9;&#9;&#9;c-0.111,0.309-0.166,0.639-0.166,0.99c0,0.329,0.053,0.639,0.158,0.932c0.105,0.295,0.258,0.553,0.457,0.775&#10;&#9;&#9;&#9;&#9;s0.443,0.398,0.73,0.527s0.611,0.193,0.977,0.193c0.357,0,0.672-0.074,0.941-0.221s0.5-0.354,0.688-0.615l0.713,0.537&#10;&#9;&#9;&#9;&#9;c-0.047,0.064-0.129,0.157-0.246,0.277c-0.117,0.119-0.273,0.238-0.467,0.359c-0.193,0.119-0.428,0.227-0.699,0.316&#10;&#9;&#9;&#9;&#9;c-0.273,0.092-0.59,0.137-0.947,0.137c-0.492,0-0.938-0.094-1.332-0.281c-0.396-0.188-0.734-0.436-1.014-0.738&#10;&#9;&#9;&#9;&#9;c-0.277-0.305-0.49-0.65-0.637-1.035c-0.146-0.383-0.221-0.771-0.221-1.166c0-0.48,0.08-0.924,0.238-1.332&#10;&#9;&#9;&#9;&#9;c0.156-0.408,0.379-0.76,0.662-1.057c0.285-0.297,0.629-0.527,1.025-0.691c0.398-0.164,0.84-0.246,1.32-0.246&#10;&#9;&#9;&#9;&#9;c0.41,0,0.812,0.08,1.209,0.238s0.721,0.4,0.973,0.729L251.292,70.654z"/>
      </g>
      <g enable-background="new    ">
        <path d="M253.316,69.309h4.021V70.1h-3.178v1.855h2.957v0.793h-2.957v1.998h3.336v0.791h-4.18V69.309&#10;&#9;&#9;&#9;&#9;L253.316,69.309z"/>
        <path d="M258.878,74.236c0.152,0.229,0.348,0.396,0.584,0.506c0.238,0.109,0.482,0.162,0.734,0.162&#10;&#9;&#9;&#9;&#9;c0.141,0,0.285-0.02,0.432-0.064c0.146-0.043,0.281-0.109,0.4-0.197c0.121-0.087,0.219-0.197,0.295-0.326&#10;&#9;&#9;&#9;&#9;s0.115-0.279,0.115-0.449c0-0.238-0.076-0.424-0.23-0.549c-0.15-0.127-0.342-0.232-0.566-0.316&#10;&#9;&#9;&#9;&#9;c-0.227-0.086-0.473-0.168-0.738-0.246c-0.266-0.08-0.514-0.189-0.74-0.33c-0.225-0.143-0.414-0.33-0.566-0.568&#10;&#9;&#9;&#9;&#9;c-0.152-0.236-0.229-0.559-0.229-0.963c0-0.182,0.039-0.375,0.119-0.582c0.08-0.205,0.203-0.393,0.373-0.561&#10;&#9;&#9;&#9;&#9;c0.172-0.172,0.389-0.312,0.656-0.428s0.588-0.172,0.965-0.172c0.34,0,0.664,0.047,0.977,0.141&#10;&#9;&#9;&#9;&#9;c0.311,0.094,0.582,0.285,0.818,0.572l-0.689,0.625c-0.104-0.166-0.254-0.297-0.447-0.396s-0.412-0.148-0.658-0.148&#10;&#9;&#9;&#9;&#9;c-0.236,0-0.432,0.029-0.586,0.092c-0.156,0.062-0.281,0.144-0.375,0.238c-0.094,0.096-0.158,0.201-0.197,0.312&#10;&#9;&#9;&#9;&#9;c-0.039,0.109-0.057,0.213-0.057,0.307c0,0.264,0.074,0.467,0.229,0.607c0.152,0.141,0.342,0.256,0.568,0.344&#10;&#9;&#9;&#9;&#9;c0.225,0.088,0.471,0.168,0.736,0.236c0.27,0.07,0.516,0.17,0.74,0.295c0.227,0.127,0.414,0.297,0.566,0.513&#10;&#9;&#9;&#9;&#9;c0.152,0.212,0.229,0.507,0.229,0.884c0,0.299-0.057,0.568-0.17,0.809c-0.115,0.242-0.27,0.443-0.463,0.607&#10;&#9;&#9;&#9;&#9;c-0.191,0.164-0.422,0.291-0.686,0.379c-0.266,0.088-0.547,0.131-0.846,0.131c-0.398,0-0.777-0.068-1.135-0.211&#10;&#9;&#9;&#9;&#9;c-0.357-0.141-0.643-0.355-0.854-0.65L258.878,74.236z"/>
      </g>
      <g>
        <path d="M237.726,8.469c0-0.521-0.447-0.955-1.018-0.955h-7.971c-0.568,0-1.016,0.436-1.016,0.955l0.908,6.311&#10;&#9;&#9;&#9;&#9;c0,0.535,0.447,0.969,1.016,0.969h6.152c0.566,0,1.018-0.434,1.018-0.969L237.726,8.469z"/>
        <path d="M232.724,54.211c-8.717,0-15.803-7.574-15.965-16.99c-0.002,0.111-0.004,0.238-0.004,0.365&#10;&#9;&#9;&#9;&#9;c0,9.559,7.154,17.305,15.969,17.305c3.408,0,6.559-1.158,9.154-3.141c-1.453,1.306-3.117,2.328-4.941,3.027&#10;&#9;&#9;&#9;&#9;c-1.346,0.381-2.76,0.602-4.213,0.602c-9.021,0-16.377-7.984-16.377-17.781c0-5.136,1.426-9.486,4.078-12.568&#10;&#9;&#9;&#9;&#9;c0.385-0.365,0.795-0.705,1.234-1.033c2.592-1.865,6.508-0.683,9.873-0.683c0.078,0,0.172-0.002,0.248-0.004&#10;&#9;&#9;&#9;&#9;c0.029,0.909,0.037,1.8,0.037,2.705c0,10.943-1.764,21.073-4.623,26.435c-0.047,0.106-0.016,0.24,0.068,0.309&#10;&#9;&#9;&#9;&#9;c0.051,0.035,0.092,0.057,0.133,0.057c0.062,0,0.129-0.029,0.17-0.09c3.604-4.428,6.025-15.975,6.025-28.732&#10;&#9;&#9;&#9;&#9;c0-0.262-0.016-0.518-0.018-0.785c2.762-0.26,5.637-0.738,7.688,0.711c4.387,3.109,6.479,8.439,6.479,14.486&#10;&#9;&#9;&#9;&#9;c0,3.354-0.9,6.488-2.432,9.151C242.382,51.605,237.832,54.211,232.724,54.211 M231.546,17.137l0.23,4.089&#10;&#9;&#9;&#9;&#9;c-0.637-0.032-1.281-0.082-1.922-0.146v-3.943H231.546z M227.828,15.554l-1.139-8.826c0.02-0.604,0.475-1.102,1.047-1.102h9.979&#10;&#9;&#9;&#9;&#9;c0.572,0,1.027,0.495,1.047,1.102l-1.139,8.792v0.034c0,0.606-0.473,1.106-1.047,1.106h-7.703&#10;&#9;&#9;&#9;&#9;C228.298,16.66,227.828,16.16,227.828,15.554 M235.591,21.06c-0.639,0.063-1.285,0.132-1.92,0.166l0.229-4.089h1.691V21.06&#10;&#9;&#9;&#9;&#9;L235.591,21.06z M232.244,23.306c0.285-0.022,0.584-0.05,0.887-0.063c0,0.244,0.002,0.508,0.002,0.748&#10;&#9;&#9;&#9;&#9;c0,10.396-1.598,19.957-4.131,25.455c2.061-5.767,3.281-14.316,3.281-23.432C232.283,25.109,232.255,24.199,232.244,23.306&#10;&#9;&#9;&#9;&#9; M243.085,21.967c-1.074-0.773-2.426-1.123-4.248-1.123c-0.912,0-1.861,0.079-2.799,0.176v-3.883h0.535&#10;&#9;&#9;&#9;&#9;c0.814,0,1.486-0.704,1.492-1.561l1.139-8.809l0.002-0.031c0-0.877-0.676-1.586-1.494-1.586h-9.979&#10;&#9;&#9;&#9;&#9;c-0.82,0-1.494,0.709-1.494,1.586l1.139,8.84c0.006,0.855,0.678,1.561,1.494,1.561h0.535v3.906&#10;&#9;&#9;&#9;&#9;c-0.908-0.094-1.844-0.168-2.73-0.168c-1.924,0-3.338,0.376-4.449,1.189c-4.383,3.208-6.789,8.719-6.789,15.531&#10;&#9;&#9;&#9;&#9;c0,10.33,7.758,18.734,17.285,18.734c9.525,0,17.285-8.404,17.285-18.734C250.011,30.734,247.55,25.172,243.085,21.967"/>
      </g>
    </g>
  </g>
  <g id="spec" display="none"/>
</svg>