<?xml version="1.0" encoding="utf-8"?>
<svg id="Layer_1" x="0px" y="0px" width="65.559px" height="86.379px" viewBox="0 0 65.559 86.379" xmlns="http://www.w3.org/2000/svg">
  <g>
    <path d="M22.546,59.912c0.028,0.914,0.028,5.628,0.028,7.2c0,1.885-0.028,6.599-0.057,7.542c-0.058,0.857-0.289,1.543-1.066,1.543&#10;&#9;&#9;c-0.835,0-1.009-0.601-1.066-1.543c-0.058-1-0.029-5.743-0.029-7.457c0-1.628-0.029-6.313,0.029-7.228&#10;&#9;&#9;c0.057-1.114,0.144-1.772,1.066-1.772C22.258,58.197,22.517,58.685,22.546,59.912L22.546,59.912z M20.938,30.599h-0.799&#10;&#9;&#9;c0,0,0,7.067,0,7.624c0.029,0,0.65,0,0.887-0.029c0.474-0.088,0.651-0.41,0.769-0.762c0.177-0.499,0.326-1.847,0.326-2.698&#10;&#9;&#9;c0-1.085-0.088-2.492-0.118-2.756C21.943,31.186,21.559,30.599,20.938,30.599L20.938,30.599z M35.546,30.658h-0.591v8.591&#10;&#9;&#9;c0,0,0.267,0,0.473,0c0.74,0,1.125-0.322,1.272-0.968c0.148-0.791,0.236-1.319,0.236-3.254c0-1.936-0.207-3.138-0.354-3.578&#10;&#9;&#9;C36.374,30.98,35.961,30.658,35.546,30.658L35.546,30.658z M65.556,85.221c-0.032,0.487,0.065,0.976-1.018,1.105&#10;&#9;&#9;c-1.082,0.13-22.396-0.008-36.713-0.129C13.508,86.075,0.733,86.112,0.54,86.104c-0.193-0.008-0.501-0.156-0.536-0.827&#10;&#9;&#9;S0.17,74.188,0.201,67.729c0.03-6.459,0.336-42.485,0.397-45.124c0.062-2.639,0.007-3.541,0.007-3.63&#10;&#9;&#9;c0-0.089-0.027-0.152,0.157-0.152c0.175,0,12.682,0.025,15.928-0.025c2.481-0.038,4.503-0.018,5.556-0.04&#10;&#9;&#9;c-0.003-1.348-0.027-5.897-0.071-7.577c-0.048-1.835,0.12-3.337,1.01-5.078c0.89-1.741,1.852-3.91,4.809-5.197&#10;&#9;&#9;c2.958-1.288,5.82-1.049,7.72-0.239c1.9,0.811,4.45,2.932,5.508,4.888c1.058,1.955,1.539,4.172,1.708,7.367&#10;&#9;&#9;c0.168,3.194,0.287,4.84,0.408,5.65c0.017,0.113,0.032,0.22,0.049,0.323c3.677-0.04,15.881-0.448,17.389-0.495&#10;&#9;&#9;c1.585-0.05,2.592-0.125,2.793-0.125s0.276,0.05,0.326,0.199c0.051,0.149,0.127,0.45,0.203,0.475&#10;&#9;&#9;c0.073,0.024,1.03-0.075,1.03-0.075s0.051,0.225,0.051,0.449s-0.033,13.654,0.058,29.938&#10;&#9;&#9;C65.328,65.545,65.588,84.733,65.556,85.221L65.556,85.221z M8.456,30.717h2.249v20.672h2.81V30.717h2.218v-2.786H8.456V30.717&#10;&#9;&#9;L8.456,30.717z M15.862,62.513c0-2.8-0.317-4.657-0.865-5.457c-0.604-0.886-1.441-1.343-2.651-1.343H8.426v22.855h2.737v-9.256&#10;&#9;&#9;c0,0,0.635,0.028,1.125-0.029c1.182-0.115,2.047-0.514,2.652-1.313C15.63,67.055,15.862,65.312,15.862,62.513L15.862,62.513z&#10;&#9;&#9; M39.226,4.315c0,0,0.793,2.027,1.299,3.672c0.505,1.645,0.913,3.219,1.153,5.722c0.195,2.03,0.264,4.374,0.283,5.187&#10;&#9;&#9;c0.216,0.001,0.411,0.002,0.583,0.002c-0.02-0.573-0.033-1.2-0.023-1.708c0.023-1.287,0-5.316-0.506-7.843&#10;&#9;&#9;c-0.505-2.528-1.659-3.958-2.044-4.34C39.587,4.625,39.226,4.315,39.226,4.315L39.226,4.315z M22.656,13.947&#10;&#9;&#9;c0.12,0.882,0.36,3.218,0.384,4.244c0.005,0.201,0.008,0.37,0.012,0.522c0.335-0.025,0.675,0.034,0.96,0.067&#10;&#9;&#9;c0.01-0.681,0.007-1.965-0.13-2.759c-0.193-1.12-0.481-2.288-0.481-4.029c0-1.74,0.193-5.078,0.242-5.221&#10;&#9;&#9;c0.047-0.144-0.073-0.048-0.217,0.166c-0.145,0.215-0.554,1.216-0.674,2.527C22.631,10.776,22.535,13.065,22.656,13.947&#10;&#9;&#9;L22.656,13.947z M25.284,66.998c0-2.257,0-6.371-0.058-7.343c-0.116-2.743-1.297-4.057-3.833-4.057c-2.709,0-3.747,1.685-3.805,4.2&#10;&#9;&#9;c0,0.457-0.029,5.17-0.029,7.284c0,2.113,0.029,6.999,0.029,7.686c0.086,2.657,1.239,4,3.805,4c2.622,0,3.746-1.429,3.833-4.114&#10;&#9;&#9;C25.284,73.196,25.284,69.454,25.284,66.998L25.284,66.998z M25.314,51.389l-2.04-11.407c0.414-0.176,1.005-0.879,1.242-1.642&#10;&#9;&#9;c0.267-0.85,0.385-2.023,0.385-3.929c0-1.936-0.236-3.284-0.503-4.164c-0.414-1.496-1.508-2.317-3.046-2.317h-3.934v23.458h2.692&#10;&#9;&#9;V40.804h0.68l1.774,10.585H25.314L25.314,51.389z M30.095,55.713h-2.738v22.855h2.738V55.713L30.095,55.713z M29.84,51.389V27.931&#10;&#9;&#9;h-2.811v23.458H29.84L29.84,51.389z M39.72,55.713h-2.479V67.74L34.82,55.713h-2.479v22.855h2.45V66.941l2.42,11.627h2.508V55.713&#10;&#9;&#9;L39.72,55.713z M39.776,34.91c0-2.874-0.325-4.78-0.887-5.601c-0.622-0.909-1.479-1.378-2.722-1.378h-4.023v23.458h2.81v-9.5&#10;&#9;&#9;c0,0,0.65,0.029,1.153-0.029c1.213-0.117,2.1-0.528,2.722-1.349C39.54,39.572,39.776,37.783,39.776,34.91L39.776,34.91z&#10;&#9;&#9; M40.764,12.326c-0.48-3.671-1.538-6.46-2.765-8.368s-3.007-3.076-5.002-3.124C31,0.787,29.052,1.383,27.609,2.289&#10;&#9;&#9;c-1.443,0.906-2.581,2.484-2.862,3.814c-0.336,1.598-0.938,3.458-0.625,6.151c0.286,2.46,0.67,5.549,0.735,6.541&#10;&#9;&#9;c2.256,0.001,11.609,0.073,16.085,0.096C41.015,17.893,41.144,15.225,40.764,12.326L40.764,12.326z M48.45,55.713h-7.09v2.714h2.19&#10;&#9;&#9;v20.142h2.737V58.427h2.162V55.713L48.45,55.713z M48.53,48.661h-3.993v-20.73h-2.839v23.458h6.832V48.661L48.53,48.661z&#10;&#9;&#9; M56.721,74.111c0-2.8-0.433-4.628-1.815-6.885c-0.202-0.343-1.153-1.858-1.412-2.258c-0.836-1.342-1.528-2.856-1.528-4.6&#10;&#9;&#9;c0-1.543,0.317-2.113,1.096-2.113s1.038,0.686,1.038,1.856v2.028h2.564c0,0,0-1.514-0.03-2.485&#10;&#9;&#9;c-0.057-2.286-1.064-4.086-3.572-4.086c-2.22,0-3.746,1.601-3.746,4.543c0,2.514,0.518,4.058,1.873,6.256&#10;&#9;&#9;c0.229,0.4,1.037,1.715,1.354,2.229c1.355,2.229,1.499,3.715,1.499,5.484c0,1.716-0.402,2.115-1.065,2.115&#10;&#9;&#9;c-0.605,0-1.037-0.343-1.037-1.429v-2.313H49.4v3.085c0,2.087,1.44,3.229,3.602,3.229C55.31,78.769,56.721,77.426,56.721,74.111&#10;&#9;&#9;L56.721,74.111z M56.869,48.661h-3.845v-7.77h3.401v-2.639h-3.401v-7.535h3.815v-2.786h-6.596v23.458h6.625V48.661L56.869,48.661z&#10;&#9;&#9; M11.74,58.369h-0.577v8.371c0,0,0.26,0,0.461,0c0.721,0,1.096-0.314,1.239-0.942c0.145-0.771,0.231-1.286,0.231-3.172&#10;&#9;&#9;s-0.202-3.057-0.346-3.485C12.548,58.685,12.143,58.369,11.74,58.369L11.74,58.369z"/>
  </g>
</svg>