<?xml version="1.0" encoding="utf-8"?>
<!-- Generator: Adobe Illustrator 16.0.4, SVG Export Plug-In . SVG Version: 6.00 Build 0)  -->
<!DOCTYPE svg PUBLIC "-//W3C//DTD SVG 1.1//EN" "http://www.w3.org/Graphics/SVG/1.1/DTD/svg11.dtd">
<svg version="1.1" id="Layer_1" xmlns="http://www.w3.org/2000/svg" xmlns:xlink="http://www.w3.org/1999/xlink" x="0px" y="0px"
	 width="74.792px" height="48px" viewBox="3.857 5.305 74.792 48" enable-background="new 3.857 5.305 74.792 48"
	 xml:space="preserve">
<path fill="#231F20" d="M8.802,5.635C8.797,6.583,8.9,7.429,9.124,8.148C8.756,8.318,7.983,8.084,7.77,8.406
	c0.145,0.521,0.981,0.352,1.418,0.581C9.164,18.356,9.382,28.44,9.382,37.999c0,2.119-0.108,4.963,0,7.35
	c0.036,0.832,0.18,1.863-0.064,2.258c-0.381,0.607-2.009,0.605-2.772,1.029c-0.558,0.309-0.946,0.936-1.484,1.355
	c-0.605,0.473-1.398,0.801-1.159,1.738c0.181,0.703,1.92,1.102,2.966,1.291c2.652,0.475,5.407,0.318,7.8-0.193
	c0.94-0.203,2.541-0.68,2.645-1.613c0.116-1.053-0.746-1.127-1.29-1.547c-0.625-0.48-1.262-1.234-1.999-1.482
	c-0.808-0.273-1.811-0.051-2.256-0.773c-0.152-12.678-0.274-25.728-0.192-38.423c0.222,0.099,0.588,0.057,0.901,0.065
	c0.162,0.279,0.205,0.428,0.13,0.838c0.342-0.063,0.437,0.121,0.516,0.321c-0.272,0.902,0.179,1.358,0.58,1.999
	c0.972,1.556,2.02,2.674,3.156,3.998c2.578,2.992,5.123,5.379,8.319,7.928c3.838,3.064,8.494,6.551,14.763,6.899
	c8.023,0.443,13.052-3.433,17.342-6.899c2.106-1.699,4.042-3.265,5.736-5.027c2.012-2.092,4.084-4.452,5.609-6.898
	c0.35-0.562,0.867-1.173,0.516-1.999c0.088-0.234,0.298-0.345,0.581-0.387c-0.374-0.766,0.45-0.815,1.03-0.838v33.716
	c0,1.043,0.297,4.025-0.062,4.771c-0.284,0.588-1.439,0.465-2.192,0.709c-0.892,0.291-1.302,0.945-2.128,1.549
	c-0.482,0.35-0.908,0.463-1.032,0.707c-0.772,1.529,1.495,2.164,2.579,2.387c2.54,0.521,5.254,0.658,7.799,0.193
	c0.949-0.174,2.729-0.502,2.902-1.355c0.209-1.016-0.694-1.25-1.289-1.738c-0.532-0.439-0.755-0.879-1.354-1.227
	c-0.821-0.473-2.155-0.549-2.837-1.162c-0.149-12.742-0.022-25.763-0.063-38.614c0.55-0.096,1.245-0.044,1.419-0.518
	c-0.182-0.378-1.118,0-1.355-0.32c0.276-0.647,0.302-1.547,0.322-2.451c-0.726-0.469-2.363-0.423-3.03,0.066
	c-0.114,0.807,0.14,2.135,0.322,2.643c-0.641,0.303-1.094-0.388-1.547-0.065c-0.374,0.304-0.197,1.159-0.257,1.612
	c-0.213,0.239-0.665,0.238-1.032,0.321c-0.469,0.751-1.18,1.133-1.547,1.87c-0.105,0.213-0.073,0.484-0.192,0.709
	c-0.242,0.457-0.734,0.954-1.098,1.419c-4.067,5.21-8.877,9.653-14.827,12.827c-2.18,1.165-4.853,2.262-7.672,2.452
	c-4.565,0.306-7.6-0.979-10.508-2.516c-5.469-2.887-9.748-7.112-13.667-11.539c-0.824-0.93-1.822-1.89-2.321-2.772
	c-0.13-0.229-0.144-0.512-0.258-0.71c-0.378-0.655-0.961-1.029-1.481-1.74c-0.34-0.112-0.828-0.075-1.033-0.321
	c0.018-0.661,0.037-1.326-0.258-1.677c-0.531-0.157-0.892,0.398-1.547,0.13c0.294-0.694,0.31-1.668,0.387-2.579
	C11.268,5.224,9.548,5.134,8.802,5.635"/>
</svg>
