<?xml version="1.0" encoding="utf-8"?>
<!-- Generator: Adobe Illustrator 16.0.4, SVG Export Plug-In . SVG Version: 6.00 Build 0)  -->
<!DOCTYPE svg PUBLIC "-//W3C//DTD SVG 1.1//EN" "http://www.w3.org/Graphics/SVG/1.1/DTD/svg11.dtd">
<svg version="1.1" id="Layer_1" xmlns="http://www.w3.org/2000/svg" xmlns:xlink="http://www.w3.org/1999/xlink" x="0px" y="0px"
	 width="200px" height="200px" viewBox="0 0 200 200" enable-background="new 0 0 200 200" xml:space="preserve">
<path fill="#407F7A" d="M129.918,39.917H90.973c-0.039,2.388-0.135,4.164-0.282,5.848h-5.37c-0.171,8.269-1.349,14.582-3.842,18.869
	c-1.554,0.721-3.316,1.152-5.319,1.272l-0.006,3.899c-1.633,0.821-3.498,1.319-5.646,1.447l-0.046,29.478H85.32v59.141h38.944
	v-5.348h5.653V39.917z"/>
<path fill="#FFFFFF" d="M127.127,42.722v108.616l-32.765,0.002V92.198H79.503l0.046-23.945c9.663-1.533,14.48-9.361,14.813-25.53
	H127.127z"/>
<path fill="#73B9AF" d="M124.187,45.711v102.585H97.404V89.155H82.545l0.046-18.413c9.558-2.454,14.649-10.786,14.813-25.03H124.187
	z"/>
</svg>
