<?xml version="1.0" encoding="utf-8"?>
<!-- Generator: Adobe Illustrator 16.0.4, SVG Export Plug-In . SVG Version: 6.00 Build 0)  -->
<!DOCTYPE svg PUBLIC "-//W3C//DTD SVG 1.1//EN" "http://www.w3.org/Graphics/SVG/1.1/DTD/svg11.dtd">
<svg version="1.1" id="Layer_1" xmlns="http://www.w3.org/2000/svg" xmlns:xlink="http://www.w3.org/1999/xlink" x="0px" y="0px"
	 width="200px" height="200px" viewBox="0 0 200 200" enable-background="new 0 0 200 200" xml:space="preserve">
<path fill="#EC008C" d="M139.439,124.691c14.521-9.832,14.514-23.088,14.521-27.509c0.04-24.515-48.293-67.515-84.934-38.123
	c-18.732,15.026-15.48,37.249-14.601,44.767l11.951,9.314c-20.443,11.387-20.532,31.535-18.971,42.619l19.366,13.393l85.732-0.01
	l-0.013-31.287L139.439,124.691z"/>
<path fill="#8ED0C5" d="M127.761,104.396c-8.619,10.447-24.967,17.229-38.781,21.416l44.504-0.016v26.377H51.708
	c-0.93-11.984,0.497-19.453,8.06-28.799c10.202-10.559,22.729-13.748,34.96-19.691c16.438-7.988,10.715-25.233,3.208-25.328
	c-15.72-0.197-11.508,16.942-11.222,21.509L58.19,99.85c-1.835-20.147,4.778-30.321,10.323-35.586
	C103.53,31.019,152.533,74.371,127.761,104.396z"/>
</svg>
