<?xml version="1.0" encoding="utf-8"?>
<!-- Generator: Adobe Illustrator 16.0.4, SVG Export Plug-In . SVG Version: 6.00 Build 0)  -->
<!DOCTYPE svg PUBLIC "-//W3C//DTD SVG 1.1//EN" "http://www.w3.org/Graphics/SVG/1.1/DTD/svg11.dtd">
<svg version="1.1" id="Layer_1" xmlns="http://www.w3.org/2000/svg" xmlns:xlink="http://www.w3.org/1999/xlink" x="0px" y="0px"
	 width="200px" height="200px" viewBox="0 0 200 200" enable-background="new 0 0 200 200" xml:space="preserve">
<path fill="#007647" d="M120.295,88.31c5.902-5.572,8.1-12.485,8.025-21.096c-0.107-12.695-11.58-26.893-27.607-26.893
	c-16.026,0-28.898,12.272-29.277,26.893c-0.234,9.044,2.645,15.667,7.955,21.162c-11.789,6.599-18.379,18.458-18.382,32.792
	c0,19.912,16.851,36.906,39.002,36.838c23.483-0.074,39.086-17.191,38.948-37.104C138.867,107.5,133.879,96.167,120.295,88.31z
	 M100.02,65.792c2.162,0,3.914,2.703,3.914,6.036c0.002,3.334-1.752,6.038-3.914,6.038c-2.162-0.002-3.914-2.704-3.914-6.037
	C96.106,68.495,97.858,65.792,100.02,65.792z M100.002,122.502c-3.016,0.002-5.459-5.01-5.459-11.186
	c0-6.178,2.443-11.187,5.459-11.187c3.015,0,5.458,5.009,5.458,11.187S103.018,122.504,100.002,122.502z"/>
<path fill="#7BD3F7" d="M115.096,88.768c6.072-4.614,9.996-11.909,9.996-20.123c0-13.95-11.312-25.259-25.261-25.259
	c-13.95,0-25.259,11.31-25.259,25.259c0,8.253,3.96,15.579,10.078,20.189c-11.895,5.544-20.107,17.351-20.107,31.023
	c0,18.992,15.851,34.393,35.407,34.393c19.554,0,35.406-15.4,35.406-34.393C135.355,106.127,127.07,94.283,115.096,88.768z
	 M100.03,62.497c3.833,0,6.943,4.184,6.943,9.344c0,5.161-3.109,9.345-6.943,9.345c-3.833,0-6.941-4.184-6.941-9.345
	C93.088,66.68,96.197,62.497,100.03,62.497z M100.032,126.312c-5.031,0-9.109-6.707-9.109-14.979S95,96.356,100.032,96.356
	c5.031,0,9.109,6.707,9.109,14.978S105.062,126.312,100.032,126.312z"/>
</svg>
