<?xml version="1.0" encoding="utf-8"?>
<!-- Generator: Adobe Illustrator 16.0.4, SVG Export Plug-In . SVG Version: 6.00 Build 0)  -->
<!DOCTYPE svg PUBLIC "-//W3C//DTD SVG 1.1//EN" "http://www.w3.org/Graphics/SVG/1.1/DTD/svg11.dtd">
<svg version="1.1" id="Layer_1" xmlns="http://www.w3.org/2000/svg" xmlns:xlink="http://www.w3.org/1999/xlink" x="0px" y="0px"
	 width="200px" height="200px" viewBox="0 0 200 200" enable-background="new 0 0 200 200" xml:space="preserve">
<polygon fill="#522E91" points="113.04,130.301 112.694,78.07 133.728,57.037 81.497,41.612 69.22,53.893 69.22,69.237 
	77.654,69.234 77.641,124.537 69.227,133.301 69.22,149.236 118.81,149.23 134.078,137.312 "/>
<polygon fill="#54B0CB" points="125.66,121.889 125.66,57.037 133.728,57.037 133.728,41.612 81.497,41.612 81.497,57.037 
	90.274,57.037 90.267,121.867 81.501,121.867 81.501,137.299 134.078,137.312 134.078,121.887 "/>
<polygon fill="#FFE494" points="127.54,51.798 127.54,46.802 87.636,46.801 87.636,51.798 96.179,51.798 96.179,127.529 
	87.627,127.533 87.627,132.533 127.54,132.533 127.54,127.533 119.735,127.529 119.735,51.798 "/>
</svg>
