<?xml version="1.0" encoding="utf-8"?>
<!-- Generator: Adobe Illustrator 16.0.4, SVG Export Plug-In . SVG Version: 6.00 Build 0)  -->
<!DOCTYPE svg PUBLIC "-//W3C//DTD SVG 1.1//EN" "http://www.w3.org/Graphics/SVG/1.1/DTD/svg11.dtd">
<svg version="1.1" id="Layer_1" xmlns="http://www.w3.org/2000/svg" xmlns:xlink="http://www.w3.org/1999/xlink" x="0px" y="0px"
	 width="200px" height="200px" viewBox="0 0 200 200" enable-background="new 0 0 200 200" xml:space="preserve">
<path fill="#00904C" d="M94.771,113.282c-4.882,0-9.251,2.189-12.179,5.64c-0.48,0.565-16.799,5.218-16.781,17.75
	c0.012,8.801,7.146,15.953,15.963,15.953c5.677,0,17.777-7.844,19.562-8.839c5.42-3.021,9.389-8.077,9.389-14.541
	C110.725,120.42,103.58,113.282,94.771,113.282z"/>
<path fill="#00904C" d="M135.4,49.293c-5.68-6.531-14.857-9.798-27.531-9.798H71.662L58.666,50.526l0.005,34.008h7.149l0.008,36.274
	h31.801l12.962-7.379l-0.015-4.379c1.107-0.347,16.562-8.191,16.562-8.191c9.771-5.406,16.738-14.606,16.78-29.197
	C143.943,63.28,141.081,55.826,135.4,49.293z"/>
<path fill="#EAB649" d="M108.227,129.252c0,7.48-6.07,13.559-13.555,13.559c-7.492,0-13.563-6.078-13.563-13.559
	c0-7.5,6.071-13.566,13.563-13.566C102.156,115.686,108.227,121.752,108.227,129.252z"/>
<path fill="#EAB649" d="M133.2,51.469c-5.229-5.961-13.677-8.943-25.343-8.943H73.578v26.116h32.385c3.323,0,5.688,0.191,7.091,0.58
	c1.403,0.385,2.104,1.301,2.104,2.743c0,1.029-0.385,1.802-1.158,2.316c-0.772,0.516-2.627,0.773-5.564,0.773h-0.254H81.124v36.416
	h27.059v-10.316c6.994-0.121,12.698-1.121,17.116-2.999c4.727-2.009,8.533-5.505,11.416-10.488
	c2.885-4.982,4.327-10.243,4.327-15.78C141.042,64.237,138.428,57.431,133.2,51.469z"/>
</svg>
