<?xml version="1.0" encoding="utf-8"?>
<!-- Generator: Adobe Illustrator 16.0.4, SVG Export Plug-In . SVG Version: 6.00 Build 0)  -->
<!DOCTYPE svg PUBLIC "-//W3C//DTD SVG 1.1//EN" "http://www.w3.org/Graphics/SVG/1.1/DTD/svg11.dtd">
<svg version="1.1" id="Layer_1" xmlns="http://www.w3.org/2000/svg" xmlns:xlink="http://www.w3.org/1999/xlink" x="0px" y="0px"
	 width="200px" height="200px" viewBox="0 0 200 200" enable-background="new 0 0 200 200" xml:space="preserve">
<path fill="#D0392B" d="M50.494,35.835l0.104,68.59c0.093,25.713,17.106,34.568,29.223,42.062
	c16.298,10.079,42.613,9.176,58.49-1.26c14.59-9.589,14.441-29.444,14.434-40.667V52.646l-13.217-16.809l-17.743-0.012l0.181,68.591
	c-0.788,15.45-7.295,18.903-17.384,18.94c-1.974,0.008-3.048-2.304-3.048-4.297l0.124-69.004L88.125,35.818L50.494,35.835z"/>
<path fill="#F7941E" d="M136.548,39.741v64.681c0,22.128-13.7,33.196-41.106,33.196c-27.298,0-40.95-11.068-40.95-33.196V39.741
	h31.351v65.526c0,8.457,1.347,14.245,4.051,17.351c2.695,3.092,7.693,4.65,14.977,4.65c14.112,0,21.16-7.612,21.16-22.847V39.741
	H136.548z"/>
</svg>
