<?xml version="1.0" encoding="utf-8"?>
<!-- Generator: Adobe Illustrator 16.0.4, SVG Export Plug-In . SVG Version: 6.00 Build 0)  -->
<!DOCTYPE svg PUBLIC "-//W3C//DTD SVG 1.1//EN" "http://www.w3.org/Graphics/SVG/1.1/DTD/svg11.dtd">
<svg version="1.1" id="Layer_1" xmlns="http://www.w3.org/2000/svg" xmlns:xlink="http://www.w3.org/1999/xlink" x="0px" y="0px"
	 width="200px" height="200px" viewBox="0 0 200 200" enable-background="new 0 0 200 200" xml:space="preserve">
<polygon fill="#00904C" points="160.725,39.062 129.596,39.062 121.608,45.829 120.854,39.062 96.028,39.062 89.375,45.852 
	88.015,39.062 58.054,39.066 42.412,56.992 63.914,153.283 89.916,153.28 100.723,145.32 103.338,153.265 122.4,153.296 
	135.73,144.197 "/>
<polygon fill="#EAED7A" points="93.025,86.218 98.396,43.921 117.143,43.921 122.41,86.296 131.887,43.921 154.613,43.841 
	132.402,140.488 113.229,140.472 106.639,96.338 100.385,140.515 80.893,140.488 60.747,43.941 84.701,43.941 "/>
</svg>
