<?xml version="1.0" encoding="utf-8"?>
<!-- Generator: Adobe Illustrator 16.0.4, SVG Export Plug-In . SVG Version: 6.00 Build 0)  -->
<!DOCTYPE svg PUBLIC "-//W3C//DTD SVG 1.1//EN" "http://www.w3.org/Graphics/SVG/1.1/DTD/svg11.dtd">
<svg version="1.1" id="Layer_1" xmlns="http://www.w3.org/2000/svg" xmlns:xlink="http://www.w3.org/1999/xlink" x="0px" y="0px"
	 width="200px" height="200px" viewBox="0 0 200 200" enable-background="new 0 0 200 200" xml:space="preserve">
<polygon fill="#AA515B" points="141.336,80.147 135.467,80.163 121.219,95.396 127.028,95.397 141.342,110.357 141.326,152.788 
	107.077,152.792 104.126,150.178 104.122,152.788 80.062,152.805 61.679,138.031 61.669,95.397 67.921,95.401 82.083,81.812 
	80.188,80.147 72.892,80.153 61.679,69.14 61.679,38.38 127.021,38.38 141.336,57.289 "/>
<polygon fill="#FFE5A4" points="119.886,97.313 103.646,81.712 118.45,67.486 124.512,67.486 124.512,40.503 96.438,40.503 
	96.438,67.486 101.147,67.46 94.278,73.711 87.412,67.46 92.12,67.486 92.12,40.503 64.044,40.503 64.044,67.486 70.106,67.486 
	84.913,81.712 68.673,97.313 64.044,97.319 64.044,136.491 92.122,136.491 92.122,97.319 87.404,97.313 94.278,90.708 
	101.153,97.313 96.435,97.319 96.435,136.491 124.513,136.491 124.513,97.319 "/>
</svg>
