<?xml version="1.0" encoding="utf-8"?>
<!-- Generator: Adobe Illustrator 16.0.0, SVG Export Plug-In . SVG Version: 6.00 Build 0)  -->
<svg version="1.2" baseProfile="tiny" id="Layer_1" xmlns="http://www.w3.org/2000/svg" xmlns:xlink="http://www.w3.org/1999/xlink"
	 x="0px" y="0px" width="50px" height="50px" viewBox="0 0 50 50" xml:space="preserve">
<path id="fall" fill="#010202" d="M45.337,16.587c-4.104-3.817-7.459-4.747-9.438-4.896c1.116-1.858,1.13-3.384,1.13-3.463
	l-0.002-0.69l-0.679-0.125c-4.71-0.863-8.675,1.309-10.248,2.351c-0.56-1.113-0.578-2.775-0.522-3.423l0.081-0.951l-0.952,0.052
	c-0.233,0.011-5.75,0.348-8.698,3.635c-1.938,2.162-2.214,4.476-2.151,5.902l-4.187-3.754l-0.172-0.157
	C5.387,7.265,5.839,3.375,5.864,3.19l0.118-0.818L4.339,2.137l-0.118,0.82c-0.028,0.198-0.641,4.896,4.16,9.336l4.057,3.639
	c-8.753,2.533-8.21,12.246-8.204,12.351l0.079,1.13l1.054-0.416c1.78-0.703,3.051-0.413,3.737-0.108
	C6.315,33.753,7.716,39.23,7.78,39.474l0.184,0.691l0.711-0.081c1.237-0.139,2.475-0.974,3.348-1.705
	c1.323,6.23,6.114,8.909,6.333,9.027l0.838,0.457l0.335-0.893c1.775-4.729,1.909-11.234,1.828-14.729
	c0.762,1.18,1.065,2.198,1.069,2.198c0.91,5.777,6.474,9.088,6.71,9.226l0.536,0.312l0.451-0.426
	c0.998-0.944,1.722-2.616,2.117-3.709c5.112,3.067,9.002,1.521,9.176,1.448l0.387-0.16l0.101-0.408
	c1.014-4.126-1.062-7.392-2.332-8.922c1.503-0.748,3.016-1.98,3.225-2.154l0.588-0.485l-0.436-0.625
	c-0.152-0.222-3.812-5.415-8.549-5.762c-1.833-0.134-3.117-0.624-3.968-1.111c12.768-1.195,14.777-3.57,15.057-4.054l0.329-0.572
	L45.337,16.587z M28.298,20.18l-1.446,0.112l0.829,1.19c0.074,0.105,1.864,2.6,6.6,2.946c3.067,0.225,5.768,3.134,6.828,4.433
	c-0.876,0.656-2.243,1.574-3.178,1.813l-1.491,0.387l1.142,1.033c0.038,0.033,3.618,3.336,2.809,7.785
	c-1.076,0.276-4.206,0.721-8.131-2l-0.961-0.667l-0.312,1.128c-0.187,0.679-0.787,2.433-1.579,3.517
	c-1.355-0.954-4.716-3.696-5.362-7.768c-0.031-0.113-0.79-2.804-3.069-4.849l-1.538-1.378l0.156,2.059
	c0.007,0.097,0.667,9.171-1.277,15.466c-1.465-1.11-4.396-3.906-4.896-8.788l-0.191-1.864l-1.251,1.395
	c-0.434,0.484-1.625,1.622-2.757,2.101c-0.27-1.701-0.58-5.75,1.713-9.15l0.403-0.6L10.802,28c-0.082-0.076-1.865-1.634-4.913-0.905
	c0.121-2.485,1.151-8.464,8.042-9.825l1.435,1.29c-2.91,3.07-6.562,5.945-6.602,5.976l-0.653,0.512l1.024,1.305l0.653-0.512
	c0.148-0.116,3.083-2.426,5.839-5.175c-0.595,3.162-1.249,9.642,0.675,18.752l0.172,0.812l1.623-0.344l-0.171-0.812
	c-1.992-9.427-1.102-16.014-0.539-18.706L34.17,35.425l1.108-1.234l-16.925-15.18c5.057-1.929,17.579-1.756,17.717-1.749
	l0.828,0.014l0.027-1.659l-0.828-0.014c-0.535-0.01-11.443-0.164-17.293,1.519c2.408-3.011,4.315-6.098,4.411-6.253l0.435-0.706
	l-1.413-0.87L21.803,10c-0.026,0.042-2.518,4.073-5.325,7.329l-0.68-0.609l0.071-0.021l-0.226-0.796
	c-0.008-0.031-0.819-3.021,1.599-5.718c1.847-2.059,5.09-2.76,6.657-2.986c0.026,1.18,0.262,3.103,1.404,4.298l0.526,0.547
	l0.593-0.475c0.041-0.034,3.987-3.139,8.845-2.637c-0.164,0.716-0.589,1.887-1.693,3.119l-1.932,2.153l2.777-0.802
	c0.038-0.013,3.612-0.967,9.067,3.754C42.206,17.898,38.438,19.399,28.298,20.18z"/>
<g>
</g>
<g>
</g>
<g>
</g>
<g>
</g>
<g>
</g>
<g>
</g>
</svg>
