<?xml version="1.0" encoding="utf-8"?>
<!-- Generator: Adobe Illustrator 16.0.0, SVG Export Plug-In . SVG Version: 6.00 Build 0)  -->
<svg version="1.2" baseProfile="tiny" id="Layer_1" xmlns="http://www.w3.org/2000/svg" xmlns:xlink="http://www.w3.org/1999/xlink"
	 x="0px" y="0px" width="50px" height="50px" viewBox="0 0 50 50" xml:space="preserve">
<g id="summer">
	<path fill="#010202" d="M37.599,25c0-6.947-5.651-12.599-12.599-12.599S12.4,18.053,12.4,25S18.053,37.6,25,37.6
		S37.599,31.947,37.599,25z M25,14.205c5.952,0,10.795,4.843,10.795,10.795c0,5.954-4.843,10.797-10.795,10.797
		c-5.953,0-10.797-4.843-10.797-10.797C14.203,19.047,19.047,14.205,25,14.205z"/>
	<path fill="#010202" d="M25,10.792c0.527,0,0.956-0.428,0.956-0.956V3.338c0-0.527-0.428-0.957-0.956-0.957
		s-0.956,0.43-0.956,0.957v6.499C24.044,10.364,24.473,10.792,25,10.792z"/>
	<path fill="#010202" d="M46.663,24.044h-6.499c-0.527,0-0.956,0.429-0.956,0.956s0.429,0.957,0.956,0.957h6.499
		c0.526,0,0.955-0.429,0.955-0.957S47.189,24.044,46.663,24.044z"/>
	<path fill="#010202" d="M25,39.208c-0.527,0-0.956,0.429-0.956,0.956v6.498c0,0.527,0.428,0.956,0.956,0.956
		s0.956-0.429,0.956-0.956v-6.498C25.956,39.637,25.527,39.208,25,39.208z"/>
	<path fill="#010202" d="M10.792,25c0-0.527-0.428-0.956-0.956-0.956H3.338c-0.527,0-0.957,0.429-0.957,0.956
		s0.43,0.957,0.957,0.957h6.499C10.364,25.957,10.792,25.527,10.792,25z"/>
	<path fill="#010202" d="M13.6,14.952c0.18,0.182,0.42,0.281,0.678,0.281c0.251,0,0.498-0.102,0.675-0.28
		c0.372-0.372,0.373-0.978,0-1.352l-4.591-4.593c-0.363-0.36-0.988-0.36-1.351,0C8.83,9.189,8.73,9.429,8.73,9.686
		c0,0.256,0.1,0.496,0.281,0.676L13.6,14.952z"/>
	<path fill="#010202" d="M35.723,15.234c0.254,0,0.495-0.099,0.676-0.279l4.593-4.592c0.373-0.372,0.373-0.978,0-1.353
		c-0.366-0.361-0.992-0.36-1.354,0.001l-4.591,4.592c-0.373,0.373-0.373,0.978,0.003,1.355
		C35.233,15.135,35.472,15.234,35.723,15.234z"/>
	<path fill="#010202" d="M36.398,35.047c-0.358-0.359-0.988-0.359-1.352,0c-0.371,0.371-0.373,0.979,0,1.353l4.59,4.59
		c0.179,0.182,0.42,0.282,0.679,0.282c0.248,0,0.493-0.103,0.676-0.28c0.37-0.37,0.373-0.979,0-1.353L36.398,35.047z"/>
	<path fill="#010202" d="M13.601,35.047L9.008,39.64c-0.371,0.373-0.371,0.981,0.001,1.352c0.181,0.181,0.421,0.28,0.677,0.28
		c0.25,0,0.489-0.097,0.677-0.28l4.591-4.594c0.371-0.372,0.371-0.979,0-1.351C14.594,34.688,13.965,34.688,13.601,35.047z"/>
	<path fill="#010202" d="M30.197,11.778c0.112,0.042,0.232,0.065,0.349,0.065c0.391,0,0.748-0.243,0.891-0.606l2.372-6.045
		c0.189-0.489-0.053-1.044-0.542-1.238c-0.48-0.191-1.049,0.06-1.238,0.542l-2.371,6.043C29.463,11.028,29.707,11.583,30.197,11.778
		z"/>
	<path fill="#010202" d="M45.507,32.028l-6.045-2.371c-0.478-0.188-1.048,0.059-1.24,0.54c-0.189,0.489,0.053,1.047,0.542,1.239
		l6.058,2.378c0.111,0.038,0.226,0.058,0.337,0.058c0.389,0,0.747-0.242,0.891-0.606C46.24,32.774,45.996,32.219,45.507,32.028z"/>
	<path fill="#010202" d="M19.804,38.224c-0.481-0.193-1.048,0.056-1.24,0.539l-2.371,6.044c-0.191,0.489,0.052,1.047,0.549,1.242
		c0.11,0.041,0.225,0.062,0.343,0.062c0.396,0,0.744-0.237,0.89-0.604l2.371-6.046C20.537,38.971,20.294,38.417,19.804,38.224z"/>
	<path fill="#010202" d="M4.495,17.974l6.046,2.371c0.112,0.043,0.229,0.065,0.348,0.065c0.394,0,0.744-0.237,0.889-0.606
		c0.094-0.238,0.09-0.499-0.012-0.732c-0.102-0.234-0.29-0.415-0.528-0.508l-6.042-2.371c-0.481-0.191-1.051,0.061-1.241,0.541
		c-0.094,0.238-0.09,0.498,0.013,0.732C4.069,17.7,4.257,17.88,4.495,17.974z"/>
	<path fill="#010202" d="M18.057,11.487c0.153,0.348,0.498,0.573,0.877,0.573c0.132,0,0.265-0.027,0.381-0.079
		c0.483-0.209,0.706-0.774,0.497-1.258l-2.591-5.957c-0.204-0.471-0.796-0.699-1.257-0.496c-0.483,0.211-0.706,0.774-0.498,1.259
		L18.057,11.487z"/>
	<path fill="#010202" d="M38.019,19.321c0.156,0.347,0.499,0.571,0.878,0.571c0.13,0,0.26-0.027,0.379-0.078l5.96-2.59
		c0.481-0.21,0.703-0.774,0.495-1.257c-0.198-0.465-0.757-0.706-1.259-0.499l-5.956,2.589
		C38.035,18.268,37.812,18.831,38.019,19.321z"/>
	<path fill="#010202" d="M31.943,38.513c-0.203-0.463-0.779-0.699-1.257-0.493c-0.234,0.1-0.414,0.286-0.51,0.522
		c-0.094,0.238-0.091,0.499,0.011,0.736l2.59,5.954c0.154,0.351,0.498,0.577,0.878,0.577c0.125,0,0.255-0.027,0.381-0.079
		c0.479-0.207,0.702-0.771,0.497-1.259L31.943,38.513z"/>
	<path fill="#010202" d="M11.981,30.684c-0.202-0.467-0.775-0.7-1.258-0.496l-5.958,2.589c-0.483,0.211-0.705,0.777-0.494,1.259
		c0.153,0.35,0.498,0.576,0.877,0.576c0.125,0,0.255-0.028,0.381-0.08l5.957-2.59C11.968,31.731,12.19,31.168,11.981,30.684z"/>
</g>
<g>
</g>
<g>
</g>
<g>
</g>
<g>
</g>
<g>
</g>
<g>
</g>
</svg>
