<?xml version="1.0" encoding="utf-8"?>
<!-- Generator: Adobe Illustrator 16.0.0, SVG Export Plug-In . SVG Version: 6.00 Build 0)  -->
<svg version="1.2" baseProfile="tiny" id="Layer_1" xmlns="http://www.w3.org/2000/svg" xmlns:xlink="http://www.w3.org/1999/xlink"
	 x="0px" y="0px" width="50px" height="50px" viewBox="0 0 50 50" xml:space="preserve">
<path d="M44.729,10.517C39.041,3.721,31.354,0.274,21.882,0.274l-0.206,0.001C15.199,0.311,9.979,3.024,6.581,8.124
	c-0.43,0.645-0.5,1.33-0.552,1.83c-0.012,0.116-0.021,0.233-0.042,0.344c-0.123,0.62,0.091,1.26,0.563,1.681
	c0.473,0.423,1.131,0.56,1.734,0.37c0.107-0.035,0.225-0.055,0.343-0.079c0.513-0.106,1.289-0.268,1.903-0.868
	c2.097-2.055,4.596-3.219,7.426-3.46c7.965-0.681,15.034,1.953,21.129,7.792c4.331,4.15,5.274,9.922,2.522,15.438
	c-3.67,7.367-9.615,11.531-17.673,12.375C15.94,44.371,9.192,40.148,6.73,32.97C4.746,27.184,5.755,21.57,9.814,15.813
	c0.456-0.647,0.432-1.519-0.059-2.14c-0.489-0.621-1.331-0.848-2.068-0.553c-0.421,0.169-4.156,1.732-5.691,4.888
	c-3.175,7.527-2.529,16.152,1.687,22.507c3.939,5.938,10.595,9.209,18.74,9.21l0.566-0.005c10.697-0.192,19.163-5.697,24.485-15.921
	C51.615,25.844,50.64,17.576,44.729,10.517z"/>
<g>
</g>
<g>
</g>
<g>
</g>
<g>
</g>
<g>
</g>
<g>
</g>
</svg>
