<?xml version="1.0" encoding="utf-8"?>
<!-- Generator: Adobe Illustrator 16.0.0, SVG Export Plug-In . SVG Version: 6.00 Build 0)  -->
<svg version="1.2" baseProfile="tiny" id="Layer_1" xmlns="http://www.w3.org/2000/svg" xmlns:xlink="http://www.w3.org/1999/xlink"
	 x="0px" y="0px" width="50px" height="50px" viewBox="0 0 50 50" xml:space="preserve">
<path id="winter" fill="#010202" d="M46.117,18.706c-0.339-0.125-0.672,0.07-1,0.133c-1.244,0.342-2.494,0.664-3.735,1.008
	c0.244-0.954,0.511-1.903,0.758-2.859c0.085-0.31,0.221-0.631,0.134-0.957c-0.049-0.327-0.359-0.594-0.693-0.573
	c-0.358,0-0.632,0.314-0.734,0.631c-0.321,1.163-0.623,2.331-0.94,3.493c-0.07,0.221-0.128,0.451-0.121,0.684
	c-2.113,0.573-4.23,1.137-6.348,1.704c0.467-1.767,0.949-3.529,1.415-5.295c0.059-0.201,0.088-0.428-0.003-0.624
	c-0.12-0.279-0.42-0.469-0.726-0.443c-0.297,0.007-0.576,0.225-0.664,0.507c-0.46,1.742-0.929,3.481-1.396,5.221
	c-0.075,0.356-0.238,0.696-0.235,1.065c-1.929,0.515-3.856,1.037-5.786,1.549c0.099-0.288,0.162-0.586,0.247-0.878
	c0.476-1.808,0.968-3.609,1.446-5.417c0.02-0.06,0.035-0.125,0.067-0.179c0.36-0.128,0.737-0.195,1.103-0.305
	c0.924-0.248,1.848-0.496,2.773-0.743c0.304-0.082,0.536-0.381,0.53-0.697c0.035-0.414-0.36-0.791-0.771-0.757
	c-0.256,0.023-0.498,0.111-0.745,0.18c-0.825,0.212-1.648,0.437-2.471,0.663c0.192-0.653,0.355-1.315,0.538-1.973
	c0.362-1.374,0.74-2.744,1.098-4.12c1.166-0.334,2.344-0.63,3.515-0.952c0.29-0.074,0.519-0.345,0.539-0.645
	c0.044-0.35-0.202-0.699-0.539-0.788c-0.288-0.074-0.573,0.048-0.848,0.122c-0.736,0.194-1.475,0.391-2.211,0.591
	c0.314-1.206,0.646-2.407,0.963-3.612c0.059-0.202,0.08-0.428-0.014-0.624c-0.131-0.29-0.457-0.472-0.77-0.425
	c-0.276,0.027-0.526,0.232-0.61,0.495c-0.365,1.362-0.723,2.727-1.098,4.086c-0.651-0.667-1.321-1.316-1.974-1.981
	c-0.179-0.174-0.347-0.374-0.584-0.465c-0.174-0.081-0.376-0.109-0.558-0.038c-0.285,0.099-0.486,0.402-0.447,0.705
	c0.022,0.176,0.075,0.357,0.185,0.499c0.978,0.982,1.965,1.958,2.942,2.942c-0.567,2.095-1.133,4.19-1.687,6.289
	c-1.173-1.177-2.348-2.353-3.525-3.528c-0.193-0.181-0.363-0.436-0.652-0.459c-0.446-0.087-0.899,0.315-0.857,0.769
	c0.005,0.396,0.364,0.633,0.614,0.89c0.321,0.356,0.689,0.667,1.012,1.022c0.993,0.981,1.968,1.98,2.965,2.957
	c-0.54,2-1.068,4.002-1.613,6.003c-0.372-0.414-0.784-0.786-1.172-1.183c-0.643-0.63-1.26-1.289-1.911-1.911
	c-0.478-0.491-0.969-0.971-1.451-1.458c0.379-1.395,0.748-2.792,1.124-4.186c0.071-0.317-0.101-0.659-0.385-0.805
	c-0.351-0.188-0.83-0.039-1.003,0.32c-0.128,0.283-0.176,0.592-0.261,0.889c-0.238,0.851-0.443,1.712-0.695,2.559
	c-1.488-1.483-2.976-2.966-4.454-4.457c0.298-1.125,0.604-2.247,0.904-3.37c0.058-0.215,0.14-0.431,0.124-0.658
	c-0.019-0.32-0.281-0.603-0.596-0.657c-0.363-0.077-0.758,0.156-0.854,0.516c-0.268,0.984-0.533,1.968-0.794,2.955
	c-0.99-0.97-1.961-1.96-2.943-2.94C9.969,8.902,9.46,8.915,9.195,9.205c-0.259,0.253-0.282,0.706-0.047,0.981
	c0.228,0.282,0.52,0.503,0.759,0.773c0.748,0.754,1.5,1.502,2.254,2.251c-0.925,0.253-1.853,0.493-2.774,0.748
	c-0.368,0.099-0.727,0.427-0.672,0.838c0.037,0.45,0.541,0.704,0.952,0.628c1.237-0.336,2.475-0.667,3.716-0.997
	c1.525,1.543,3.064,3.067,4.595,4.606c-1.518,0.39-3.029,0.813-4.546,1.208c-0.25,0.078-0.541,0.113-0.716,0.333
	c-0.295,0.328-0.205,0.901,0.178,1.12c0.281,0.186,0.628,0.086,0.923-0.013c1.797-0.471,3.587-0.968,5.386-1.435
	c0.598,0.615,1.206,1.223,1.823,1.822c0.834,0.861,1.692,1.7,2.541,2.551c-1.986,0.51-3.96,1.074-5.949,1.579
	c-0.986-0.978-1.965-1.963-2.946-2.946c-0.211-0.243-0.562-0.348-0.865-0.228c-0.419,0.136-0.596,0.689-0.377,1.062
	c0.102,0.159,0.256,0.278,0.385,0.417c0.721,0.709,1.43,1.429,2.146,2.145c-2.031,0.552-4.067,1.09-6.1,1.636
	c-0.875-0.893-1.765-1.764-2.642-2.654c-0.157-0.16-0.354-0.308-0.589-0.303c-0.326-0.029-0.64,0.198-0.741,0.503
	c-0.084,0.257-0.027,0.565,0.175,0.752c0.724,0.71,1.429,1.442,2.154,2.148c-1.412,0.365-2.818,0.749-4.227,1.128
	c-0.178,0.041-0.347,0.137-0.456,0.288c-0.228,0.294-0.183,0.761,0.103,1c0.201,0.191,0.499,0.226,0.755,0.15
	c1.416-0.39,2.834-0.769,4.253-1.142c-0.188,0.714-0.386,1.425-0.57,2.139c-0.07,0.262-0.156,0.521-0.201,0.787
	c-0.028,0.275,0.037,0.591,0.262,0.772c0.236,0.2,0.615,0.205,0.855,0.008c0.134-0.116,0.261-0.256,0.317-0.427
	c0.331-1.243,0.67-2.481,0.993-3.726c2.094-0.565,4.19-1.123,6.282-1.685c-0.411,1.587-0.847,3.168-1.27,4.756
	c-0.089,0.242-0.1,0.533,0.06,0.751c0.222,0.35,0.75,0.435,1.071,0.175c0.28-0.21,0.313-0.586,0.401-0.897
	c0.47-1.746,0.943-3.488,1.401-5.234c1.906-0.506,3.814-1.011,5.716-1.534c-0.269,0.865-0.476,1.751-0.719,2.622
	c-0.294,1.092-0.577,2.187-0.884,3.275c-0.006,0.082-0.101,0.088-0.162,0.111c-1.202,0.307-2.396,0.646-3.598,0.956
	c-0.163,0.037-0.324,0.102-0.436,0.229c-0.198,0.19-0.251,0.496-0.175,0.755c0.123,0.362,0.538,0.589,0.907,0.479
	c1.004-0.266,2.005-0.53,3.003-0.807c-0.531,2.026-1.082,4.049-1.623,6.074c-0.227,0.11-0.483,0.139-0.723,0.214
	c-0.846,0.236-1.694,0.45-2.54,0.684c-0.22,0.048-0.457,0.115-0.596,0.307c-0.293,0.336-0.178,0.916,0.219,1.12
	c0.274,0.164,0.594,0.062,0.876-0.016c0.768-0.216,1.54-0.413,2.31-0.623c-0.37,1.397-0.749,2.791-1.118,4.188
	c-0.081,0.268-0.037,0.579,0.168,0.78c0.272,0.294,0.787,0.298,1.062,0.006c0.188-0.175,0.212-0.443,0.279-0.678
	c0.382-1.411,0.748-2.829,1.143-4.238c0.681,0.657,1.333,1.346,2.013,2.006c0.162,0.149,0.289,0.354,0.504,0.438
	c0.212,0.087,0.465,0.135,0.68,0.029c0.256-0.114,0.421-0.398,0.392-0.675c-0.029-0.272-0.188-0.515-0.382-0.698
	c-0.923-0.917-1.84-1.845-2.767-2.764c0.556-2.098,1.124-4.192,1.682-6.289c1.278,1.274,2.556,2.551,3.829,3.827
	c0.189,0.181,0.483,0.225,0.729,0.146c0.326-0.107,0.548-0.454,0.498-0.793c-0.014-0.253-0.201-0.434-0.369-0.602
	c-1.416-1.41-2.826-2.824-4.243-4.233c0.491-1.815,0.972-3.633,1.461-5.45c0.31,0.35,0.649,0.667,0.982,0.991
	c1.188,1.203,2.386,2.394,3.578,3.592c-0.291,1.055-0.57,2.113-0.853,3.169c-0.055,0.197-0.132,0.394-0.132,0.601
	c-0.015,0.357,0.284,0.698,0.638,0.733c0.348,0.05,0.715-0.173,0.81-0.516c0.263-0.923,0.489-1.855,0.755-2.778
	c1.482,1.49,2.974,2.971,4.454,4.462c-0.235,0.905-0.489,1.803-0.719,2.708c-0.065,0.234-0.155,0.465-0.161,0.711
	c-0.005,0.385,0.342,0.731,0.726,0.724c0.327,0.019,0.645-0.214,0.731-0.531c0.213-0.798,0.429-1.596,0.638-2.396
	c0.874,0.859,1.739,1.731,2.603,2.604c0.226,0.204,0.416,0.505,0.753,0.521c0.435,0.062,0.855-0.331,0.819-0.769
	c0.008-0.312-0.236-0.531-0.44-0.729c-0.256-0.242-0.497-0.502-0.752-0.745c-0.771-0.807-1.59-1.567-2.361-2.375
	c1.147-0.301,2.291-0.614,3.438-0.918c0.299-0.121,0.584-0.406,0.563-0.753c0-0.249-0.151-0.489-0.377-0.596
	c-0.243-0.113-0.526-0.113-0.779-0.034c-1.1,0.289-2.196,0.591-3.296,0.883c-0.246,0.062-0.499,0.119-0.712,0.26
	c-0.353-0.346-0.696-0.697-1.045-1.046c-1.215-1.191-2.396-2.418-3.618-3.604c1.797-0.492,3.601-0.961,5.399-1.453
	c0.256-0.053,0.479-0.24,0.563-0.49c0.122-0.344-0.044-0.748-0.369-0.909c-0.269-0.146-0.58-0.05-0.852,0.038
	c-1.62,0.437-3.238,0.865-4.856,1.302c-0.352,0.117-0.736,0.136-1.057,0.336c-0.845-0.851-1.699-1.693-2.542-2.552
	c-0.487-0.499-1-0.973-1.479-1.48c2.166-0.571,4.327-1.162,6.491-1.735c0.819,0.816,1.643,1.629,2.455,2.452
	c0.092,0.093,0.187,0.185,0.293,0.261c0.252,0.18,0.614,0.161,0.863-0.012c0.341-0.246,0.402-0.802,0.101-1.103
	c-0.21-0.204-0.424-0.405-0.622-0.62c-0.474-0.479-0.966-0.941-1.427-1.434c2.033-0.531,4.061-1.082,6.09-1.624
	c0.711,0.695,1.407,1.401,2.108,2.105c0.212,0.216,0.445,0.481,0.779,0.465c0.44,0.022,0.822-0.419,0.742-0.854
	c-0.026-0.323-0.324-0.496-0.521-0.714c-0.477-0.486-0.966-0.962-1.44-1.451c1.22-0.321,2.438-0.648,3.652-0.979
	c0.273-0.062,0.512-0.269,0.58-0.544C46.684,19.238,46.472,18.828,46.117,18.706z"/>
<g>
</g>
<g>
</g>
<g>
</g>
<g>
</g>
<g>
</g>
<g>
</g>
</svg>
