<?xml version="1.0" encoding="utf-8"?>
<!-- Generator: Adobe Illustrator 16.0.0, SVG Export Plug-In . SVG Version: 6.00 Build 0)  -->
<svg version="1.2" baseProfile="tiny" id="Layer_1" xmlns="http://www.w3.org/2000/svg" xmlns:xlink="http://www.w3.org/1999/xlink"
	 x="0px" y="0px" width="50px" height="50px" viewBox="0 0 50 50" xml:space="preserve">
<g>
	<rect x="23.122" y="20.477" fill="#010202" width="4.128" height="16.372"/>
	<rect x="23.122" y="12.184" fill="#010202" width="4.128" height="4.093"/>
	<path fill="#010202" d="M24.999,4.136c11.527,0,20.873,9.334,20.873,20.853c0,11.515-9.346,20.853-20.873,20.853
		c-11.528,0-20.87-9.338-20.87-20.853l0,0C4.144,13.477,13.477,4.148,24.999,4.136 M24.999,0.041C11.191,0.041,0,11.224,0,25.021
		C0,38.818,11.191,50,24.999,50C38.807,50,50,38.818,50,25.02c0-0.01,0-0.021,0-0.031C50.004,11.192,38.814,0.005,25.008,0h-0.009
		V0.041z"/>
</g>
<g>
</g>
<g>
</g>
<g>
</g>
<g>
</g>
<g>
</g>
<g>
</g>
</svg>
