<?xml version="1.0" encoding="utf-8"?>
<!-- Generator: Adobe Illustrator 16.0.0, SVG Export Plug-In . SVG Version: 6.00 Build 0)  -->
<svg version="1.2" baseProfile="tiny" id="Layer_1" xmlns="http://www.w3.org/2000/svg" xmlns:xlink="http://www.w3.org/1999/xlink"
	 x="0px" y="0px" width="50px" height="50px" viewBox="0 0 50 50" xml:space="preserve">
<path id="spring" fill="#010202" d="M42.451,7.515l-1.159-0.58c-1.943-0.969-4.273-0.456-5.677,0.019
	c0.316-1.303,0.637-1.988,0.641-2l0.541-1.098L35.58,3.76c-0.119-0.011-1.29-0.074-2.885,0.468
	c-0.066-0.413-0.256-1.136-0.851-2.129l-0.261-0.435l-0.505,0.034c-0.041,0.003-2.449,0.218-4.771,2.286
	c-0.597-0.757-4.158-4.835-11.006-3.824l-0.708,0.105V0.98c0,0.084,0.015,1.466,0.367,2.96c-1.413-0.362-3.074-0.323-4.979,0.383
	L9.231,4.603l0.252,0.761c0.099,0.295,0.498,1.414,1.081,2.335C10.233,7.824,9.9,7.946,9.617,8.126
	c-1.382,0.88-1.673,2.076-1.702,2.21l-0.367,1.537l1.445-0.578C9,11.292,9.75,11.108,10.937,12.324
	c-0.343,2.384-1.71,14.237,3.814,20.872c1.921,2.304,4.468,3.702,7.556,4.197c-0.107,1.194-0.601,7.885,1.39,11.864L24.067,50
	l1.484-0.742l-0.371-0.742c-1.764-3.522-1.318-9.832-1.223-10.947c0.23,0.013,0.452,0.038,0.687,0.041
	c0.008,0,0.078,0.003,0.204,0.003c0.151,0,0.384-0.006,0.677-0.027c-0.513,3.687,0.128,7.413,0.157,7.583l0.145,0.816l1.633-0.288
	l-0.145-0.816c-0.007-0.04-0.684-3.972-0.072-7.541c2.981-0.63,7.763-2.695,10.112-9.397c0.014-0.064,0.154-0.78,0.232-1.888
	l0.026,0.001l0.037-0.829c0.001-0.056,0.245-5.647,1.501-10.918c1.156-4.854,2.292-5.984,2.288-5.984v0.001L42.451,7.515z
	 M30.687,3.436c0.347,0.699,0.387,1.119,0.391,1.166v0.348c-2.019,1.113-4.329,3.248-6.088,7.373
	c-0.264-0.294-0.58-0.541-0.87-0.811C25.428,5.17,29.291,3.742,30.687,3.436z M16.288,1.711c5.824-0.536,8.644,3.198,8.766,3.364
	l0.087,0.12c-0.995,1.231-1.879,2.911-2.453,5.154c-0.638-0.447-1.326-0.851-2.065-1.209c-0.591-1.403-1.797-3.177-3.617-4.31
	C16.537,3.801,16.349,2.511,16.288,1.711z M16.542,6.521c0.67,0.498,1.208,1.086,1.613,1.643c-0.579-0.184-1.145-0.377-1.773-0.522
	c-1.536-0.354-2.883-0.463-4.054-0.354c-0.317-0.305-0.687-0.997-0.97-1.663c1.792-0.477,3.23-0.205,4.365,0.381
	c0.003,0.007,0.007,0.015,0.01,0.022L16.542,6.521z M24.707,35.952c-3.696-0.056-6.617-1.34-8.68-3.815
	c-5.546-6.655-3.416-19.811-3.393-19.943l0.065-0.388l-0.259-0.295c-0.86-0.985-1.652-1.474-2.303-1.703
	c0.105-0.095,0.226-0.19,0.369-0.281c0.316-0.2,0.755-0.389,1.351-0.507l0.481-0.075c0.897-0.103,2.088-0.051,3.672,0.314
	c1.211,0.279,2.305,0.645,3.309,1.083l0.581,0.266c0.886,0.43,1.691,0.925,2.411,1.493l0.499,0.422
	c0.872,0.769,1.625,1.642,2.238,2.645c2.756,4.501,3.008,11.481,0.747,20.749C25.183,35.973,24.785,35.957,24.707,35.952z
	 M33.713,7.993c-0.134,0.792-0.252,1.683-0.317,2.724c-0.267,4.276,2.035,9.446,2.084,9.525c0.96,3.833,0.274,7.252,0.281,7.252
	c0,0,0,0,0-0.001c-1.924,5.476-5.599,7.419-8.186,8.104c2.182-9.365,1.808-16.526-1.114-21.297
	c-0.096-0.156-0.194-0.311-0.295-0.462l0.075-0.194c2.446-6.292,6.167-7.788,8.043-8.134c-0.176,0.563-0.368,1.32-0.534,2.25
	L33.713,7.993z M37.537,13.924c-0.388,1.63-0.68,3.271-0.9,4.779c-0.632-1.651-1.762-5.059-1.585-7.883
	c0.045-0.725,0.12-1.361,0.204-1.953c0.544-0.244,2.562-1.072,4.329-0.759C39.031,9.069,38.279,10.814,37.537,13.924z"/>
<g>
</g>
<g>
</g>
<g>
</g>
<g>
</g>
<g>
</g>
<g>
</g>
</svg>
