<?xml version="1.0" encoding="utf-8"?>
<!-- Generator: Adobe Illustrator 16.0.4, SVG Export Plug-In . SVG Version: 6.00 Build 0)  -->
<!DOCTYPE svg PUBLIC "-//W3C//DTD SVG 1.1//EN" "http://www.w3.org/Graphics/SVG/1.1/DTD/svg11.dtd">
<svg version="1.1" id="Layer_1" xmlns="http://www.w3.org/2000/svg" xmlns:xlink="http://www.w3.org/1999/xlink" x="0px" y="0px"
	 width="60px" height="60px" viewBox="0 0 60 60" enable-background="new 0 0 60 60" xml:space="preserve">
<path id="Fill-133" fill="#FFFFFF" d="M41.25,44.951l1.647,1.644c0.237,0.248,0.469,0.368,0.768,0.368
	c0.293,0,0.527-0.12,0.762-0.368L59.704,30.76C59.883,30.578,60,30.275,60,30.031c0-0.305-0.117-0.61-0.296-0.793L44.427,13.402
	c-0.234-0.244-0.469-0.363-0.762-0.363c-0.299,0-0.53,0.119-0.768,0.363l-1.647,1.708c-0.231,0.181-0.293,0.484-0.293,0.729
	c0,0.305,0.062,0.61,0.293,0.793l12.871,13.4L41.25,43.369c-0.231,0.244-0.293,0.485-0.293,0.791S41.019,44.707,41.25,44.951
	L41.25,44.951z M21.979,52.2c0.117,0.244,0.353,0.424,0.646,0.488l1.997,0.605c0.293,0.065,0.529,0.065,0.766-0.12
	c0.293-0.12,0.41-0.361,0.528-0.608L38.138,8.654c0.117-0.308,0.059-0.549-0.059-0.856c-0.176-0.244-0.352-0.425-0.645-0.485
	l-2.057-0.61c-0.234-0.06-0.527-0.06-0.766,0.122c-0.237,0.122-0.41,0.366-0.53,0.67L21.86,51.348
	C21.804,51.653,21.804,51.895,21.979,52.2L21.979,52.2z M0.353,30.76l15.279,15.835c0.176,0.248,0.472,0.368,0.765,0.368
	c0.236,0,0.529-0.12,0.705-0.368l1.646-1.644c0.233-0.244,0.351-0.485,0.351-0.791s-0.117-0.547-0.351-0.791L5.877,30.031
	l12.871-13.4c0.233-0.183,0.351-0.488,0.351-0.793c0-0.244-0.117-0.548-0.351-0.729l-1.646-1.708
	c-0.176-0.244-0.469-0.363-0.705-0.363c-0.293,0-0.589,0.119-0.765,0.363L0.353,29.238C0.117,29.421,0,29.727,0,30.031
	C0,30.275,0.117,30.578,0.353,30.76L0.353,30.76z"/>
</svg>
