<?xml version="1.0" encoding="utf-8"?>
<!-- Generator: Adobe Illustrator 16.0.4, SVG Export Plug-In . SVG Version: 6.00 Build 0)  -->
<!DOCTYPE svg PUBLIC "-//W3C//DTD SVG 1.1//EN" "http://www.w3.org/Graphics/SVG/1.1/DTD/svg11.dtd">
<svg version="1.1" id="Layer_1" xmlns="http://www.w3.org/2000/svg" xmlns:xlink="http://www.w3.org/1999/xlink" x="0px" y="0px"
	 width="60px" height="60px" viewBox="0 0 60 60" enable-background="new 0 0 60 60" xml:space="preserve">
<path id="Fill-178" fill="#FFFFFF" d="M31.198,52.324c3.82-1.438,7.095-3.277,9.826-5.599c2.661-2.321,5.05-4.981,7.031-7.988
	c1.907-3.07,3.414-6.213,4.367-9.487c0.957-3.276,1.436-6.554,1.436-9.898v-1.569c2.389-1.773,4.438-3.891,6.142-6.347
	c-2.389,0.955-4.71,1.635-7.099,1.842c2.66-1.573,4.506-3.822,5.396-6.758c-2.393,1.434-4.988,2.458-7.784,3.001
	c-2.457-2.592-5.464-3.889-9.013-3.889c-3.346,0-6.277,1.159-8.667,3.549c-2.389,2.457-3.617,5.324-3.617,8.736
	c0,0.889,0.136,1.844,0.339,2.797c-5.051-0.204-9.761-1.501-14.198-3.751c-4.367-2.321-8.124-5.326-11.194-9.079
	c-1.093,1.911-1.707,3.957-1.707,6.21c0,2.048,0.548,4.026,1.503,5.87c1.025,1.775,2.319,3.208,4.026,4.369
	c-1.98-0.07-3.823-0.614-5.596-1.569c0,3.139,0.955,5.731,2.798,7.984c1.91,2.257,4.229,3.617,7.097,4.234
	c-1.091,0.271-2.184,0.407-3.274,0.407c-0.684,0-1.435-0.067-2.321-0.203c0.818,2.457,2.251,4.506,4.367,6.077
	c2.117,1.636,4.508,2.453,7.168,2.453c-4.504,3.553-9.555,5.26-15.29,5.26c-1.092,0-2.048,0-2.935-0.136
	c5.665,3.686,12.012,5.524,18.839,5.524C23.21,54.367,27.302,53.688,31.198,52.324z"/>
</svg>
