<?xml version="1.0" encoding="utf-8"?>
<!-- Generator: Adobe Illustrator 21.0.0, SVG Export Plug-In . SVG Version: 6.00 Build 0)  -->
<svg version="1.1" id="Capa_1" xmlns="http://www.w3.org/2000/svg" xmlns:xlink="http://www.w3.org/1999/xlink" x="0px" y="0px"
	 viewBox="0 0 456 456" style="enable-background:new 0 0 456 456;" xml:space="preserve">
<style type="text/css">
	.st0{fill:#FFFFFF;}
</style>
<circle cx="228" cy="228" r="208.5"/>
<path class="st0" d="M313.1,122.4l-83.5,83.6l-75-83.6c-5.9-5.9-15.6-5.9-21.5,0c-5.9,5.9-5.9,15.6,0,21.5l75,83.6l-84.7,84.7
	c-5.9,5.9-5.9,15.6,0,21.5c5.9,5.9,15.6,5.9,21.5,0l83.6-83.5l75,83.5c5.9,5.9,15.6,5.9,21.5,0c5.9-5.9,5.9-15.6,0-21.5l-75-83.5
	l84.7-84.8c5.9-5.9,5.9-15.6,0-21.5C328.7,116.4,319.1,116.4,313.1,122.4z"/>
</svg>
